<svg xmlns="http://www.w3.org/2000/svg" width="80" height="80" viewBox="0 0 80 80">
  <g fill="#EBDCC1" fill-rule="evenodd">
    <path d="M68.667 62.969L67.338 62.969C67.151 62.969 66.985 62.806 66.985 62.613L66.985 58.992 62.998 58.992 62.998 62.613C62.998 62.806 62.834 62.969 62.643 62.969L61.35 62.969C61.159 62.969 61.015 62.806 61.015 62.613L61.015 53.356C61.015 53.163 61.159 52.997 61.35 52.997L62.643 52.997C62.834 52.997 62.998 53.163 62.998 53.356L62.998 56.986 66.985 56.986 66.985 53.356C66.985 53.163 67.151 52.997 67.338 52.997L68.667 52.997C68.833 52.997 68.999 53.163 68.999 53.356L68.999 62.613C68.999 62.806 68.833 62.969 68.667 62.969zM58.63 50.986L51.362 50.986C51.172 50.986 51.003 50.82 51.003 50.629L51.003 49.343C51.003 49.15 51.172 48.987 51.362 48.987L58.63 48.987C58.843 48.987 59.011 49.15 59.011 49.343L59.011 50.629C59.011 50.82 58.843 50.986 58.63 50.986zM48.653 62.969L47.958 62.969C47.818 62.969 47.697 62.878 47.65 62.759L47.484 62.308C46.722 62.784 45.84 63.022 45.053 63.022 42.551 63.022 41.502 61.803 41.502 59.827 41.502 59.159 41.669 56.997 45.004 56.752L47.016 56.611 47.016 56.266C47.016 55.194 46.818 54.741 45.315 54.741 44.099 54.741 43.363 54.949 42.717 55.167 42.622 55.194 42.528 55.167 42.432 55.122 42.359 55.072 42.29 54.949 42.29 54.855L42.29 53.785C42.29 53.668 42.387 53.522 42.503 53.475 43.24 53.166 44.268 52.977 45.315 52.977 47.794 52.977 48.983 54.05 48.983 56.286L48.983 62.64C48.983 62.828 48.817 62.969 48.653 62.969zM46.991 58.161L44.982 58.351C43.599 58.466 43.481 59.159 43.481 59.827 43.481 60.971 44.29 61.285 45.078 61.285 45.887 61.285 46.347 61.07 47.016 60.66L46.991 58.161zM39.635 62.969L38.363 62.969C38.175 62.969 38.009 62.806 38.009 62.613L38.009 54.979 36.582 54.979C35.179 54.979 34.868 56.017 34.725 57.569L34.512 59.562C34.296 62.043 33.246 63.01 31.149 63.01 30.984 63.01 30.816 62.846 30.816 62.651L30.816 61.733C30.816 61.545 30.984 61.379 31.149 61.35 32.222 61.233 32.555 60.926 32.676 59.661L32.913 57.18C33.127 55.062 33.89 52.997 36.49 52.997L39.635 52.997C39.799 52.997 39.99 53.163 39.99 53.356L39.99 62.613C39.99 62.806 39.799 62.969 39.635 62.969zM29.671 62.969L28.678 62.969C28.538 62.969 28.419 62.878 28.371 62.759L28.183 61.803C27.608 62.308 26.628 63.022 25.295 63.022 23.128 63.022 22.005 61.412 22.005 59.339L22.005 53.356C22.005 53.163 22.172 52.997 22.363 52.997L23.63 52.997C23.823 52.997 23.989 53.163 23.989 53.356L23.989 58.742C23.989 60.384 24.438 61.03 25.604 61.03 26.439 61.03 27.369 60.456 27.99 59.792L27.99 53.356C27.99 53.163 28.132 52.997 28.349 52.997L29.648 52.997C29.864 52.997 30.003 53.163 30.003 53.356L30.003 62.64C30.003 62.828 29.838 62.969 29.671 62.969zM16.305 53.998C20.571 53.998 21.046 56.759 21.046 58.049 21.046 59.503 20.403 62.994 16.115 62.994L15.758 62.994C12.754 62.994 11.993 60.741 11.993 58.336L11.993 49.343C11.993 49.15 12.159 48.987 12.35 48.987L19.427 48.987C19.617 48.987 19.785 49.15 19.785 49.343L19.785 50.641C19.785 50.832 19.617 50.998 19.427 50.998L13.995 50.998 13.995 53.998 16.305 53.998zM13.995 58.529C13.995 60.005 14.447 60.99 15.758 60.99L16.376 60.99C18.117 60.99 19.094 59.919 19.094 58.299 19.094 56.684 18.117 55.975 16.376 55.975L13.995 55.975 13.995 58.529zM51.363 52.997L52.63 52.997C52.823 52.997 52.989 53.163 52.989 53.356L52.989 58.742C52.989 60.384 53.438 61.03 54.604 61.03 55.439 61.03 56.37 60.456 56.99 59.792L56.99 53.356C56.99 53.163 57.132 52.997 57.349 52.997L58.648 52.997C58.864 52.997 59.003 53.163 59.003 53.356L59.003 62.64C59.003 62.828 58.838 62.969 58.671 62.969L57.678 62.969C57.538 62.969 57.419 62.878 57.371 62.759L57.183 61.803C56.608 62.308 55.628 63.022 54.295 63.022 52.128 63.022 51.005 61.412 51.005 59.339L51.005 53.356C51.005 53.163 51.172 52.997 51.363 52.997zM39.9994825 16C48.2843391 16 55 22.7156609 55 31.0005175 55 39.2843391 48.2843391 46.0010351 39.9994825 46.0010351 31.7156609 46.0010351 25 39.2843391 25 31.0005175 25 22.7156609 31.7156609 16 39.9994825 16zM39.999517 17C32.2679502 17 26 23.2685991 26 31.0019326 26 38.7342999 32.2679502 45.0038652 39.999517 45.0038652 47.7320498 45.0038652 54 38.7342999 54 31.0019326 54 23.2685991 47.7320498 17 39.999517 17z"/>
    <path d="M26.0591279,27 L53.9408669,27 C54.3049884,28.2711594 54.5,29.6137947 54.5,31.0020016 C54.5,32.0297958 54.3930766,33.0326363 54.1897456,34 L25.8102523,34 C25.6069234,33.0326363 25.5,32.0297958 25.5,31.0020016 C25.5,29.6137947 25.6950116,28.2711594 26.0591279,27 Z M28.6280529,40 L51.3718705,40 C48.7159269,43.3529355 44.6089601,45.5040032 39.9994997,45.5040032 C35.3906152,45.5040032 31.2838929,43.3529355 28.6280529,40 Z M50.499519,21 L29.5003674,21 C32.1413411,18.2276564 35.8687305,16.5 39.9994997,16.5 C44.1307851,16.5 47.8584243,18.2276564 50.499519,21 Z"/>
  </g>
</svg>
