<svg xmlns="http://www.w3.org/2000/svg" width="80" height="80" viewBox="0 0 80 80">
  <path fill="#EBDCC1" fill-rule="evenodd" d="M0,28 L3,28 L3,45 L0,45 L0,28 Z M10.5,45.5 C6.91014913,45.5 4,42.5898509 4,39 C4,35.4101491 6.91014913,32.5 10.5,32.5 C14.0898509,32.5 17,35.4101491 17,39 C17,40.7239072 16.3151805,42.3772076 15.0961941,43.5961941 C13.8772076,44.8151805 12.2239072,45.5 10.5,45.5 Z M10.5,35.5 C9.08438214,35.5 7.80815514,36.3527476 7.26642164,37.660608 C6.72468814,38.9684684 7.02413328,40.4738807 8.02512627,41.4748737 C9.02611925,42.4758667 10.5315316,42.7753119 11.839392,42.2335784 C13.1472524,41.6918449 14,40.4156179 14,39 C14,37.0670034 12.4329966,35.5 10.5,35.5 Z M31,39 C31.0017628,41.8677197 29.1256672,44.3983968 26.3812506,45.2302602 C23.636834,46.0621235 20.671407,44.9989661 19.080682,42.6128787 C17.4899571,40.2267912 17.6491298,37.0805673 19.4725485,34.8672071 C21.2959673,32.6538469 24.3535521,31.8954037 27,33 L31,33 L31,36 L30.234,36 C30.7299956,36.9226344 30.9929594,37.9525191 31,39 Z M21,39 C21,40.9329966 22.5670034,42.5 24.5,42.5 C26.4329966,42.5 28,40.9329966 28,39 C28,37.0670034 26.4329966,35.5 24.5,35.5 C22.5670034,35.5 21,37.0670034 21,39 Z M24.5,49.5 C25.4282577,49.5 26.3184964,49.1312511 26.9748737,48.4748737 C27.6312511,47.8184964 28,46.9282577 28,46 L31,46 C31,49.5898509 28.0898509,52.5 24.5,52.5 C20.9101491,52.5 18,49.5898509 18,46 L21,46 C21,46.9282577 21.3687489,47.8184964 22.0251263,48.4748737 C22.6815036,49.1312511 23.5717423,49.5 24.5,49.5 Z M32,33 L35,33 L35,45 L32,45 L32,33 Z M43,36 L41,36 L41,45 L38,45 L38,36 L36,36 L36,33 L38,33 L38,30 L41,30 L41,33 L43,33 L43,36 Z M33.5,28 C34.6045695,28 35.5,28.8954305 35.5,30 C35.5,31.1045695 34.6045695,32 33.5,32 C32.3954305,32 31.5,31.1045695 31.5,30 C31.5,28.8954305 32.3954305,28 33.5,28 Z M55.683,41 L46.633,41 C47.2558033,41.9021307 48.2678733,42.457375 49.3633544,42.4979338 C50.4588354,42.5384926 51.5091927,42.059607 52.197,41.206 L54.33,43.339 C52.1100721,45.7961204 48.3935077,46.1812115 45.7169604,44.2314383 C43.0404132,42.2816652 42.2673675,38.6260467 43.9254475,35.7596394 C45.5835275,32.893232 49.1378179,31.7407712 52.1624213,33.0888419 C55.1870247,34.4369127 56.7061699,37.8506122 55.683,41 Z M49.5,35.5 C47.9572878,35.5039337 46.6002972,36.5205584 46.163,38 L52.838,38 C52.4005971,36.5202045 51.0430826,35.503492 49.5,35.5 Z M65.594,37.4 C64.8541855,35.9640617 63.2277753,35.2209294 61.6579445,35.6015544 C60.0881137,35.9821794 58.9826673,37.3876845 58.9826673,39.003 C58.9826673,40.6183155 60.0881137,42.0238206 61.6579445,42.4044456 C63.2277753,42.7850706 64.8541855,42.0419383 65.594,40.606 L67.777,42.788 C66.1323756,45.0836259 63.1936736,46.0547218 60.5050477,45.1910212 C57.8164219,44.3273207 55.993063,41.826449 55.993063,39.0025 C55.993063,36.178551 57.8164219,33.6776793 60.5050477,32.8139788 C63.1936736,31.9502782 66.1323756,32.9213741 67.777,35.217 L65.594,37.4 Z M77,45 L77,38 C77,36.6192881 75.8807119,35.5 74.5,35.5 C73.1192881,35.5 72,36.6192881 72,38 L72,45 L69,45 L69,29 L72,29 L72,34.127 C71.99,33.135 73.595,32.5 74.5,32.5 C75.9586907,32.5 77.3576372,33.0794626 78.3890873,34.1109127 C79.4205374,35.1423628 80,36.5413093 80,38 L80,45 L77,45 Z"/>
</svg>
