<svg xmlns="http://www.w3.org/2000/svg" width="80" height="80" viewBox="0 0 80 80">
  <path fill="#EBDCC1" fill-rule="evenodd" d="M63.6000338,38.6860143 C64.4290338,37.5210143 65.7810338,36.9290143 66.6940338,35.8860143 C67.3761427,35.2784639 67.8542148,34.475275 68.0630338,33.5860143 C67.9986167,32.6981863 67.5395032,31.8860215 66.8120338,31.3730143 C66.4452732,31.0656406 65.940489,30.9817652 65.4940338,31.1540143 C64.1534331,31.7414223 63.0250902,32.7256248 62.2610338,33.9740143 C61.5143959,34.8724512 61.2903818,36.0952422 61.6700338,37.2000143 C61.9751422,38.0244932 62.7249532,38.6018088 63.6000338,38.6860143 Z M78.3400338,44.7860143 C77.9846002,45.1094711 77.6669122,45.4721117 77.3930338,45.8670143 C74.9755932,48.7109591 72.0090339,51.0377457 68.6710338,52.7080143 C67.9621985,53.1748837 67.0812419,53.2989518 66.2710338,53.0460143 C65.7479344,52.6141891 65.429229,51.9833048 65.3920338,51.3060143 C68.0646198,49.3611821 70.3229159,46.9033346 72.0350338,44.0760143 C72.4635833,43.3550571 72.723725,42.5466011 72.7960338,41.7110143 C72.6384083,40.8977169 72.1478261,40.1874062 71.4430338,39.7520143 C70.751121,39.0882974 69.7380193,38.8841184 68.8430338,39.2280143 C67.9635362,39.7080871 67.1650963,40.3236215 66.4770338,41.0520143 C64.3422221,43.0190101 62.9064262,45.6280162 62.3870338,48.4840143 C62.3020338,49.0080143 62.4030338,49.5480143 62.3190338,50.0720143 C61.4575281,50.9446454 60.4202355,51.6240158 59.2760338,52.0650143 C58.764357,52.3307699 58.1355559,52.1878413 57.7890338,51.7270143 C57.6792339,51.0851938 57.7678444,50.4251501 58.0430338,49.8350143 C58.4330471,48.8092969 58.8903756,47.8104567 59.4120338,46.8450143 C60.2574322,45.4671882 61.2801834,44.2064001 62.4540338,43.0950143 C62.9151705,42.705363 63.1963744,42.1436779 63.2320338,41.5410143 C62.8770338,41.0010143 62.4200338,40.5410143 62.1160338,39.9870143 C61.9882761,39.8127835 61.7862851,39.7084521 61.5702591,39.7051135 C61.354233,39.701775 61.1491145,39.7998146 61.0160338,39.9700143 C58.7680338,41.6590143 57.4160338,44.2270143 56.2500338,46.7100143 C55.8174522,47.2647798 55.0199606,47.3702516 54.4580338,46.9470143 C54.1681224,46.1195734 53.9365551,45.2728325 53.7650338,44.4130143 C53.6421642,44.1825077 53.3701251,44.0753022 53.1230338,44.1600143 C52.3384151,44.3044209 51.6179472,44.6887636 51.0610338,45.2600143 C50.8140546,45.6660471 50.758452,46.1602521 50.9090338,46.6110143 C50.9120534,47.3510438 50.706912,48.0770088 50.3170338,48.7060143 C49.7852665,50.0166723 49.0788789,51.2494868 48.2170338,52.3710143 C47.7964855,52.9610996 47.2619646,53.4609379 46.6450338,53.8410143 C46.4233683,53.86703 46.2008267,53.8000836 46.0303052,53.6560876 C45.8597837,53.5120917 45.7565109,53.3039059 45.7450338,53.0810143 C45.5606214,52.1186636 45.4934656,51.1375169 45.5450338,50.1590143 C45.6393425,49.6281711 45.9290337,49.151893 46.3570338,48.8240143 C50.5086534,44.1246509 54.1615396,39.0072589 57.2570338,33.5540143 C58.3703428,31.5855023 59.3201984,29.5289312 60.0970338,27.4050143 C60.2298516,26.6177487 59.9786642,25.814395 59.4210338,25.2430143 C58.9374196,24.4601604 58.0760287,23.9912443 57.1560338,24.0100143 C56.3300934,24.3475343 55.594761,24.8739459 55.0090338,25.5470143 C51.1199056,29.5181238 47.9615418,34.1439588 45.6790338,39.2120143 C44.2567337,42.3656265 43.2619415,45.6950527 42.7210338,49.1120143 C42.2814933,49.778261 41.6921055,50.3323746 41.0000338,50.7300143 C40.8239251,50.8277012 40.6125571,50.8385237 40.427392,50.7593348 C40.2422268,50.6801459 40.1040474,50.5198338 40.0530338,50.3250143 C39.9749133,49.531093 40.1153065,48.7309207 40.4590338,48.0110143 C40.9660338,46.6770143 41.6760338,45.4270143 42.1150338,44.0750143 C42.4035143,43.2624847 42.1769423,42.3561966 41.5400338,41.7750143 C41.0670338,41.3190143 40.3240338,41.1500143 40.0530338,40.5080143 C39.8330338,39.7310143 40.3740338,39.0380143 40.5600338,38.3290143 C40.7322877,37.9125765 40.5555332,37.4336849 40.1540338,37.2290143 C39.4081033,36.8185504 38.4918443,36.8778401 37.8050338,37.3810143 C36.747486,38.4295175 36.219494,39.899224 36.3680338,41.3810143 C35.7430338,42.8510143 34.9680338,44.2360143 34.2390338,45.6550143 C33.5836746,46.9753438 32.8140746,48.2358147 31.9390338,49.4220143 C31.6053161,49.9116621 31.1510411,50.3070432 30.6200338,50.5700143 C30.3077499,50.2742631 30.2195576,49.8119583 30.4010338,49.4220143 C30.9750338,47.2930143 32.0570338,45.3340143 32.7840338,43.2570143 C33.1220338,42.2260143 31.7840338,41.6570143 30.9750338,41.8890143 C30.515194,42.2134069 30.1383291,42.6416625 29.8750338,43.1390143 C28.6250338,45.0480143 27.6610338,47.1090143 26.4610338,49.0390143 C25.9522452,49.8649277 25.2793631,50.5776314 24.4840338,51.1330143 C24.0827413,51.4295304 23.5200709,51.3629732 23.1990338,50.9810143 C22.5610108,50.15731 22.4126051,49.0551407 22.8100338,48.0920143 C23.3527718,46.5662339 24.1785524,45.1565714 25.2440338,43.9370143 C26.1188763,42.7930527 27.1422099,41.770728 28.2870338,40.8970143 C28.8679824,40.3862248 29.6930194,40.260107 30.4000338,40.5740143 C31.0590338,40.8740143 31.5150338,41.6740143 32.3100338,41.6380143 C33.1556406,41.3816884 33.6963886,40.5566687 33.5940338,39.6790143 C33.531303,38.8521648 32.8956507,38.183497 32.0730338,38.0790143 C29.6542995,37.6351659 27.1643516,38.3052257 25.2950338,39.9030143 C23.8642173,41.0293304 22.6596584,42.4164394 21.7450338,43.9910143 C21.6450338,44.1430143 21.5090338,44.2780143 21.3900338,44.4300143 C20.9487155,42.27857 19.3451845,40.5524024 17.2320338,39.9540143 C17.6936957,39.5237145 18.1915325,39.1339431 18.7200338,38.7890143 C20.9007026,37.2738429 22.7806495,35.3664292 24.2640338,33.1640143 C25.2270338,31.6950143 26.3090338,30.1570143 26.4780338,28.3500143 C26.5852264,26.2866753 25.8036819,24.2762092 24.3310338,22.8270143 C22.8351989,21.2283846 20.7995796,20.2413961 18.6180338,20.0570143 C15.9952782,19.8476063 13.3585309,20.216628 10.8940338,21.1380143 C8.87316783,21.6921992 6.96709782,22.601722 5.26503381,23.8240143 C4.18224129,24.7887462 3.46086403,26.0939275 3.22003381,27.5240143 C3.14786271,27.6847295 3.14502085,27.8680645 3.212176,28.0309394 C3.27933116,28.1938143 3.41056265,28.3218693 3.57503381,28.3850143 C3.96662854,28.4082558 4.35734899,28.3267982 4.70703381,28.1490143 C6.14403381,27.4730143 7.59803381,26.8820143 9.06803381,26.2910143 C8.96351488,26.8254756 8.81672018,27.3507933 8.62903381,27.8620143 C6.55036715,34.2300143 4.49936715,40.5966809 2.47603381,46.9620143 C1.71603381,49.4450143 0.854033814,51.9110143 0.194033814,54.4450143 C0.094237204,55.0010695 0.0294431373,55.5628407 3.38143159e-05,56.1270143 C-0.00171642916,56.4375731 0.0644982816,56.7447548 0.194033814,57.0270143 C0.688507086,57.8582983 1.57699883,58.3755139 2.54403381,58.3950143 C3.05318136,58.5104438 3.58373933,58.327132 3.91303381,57.9220143 C4.15003381,57.2460143 4.26803381,56.5370143 4.48803381,55.8610143 C4.84303381,56.3170143 4.97803381,56.8920143 5.31603381,57.3480143 C6.12105695,58.6057157 7.49174914,59.3885946 8.98403381,59.4430143 C10.91168,59.4427433 12.7952661,58.8664196 14.3930338,57.7880143 C16.9682921,56.0313252 19.0607226,53.6555483 20.4780338,50.8790143 C20.9334266,51.8597606 21.6032369,52.7257297 22.4380338,53.4130143 C23.3261164,54.0293845 24.5122429,53.9949159 25.3630338,53.3280143 C26.4013467,52.4225728 27.3212772,51.3897509 28.1010338,50.2540143 C28.2811358,51.0518678 28.6720671,51.7867635 29.2330338,52.3820143 C30.2179283,53.1427262 31.6105645,53.0709496 32.5120338,52.2130143 C33.6765701,51.0908049 34.6476522,49.7838649 35.3860338,48.3450143 C36.4680338,46.5210143 37.4140338,44.6290143 38.3780338,42.7370143 C38.8230485,42.888298 39.1481187,43.2729964 39.2230338,43.7370143 C39.0903818,44.5699029 38.8200207,45.3749031 38.4230338,46.1190143 C37.728385,47.4652511 37.468772,48.9939279 37.6800338,50.4940143 C38.0313071,51.7349031 39.0055716,52.7019621 40.2490338,53.0440143 C41.1907704,53.2479541 42.1736083,52.9976155 42.9030338,52.3680143 C42.9979562,53.9314155 43.833073,55.3557205 45.1510338,56.2020143 C45.9937617,56.767214 47.0802013,56.8191876 47.9730338,56.3370143 C49.4350095,55.460036 50.6277936,54.1980649 51.4210338,52.6890143 C52.2478877,51.4449242 52.8384142,50.0591191 53.1630338,48.6010143 C53.7713505,48.9243709 54.4186323,49.1683619 55.0890338,49.3270143 C54.9074122,50.1690369 54.9840872,51.0462686 55.3090338,51.8440143 C55.8648682,53.0266862 56.897483,53.9171347 58.1490338,54.2930143 C59.8900338,54.5800143 61.5490338,53.6850143 62.9320338,52.7220143 C63.305899,53.1683551 63.7066432,53.5914742 64.1320338,53.9890143 C65.2880891,54.977664 66.790945,55.4639774 68.3070338,55.3400143 C70.7240338,55.2050143 72.7870338,53.8200143 74.6970338,52.4680143 C76.5526777,51.2459088 78.2159289,49.7542067 79.6320338,48.0420143 C79.89595,47.7538578 80.0243696,47.3667798 79.9850338,46.9780143 C79.927752,46.6852245 79.8072844,46.4084563 79.6320338,46.1670143 C79.2910338,45.6610143 79.0800338,44.7670143 78.3360338,44.7840143 L78.3400338,44.7860143 Z M46.8000338,44.3110143 C47.7607241,41.5646726 48.9128853,38.8891056 50.2480338,36.3040143 C51.632171,33.5482871 53.4277384,31.019319 55.5730338,28.8040143 C55.7208081,28.5929756 55.9577271,28.461969 56.2150338,28.4490143 C56.1458176,28.9501332 55.9916048,29.4357684 55.7590338,29.8850143 C53.5732432,35.1344374 50.6288697,40.0346511 47.0200338,44.4290143 C46.9200338,44.5290143 46.8200338,44.6490143 46.6990338,44.7500143 C46.7280338,44.6320143 46.7610338,44.4120143 46.8000338,44.3110143 Z M12.3640338,27.3520143 C11.9760338,26.6420143 11.2640338,26.1860143 10.8260338,25.5280143 C13.032706,24.5066594 15.3619334,23.7742804 17.7560338,23.3490143 C19.0079836,23.0910149 20.3069079,23.1844627 21.5090338,23.6190143 C22.5033372,24.0115097 23.2753801,24.8204732 23.6210338,25.8320143 C23.8177812,27.0056283 23.5901879,28.2109511 22.9790338,29.2320143 C21.894899,31.1579758 20.5654698,32.935142 19.0240338,34.5190143 C17.4688713,35.9178966 15.8075563,37.1940566 14.0550338,38.3360143 C13.5473366,38.6999112 12.9630857,38.942779 12.3470338,39.0460143 C11.2470338,39.1810143 10.2010338,39.5190143 9.13603381,39.7380143 C9.99803381,36.7310143 11.0290338,33.7750143 11.9250338,30.7860143 C12.3301291,29.6895091 12.4802564,28.5151643 12.3640338,27.3520143 Z M14.8150338,53.4660143 C13.7330353,54.5484228 12.4970168,55.4649906 11.1470338,56.1860143 C10.5359982,56.5661479 9.79078937,56.6645373 9.10203381,56.4560143 C8.60817555,56.1647995 8.31052444,55.6291805 8.32403381,55.0560143 C8.37059423,54.4459119 8.62061627,53.8691005 9.03403381,53.4180143 C9.8586779,52.299187 11.0710601,51.5282546 12.4340338,51.2560143 C13.2171402,51.0102596 14.0649494,51.076909 14.8000338,51.4420143 C15.310821,52.0178678 15.31723,52.8826534 14.8150338,53.4660143 Z M18.3000338,46.7740143 C18.0656957,48.04921 17.6080007,49.2730025 16.9480338,50.3890143 C16.7149459,50.2527115 16.5085886,50.0751561 16.3390338,49.8650143 C15.1187022,48.7576201 13.5053848,48.185629 11.8600338,48.2770143 C9.82679703,48.5299203 7.92076048,49.4028075 6.40103381,50.7770143 C6.18265589,50.9992683 5.93179684,51.1870754 5.65703381,51.3340143 C6.43403381,48.6820143 7.19503381,46.0130143 7.97303381,43.3610143 C9.78579049,43.3433321 11.5774031,42.969584 13.2460338,42.2610143 C13.5352951,42.0794769 13.8685826,41.9802513 14.2100338,41.9740143 C15.4949314,42.0647757 16.6999445,42.630918 17.5900338,43.5620143 C18.2827197,44.4784016 18.5419272,45.6510419 18.3000338,46.7740143 Z M69.7350338,41.5880143 C69.9028515,41.3944557 70.1573707,41.2991993 70.4110338,41.3350143 C70.4835243,41.6212846 70.4411742,41.9245539 70.2930338,42.1800143 C69.2721276,44.3920158 67.7078718,46.3095794 65.7460338,47.7540143 C65.6111234,47.8543229 65.455208,47.9227069 65.2900338,47.9540143 C65.9334153,45.3571892 67.5158831,43.0907191 69.7320338,41.5920143 L69.7350338,41.5880143 Z"/>
</svg>
