<svg xmlns="http://www.w3.org/2000/svg" width="80" height="80" viewBox="0 0 80 80">
  <path fill="#EBDCC1" fill-rule="evenodd" d="M79.081,36.354 L78.601,38.561 L76.967,38.561 L76.07,42.765 C76.033,43 75.947,43.209 76.033,43.468 C76.167,43.85 77.533,43.69 77.533,43.69 L77.004,45.885 C77.004,45.885 74.225,46.205 73.29,45.552 C72.872,45.268 72.418,44.676 72.7,43.406 L73.77,38.573 L71.864,38.561 L70.253,45.934 L66.836,45.934 L68.434,38.561 L66.676,38.561 L67.168,36.354 L68.876,36.354 C69.184,35.12 69.454,34.282 70.217,33.641 C71.261,32.79 73.979,33.123 73.979,33.123 L73.598,34.936 C72.639,34.936 72.455,35.305 72.294,36.033 L72.233,36.354 L74.261,36.354 L74.766,34.035 L77.938,34.035 L77.447,36.354 L79.081,36.354 Z M60.492,46.255 C53.496,45.959 55.599,35.626 62.779,35.971 C69.528,36.304 67.61,46.539 60.492,46.255 Z M62.544,38.228 C60.221,37.759 58.488,43.357 60.701,43.813 C63.16,44.331 64.808,38.684 62.544,38.228 Z M56.163,39.14 L52.844,39.14 C52.844,39.14 53.2,37.907 51.701,37.907 C50.336,37.907 50.004,39.14 51.578,39.473 C53.496,39.892 55.696,39.991 55.819,42.469 C55.856,43.16 55.451,46.391 50.434,46.292 C45.835,46.193 45.516,44.023 45.639,43.012 C44.804,44.775 42.713,46.341 39.923,46.242 C35.685,46.108 34.799,42.244 36.348,39.295 C35.597,39.299 33.963,39.609 33.369,42.531 L32.595,45.946 L29.311,45.946 L31.463,36.354 L34.574,36.354 L34.303,37.537 C34.734,37.007 35.25,36.674 35.902,36.452 C36.43,36.279 36.935,36.193 37.525,36.193 L36.98,38.32 C38.105,36.886 39.895,35.868 42.221,35.984 C45.479,36.144 46.722,38.622 46.327,41.064 C46.267,41.495 46.23,41.557 46.107,41.594 L42.909,42.654 L49.401,42.642 C49.401,42.642 48.848,44.085 50.889,44.097 C52.303,44.097 52.856,42.482 50.951,42.149 C50.078,41.989 46.697,41.421 47.078,38.807 C47.397,36.662 49.623,35.91 52.058,35.947 C57.037,36.008 56.103,38.943 56.163,39.14 Z M41.963,38.215 C39.664,37.759 37.943,43.332 40.143,43.801 C42.578,44.306 44.213,38.672 41.963,38.215 Z M26.607,39.917 C26.656,39.781 26.779,38.351 25.635,38.376 C23.508,38.437 21.996,43.727 24.344,43.776 C25.426,43.813 25.931,42.555 26.029,42.395 L29.644,42.395 C29.644,42.469 28.549,46.316 23.742,46.218 C17.299,46.082 18.972,35.725 26.287,36.095 C30.443,36.304 30.234,39.769 30.197,39.917 L26.607,39.917 Z M17.226,35.108 L17.681,33 L21.148,33 L20.681,35.108 L17.226,35.108 Z M18.283,45.946 L14.804,45.934 L16.931,36.354 L20.41,36.354 L18.283,45.946 Z M10.193,45.934 L11.73,38.98 L8.275,45.934 L5.607,45.934 L5.472,38.98 L3.751,45.934 L5.68434189e-14,45.934 L2.865,33 L7.98,33 L8.213,40.225 L11.656,33 L16.783,33 L13.906,45.934 L10.193,45.934 Z"/>
</svg>
