<svg xmlns="http://www.w3.org/2000/svg" width="80" height="80" viewBox="0 0 80 80">
  <path fill="#EBDCC1" fill-rule="evenodd" d="M50.6455477,47.9507547 C47.8031955,47.6406799 46.2011425,46.4003808 44.0822981,42.2660504 C42.3768868,38.9585861 41.3433042,38.2867574 40.3097216,37.8733243 C41.0332294,37.5115704 41.2916251,35.4444052 41.653379,34.979293 C41.653379,35.7028009 42.3252077,36.167913 43.1003946,36.167913 C45.7877094,36.167913 45.632672,31.6718287 43.0487155,31.6718287 C41.4466625,31.6718287 40.5164381,32.7054113 39.9996468,34.8759348 C39.4828555,37.3048539 38.1908773,37.356533 37.7774442,37.356533 L37.7774442,35.1860096 C37.7774442,33.6356356 37.9841607,33.5322774 38.4492729,33.5322774 C39.6378929,33.5322774 39.5862138,31.9302243 38.3975938,31.9302243 L33.6431138,31.9302243 C32.5578521,31.9302243 32.5578521,33.5322774 33.5914347,33.5322774 C34.0048677,33.5322774 34.2632634,33.790673 34.2632634,35.1860096 L34.2632634,43.9197826 C34.2632634,45.3151191 34.0048677,45.5218356 33.6431138,45.5735147 C33.4363973,45.5218356 33.1780016,45.2117608 32.9712851,44.5916113 L29.353746,32.4986948 C28.9919921,31.3100748 27.4932973,31.2067165 27.1832225,32.4470156 L24.1341538,42.9895582 C23.5656834,45.0050443 23.3589669,45.4701565 22.997213,45.5218356 L22.8938547,45.5218356 C22.5321008,45.5218356 22.3770634,44.9533652 22.3770634,43.9197826 L22.3770634,35.1860096 C22.3770634,33.5322774 22.8421756,33.5322774 23.0488921,33.5322774 C24.1341538,33.5322774 24.1341538,31.9302243 22.997213,31.9302243 L18.3977704,31.9302243 C17.9326582,31.9302243 17.6742625,32.18862 17.5709043,32.4986948 C17.467546,32.18862 17.2091504,31.9302243 16.7440382,31.9302243 L12.0412374,31.9302243 C11.4727669,31.9302243 11.1626921,32.3436574 11.1626921,32.7054113 C11.1626921,33.1705235 11.524446,33.4805983 11.9895582,33.4805983 C12.2479539,33.4805983 12.6613869,33.4805983 12.6613869,35.1343304 L12.6613869,37.5632495 C12.6613869,40.8190347 14.9352686,42.2143713 18.8112034,40.6123182 L18.8112034,43.9197826 C18.8112034,45.3151191 18.5528078,45.5735147 18.0360165,45.5735147 C16.6406799,45.5735147 16.6923591,47.1755678 18.0876956,47.1755678 L22.6354591,47.1755678 L22.7904964,47.1755678 L26.1496399,47.1755678 C27.3382599,47.1755678 27.3382599,45.5735147 26.0979608,45.5735147 C25.2710947,45.5735147 25.0643782,45.3667982 25.5294903,43.713066 L25.9429234,42.111013 L28.4752008,42.111013 L28.8886338,43.5063495 C29.4571042,45.5218356 29.353746,45.5218356 28.8369547,45.6251939 C28.0100886,45.7802313 27.8550512,47.1755678 29.0953503,47.1755678 L33.5914347,47.1755678 L38.3459147,47.1755678 C39.5345347,47.1755678 39.5345347,45.5735147 38.3975938,45.5735147 C38.0358399,45.5735147 37.674086,45.4701565 37.674086,43.9197826 L37.674086,38.9585861 C38.1391981,39.0102652 38.2942355,39.32034 40.8265129,43.8164243 C43.1520738,47.9507547 45.219239,49.9662408 50.6455477,49.4494495 C52.0408842,49.3460912 51.9375259,48.1057921 50.6455477,47.9507547 Z M18.9145617,38.8552278 C16.7957173,39.733773 16.278926,39.2686608 16.278926,36.6847043 L16.278926,35.2376887 C16.278926,33.5839565 16.7440382,33.5839565 16.8990756,33.5839565 C17.3125086,33.5839565 17.5709043,33.3255609 17.6742625,33.0154861 C17.7776208,33.3255609 17.9843373,33.5839565 18.3977704,33.5839565 C18.7595243,33.5839565 18.9145617,34.1007478 18.9145617,35.2376887 C18.9145617,35.1860096 18.9145617,38.7518695 18.9145617,38.8552278 Z M26.563073,40.4572808 L27.389939,37.4598913 L28.2168051,40.4572808 L26.563073,40.4572808 Z M64.650592,37.9766826 C65.9942493,37.2531748 66.6143989,36.0128756 66.6143989,34.8759348 C66.6143989,32.9638069 65.064025,31 61.7565607,31 C58.8625294,31 57.3638346,31.5167913 55.8651398,32.1369409 C54.6765198,32.602053 55.2966694,34.1007478 56.3819311,33.7389939 C56.7953642,33.5839565 57.2604763,33.4289191 57.7772676,33.3255609 L57.7772676,44.0231408 C57.7772676,45.2117608 57.6222302,45.6251939 57.1054389,45.676873 C55.9684981,45.676873 55.9684981,47.278926 57.2087972,47.278926 L62.9451807,47.278926 C65.7358537,47.278926 67.4929441,45.3151191 67.4929441,42.4727669 C67.3895859,40.2505643 66.3560033,38.545153 64.650592,37.9766826 Z M61.2397694,38.9069069 C62.3767102,38.6485113 63.461972,40.1472061 63.461972,42.6278043 C63.461972,44.3332156 62.9451807,45.5735147 62.2216728,45.5735147 C61.5498441,45.5735147 61.2914485,45.0567234 61.2914485,43.8164243 C61.2397694,43.8681034 61.2397694,38.9585861 61.2397694,38.9069069 Z M61.2397694,37.356533 L61.2397694,32.8087696 C62.0149563,32.7054113 63.1518972,33.3255609 63.1518972,35.3410469 C63.2035763,36.8397417 62.0666354,37.356533 61.2397694,37.356533 Z M50.800585,31.5684704 C47.3897625,31.5684704 44.5990894,35.1343304 44.5990894,39.5270565 C44.5990894,43.9197826 47.3897625,47.4856426 50.800585,47.4856426 C54.2114076,47.4856426 57.0020807,43.9197826 57.0020807,39.5270565 C57.0537598,35.1343304 54.2630868,31.5684704 50.800585,31.5684704 Z M50.800585,45.4184773 C49.6636442,45.4184773 48.3199868,42.9895582 48.3199868,39.5270565 C48.3199868,36.0645548 49.6119651,33.6356356 50.800585,33.6356356 C51.9375259,33.6356356 53.2295042,36.0645548 53.2295042,39.5270565 C53.2811833,42.9895582 51.989205,45.4184773 50.800585,45.4184773 Z M6.20149563,31.5684704 C2.79067303,31.5684704 0,35.1343304 0,39.5270565 C0,43.9197826 2.79067303,47.4856426 6.20149563,47.4856426 C9.61231823,47.4856426 12.4029913,43.9197826 12.4029913,39.5270565 C12.4029913,35.1343304 9.61231823,31.5684704 6.20149563,31.5684704 Z M6.20149563,45.4184773 C5.06455477,45.4184773 3.72089738,42.9895582 3.72089738,39.5270565 C3.72089738,36.0645548 5.01287564,33.6356356 6.20149563,33.6356356 C7.3384365,33.6356356 8.68209388,36.0645548 8.68209388,39.5270565 C8.63041475,42.9895582 7.3384365,45.4184773 6.20149563,45.4184773 Z M73.797798,31.5684704 C70.3869754,31.5684704 67.5963024,35.1343304 67.5963024,39.5270565 C67.5963024,43.9197826 70.3869754,47.4856426 73.797798,47.4856426 C77.2086206,47.4856426 79.9992936,43.9197826 79.9992936,39.5270565 C80.0509728,35.1343304 77.2602997,31.5684704 73.797798,31.5684704 Z M73.797798,45.4184773 C72.6608571,45.4184773 71.3171998,42.9895582 71.3171998,39.5270565 C71.3171998,36.0645548 72.609178,33.6356356 73.797798,33.6356356 C74.9347389,33.6356356 76.2783963,36.0645548 76.2783963,39.5270565 C76.2783963,42.9895582 74.986418,45.4184773 73.797798,45.4184773 Z"/>
</svg>
