<svg xmlns="http://www.w3.org/2000/svg" width="80" height="80" viewBox="0 0 80 80">
  <g fill="#EBDCC1" fill-rule="evenodd">
    <path d="M43.115,27.75957 C42.9330101,28.2580797 42.5124897,28.6316251 41.996,28.75357 C41.9406566,28.6129348 41.8991276,28.4672485 41.872,28.31857 C42.2281827,28.023298 42.6577523,27.8301126 43.115,27.75957 Z M36.898,28.44357 C37.312,28.34357 37.141,28.82157 37.519,28.75357 C37.897,28.82057 37.727,28.33957 38.141,28.44357 C38.1407238,28.7879196 37.8613495,29.0668462 37.517,29.06657 C37.1726505,29.0662939 36.8937239,28.7869196 36.894,28.44257 L36.898,28.44357 Z M41.934,30.05957 C43.0875651,31.1975855 43.114281,33.0507745 41.994,34.22157 C42.0018966,33.6209201 41.8744087,33.0262045 41.621,32.48157 C41.699812,33.6876409 40.8293245,34.7479734 39.631,34.90557 C39.601,34.52157 40.138,34.16957 40.131,33.60557 C39.817,33.83357 39.164,34.57957 38.39,34.35057 C38.5593364,34.0896711 38.746446,33.8407484 38.95,33.60557 C38.9446489,33.397326 38.9239259,33.1897615 38.888,32.98457 C39.0041273,32.8688559 39.1601217,32.8019501 39.324,32.79757 C39.3543719,33.0660471 39.3543719,33.337093 39.324,33.60557 C39.7950057,33.2963731 40.0191859,32.7232898 39.883,32.17657 C40.4712936,32.5986619 40.7009332,33.3644011 40.442,34.04057 C41.076,33.89957 41.413,32.43057 40.942,31.67957 C41.6570953,31.6933867 42.2336356,32.2694855 42.248,32.98457 C42.985,31.86257 41.579,30.99857 41.934,30.05857 L41.934,30.05957 Z M38.203,30.37057 C38.82,30.14957 38.903,30.99657 39.571,30.92957 C38.937,31.37157 38.673,30.48857 38.203,30.37157 L38.203,30.37057 Z M75.323,62.99857 C75.006,62.39857 74.73,61.75657 74.453,61.11657 L68.547,61.11657 C68.2231158,61.7278244 67.9323621,62.3560661 67.676,62.99857 L59.594,62.99857 C59.635,59.03257 59.511,54.90457 59.656,51.03957 L64.319,51.03957 L64.319,59.78157 C65.603,56.92657 66.797,53.98157 67.987,51.03957 L74.887,51.03957 C76.593,55.03957 78.423,58.91857 80.047,62.99857 L75.323,62.99857 Z M71.344,54.31657 C70.865,55.63057 70.284,56.84357 69.79,58.14057 L73.147,58.14057 C72.6200119,56.8323026 72.0180124,55.5555161 71.344,54.31657 Z M31.737,30.74257 C32.789,31.21657 34.377,30.81857 35.716,30.86657 C34.551,31.24557 32.531,31.88857 31.737,30.74257 Z M54.028,51.04257 L54.028,57.29557 C53.7438164,57.1912013 53.5178206,56.9703004 53.407,56.68857 C51.974,54.88257 50.393,52.79757 48.868,51.04357 L43.024,51.04357 C42.948,53.74857 43.075,56.78057 43.024,59.66357 C41.683,56.86357 40.475,53.93657 39.232,51.04357 L32.394,51.04357 C31.286,53.32057 30.418,55.83157 29.348,58.14357 L25.058,58.14357 C24.981,60.01157 22.503,60.75157 20.892,59.90357 C19.46,59.15057 18.98,56.30357 19.96,54.68257 C20.978,53.00157 24.883,53.00457 24.934,55.59257 L29.97,55.59257 C30.109,50.67857 21.96,49.35957 17.784,51.52557 C15.9079386,52.4888089 14.7661337,54.4578558 14.862,56.56457 C14.619,56.68957 14.506,56.31357 14.362,56.20057 C12.9302659,55.3756661 11.2855458,54.9952049 9.637,55.10757 C8.237,55.10757 5.943,55.45257 5.782,54.25757 C5.594,52.88957 8.076,52.43657 9.077,53.16257 C9.45885453,53.5840117 9.69788436,54.1152669 9.76,54.68057 L14.921,54.68057 C14.8787491,53.8581085 14.5738132,53.0708832 14.051,52.43457 C11.415,49.63457 2.576,49.96857 0.87,53.22357 C-0.285,55.42357 1.475,57.35757 3.233,57.89757 C4.642,58.33157 9.825,57.61457 10.01,59.23357 C10.162,60.56257 7.449,61.10457 6.155,60.32657 C5.7684699,59.9634057 5.48869794,59.5013843 5.346,58.99057 C3.584,59.03057 1.658,58.91057 0,59.05157 L0,59.41557 C0.534,62.31557 3.416,62.91557 6.653,63.17857 L10.54,63.17857 C10.59,63.16957 14.688,62.43357 15.171,59.87857 C16.3986281,61.9234846 18.6078924,63.1757299 20.993,63.17857 L23.502,63.17857 C25.0082265,63.1364073 26.4726723,62.6740055 27.73,61.84357 C27.6648008,62.2449007 27.5390337,62.6340031 27.357,62.99757 L31.957,62.99757 C32.349,62.46957 32.473,61.67957 32.828,61.11557 L38.794,61.11557 C39.011,61.79457 39.362,62.34257 39.603,62.99757 L47.437,62.99757 L47.437,56.07657 C47.59,56.01757 47.671,56.22757 47.748,56.31957 C49.49,58.38657 51.265,60.85157 53.033,62.93657 L58.566,62.93657 L58.566,51.03657 L54.028,51.03657 L54.028,51.04257 Z M34.128,58.14257 C34.576,56.77857 35.215,55.60257 35.683,54.25757 C36.323,55.49357 36.844,56.84757 37.483,58.08157 C36.494,58.22157 35.231,58.10057 34.133,58.14057 L34.128,58.14257 Z M43.799,23.34757 C43.333,24.60157 42.818,25.80657 42.307,27.01357 C42.9604741,26.8785753 43.6268138,26.8158649 44.294,26.82657 C44.1674494,27.5305486 43.8685552,28.1922384 43.424,28.75257 C44.6499136,29.5279539 45.3627296,30.9038989 45.289,32.35257 C45.0011502,31.9519628 44.6160585,31.631225 44.17,31.42057 C45.317,32.32057 45.535,34.99457 44.481,36.52057 C44.3680595,35.9411313 44.0337343,35.4285233 43.549,35.09157 C43.9844393,35.921239 44.0277893,36.9017261 43.6672697,37.7665865 C43.3067501,38.6314469 42.5798124,39.2908373 41.684,39.56557 C41.751,38.74257 41.884,37.73257 41.249,37.45257 C41.503,40.02557 40.449,41.28757 38.14,41.30457 C38.5696841,40.1970898 38.6774973,38.9906918 38.451,37.82457 C37.9910001,38.5894971 37.7952824,39.4844578 37.894,40.37157 C36.3197472,39.5199406 35.6053945,37.6447646 36.214,35.96157 C35.9319458,36.1248096 35.6796873,36.3347996 35.468,36.58257 C34.8811771,35.5793157 35.0911655,34.3004865 35.968,33.53757 C35.5092296,33.5469444 35.0673472,33.3645042 34.7488178,33.0342055 C34.4302884,32.7039068 34.2639938,32.2556987 34.29,31.79757 C35.1076533,32.2499921 36.1057423,32.2262918 36.901,31.73557 C35.733,30.71857 34.117,32.09757 32.801,31.92257 C31.587,31.76057 31.156,30.65857 30.687,29.62257 C31.5267538,30.2184697 32.5186828,30.563217 33.547,30.61657 C35.16,30.62757 36.72,29.95457 37.216,31.48657 C37.4166757,31.4106666 37.5750965,31.2522458 37.651,31.05157 C37.335,30.61357 36.599,30.73257 36.159,30.43057 C35.9684163,30.1881952 35.7605399,29.9599322 35.537,29.74757 C34.604,29.37857 34.032,30.03257 33.174,30.43057 C33.188,28.54057 34.501,26.89857 36.474,27.75857 C36.592,27.64857 36.667,27.49557 36.785,27.38557 C36.27,26.01557 35.675,24.72557 35.169,23.34657 C35.4769471,23.2970221 35.7874984,23.4186956 35.979825,23.6642499 C36.1721516,23.9098042 36.2158814,24.2404614 36.094,24.52757 C36.823,23.99657 37.633,24.73957 37.276,25.64557 C37.064895,25.8229326 36.8045762,25.9314569 36.53,25.95657 C36.93,27.05157 38.788,26.66257 38.955,25.64557 C38.6003865,25.7979068 38.1875438,25.6826788 37.9630786,25.3687161 C37.7386134,25.0547535 37.7631368,24.6268339 38.022,24.34057 C38.2835172,24.2571605 38.5565063,24.2153179 38.831,24.21657 C37.857,22.81657 41.031,22.38657 40.074,24.21657 C40.3692675,24.2017524 40.6646298,24.24385 40.944,24.34057 C41.1475316,24.6540511 41.1933759,25.0444673 41.068,25.39657 C40.7899122,25.6235003 40.4251951,25.7147712 40.073,25.64557 C40.036,26.58657 41.99,27.07057 42.435,26.01857 C41.086,26.03157 41.658,23.63157 42.871,24.52657 C42.7578464,24.2845154 42.7814406,24.0006244 42.933,23.78057 C43.1162305,23.4837271 43.4515873,23.3160487 43.799,23.34757 Z M41.436,28.31857 C41.3362587,28.2553715 41.251601,28.1710552 41.188,28.07157 C41.278,27.74757 41.665,27.72057 41.748,27.38857 L37.333,27.38857 C37.1840392,27.5797436 37.058793,27.7882635 36.96,28.00957 C37.729,27.93257 38.729,27.86457 39.012,28.44457 C38.912,28.78157 38.603,28.47457 38.452,28.56857 C38.3786288,29.0812093 37.9151442,29.4455534 37.3996767,29.3957989 C36.8842091,29.3460443 36.4989671,28.8997785 36.525,28.38257 C36.0503475,27.9831603 35.393332,27.879959 34.8190835,28.1146117 C34.2448351,28.3492644 33.8481094,28.8830514 33.789,29.50057 C34.2995411,29.2824068 34.850957,29.1763521 35.406,29.18957 C35.7256373,29.376721 36.0183222,29.6064955 36.276,29.87257 C36.933,30.32557 38.241,30.38257 38.076,31.23957 C37.947,31.91957 35.818,33.01957 34.906,32.48257 C35.206,33.38257 36.7,32.98257 37.642,33.10357 C36.5,33.48357 35.431,34.16857 35.59,35.65157 C36.102,35.55757 36.728,34.72057 37.455,34.84357 C36.141,35.69557 36.076,38.62157 37.455,39.44357 C37.583,38.28657 37.805,37.22457 38.636,36.77157 C39.0430455,38.0584315 39.1074991,39.4291919 38.823,40.74857 C40.785,40.72857 41.194,38.49057 40.688,36.58457 C41.688,36.82357 42.081,37.67857 42.243,38.75957 C43.706,38.30357 43.694,35.59257 42.678,34.40957 C43.4661414,34.3034785 44.2285099,34.7351467 44.543,35.46557 C45.362,33.53857 43.968,31.81357 43.113,30.99157 C43.6206242,30.8449458 44.1593758,30.8449458 44.667,30.99157 C44.3519057,30.1910407 43.784623,29.5149351 43.051,29.06557 C42.6461024,29.3309156 42.207106,29.5401537 41.746,29.68757 L41.746,29.25057 C42.6845048,28.9371852 43.4211432,28.2009172 43.735,27.26257 C42.8490361,27.2504345 42.0048185,27.6383778 41.437,28.31857 L41.436,28.31857 Z M38.136,28.44257 C37.722,28.34257 37.893,28.82057 37.514,28.75257 C37.136,28.81957 37.307,28.33857 36.893,28.44257 C36.893,28.7871957 37.1723743,29.06657 37.517,29.06657 C37.8616257,29.06657 38.141,28.7871957 38.141,28.44257 L38.136,28.44257 Z M35.711,30.86557 C34.372,30.81757 32.784,31.21557 31.732,30.74157 C32.531,31.88857 34.551,31.24557 35.716,30.86557 L35.711,30.86557 Z"/>
    <path d="M39.107,17 L40.537,17 C42.4308326,17.1508935 44.283208,17.634637 46.009,18.429 C46.5411685,18.8383581 47.1269585,19.1728068 47.75,19.423 C48.2169151,19.3751354 48.6762828,19.2707031 49.118,19.112 C49.582,19.012 50.059,18.933 50.548,18.801 C53.227014,21.1527159 55.0616127,24.3175127 55.771,27.811 C55.513,28.774 54.023,29.262 53.781,30.297 C53.7058835,31.1441345 53.6851744,31.9952146 53.719,32.845 C53.011,38.312 49.777,41.345 45.885,43.719 C45.56,44.533 45.385,45.499 45.076,46.329 C41.6878625,47.430989 38.0443439,47.4742438 34.631,46.453 C34.383,45.438 33.985,44.572 33.698,43.595 C29.135,41.071 25.617,37.172 25.864,30.049 C25.1768363,29.321037 24.533377,28.5530265 23.937,27.749 C24.937,23.965 26.586,20.827 29.346,18.801 C30.2050762,19.036501 31.0768068,19.2231335 31.957,19.36 C34.1108225,17.9990759 36.5662346,17.1886182 39.107,17 Z M47.625,19.92 C45.1327117,18.1361335 42.1048645,17.2591871 39.045,17.435 C37.0898361,17.5527627 35.18156,18.0819685 33.445,18.988 C32.9869296,19.3406283 32.4855012,19.6330162 31.953,19.858 C31.135,19.934 30.083,19.273 29.342,19.299 C27.5111121,20.8499082 26.1009562,22.83754 25.242,25.078 C24.8585024,25.8864663 24.5866807,26.7433103 24.434,27.625 C24.6445728,28.0708372 24.9653427,28.4556233 25.366,28.743 C25.6990167,29.118762 26.0105141,29.5130583 26.299,29.924 C25.977,37.1 29.58,40.9 34.133,43.409 C34.42,44.323 34.733,45.209 35.066,46.081 C38.2120914,47.0496348 41.582873,47.0062627 44.703,45.957 C45.023,45.096 45.284,44.176 45.573,43.285 C49.782,41.042 53.391,37.278 53.407,31.044 C53.3544184,30.7154312 53.3336556,30.3825562 53.345,30.05 C53.534,29.176 55.066,28.459 55.335,27.689 C54.6375386,24.4243064 52.8901646,21.47783 50.36,19.3 C49.521,19.579 48.479,19.656 47.624,19.92 L47.625,19.92 Z M50.36,19.3 C52.8897946,21.4779775 54.6368075,24.4244373 55.334,27.689 C55.065,28.459 53.534,29.176 53.344,30.05 C53.3326556,30.3825562 53.3534184,30.7154312 53.406,31.044 C53.39,37.278 49.781,41.044 45.572,43.285 C45.282,44.176 45.022,45.096 44.702,45.957 C41.581873,47.0062627 38.2110914,47.0496348 35.065,46.081 C34.734,45.21 34.419,44.323 34.132,43.409 C29.58,40.9 25.977,37.1 26.3,29.925 C26.0115141,29.5140583 25.7000167,29.119762 25.367,28.744 C24.9663427,28.4566233 24.6455728,28.0718372 24.435,27.626 C24.5876807,26.7443103 24.8595024,25.8874663 25.243,25.079 C26.1019562,22.83854 27.5121121,20.8509082 29.343,19.3 C30.084,19.274 31.136,19.935 31.954,19.859 C32.4865012,19.6340162 32.9879296,19.3416283 33.446,18.989 C35.18256,18.0829685 37.0908361,17.5537627 39.046,17.436 C42.1058645,17.2601871 45.1337117,18.1371335 47.626,19.921 C48.479,19.656 49.521,19.579 50.36,19.3 Z M33.26,20.108 C37.5911444,20.7327366 41.9909843,20.7118427 46.316,20.046 C43.185,17.717 36.345,17.769 33.263,20.107 L33.26,20.108 Z M29.591,20.17 C27.4195979,22.0860652 25.9356048,24.6606615 25.366,27.5 C25.6797129,27.9329557 26.0828154,28.2934289 26.548,28.557 C27.1705037,25.4532735 28.7589597,22.6260458 31.086,20.48 C30.543,20.421 30.112,20.252 29.594,20.169 L29.591,20.17 Z M50.171,20.17 C49.647,20.248 49.237,20.438 48.679,20.481 C49.092,21.056 49.633,21.526 50.109,22.096 C51.6622944,23.9610845 52.7303224,26.1813048 53.218,28.559 C53.69988,28.2909568 54.1064072,27.9057534 54.4,27.439 C53.7605252,24.6434393 52.2867746,22.1081418 50.174,20.169 L50.171,20.17 Z M35.936,21.287 C34.6632067,21.0585826 33.3739747,20.9338398 32.081,20.914 C30.1384077,22.3749036 28.6506868,24.3574911 27.791,26.631 C27.3970721,27.4895954 27.1852886,28.4204896 27.169,29.365 C27.46729,29.9139124 27.8442821,30.4162316 28.288,30.856 C31.1031059,34.4049258 33.2696777,38.4229009 34.688,42.725 C37.318,44.019 42.339,44.07 44.888,42.663 C46.3557821,38.3880736 48.5425199,34.395062 51.354,30.856 C51.7934284,30.4019578 52.1513316,29.8755898 52.412,29.3 C52.3841115,28.3569301 52.1728465,27.428315 51.79,26.566 C50.9510936,24.2301489 49.4090589,22.2115996 47.376,20.788 C43.6027454,21.4706088 39.75436,21.6384711 35.936,21.287 Z M33.573,41.979 C31.9563749,37.9394294 29.8037424,34.1356604 27.173,30.67 C27.238,36.463 29.911,39.985 33.573,41.979 Z M46.257,42.041 C50.4015808,39.8060431 52.8753644,35.3717187 52.6,30.671 C50.0058005,34.1730032 47.8738965,37.9948351 46.257,42.042 L46.257,42.041 Z M35.257,43.841 C35.415,44.341 35.518,44.906 35.692,45.394 C38.4543751,46.237287 41.4115395,46.1939227 44.148,45.27 C44.248,44.752 44.418,44.297 44.521,43.779 L44.392,43.779 C41.4298441,44.7725481 38.2279871,44.7953184 35.252,43.844 L35.257,43.841 Z"/>
  </g>
</svg>
