<svg xmlns="http://www.w3.org/2000/svg" width="80" height="80" viewBox="0 0 80 80">
  <path fill="#EBDCC1" fill-rule="evenodd" d="M65.3,36.7 C64.7405457,36.6738612 64.2642702,37.1028658 64.232,37.662 C64.2749444,37.9273195 64.4553516,38.149974 64.706,38.247 L67.075,39.158 C68.3432963,39.6955233 69.1135777,40.996488 68.975,42.367 C69.0367455,44.4490941 67.4028646,46.1889491 65.321,46.258 C63.8739427,46.3267885 62.4241729,46.2023592 61.01,45.888 L61.021,42.925 C62.402976,43.3654791 63.867821,43.4818181 65.302,43.265 C65.6942469,43.175137 65.9867135,42.8469646 66.031,42.447 C66.0220421,42.1099384 65.7857768,41.82181 65.457,41.747 L63.267,40.9 C61.9965708,40.3371666 61.2345508,39.018783 61.381,37.637 C61.3628629,36.5965245 61.7767494,35.5950617 62.5241506,34.8709695 C63.2715517,34.1468772 64.285621,33.7649173 65.325,33.816 C66.2196759,33.8202877 67.1131633,33.8817463 68,34 L68.043,36.937 C67.1539693,36.6740177 66.2209628,36.5934043 65.3,36.7 Z M55.428,43.452 C54.97,43.495 54.006,43.452 54.006,43.452 L54.006,45.982 L51.015,45.982 L51.015,34 L55.4,34 C56.6391246,33.9083079 57.8537988,34.3786821 58.708,35.281 C59.5501331,36.2502726 59.9781602,37.5113727 59.9,38.793 C59.9229661,41.3043145 57.935202,43.3738101 55.425,43.452 L55.428,43.452 Z M54.451,36.635 L53.986,36.635 L53.993,40.759 L54.416,40.759 C55.716,40.745 56.695,40.171 56.752,38.764 C56.8116158,38.1510822 56.5808948,37.5455946 56.1285158,37.1277723 C55.6761368,36.70995 55.0542603,36.5279692 54.448,36.636 L54.451,36.635 Z M46,34.045 L49.012,34.045 L49.012,46.013 L46,46.013 L46,34.045 Z M39.011,34.045 L41.994,34.045 L41.994,43.015 L44.883,43.015 L44.883,46.008 L39.016,46.008 L39.016,34.045 L39.011,34.045 Z M33,34.045 L36.012,34.045 L36.012,46.013 L33,46.013 L33,34.045 Z M27,40.99 L24.02,40.99 L24.011,46.013 L20.994,46.013 L20.994,34.045 L24.006,34.045 L24.015,38 L27,38 L26.992,34.049 L30,34.049 L30,46.013 L26.987,46.013 L27,40.99 Z M15.43,43.453 C14.972,43.496 14.008,43.453 14.008,43.453 L14.008,45.983 L11.015,45.983 L11.015,34 L15.4,34 C16.6391246,33.9083079 17.8537988,34.3786821 18.708,35.281 C19.5501331,36.2502726 19.9781602,37.5113727 19.9,38.793 C19.9229661,41.3043145 17.935202,43.3738101 15.425,43.452 L15.43,43.453 Z M14.453,36.636 L13.986,36.636 L13.994,40.76 L14.417,40.76 C15.717,40.746 16.695,40.172 16.753,38.765 C16.8130312,38.1517094 16.5823325,37.5457064 16.1296587,37.1275968 C15.676985,36.7094873 15.0546029,36.5275473 14.448,36.636 L14.453,36.636 Z"/>
</svg>
