<svg xmlns="http://www.w3.org/2000/svg" width="80" height="80" viewBox="0 0 80 80">
  <g fill="#EBDCC1" fill-rule="evenodd">
    <path d="M60,64 L60,57 L61,57 L61,64 L60,64 Z M58,61 L56,61 L56,64 L55,64 L55,57 L56,57 L56,60 L58,60 L58,57 L59,57 L59,64 L58,64 L58,61 Z M48,57 L49,57 L49,64 L48,64 L48,57 Z M47.521,62.062 C47.5344829,62.5950915 47.3214196,63.1089263 46.9346575,63.4760548 C46.5478954,63.8431834 46.0236671,64.0292124 45.492,63.988 L43.005,63.988 L43.005,57 C43.005,57 43.62,57.023 45.339,57.023 C46.3994936,56.9359537 47.3339777,57.7151355 47.439,58.774 C47.4901292,59.5381712 46.9834509,60.2280982 46.239,60.408 C46.6353207,60.4412866 46.9995534,60.6391395 47.2432008,60.9534864 C47.4868482,61.2678334 47.5876085,61.6699013 47.521,62.062 Z M44.774,61 L44.774,59.944 C45.073605,60.0104108 45.3873072,59.945362 45.6358035,59.7652978 C45.8842998,59.5852335 46.0438062,59.3073881 46.074,59.002 C46.1243222,58.7716192 46.0536853,58.531482 45.8866371,58.3650412 C45.7195889,58.1986005 45.4791959,58.1288388 45.249,58.18 L43.989,58.18 L43.989,62.969 L45.364,62.969 C45.6119767,62.9808836 45.8538486,62.8898071 46.0323992,62.7173155 C46.2109498,62.5448239 46.3103189,62.3062391 46.307,62.058 C46.307,60.808 44.774,61 44.774,61 Z M31,64 L30,64 L30,58 L28.5,58 L28.5,57 L32.5,57 L32.5,58 L31,58 L31,64 Z M27,57 L28,57 L28,64 L27,64 L27,57 Z M25,58.212 L23,62.8 L21,58.215 L21,64 L20,64 L20,57 L21.562,57 L23,60.3 L24.438,57 L26,57 L26,64 L25,64 L25,58.212 Z M50.015,71.748 L51.884,74.969 L50.226,74.975 L48.457,71.394 C48.8057679,71.466416 49.1685628,71.37685 49.4435574,71.150441 C49.7185521,70.924032 49.8761068,70.5851829 49.872,70.229 C49.9034009,69.9181545 49.7837799,69.611113 49.550367,69.4034369 C49.3169541,69.1957608 48.9980841,69.1126607 48.693,69.18 L47.985,69.18 L47.985,74.98 L47,74.98 L47,68.013 L48.575,68.013 C50.544,68.013 51.224,68.526 51.256,69.995 C51.3164929,70.8017166 50.7951359,71.5375772 50.014,71.748 L50.015,71.748 Z M39,75 L38,75 L38,69 L36.5,69 L36.5,68 L40.5,68 L40.5,69 L39,69 L39,75 Z M29,69.212 L27,73.8 L25,69.215 L25,75 L24,75 L24,68 L25.562,68 L27,71.3 L28.438,68 L30,68 L30,75 L29,75 L29,69.212 Z"/>
    <path d="M52.034 64.3C51.385373 64.3676542 50.7387301 64.1550608 50.2567868 63.715715 49.7748435 63.2763691 49.5034874 62.6521025 49.511 62L50.8 62C50.763874 62.3169289 50.8746192 62.6329836 51.1006596 62.8580497 51.3267 63.0831157 51.6432301 63.1924947 51.96 63.155 52.554 63.155 52.79 62.66 52.79 61.941 52.79 61.253 49.704 60.936 49.704 58.686 49.704 57.717 50.246 57.004 51.965 57.004 52.4983711 56.9920567 53.0133441 57.1991668 53.3899271 57.5770724 53.76651 57.954978 53.9718133 58.4706741 53.958 59.004L52.758 59.004C52.7614149 58.7658079 52.6671225 58.5366111 52.4970796 58.3697802 52.3270367 58.2029492 52.0960837 58.1130441 51.858 58.121 51.6398254 58.0847596 51.4171358 58.1512332 51.2545264 58.3011388 51.0919169 58.4510443 51.0075877 58.6676038 51.026 58.888 51.026 60.619 54.178 59.815 54.116 62.534 54.0268722 63.5956356 53.095953 64.3852625 52.034 64.3zM53.858 69.117C53.6398254 69.0807596 53.4171358 69.1472332 53.2545264 69.2971388 53.0919169 69.4470443 53.0075877 69.6636038 53.026 69.884 53.026 71.615 56.178 70.811 56.116 73.53 56.0289352 74.5928172 55.0980152 75.3846137 54.035 75.3 53.3862102 75.36796 52.739292 75.1555046 52.2571189 74.7161234 51.7749458 74.2767422 51.5034553 73.6522958 51.511 73L52.8 73C52.763874 73.3169289 52.8746192 73.6329836 53.1006596 73.8580497 53.3267 74.0831157 53.6432301 74.1924947 53.96 74.155 54.554 74.155 54.79 73.66 54.79 72.941 54.79 72.253 51.704 71.936 51.704 69.686 51.704 68.717 52.246 68.004 53.964 68.004 54.4973711 67.9920567 55.0123441 68.1991668 55.3889271 68.5770724 55.76551 68.954978 55.9708133 69.4706741 55.957 70.004L54.757 70.004C54.7615104 69.7652988 54.6678413 69.53521 54.4978935 69.3675307 54.3279457 69.1998514 54.0966191 69.1092825 53.858 69.117zM43.5 75.213C41.843 75.213 40.5 73.556 40.5 71.513 40.5 69.47 41.843 67.813 43.5 67.813 45.157 67.813 46.5 69.469 46.5 71.513 46.5 73.557 45.157 75.213 43.5 75.213zM33.5 75.213C31.843 75.213 30.5 73.556 30.5 71.513 30.5 69.47 31.843 67.813 33.5 67.813 35.157 67.813 36.5 69.469 36.5 71.513 36.5 73.557 35.157 75.213 33.5 75.213zM43.5 68.871C42.582 68.871 41.838 70.054 41.838 71.513 41.838 72.972 42.582 74.154 43.5 74.154 44.418 74.154 45.162 72.972 45.162 71.513 45.162 70.054 44.418 68.871 43.5 68.871zM33.5 68.871C32.582 68.871 31.838 70.054 31.838 71.513 31.838 72.972 32.582 74.154 33.5 74.154 34.418 74.154 35.162 72.972 35.162 71.513 35.162 70.054 34.418 68.871 33.5 68.871zM40 64.313C38.8954305 64.313 38 63.4175695 38 62.313L38 57 39 57 39 62.156C39 62.7082847 39.4477153 63.156 40 63.156 40.5522847 63.156 41 62.7082847 41 62.156L41 57 42 57 42 62.313C42 63.4175695 41.1045695 64.313 40 64.313zM35.034 64.3C34.385373 64.3676542 33.7387301 64.1550608 33.2567868 63.715715 32.7748435 63.2763691 32.5034874 62.6521025 32.511 62L33.8 62C33.763874 62.3169289 33.8746192 62.6329836 34.1006596 62.8580497 34.3267 63.0831157 34.6432301 63.1924947 34.96 63.155 35.554 63.155 35.79 62.66 35.79 61.941 35.79 61.253 32.704 60.936 32.704 58.686 32.704 57.717 33.246 57.004 34.964 57.004 35.4973711 56.9920567 36.0123441 57.1991668 36.3889271 57.5770724 36.76551 57.954978 36.9708133 58.4706741 36.957 59.004L35.757 59.004C35.7604149 58.7658079 35.6661225 58.5366111 35.4960796 58.3697802 35.3260367 58.2029492 35.0950837 58.1130441 34.857 58.121 34.6388254 58.0847596 34.4161358 58.1512332 34.2535264 58.3011388 34.0909169 58.4510443 34.0065877 58.6676038 34.025 58.888 34.025 60.619 37.177 59.815 37.115 62.534 37.0258636 63.5952134 36.0955782 64.384682 35.034 64.3zM39.964 34.991L31.612 20.228 39.964 5.465 48.388 20.228 39.964 34.991zM48.826 49.973L65.526 49.973 56.74 34.991 39.964 34.991 48.826 49.973zM31.206 49.973L39.964 34.991 23.26 34.991 14.5 49.972 31.2 49.972 31.206 49.973z"/>
  </g>
</svg>
