<svg xmlns="http://www.w3.org/2000/svg" width="195" height="260" viewBox="0 0 195 260">
  <g fill="none" fill-rule="evenodd">
    <path fill="#C4A56E" d="M61,256.38 C61.5368831,256.385938 62.0688118,256.276825 62.56,256.06 C63.0373395,255.849023 63.4687799,255.546675 63.83,255.17 C64.1977426,254.788488 64.4895919,254.340533 64.69,253.85 C64.9009454,253.336259 65.0063706,252.785327 65,252.23 L65,251 L63,251 L63,248 L71,248 L71,251 L68,251 L68,252.23 C68.0076923,253.188972 67.8276421,254.140181 67.47,255.03 C67.129932,255.86791 66.6307324,256.631991 66,257.28 C65.3635708,257.915864 64.6095811,258.42192 63.78,258.77 C62.0010082,259.47703 60.0189918,259.47703 58.24,258.77 C57.4032928,258.424196 56.6423308,257.918021 56,257.28 C55.3660126,256.623128 54.8666366,255.848585 54.53,255 C54.1723579,254.110181 53.9923077,253.158972 54,252.2 L54,244.9 C53.9891197,243.916139 54.1761592,242.940133 54.55,242.03 C54.9024149,241.1665 55.4224275,240.381383 56.08,239.72 C57.4592334,238.362154 59.3247211,237.613078 61.26,237.64 C62.2970954,237.606987 63.3266667,237.826629 64.26,238.28 C64.9863533,238.65905 65.6589424,239.133225 66.26,239.69 C66.843548,240.296631 67.3323675,240.987721 67.71,241.74 L65.18,243.32 C64.98173,242.830704 64.6934079,242.382957 64.33,242 C63.9795713,241.619761 63.5670218,241.301895 63.11,241.06 C62.5287507,240.763779 61.8820501,240.619303 61.23,240.64 C60.6631545,240.635318 60.1014412,240.747661 59.58,240.97 C59.0711743,241.185348 58.6092214,241.497846 58.22,241.89 C57.830073,242.277233 57.5177977,242.735464 57.3,243.24 C57.088765,243.76735 56.9867068,244.332072 57,244.9 L57,252.23 C56.9936294,252.785327 57.0990546,253.336259 57.31,253.85 C57.5104081,254.340533 57.8022574,254.788488 58.17,255.17 C58.5312201,255.546675 58.9626605,255.849023 59.44,256.06 C59.9311882,256.276825 60.4631169,256.385938 61,256.38 Z M85,244 C84.9732363,242.354359 83.6456409,241.026764 82,241 L72,241 L72,238 L82.06,238 C83.6620205,237.945477 85.2140815,238.562154 86.341827,239.701291 C87.4695725,240.840428 88.070621,242.398608 88,244 C88,245.16 87,249 83.94,249.26 L88.81,259 L85.05,259 L80.47,250 L77,250 L77,259 L74,259 L74,247 L82,247 C83.6568542,247 85,245.656854 85,244 Z M92,244.64 C91.9941619,243.690923 92.1742159,242.749886 92.53,241.87 C93.2254454,240.198173 94.5562972,238.870918 96.23,238.18 C98.0063929,237.459522 99.9936071,237.459522 101.77,238.18 C103.443703,238.870918 104.774555,240.198173 105.47,241.87 C105.825784,242.749886 106.005838,243.690923 106,244.64 L106,252.26 C106.006877,253.209172 105.826785,254.150409 105.47,255.03 C104.779557,256.707482 103.447482,258.039557 101.77,258.73 C99.9910082,259.43703 98.0089918,259.43703 96.23,258.73 C94.5525178,258.039557 93.2204434,256.707482 92.53,255.03 C92.1732152,254.150409 91.9931229,253.209172 92,252.26 L92,244.64 Z M103,244.75 C103.005569,244.217398 102.899987,243.68949 102.69,243.2 C102.489069,242.721591 102.196976,242.286847 101.83,241.92 C101.462326,241.558685 101.031986,241.267274 100.56,241.06 C99.5610719,240.646649 98.4389281,240.646649 97.44,241.06 C96.9680142,241.267274 96.5376743,241.558685 96.17,241.92 C95.8030243,242.286847 95.5109306,242.721591 95.31,243.2 C95.1000131,243.68949 94.9944315,244.217398 95,244.75 L95,252.15 C94.9936255,252.685909 95.0992116,253.217245 95.31,253.71 C95.5120601,254.184845 95.8040945,254.616105 96.17,254.98 C96.5351591,255.344376 96.9661058,255.636198 97.44,255.84 C98.4389281,256.253351 99.5610719,256.253351 100.56,255.84 C101.033894,255.636198 101.464841,255.344376 101.83,254.98 C102.195906,254.616105 102.48794,254.184845 102.69,253.71 C102.900788,253.217245 103.006374,252.685909 103,252.15 L103,244.75 Z M114,252.26 C113.994442,252.815254 114.099837,253.366026 114.31,253.88 C114.514134,254.368571 114.805558,254.815872 115.17,255.2 C115.535656,255.575992 115.970216,255.878147 116.45,256.09 C117.439194,256.517131 118.560806,256.517131 119.55,256.09 C120.029784,255.878147 120.464344,255.575992 120.83,255.2 C121.194442,254.815872 121.485866,254.368571 121.69,253.88 C121.900163,253.366026 122.005558,252.815254 122,252.26 L122,238 L125,238 L125,252.26 C125.007692,253.218972 124.827642,254.170181 124.47,255.06 C124.126951,255.898725 123.624317,256.662865 122.99,257.31 C122.353571,257.945864 121.599581,258.45192 120.77,258.8 C118.991008,259.50703 117.008992,259.50703 115.23,258.8 C114.400419,258.45192 113.646429,257.945864 113.01,257.31 C112.375683,256.662865 111.873049,255.898725 111.53,255.06 C111.172358,254.170181 110.992308,253.218972 111,252.26 L111,241 L109,241 L109,238 L114,238 L114,252.26 Z M140,244 C140.00151,242.392614 138.735877,241.069653 137.13,241 L128,241 L128,238 L137.3,238 C140.83,238 143,241.44 143,244 C143,246.38 140.84,250 137.3,250 L133,250 L133,259 L130,259 L130,247 L137.13,247 C139,247 140,245 140,244 Z"/>
    <path fill="#FFF" fill-rule="nonzero" d="M171,188 L159,188 L159,217 L166,217 L166,222 L147,222 L147,217 L154,217 L154,188 L141,188 L141,209.64 C141.017412,211.312723 140.711824,212.973087 140.1,214.53 C139.532628,215.973866 138.701856,217.299711 137.65,218.44 C136.605629,219.542065 135.355402,220.428776 133.97,221.05 C132.526702,221.694868 130.960697,222.018986 129.38,222 L127,222 L127,216 L129.38,216 C130.273108,216.006296 131.158014,215.829315 131.98,215.48 C132.775027,215.145928 133.493139,214.652438 134.09,214.03 C134.697806,213.394716 135.176645,212.647591 135.5,211.83 C135.834484,210.972794 136.004122,210.060144 136,209.14 L136,188 L129,188 L129,183 L176.84,183 L190,210.3 L190,183 L195,183 L195,222 L189.72,222 L176,194.43 L176,222 L171,222 L171,188 Z M0,183 L25,183 L25,188 L0,188 L0,183 Z M15,222 L10,222 L10,204 L0,204 L0,199 L25,199 L25,204 L15,204 L15,222 Z M54,222 L30,222 L30,183 L54,183 L54,188 L35,188 L35,199 L49,199 L49,204 L35,204 L35,217 L54,217 L54,222 Z M93,217 L93,222 L83,222 L83,191.12 L76.21,205 L70.79,205 L64,191.12 L64,222 L59,222 L59,183 L65.39,183 L74,199.72 L82.61,183 L88,183 L88,217 L93,217 Z M103,210.49 C102.999993,212.477289 103.790807,214.382894 105.197908,215.786242 C106.605008,217.189591 108.512718,217.975314 110.5,217.97 C114.78,217.97 117.98,214.91 117.98,209.89 L118,183 L123,183 L123,209.67 C123,215.32 118.81,222.39 111,222.39 C107.576604,222.470896 104.265609,221.165906 101.818012,218.771026 C99.3704143,216.376146 97.9936517,213.094346 98,209.67 L98,188 L94,188 L94,183 L103,183 L103,210.49 Z"/>
    <g transform="translate(17)">
      <path fill="#242021" d="M73.05,106.83 C75.28,106.83 78.11,110.56 74.43,111.11 C75.76,111.11 77.43,109.86 78.99,109.7 C81.0667832,109.554853 83.1526086,109.605074 85.22,109.85 C88.12,110.31 92.45,111.73 95.4,110.85 C97.22,110.31 98.9,106.7 100.22,106.57 C102.62,106.34 104.08,109.14 105,110.65 C106.92,113.8 113,130.31 107.29,132.76 C102.43,134.82 104.36,127.26 104.53,125.37 C104.83,121.95 104.02,119.02 103.03,115.74 C102.76,119.6 106.43,123.82 103.96,127.6 C101.28,131.7 98.07,128.53 94.54,128.53 C92.96,128.53 92.19,129.69 90.78,129.76 C89.54,129.82 86.99,128.76 85.72,128.59 C81.168454,128.029295 76.5592161,128.140482 72.04,128.92 C69.71,129.3 62.84,131.13 61.1,129.44 C59.36,127.75 60.54,120.63 61.1,118.56 C61.55,116.75 62.94,115.12 63.33,113.42 C63.33,113.52 63.52,108.48 63.2,109.02 C65.12,105.74 71.47,109.79 73.05,106.83 Z"/>
      <path fill="#FCFCFC" d="M96.24,39.1 C98.98,35.75 97.89,39.27 100.62,39 C101.68,38.89 102.04,37.57 103.14,37.35 C104.49,37.08 105.28,37.5 106.65,37.64 C113.627802,38.368427 120.50122,39.881317 127.14,42.15 C132.94,44.15 137.03,48.31 141.27,42.25 C141.94,41.25 143.1,39.88 142.75,38.58 C142.4,37.28 140.59,37.58 140.37,36.81 C140.07,35.81 141.01,34.91 140.75,34.18 C140.37,33.18 139.58,32.86 139.1,31.77 C137.48,28.05 134.8,20.43 129.42,23.47 C128.27,24.12 125.69,31.58 123.95,28.29 C123.15,26.76 125.61,24.49 126.67,23.35 C129.12,20.72 130.24,19.13 134.09,21.27 C134.94,21.74 138.93,23.46 139.34,23.91 C139.51,24.09 140.34,27.51 140.55,28.23 C140.76,28.95 141.06,30.38 141.37,31.09 C141.83,32.16 143.12,31.7 143.78,32.68 C141.49,34.47 147.13,41.15 146.48,44.94 C145.48,50.54 140.15,49.1 136.26,47.94 C130.33,46.21 124.74,43.78 118.76,42.18 C116.093917,41.309949 113.366242,40.6414013 110.6,40.18 C107.72,39.88 106.46,40.87 103.81,41.31 C98.66,42.15 94.25,43.49 90.46,47.66 C88.51,49.81 87.09,58.11 83.15,54.39 C79.96,51.39 84.73,46.55 86.58,44.14 C88.11,42.14 88.13,41.55 90.92,40.75 C92.74,40.29 94.83,40.4 96.24,39.1 Z"/>
      <path fill="#242021" d="M47.14,34.25 C52.62,33.25 49.23,38.6 46.92,40.19 C44.42,41.91 40.28,41.93 37.4,43 C33.67,44.39 29.12,47.59 25.18,45.34 C21.7,43.34 19.06,39.53 20.3,35.34 C20.72,33.91 21.74,32.34 22.06,31.49 C22.38,30.64 22.16,29.27 22.77,28.21 C23.87,26.32 28.43,22.48 30.35,21.83 C34.52,20.43 37.64,23.89 38.96,27.56 C40.39,31.56 36.59,37.71 31.81,34.87 C32.81,37.12 36.46,35.81 38.02,34.81 C41.28,32.75 38.35,30.95 40.43,28.81 C41.27,27.95 42.27,28.64 43.09,28.87 C47.21,30 44.55,30 45.3,31.62 C45.23,31.48 43.37,37 47.14,34.25 Z"/>
      <path fill="#252223" d="M54.7,131.73 C51.27,132.73 47.54,131.56 44.33,131.31 C41.12,131.06 36.15,131.73 34.04,128.46 C33.29,127.3 32.7,121.17 33.79,119.73 C37.39,114.97 37.79,122.29 39.16,123.53 C39.77,118.81 50.97,122.76 46.22,125.83 C50.22,123.18 46.62,125.21 46.83,122.56 C46.090271,122.101902 45.7697332,121.190243 46.06,120.37 C46.4441009,119.417044 47.3114021,118.744599 48.33,118.61 C48.8070278,118.786779 49.3372135,118.748499 49.7838987,118.505027 C50.2305839,118.261555 50.5500672,117.83671 50.66,117.34 C50.4823272,116.344766 50.6480498,115.318697 51.13,114.43 C51.13,111.63 50.88,111.08 47.88,110.17 C47.24,109.98 45.74,110.8 44.5,110.38 C42.98,109.88 44.5,107.78 41.7,107.91 C38.06,108.07 35.65,114.5 32.05,108.83 C29.19,104.35 34.97,99.45 39.55,100.65 C43.69,101.73 47.78,105.27 51.9,106.08 C54.33,106.56 54.85,105.39 57.04,107.21 C60.15,109.78 58.42,112.37 57.28,115.32 C56.28,117.92 54.94,120.78 54.69,123.61 C54.44,126.44 55.9,129.09 54.7,131.73 Z"/>
      <path fill="#FBFBFC" d="M41.08 103.49C38.64 101.58 32.84 101.28 32.27 105.73 32.01 107.83 33.27 107.26 34.05 108.97 34.71 110.41 34.42 111.41 34.7 113.04 34.81 113.69 35.77 115.71 35.81 116.38 36.04 119.38 35.51 116.72 35.12 119.24 34.88 120.77 35.55 122.5 35.33 123.8 35.11 125.1 34.15 125.92 34.44 127.08 34.73 128.24 38.98 133.43 33.33 129.62 31.33 128.28 30.07 124.73 29.41 122.69 28.27 119.17 30.02 116.91 30.22 113.52 30.34 111.52 29.22 109.76 29.05 107.89 28.85 104.89 30.43 103.16 31.47 100.54 27.99 103.54 28.29 110.67 28.52 114.78 28.71 118.25 28.61 125.97 30.79 129.36 31.88 131.07 38.2 134.58 32.38 133.26 27.31 132.11 25.77 125.53 25.08 121.26 24 114.5 23.46 93.32 35 96 37.31 96.54 47.31 100.13 47.11 101.88 46.77 105.31 43 102.61 41.08 103.49zM120.64 82.49C121.111025 82.0651767 121.503672 81.560829 121.8 81 122.060486 80.7154821 122.433131 80.5602346 122.818574 80.5756523 123.204016 80.59107 123.563071 80.7755855 123.8 81.08 124.1 80.96 124.94 79.29 125.12 79.34 126.62 79.77 126.29 82.08 126.73 82.14 129.66 82.54 127.24 81.43 128.35 80.09 130.6 77.39 133.57 75.31 135.89 72.47 137.589053 70.5789741 138.803815 68.3038696 139.43 65.84 139.73 64.39 138.7 60.4 139.8 59.36 143.49 55.87 141.47 64.36 141.41 65.6 141.305395 69.6980327 140.531871 73.7514372 139.12 77.6 137.192181 82.0461023 134.482626 86.1104358 131.12 89.6 129.68 91.1 128.07 92.79 126.03 93.44 123.2 94.32 122.74 92.05 120.03 94.84 118.78 93.54 120.7 91.84 119.7 90.33 119.32 89.76 117.19 91.33 116.52 90.63 112.86 86.81 120.35 85.07 120.64 82.49z"/>
      <path fill="#FAFAFA" d="M43.31,94.86 C39.48,97.69 30,83.63 28.23,81.15 C25.68,77.53 24.86,73.83 24.33,69.42 C24.09,67.48 22.27,58.8 24,57.6 C24.24,57.44 26.28,65.01 26.7,66.11 C27.38,67.85 27.57,70.11 28.7,71.6 C30.26,73.67 30.44,72.28 31.95,73.73 C33.81,75.52 33.84,78.48 35.74,80.04 C36.48,80.65 38.01,80.19 38.87,80.67 C39.73,81.15 39.87,82.98 40.52,83.15 C43.04,81.35 43.59,81.79 45.47,83.09 C46.01,83.46 45.47,84.76 46.34,85.29 C47.49,85.99 48.44,84.43 49.6,85.09 C54.55,87.84 46,94.18 43.31,94.86 Z"/>
      <path fill="#FBFBFB" d="M39,31.54 C37.17,26.71 34.21,19.25 28.64,24.67 C28.05,25.23 27.07,25.8 26.73,26.57 C26.48,27.11 26.73,29.57 26.52,29.81 C24.25,32.21 25.43,28.11 24.32,27.44 C23.69,27.72 22.24,32.83 22.01,33.83 C21.35,36.7 21.55,40.75 23.01,42.76 C27.5,48.94 41.83,36.48 44.01,41.88 C38.01,43.7 22.54,54.88 18.36,45.27 C15.41,38.62 20.56,28 24.75,23 C27.68,19.51 33.86,17.65 37.75,21 C38.89,22 39.46,24.17 40.08,25.53 C40.63,26.19 41.19,26.84 41.75,27.53 C41.9324164,28.5979506 41.5550023,29.6849032 40.75,30.41 C40.86,31.78 42.01,33.04 41.33,34.33 C39.62,37.46 39,31.58 39,31.54 Z"/>
      <path fill="#FCFCFC" d="M44,41.88 C40.47,39.76 50.13,37.05 51.95,36.67 C54.0782723,36.1005666 56.2538831,35.7256922 58.45,35.55 C60.96,35.55 62.6,37.74 64.24,37.84 C65.31,37.9 67.24,37.07 68.48,37.05 C71.48,37.05 69.22,35.63 72.31,37.99 C74.04,39.31 74.17,41.62 76.48,41.88 C77.48,41.99 76.48,39.45 76.91,38.99 C82.5,39.54 77.79,44.4 78.35,46.59 C78.74,48.13 81.35,48.49 81.83,49.4 C82.69,51.01 82.09,51.24 82,52.94 C81.83,56.08 83.4,61.26 80.05,62.94 C75.05,65.39 75.6,60.23 75.83,57.19 C76.16,52.98 75.63,50.34 72.64,46.88 C71.0929825,45.1302818 69.1628504,43.7613938 67,42.88 C64.78,41.94 62.7,42.52 60.67,41.95 C59.53,41.62 60.18,39.8 58.78,39.7 C57.38,39.6 55.08,40.89 53.78,41.12 C52.66,41.32 51.78,40.23 50.65,40.48 C49.8993005,41.4582396 48.7106034,41.9982156 47.48,41.92 C46.3242148,41.7910021 45.158445,41.7776024 44,41.88 Z"/>
      <path fill="#FBFBFB" d="M104.45 68.81C106.31 69.02 106.75 70.3 108.37 71.12 110.37 72.12 112.37 72.12 114.6 72.3 116.83 72.48 120.41 73.3 122.6 72.62 123.84 72.25 124.31 71.41 125.36 70.98 129.72 69.19 131.67 68.5 135.23 65.25 137.38 63.25 139.07 62.33 137.23 66.09 132.61 75.55 121.23 76.45 112.35 76.4 102.5 76.34 96.15 69.09 91.42 60.67 93.11 59.57 102.48 67.73 104.45 68.81zM66.54 68.91C66.15 76.91 46.09 76.91 41.07 75.48 36.4 74.19 33 70.9 30.18 67.14 28.98 65.54 24.05 59.14 28.87 61.49 32.07 63.08 34.25 67.9 37.87 69.75 41.12 71.43 45.71 71.92 49.09 71.97 52.83 72.03 55.53 72.22 58.7 69.97 60 69.06 66.75 64.22 66.54 68.91zM121.78 132.2C137.27 137.37 134.64 119.26 135.03 109.58 135.26 103.86 133.96 99.31 126.96 100.95 125.96 101.19 122.11 103.65 121.67 101.44 121.43 100.28 125.3 98.44 125.88 98.17 141 91.4 141 112 139 121.64 137.55 128.47 134.71 134.85 127.16 135.07 125.203016 135.046602 123.251993 134.849157 121.33 134.48 121.41 134.48 116.84 133.97 117.33 134.25 113.09 131.85 119.48 131.66 121.78 132.2z"/>
      <path fill="#F9F9F9" d="M19,84.26 C22.2,90.61 16.37,92.61 13,97.35 C11.87,98.93 10,104.56 8.47,105.55 C6.47,106.87 6.24,105.48 5.31,103.55 C5.34705309,102.830477 5.34705309,102.109523 5.31,101.39 C4.97,100.39 3.88,100.19 3.65,99.03 C3.2,96.77 5.44,93.45 6.6,91.54 C8.92,87.72 13.52,82.84 14.54,89.71 C14.31,87.21 14.52,83.5 19,84.26 Z"/>
      <path fill="#FAFBFB" d="M40.64,48.39 C44.01,48.02 41.51,51.39 40.13,52.39 C38.46,53.7 34.13,53.89 34.86,56.66 C36.07,61.2 48.69,61.73 51.6,61.09 C56.1,60.09 66.6,57.15 58.96,52.58 C57.67,51.8 53.19,51.25 54.96,48.58 C56.31,46.58 59.96,49.01 61.45,49.98 C64.93,52.19 69.32,55.12 66.1,58.81 C62.57,62.81 53.86,64.81 48.77,64.81 C45.258861,64.7313036 41.7864148,64.0584538 38.5,62.82 C36.56,62.01 31.13,58.82 30.7,56.61 C29.86,52.41 38.1,49.74 40.64,48.39 Z"/>
      <path fill="#262324" d="M77.46,62.52 C81.09,62.38 80.69,60.13 80.37,58.12 C79.3982788,57.8672063 78.7098548,57.0036212 78.68,56 C79.5072907,54.9947812 80.2372352,53.913258 80.86,52.77 C81.59,49.12 77.69,50.12 79.86,45.54 C80.95,43.29 81.75,43.09 83.64,42.54 C83.64,42.54 86.85,42.08 86.54,41.88 C90.79,44.66 82.75,49.19 83,52.09 C83.17,54.09 85.8,54.27 86.26,55.59 C87,57.69 84.88,59.01 85.86,61.14 C86.58,62.68 89.07,63.01 89.78,64.65 C88.78,62.23 88.78,69.41 89.41,67.85 C87.88,71.69 86.85,71.15 83.51,68.85 L81.21,66.7 C80.366657,66.0263487 79.2643925,65.7691537 78.21,66 C77.52,65.4 74.05,63.65 77.46,62.52 Z"/>
      <path fill="#FAFAFB" d="M54.7,131.73 C53.26,131.01 52.92,127.81 52.9,125.98 C52.9,122.36 54.66,117.98 56.13,114.63 C56.74,113.24 58.27,108.08 60.18,109.01 C63.13,110.45 58.68,118.87 58.38,120.61 C57.55,125.55 58.7,129.47 61.25,133.7 C61.84,134.7 64.25,137.2 64.31,138.18 C64.37,139.57 63.45,139.43 63.31,140.27 C63.39,139.71 62.46,143.83 63.04,143.01 C62.36,144.01 63.2,144.39 61.57,143.73 C58.83,142.6 56.16,134.08 54.7,131.73 Z"/>
      <path fill="#F9F9F9" d="M123.38 65.64C120.73 64.83 117.89 65.57 115.19 65.42 112.49 65.27 110.93 64.37 108.51 63.57 104.51 62.26 95.1 58.83 99.28 53.49 102.51 49.35 110.16 47.19 115.1 47.04 116.39 47.14 117.68 47.19 118.98 47.2 119.74 46.71 120.51 46.2 121.28 45.76 123.38 46.57 121.94 46.76 121.28 47.82 119.28 50.82 117.28 49.82 114.04 50.2 111.130904 50.4668933 108.350395 51.5251466 106 53.26 99.68 57.99 108.35 60.55 112.92 61.64 115.964138 62.4996639 119.195726 62.4300176 122.2 61.44 124.12 60.88 128.2 58.15 130.09 59.44 134 62.27 125.28 65.55 123.38 65.64zM146 87.86C145.34 86.57 146.73 84.75 148.05 84.44 149.79 84.04 149.78 85.16 151.28 86.38 156.28 90.43 161.37 93.71 159.17 100.88 158.68 102.49 158.59 104.88 156.36 104.64 154.84 104.46 151.54 99.21 151.22 98.05 150.68 96.05 151.32 95.29 150.6 93.3 149.88 91.31 146.07 89.48 146 87.86zM148.13 77.52C147.844621 77.7862047 147.502774 77.9844763 147.13 78.1 146.02 77.85 148.13 70.66 153.27 73.41 159.27 76.64 161.11 79.8 161.27 86.26 161.27 87.38 162.19 90.1 161.78 90.95 160.52 93.49 159.69 89.74 159.2 89.05 157.86 87.16 146.9 77.82 150.51 76.45L148.13 77.52z"/>
      <path fill="#F9F9FA" d="M70.36 83C65.36 84.26 72.11 90 67.36 88.66 64.23 87.77 60.36 78.82 64.2 76.97 65.64 76.29 68.53 78.06 69.98 78.42 72.32 79 73.26 78.42 75.31 80.49 77.36 82.56 83.06 92.38 79.89 95.35 75.84 93.13 77.3 91.02 76.17 87.42 75.79 86.09 71.73 81.54 70.36 83zM11.92 105.71C13.55 102.76 14.92 99.06 17.12 96.5 19.6 93.59 20.12 93.95 22.39 96.42 24.27 98.42 25.25 100.6 23.22 103.04 21.78 104.77 19.22 104.89 19.29 101.13 19.07 103.77 21.29 106.35 20.89 109.13 20.0835778 109.61412 19.4208157 110.304497 18.97 111.13 19.14 111.83 19.34 112.53 19.55 113.23 19.39 114.58 21.03 117.12 18.76 117.82 15.19 118.9 16.46 111.82 15.65 110.47 14.65 108.79 10.91 108.16 11.92 105.71z"/>
      <path fill="#FAFAFA" d="M15.3,77.76 C14.02,79.9 11.88,80.76 10.16,82.41 C8.44,84.06 7.09,86.41 5.44,88.1 C3.95,89.68 3.44,92.1 1.66,88.86 C0.05,85.86 1.75,80.4 4.22,78.48 C6.69,76.56 9.89,78.48 11.61,76.68 C13.14,75.11 11.05,73.81 11.72,72.47 C12.72,70.47 15.37,70.63 15.93,71.77 C15.58,71.07 15,78.19 15.3,77.76 Z"/>
      <path fill="#F8F8F9" d="M136.26,124.05 C135.57,125.26 134.35,125.52 133.92,126.3 C133.49,127.08 133.81,128.23 133.17,129.55 C132.03,127.34 129.45,130.14 128.08,127.95 C127.75,127.42 129.91,123.46 130.21,122.63 C131.083086,120.342578 131.572991,117.926836 131.66,115.48 C131.66,112.93 129.66,109.92 130.09,107.48 C131.02,107.35 132.81,110.01 132.87,107.22 C132.87,106.61 130.95,104.71 130.39,104.42 C128.82,103.6 126.16,105.35 125.2,103.25 C124.24,101.15 128.2,100.47 129.48,100.5 C131.599549,100.52835 133.565183,101.612449 134.72,103.39 C136.72,106.39 134.93,107.39 134.92,110.48 C134.92,113 134.58,122.77 136.26,124.05 Z"/>
      <path fill="#FAFAFA" d="M102.2,128.39 C104.11,124.62 103.02,121.8 101.79,118.04 C101.3,116.52 99.43,112.86 100.92,111.93 C103.62,110.26 105.09,117.85 105.43,119.34 C106.35,123.34 105.38,126.01 105.1,129.86 C104.86,133.14 103.74,141.41 98.71,140.98 C98.13,140.98 95.96,139.46 95.83,138.76 C95.52,136.98 97.09,137.24 98.06,136.09 C100.42,133.32 100.85,131.5 102.2,128.39 Z"/>
      <path fill="#F8F9F9" d="M67.19,150.76 C67.07,151.54 65.44,153.84 64.7,154.07 C62.34,154.81 63.85,152.17 63.82,152.07 C63.79,151.97 66.39,150.12 64.36,149.81 C63.3,149.65 62.54,151.81 61.46,152.15 C57.1,153.59 63.22,147.77 63.84,146.36 C65.13,143.43 66.06,138.74 69.84,137.67 C73.77,136.55 71.15,139.53 70.49,141.83 C69.78,144.3 69.49,145.88 70.49,148.52 C71.12,150.23 73.68,152.23 73.97,153.6 C74.18,154.6 75.05,154.84 73.75,155.53 C74.17,155.31 68.75,154.53 69.01,154.8 C68.54,154.36 69.01,149.11 67.57,149.87 C67.4162542,150.15436 67.2890494,150.452287 67.19,150.76 Z"/>
      <path fill="#F8F8F9" d="M79.08,143.62 C80.74,144.86 82.63,143.92 84.42,143.47 C85.23,143.27 89.77,141.74 90.75,142.28 C93.36,143.71 92.05,149.53 87.98,147.57 C87.69,150.79 86.98,149.16 84.34,148.84 C81.7,148.52 79.72,149.58 77.34,149.53 C73.98,149.47 68.34,145.4 73.07,141.99 C75.87,146.29 75.57,141.87 79.08,143.62 Z"/>
      <path fill="#F8F9F9" d="M84.4,87.32 C86.83,83.64 89.66,78.68 94.47,77.84 C101.15,76.67 103.82,86.43 98.33,86.92 C96.69,87.07 96.46,85 95.09,84.22 C93.1319834,83.2174574 90.7711394,83.4356212 89.03,84.78 C87.53,85.86 87.32,88.95 86.27,89.58 C84.37,90.71 84.07,89.12 84.4,87.32 Z"/>
      <path fill="#F9F9F9" d="M146.86,62 C149.21,61.71 153.31,63.14 155.53,64 C156.39,64.34 161.28,66.52 161.53,67.17 C161.68,67.53 160.15,69.09 160.24,69.82 C160.33,70.55 161.96,71.09 161.82,72.04 C161.28,75.75 157.82,72.21 156.35,71.26 C154.41,70.01 151.92,69.42 150.05,68.15 C147.22,66.28 148.18,65.08 146.86,62 Z"/>
      <path fill="#F8F8F8" d="M145,96 C146.89,95.63 147.61,98.33 148.31,99.5 C149.47,101.5 152.1,103.84 152.9,105.76 C153.4,106.92 152.76,107.76 153.06,109.04 C153.57,111.15 156.62,111.59 152.47,113.53 C150.08,114.64 149.78,113.93 148.25,112.34 C147.133946,111.002521 146.161914,109.551176 145.35,108.01 C144.76,106.41 144.87,103.79 144.35,102.01 C143.78,99.93 142.62,97.63 145,96 Z"/>
      <path fill="#FAFAFB" d="M23.93,92.73 C22.1,87.42 19.93,82.8 19.93,77.53 C20,76 18.84,70 19.64,69.1 C22.29,66.31 22.94,74.8 23.12,75.79 C23.41,77.41 23.39,80.16 24.24,81.44 C24.54,81.88 26.4,82.44 26.43,82.92 C26.46,83.4 26.68,84.46 26.69,84.66 C26.69,84.58 24.44,84.93 24.56,86.07 C24.87,89.07 28.62,85.45 28.07,89.07 C27.9,90.18 25,93.56 23.93,92.73 Z"/>
      <path fill="#F9F9FA" d="M99.54,140.87 C100.77,138.45 103.33,137.14 105.07,134.03 C106.39,131.68 107.47,130.13 108,127.14 C108.4,124.86 104.73,110.14 105.59,110.14 C107.39,109.99 108.41,117.24 108.67,118.14 C109.87,122.04 110.48,124.14 109.84,128.44 C109.46,130.9 102.76,149.42 99.54,140.87 Z"/>
      <path fill="#282526" d="M64.91,138.86 C61.36,139.08 58.28,131.35 57.34,128.34 C56.25,124.87 56.8,121.34 57.78,117.95 C58.29,116.13 59.41,109.8 61.24,109.11 C66.91,106.99 60.59,119.9 60.44,121.91 C60.2174427,124.793814 60.7049956,127.688231 61.86,130.34 C63,133 66.31,135.9 64.91,138.86 Z"/>
      <path fill="#F6F6F7" d="M95.75 137.68C97.52 139.25 101.36 148.19 101.12 150.52 100.91 152.61 97.56 154.11 95.69 154.25 93.1 154.44 93.9 155.53 93.9 152.54 93.9 151.09 95.44 149.68 95.32 148.05 95.19 146.14 89.24 136.63 89.76 136.05 90.09 135.65 94.32 138.08 95.75 137.68zM66.5 91.91C66.76 96.73 68.5 97.04 64.35 99.8 61.25 101.8 57.4 103.72 55.8 98.92 54.8 95.92 56.59 92.61 59.55 92.19 59.91 92.19 62.33 92.9 63.18 92.87 64.66 92.81 64.61 90.12 66.5 91.91z"/>
      <path fill="#F7F7F7" d="M16.32,111.23 C18.58,114.23 15.39,112.69 16.32,115.29 C16.32,115.29 18.56,118.23 18.54,118.13 C18.87327,119.516413 18.4732349,120.976919 17.48,122 C15.75,123.92 16.53,123.67 14.6,122 C12.67,120.33 9.31,114.12 9.55,111.34 C10,105.94 14.7,107.43 16.32,111.23 Z"/>
      <path fill="#F8F8F8" d="M65.48,137.65 C61.66,137.65 59.2,126.65 59.1,124.01 C58.89,118.25 61.72,115.01 63.93,110.01 C64.31,109.46 65.15,111.7 65.15,111.8 C65.21,113.26 63.32,115.48 62.79,116.87 C61.5882022,120.189109 61.2913776,123.768262 61.93,127.24 C62.5,130 68.25,136.2 65.48,137.65 Z"/>
      <path fill="#F8F9F9" d="M4.46,57.44 C5.22,57.25 6.35,54.51 6.61,54.26 C7.61,53.35 9.93,53.68 10.87,53.1 C12.36,52.18 11.23,51.49 13.38,50.82 C14.97,50.32 20.27,50.48 19.85,53.04 C19.4,55.82 16.68,54.04 15.08,54.44 C13.2106685,55.0961866 11.3838291,55.8676672 9.61,56.75 C7.49,57.82 8.7,57.44 7.16,59.16 C6.71,59.67 5.47,61.68 4.9,61.8 C2.22,62.4 2.48,58.41 4.46,57.44 Z"/>
      <path fill="#F8F8F8" d="M50.45,18.41 C53.15,21.94 45.9,26.2 43.26,23.92 C41.54,22.45 39.08,15.14 36.82,15.08 C37.41,14.31 40.75,12.02 41.75,12.15 C43.48,12.38 42.31,12.51 43.55,13.46 C43.55,13.46 44.3,16.07 44.4,16.26 C44.98,17.41 46.64,17.07 46.92,19.6 C48.45,19.22 48.31,17.32 50.45,18.41 Z"/>
      <path fill="#F6F6F7" d="M155.75,56 C157.11,56.59 160.41,61.8 157.87,62.52 C157.07,62.75 154.01,59.67 153.09,59.24 C151.21,58.36 149.09,58.51 147.3,57.46 C142.63,54.67 147.13,54.01 150.2,53.99 C151.38,53.99 151.68,52.63 152.95,52.83 C154.22,53.03 156.51,54.22 155.75,56 Z"/>
      <path fill="#F5F6F6" d="M104.34,91.15 C107.56,92.89 108.57,95.52 107.54,99.09 C106.51,102.66 104.1,102.35 100.42,101.09 C99.32,100.73 97.71,101.5 97.42,99.81 C97.03,97.63 99.92,98.48 100.42,97.54 C101.71,94.9 98.83,90.15 104.34,91.15 Z"/>
      <path fill="#F5F5F6" d="M75.7,61.2 C77.45,64.76 74.09,68.5 78.32,71.27 C80.17,72.49 87.86,71.91 83.32,74.81 C79.93,77 70,75 70,70.07 C70,68.52 72.37,66.26 73.21,65.01 C73.29,64.93 75.71,61.1 75.7,61.2 Z"/>
      <path fill="#F7F7F8" d="M56.83,15.23 C55.83,16.72 59.83,20.31 54.19,18.4 C51.62,17.53 49.19,12.64 49.07,10.48 C48.86,7.59 51.07,4.83 53.12,7.53 C53.43,7.93 53.62,9.91 54.12,10.73 C54.89,12.09 58.81,12.65 56.83,15.23 Z"/>
      <path fill="#F6F6F7" d="M29.44,62.37 C28.7783099,61.6584024 27.9600485,61.1106123 27.05,60.77 C29.17,59.71 23.75,53.12 28.05,55.2 C29.05,55.7 31.43,60.03 32.86,61.15 C35.3185979,63.0311633 38.1211168,64.4137393 41.11,65.22 C42.45,65.61 47.23,65.82 47.78,67.12 C48.56,68.97 44.78,68.12 43.78,68.02 C41.87,67.76 28.83,62.07 29.24,61.42 C29.2546467,61.7454249 29.3221977,62.066292 29.44,62.37 Z"/>
      <path fill="#F6F7F7" d="M136.63,55 C142.47,58.56 132.7,64.65 130.04,66 C124.74,68.63 118.74,70.08 113.04,67.72 C115.6,67.19 121.87,67.9 123.23,65.72 C128.08,63.58 135.59,61.06 136.63,55 Z"/>
      <path fill="#2C2A2B" d="M136.63,55 C138.63,60.57 127.63,65.8 123.27,65.69 C124.01,63.36 127.93,63.26 129.73,61.86 C132.73,59.48 134,56.86 131.28,54.11 C129.82,52.62 121.63,48.6 127.54,47.79 C131.53,47.26 134.43,53.08 136.63,55 Z"/>
      <path fill="#F6F6F7" d="M117.4,18 C118.02,19.51 115.22,19.84 115.68,21.14 C116.8,24.32 118.15,20.78 118.84,20.14 C119.84,19.14 125.37,11.58 125.84,15.57 C125.99,16.8 122.3,21.67 121.4,22.62 C119.72,24.38 117.99,25.24 115.54,23.62 C111.54,20.92 115.79,16.49 117.4,18 Z"/>
      <path fill="#F8F8F8" d="M83.33,74.81 C84.06,73.35 84.67,74.31 85.07,72.94 C85.36,71.94 82.74,72 83.85,70.15 C84.96,68.3 86.25,70.26 87.6,69.71 C88.95,69.16 88.08,67.37 88.72,66.84 C91.09,66.84 94.21,69.75 93.72,71.84 C92.83,75.77 85.89,75.28 83.33,74.81 Z"/>
      <path fill="#F1F1F2" d="M79.09,88.58 C78.02,84.99 78.17,83.39 79.09,79.85 C82.5,83.09 86.3,76.49 85.53,81.56 C84.9141481,83.8325001 84.0101458,86.0168923 82.84,88.06 C81.39,90.43 81.7,90.51 79.09,88.58 Z"/>
      <path fill="#F4F5F5" d="M80.64 12.6C81.45 16.15 78.55 15.4 76.52 13.4 75 11.91 73.05 6.8 73.7 4.76 75.63-1.26 80.32 10.12 80.64 12.6zM93.12 141.49C94.72 144.21 97.53 146.15 96.65 149.37 96.18 151.06 91.02 156.22 88.78 155.47 86.92 154.84 93.71 149.26 93.48 147.1 93.26 145.1 91.56 146.45 91.48 144 91.51 144.94 93.1 142.32 93.12 141.49z"/>
      <path fill="#F6F6F7" d="M125.31,48.43 C127.65,50.05 133.01,52.85 133.98,55.68 C134.75,57.93 130.46,62.91 128.64,60.22 C127.45,58.45 131.83,57.67 129.2,54.79 C126.57,51.91 119.98,52.68 118.46,48.79 C120,48.24 123.66,47.66 125.31,48.43 Z"/>
      <path fill="#F6F7F7" d="M8.25,68.5 C8.18,69.39 2.67,76.5 1.08,74.63 C0.25,73.63 2.45,68.77 3.08,67.87 C3.91,66.61 4.87,65.25 6.43,65.43 C7.13626332,65.4889217 7.77035108,65.885976 8.13176551,66.4956146 C8.49317994,67.1052532 8.5372348,67.8520989 8.25,68.5 Z"/>
      <path fill="#F2F3F3" d="M44.93,32.12 C45.58,28.12 51.75,25.91 55.12,23.81 C55.84,23.36 60.7,19.24 61.85,21.54 C62.14,22.13 47,31.77 44.93,32.12 Z"/>
      <path fill="#C4C6C8" d="M120.64,82.49 C120.78,86.35 116,84.7 116.85,88.61 C117.7,92.52 121.15,88.3 120.1,94.85 C117.52,94.54 120.8,92.19 119.35,90.85 C117.9,89.51 116.27,93.41 115.72,89.24 C115.81,90.69 113.72,92.93 112.26,92.09 C111.26,91.51 110.59,86.88 111.04,85.62 C111.92,83.14 113.93,83.62 116.35,83.7 C119.49,83.86 118.43,85.11 120.64,82.49 Z"/>
      <path fill="#F5F5F6" d="M87.08,100.29 C85.84,100.85 84.3,107.43 82.71,102.77 C81.4,98.95 85.27,98.43 87.23,97.08 C88.49,96.21 90.79,92.89 92.39,94.87 C94.54,97.53 88.28,99.8 87.08,100.29 Z"/>
      <path fill="#E8E9E9" d="M122.66,140.45 C119.2,140.21 123.66,143.91 123.81,145.26 C118.62,148.08 117.81,144.46 117.21,140.56 C116.98,139.14 114.35,140.75 115.96,138.62 C116.63,137.73 122.34,139.68 123.32,139.89 C123.4,140.44 123.18,140.62 122.66,140.45 Z"/>
      <path fill="#EDEDEE" d="M114.3,139.8 C114.99,140.37 109.87,146.2 109.51,148.02 C109.15,149.84 109.6,154.02 106.51,151.02 C106.51,151.02 106.07,146.07 106.01,146.21 C106.41,145.39 108.01,146.03 108.42,145.34 C109.89,142.72 110,138.25 114.3,139.8 Z"/>
      <path fill="#F7F7F7" d="M142.27,84.09 C142.39,84.6 141.27,91.33 141.27,91.28 C140.06,92.2 136.9,90.13 135.39,89.65 C138.16,87.93 136.72,85.5 138.64,83.56 C139.89,82.33 142.41,81.5 142.27,84.09 Z"/>
      <path fill="#F3F3F4" d="M65.32,8.77 C65.48,8.98 67.45,15.1 67.54,14.94 C66.13,17.52 63.14,13.56 62.54,12.54 C61.84,11.25 60.16,6.19 61.42,5.13 C63.33,3.57 65.53,7.08 65.32,8.77 Z"/>
      <path fill="#F5F5F5" d="M56.32,145.81 C56.51,146.25 57.32,150.51 57,150.81 C55.4,152.28 55.32,150.67 53.75,150.49 C53.18,150.43 46.75,150.49 47.12,147.72 C47.47,145.18 51.45,149.23 52.59,148.37 C52.05,148.75 54.5,140.38 56.32,145.81 Z"/>
      <path fill="#F5F6F6" d="M114.87,11.91 C114.46,13.74 112.48,19.64 109.87,18.64 C108.61,18.16 109.18,14.3 109.96,13.16 C110.54,12.29 112.58,12.91 112.83,11.87 C113.08,10.83 111.31,9.78 111.49,9.25 C112.74,5.43 115.29,10 114.87,11.91 Z"/>
      <path fill="#E7E8E9" d="M41.7,49.86 C41.7,47.86 39.56,47.48 39.7,46.29 C41.85,45.74 54.39,44.48 55.84,47.04 C58.18,51.23 43.8,50.08 41.7,49.86 Z"/>
      <path fill="#F7F7F7" d="M89.82,64.61 C88.02,63.71 83.16,62.8 83.34,59.81 C83.46,57.63 87.75,57.27 85.03,54.81 C89.12,54.88 87.19,56.4 87.62,58.81 C87.94,60.66 90.14,62.9 89.82,64.61 Z"/>
      <path fill="#EAEBEB" d="M64.36,110.09 C62.49,110.16 50.72,106.7 52.86,104.15 C54.08,102.7 59.86,105.15 61.13,105.67 C63.45,106.5 63.72,104.89 64.72,107.27 C65.06,108.08 63.34,108.52 64.36,110.09 Z"/>
      <path fill="#F2F2F3" d="M124.44,28.84 L125.69,28.93 C124.47,30.47 127.8,32.09 128.07,33.7 C128.46,35.97 126.36,37.05 124.07,35.32 C122.48,34.14 120.72,28.71 121.63,26.93 C123.79,22.64 123.08,27.86 124.44,28.84 Z"/>
      <path fill="#F5F5F6" d="M74.77,95.5 C78.92,95.62 83.77,104.14 78.91,103.78 C77.34,103.66 76.91,101.17 76.13,100.07 C75.64,99.36 71.54,96.46 74.77,95.5 Z"/>
      <path fill="#EDEDEE" d="M74.68,97.09 C76.94,100.49 76.91,100.27 73.9,103.03 C73.6,98.23 67.58,101.77 67.21,97.86 C66.8,93.6 72.91,95.78 74.68,97.09 Z"/>
      <path fill="#DDDEDF" d="M68.34,4.61 C71.34,5.97 70.63,5.72 71.68,8.43 C72.22,9.85 74.25,13.75 71.43,14.63 C70.33,14.97 68.91,13.43 68.53,12.38 C67.47,9.46 70.63,8.14 68.34,4.61 Z"/>
      <path fill="#F0F0F1" d="M99.84,15.64 C95.96,16.48 99.69,13.02 99.69,13.04 C99.88,12.25 100.07,9.27 101.14,8.26 C104.36,5.22 104.73,15.86 99.84,15.64 Z"/>
      <path fill="#EDEEEE" d="M22.25,130.57 C18.4,131.66 18.39,119.37 20.55,118.92 C23.3,118.34 23.4,129.5 22.25,130.57 Z"/>
      <path fill="#F3F3F4" d="M39.33,141 C37.1,139 31.33,141.7 30.09,137.34 C28.81,132.74 33.46,137.71 34.47,138.19 C35.9365865,138.799198 37.548516,138.969423 39.11,138.68 C39.59,138.62 41.46,136.75 41.84,136.95 C43.73,138 40.38,141.48 39.33,141 Z"/>
      <path fill="#F1F1F2" d="M88.16,8.24 C88.28,4.77 89.98,0.7 90.93,7.42 C91.17,9.15 90.93,12.97 89.26,13.86 C85.16,16 87.64,9.68 88.16,8.24 Z"/>
      <path fill="#F4F4F4" d="M128.2,35.84 C127.30791,35.0120209 126.862466,33.8093212 127,32.6 C128.07,31.8 130.59,34.54 131.79,34.7 C133.63,34.95 133.49,32.5 135,34.39 C136.07,35.73 133.09,37.64 132.12,37.8 C129.93,38.15 129.77,37.19 128.2,35.84 Z"/>
      <path fill="#F3F3F3" d="M77.7,33.25 C76.43,32.07 62.45,32.01 67.94,29.51 C68.55,29.23 72.57,29.82 73.49,29.96 C74.85,30.18 76.6,30.17 77.7,31.19 C78.4,31.83 79.92,34 77.7,33.25 Z"/>
      <path fill="#F0F1F1" d="M19.51,61.36 C20.44,59.69 19.33,58.26 19.92,56.74 C20.29,55.82 20.92,56.1 21.53,55.34 C21.79,55.01 25.66,51.01 25.05,54.24 C24.88,55.13 23.49,55.56 23.05,56.4 C22.38,57.67 22.54,58.96 22.05,60.21 C21.47,61.8 19.93,65.6 19.51,61.36 Z"/>
      <path fill="#F3F3F4" d="M155.13,48.74 C154.45,51.51 147.99,48.06 149.13,44.91 C150.57,41 154.38,46.8 155.13,48.74 Z"/>
      <path fill="#F1F2F2" d="M108.2,10.9 C107.35,12.33 108.48,17.99 106.08,18.38 C103.28,18.83 104.56,16.22 104.76,15.11 C105.14,13 107,4.45 108.2,10.9 Z"/>
      <path fill="#EFEFF0" d="M14.64,46.91 C12.64,48.57 6.31,52.1 8.43,46.91 C10.31,42.34 16.39,45.31 14.64,46.91 Z"/>
      <path fill="#F0F0F1" d="M86,33.12 C88.2449301,31.3959659 90.8785941,30.2491031 93.67,29.78 C94.55,29.7 99.04,29.94 97.86,31.86 C97.58,32.33 86,33.25 86,33.12 Z"/>
      <path fill="#F5F5F6" d="M14.71,59.21 C16.93,58.96 16.17,56.14 18.13,58.41 C18.2,58.48 17.89,64.03 17.84,64.11 C17.35,64.88 15.54,66.6 13.96,65.21 C12.59,64 14.08,60.51 14.71,59.21 Z"/>
      <path fill="#F7F8F8" d="M58,81.3 C58.54,76.14 61,81.04 61.35,83.81 C62.24,90.53 57,84.3 58,81.3 Z"/>
      <path fill="#E7E8E9" d="M63.26,131.19 L62.26,129.66 C63.62,128.9 73.2,127.06 73.4,128.66 C72.91,132.44 64.51,128.91 63.26,131.19 Z"/>
      <path fill="#E2E3E4" d="M12,78 C9,81.14 5.07,78.06 7.79,75.18 C8.62892859,74.1913746 10.0761713,73.9896881 11.1534336,74.7112747 C12.2306959,75.4328613 12.5949626,76.847958 12,78 Z"/>
      <path fill="#95979A" d="M48.69,90 C50.69,88.1 49.44,85.85 50.77,84.66 C52.1,83.47 54.52,85.35 54.98,86.66 C56.54,91 49.21,95.52 48.69,90 Z"/>
      <path fill="#DBDCDE" d="M99,98.69 C96.33,101.36 95.55,95.56 96.82,93.63 C97.55,92.51 102.82,89.43 104.31,91.15 C100.9,91.47 102.24,92.6 101.86,94.72 C101.68,95.72 102.8,95.65 102.36,96.64 C102.1,97.31 99.57,98.12 99,98.69 Z"/>
      <path fill="#E5E6E7" d="M8.25,68.5 C8.11397398,67.4669089 7.7296791,66.4821533 7.13,65.63 C7.83,65.54 7.5,60.34 10.89,61.78 C12.64,62.52 13.07,66.15 11.89,67.44 C10.71,68.73 9.51,67.06 8.25,68.5 Z"/>
      <path fill="#F2F2F3" d="M126.58,115.06 C128.58,113.64 124.21,110.62 126.99,109.23 C128.91,108.23 128.99,113.42 128.54,114.56 C128.22,115.39 124.1,119.62 123.11,118.85 C119.62,116.13 125.63,115.32 126.58,115.06 Z"/>
      <path fill="#F5F5F5" d="M142.27,84.09 C141.19,82.63 139.86,83.6 139.71,81.74 C139.627189,80.4183007 140.450254,79.2083951 141.71,78.8 C142.95,78.63 144.91,80.46 145.02,81.66 C145.27,84.39 143.41,82.53 142.27,84.09 Z"/>
      <path fill="#F1F1F2" d="M96.39 13.24C95.77 18.24 91.98 12.07 93.39 8.83 95.12 4.75 96.79 11.07 96.39 13.24zM142.33 67.34C143.33 67.06 144.6 66.34 145.51 67.1 145.547031 69.029582 145.429993 70.9590416 145.16 72.87 144.37 73.87 141.96 74.38 141.05 73.27 140.14 72.16 142.2 68.42 142.33 67.34z"/>
      <path fill="#F3F3F4" d="M54.19,91.18 C51.7,90.18 53.3,85.18 55.56,84.98 C59.57,84.66 55.66,90.35 54.19,91.18 Z"/>
      <path fill="#525254" d="M51.23,85.16 C50.68,86.27 51.77,87.64 50.36,88.41 C49.71,83.41 48.78,87.58 47.74,88.41 C46.46,89.35 45.06,83.97 45.91,82.92 C47.43,81 51.42,82.46 51.23,85.16 Z"/>
      <path fill="#2E2C2D" d="M45.46,17.52 C44.24,17.07 41.9,18.01 41.23,16.79 C39.76,14.08 42.09,14.84 43.7,14.58 C49.57,13.65 49.65,20 45.46,17.52 Z"/>
      <path fill="#E9EAEB" d="M109.15,91.23 C106.78,89.64 106.05,83.58 109.92,85.13 C112,86 112.29,92.28 109.15,91.23 Z"/>
      <path fill="#EBEBEC" d="M82.79,25 C81.43,24.83 70.79,21.36 74.32,19.87 C75.49,19.41 83.52,24.18 82.79,25 Z"/>
      <path fill="#ADB0B2" d="M58.47,36.4 C56.63,38.22 51.2,39.26 52.6,36.19 C52.8,35.74 56.88,33.79 57.35,33.85 C58.62,34 60.68,35.34 58.47,36.4 Z"/>
      <path fill="#838588" d="M70.3,95.52 C65.94,95.82 70.06,100.79 67.68,103.06 C65.82,102.06 63.29,102.85 63.75,99.93 C64.09,97.82 66.41,97.73 66.63,94.33 C67.91,94.5 69.39,94.37 70.3,95.52 Z"/>
      <path fill="#E5E6E7" d="M141.68,65.08 C141.68,63.65 140.68,55.69 144.68,58.45 C145.36,58.93 145.24,62.15 145.07,62.77 C144.35,65.38 144.84,65 141.68,65.08 Z"/>
      <path fill="#C5C7C9" d="M12.09,67 C11.47,65.16 10.71,64 11.41,62.17 C12.11,60.34 13.41,61.01 14.71,59.26 C14.66,59.46 14.77,64.39 14.71,64.34 C15.54,65.43 16.54,64.74 17.8,65.14 C16,66.12 13.59,65.17 12.09,67 Z"/>
      <path fill="#F5F5F5" d="M23.93,92.73 C24.77,92.37 32.93,87.81 31.19,92.65 C30.33,95 25,94.53 23.93,92.73 Z"/>
      <path fill="#C2C4C6" d="M83.38,42.79 C80.22,42.73 81.93,45.08 81.22,46.79 C80.41,48.79 78.72,47.18 79.14,49.9 C77.91,49.14 76.56,45.24 76.86,44.05 C77.26,42.5 79.61,42.67 79.52,40.8 C80.1,42.14 84.69,41.35 83.38,42.79 Z"/>
      <path fill="#F2F2F3" d="M106.6,82.92 C107.22,84.92 102.72,88.98 102.42,85.51 C102.42,86.06 104.26,80.83 103.96,81.08 C105.71,79.59 106.51,80.85 106.6,82.92 Z"/>
      <path fill="#F6F6F6" d="M95.41,55.44 C94.96,56.92 100.79,62.36 97.82,61.95 C97.7,61.95 92.9,58.05 92.82,57.43 C92.65,56.29 94,54 95.41,55.44 Z"/>
      <path fill="#EDEEEF" d="M71.46,78.06 C69.09,79.66 66.58,77.81 64.24,76.97 C65.32,75.53 64.85,73.16 67.01,72.57 C69.17,71.98 69.29,72.5 68.83,74.21 C68.46,75.56 66.49,74.68 66.59,76.33 C66.71,78.37 70.31,77.91 71.46,78.06 Z"/>
      <path fill="#EAEBEB" d="M66.54,68.91 C64.25,66.67 64.78,66.71 66.3,64.63 C66.9,63.81 68.3,62.35 69.38,62.7 C71.14,63.25 67.52,68.4 66.54,68.91 Z"/>
      <path fill="#ECEDEE" d="M149.89,113.3 C153.56,114.66 151.56,120.95 148.19,121.96 C147.1,120 148.19,114.53 149.89,113.3 Z"/>
      <path fill="#95979A" d="M106.58,108.88 C107.58,108.24 106.36,107.07 106.83,106.46 C107.49,105.58 109.08,106.11 110.19,105.92 C111.69,105.68 113.74,103.81 114.79,106.92 C112.09,107.71 109.25,109.08 106.58,108.88 Z"/>
      <path fill="#D0D1D3" d="M76.81,28.38 C75.55,27.21 67.21,27.14 69.26,25.2 C71,23.51 80.74,27 76.81,28.38 Z"/>
      <path fill="#6A6B6D" d="M97.53,100.37 C98.6535154,100.547667 99.7629787,100.804982 100.85,101.14 C100.47,102.14 94.64,104.75 93.54,104.46 C88.41,103.11 96.72,99.34 97.53,100.37 Z"/>
      <path fill="#F0F1F1" d="M113.61,146.49 C112.27,142.49 116.41,144.07 115.06,148.44 C114.95,148.81 113.66,152.58 112.28,151.26 C111.12,150.14 113.15,147.65 113.61,146.49 Z"/>
      <path fill="#B5B7BA" d="M116.83,113.88 C118.45,115.39 120.97,114.55 119.71,118.12 C119.31,119.26 118.17,120.55 116.71,120.12 C114.74,119.54 114.41,114.22 116.83,113.88 Z"/>
      <path fill="#E7E8E9" d="M39.33,141 C40.102978,140.654851 40.7271746,140.04484 41.09,139.28 C41.31,141.43 47.59,139.01 44.16,142.69 C43.68,143.2 40.57,143.63 40.07,143.45 C38,142.74 39.1,142.62 39.33,141 Z"/>
      <path fill="#DDDEDF" d="M150.93,91.65 C152.54,94.24 153.28,98.41 149.34,95.65 C148.34,94.94 146.46,92.38 147.54,91.33 C148.62,90.28 149.86,91.64 150.93,91.65 Z"/>
      <path fill="#F2F2F3" d="M38.46,142 L41.29,143.28 C40.88,143.92 40.29,145.66 39.13,145.65 C40.96,145.65 35.58,142.65 36.3,143.56 C35.76,142.89 34.85,143.86 34.7,142.49 C34.53,140.92 38,141.84 38.46,142 Z"/>
      <path fill="#EEEFF0" d="M56.83,15.23 C55.64,12.56 61.04,10.9 61.27,14.87 C61.53,19.51 58.81,14.94 56.83,15.23 Z"/>
      <path fill="#939598" d="M75.28,20.1 C75.41,20.1 70.79,21.01 71.6,20.72 C69.91,21.32 68.6,20.72 67.7,22.95 C64,19.23 73.16,18.64 75.28,20.1 Z"/>
      <path fill="#DFE0E1" d="M90.65,27.64 C90.31,29.12 83.94,31.78 84.09,29.74 C84.16,28.7 89.93,25.12 90.65,27.64 Z"/>
      <path fill="#F3F4F4" d="M138.12,92.8 C137.93,95.12 132.83,93.68 132.42,92.45 C131.36,89.25 137.35,91.22 138.12,92.8 Z"/>
      <path fill="#D5D6D8" d="M85,111.22 C84.41,111.56 81,111.22 81.36,109.74 C81.65,108.57 86.12,108.17 86.91,108.61 C90.56,110.65 85.92,110.3 85,111.22 Z"/>
      <path fill="#E4E5E6" d="M83.46,138.4 C82.46,141.2 77.32,137.32 77.38,135.91 C77.45,134 83.92,136.71 83.46,138.4 Z"/>
      <path fill="#F7F7F7" d="M79.08,143.62 C76.76,143.92 77.96,146.3 76.08,146.62 C73.93,146.97 73.46,143.27 73.08,141.99 C74.63,144 77,142.31 79.08,143.62 Z"/>
      <path fill="#E5E6E7" d="M116.27,121.42 C115.76,123.15 118.34,123.68 117.53,124.75 C115.84,126.99 114.86,122.53 114.76,122.48 C114.03,122.06 111.9,122.91 111.99,121.48 C112.13,119.32 116.27,118.62 116.27,121.42 Z"/>
      <path fill="#CACBCD" d="M114.79,106.93 C113.372562,106.809671 112.117473,105.966644 111.47,104.7 C112.25,104.06 117.9,102.9 118.06,103.19 C118.4,103.8 115.62,107 114.79,106.93 Z"/>
      <path fill="#E4E4E6" d="M85.58,91.63 C86.9,93.77 83.93,95.79 82.29,94.7 C78.86,92.41 84.09,88.22 85.58,91.63 Z"/>
      <path fill="#6F7173" d="M82.21,91.67 C81.91,92.82 81.76,95.29 79.93,95.35 C80.06,94.11 77.93,89.43 79.09,88.58 C80.25,87.73 82.36,90.7 82.21,91.67 Z"/>
      <path fill="#414143" d="M110.93,89.51 C110.24,86.04 107.93,82.76 113.12,83.57 C112.25,84.14 111.9,91.43 110.84,90.42 L110.93,89.51 Z"/>
      <path fill="#929497" d="M116.27,121.42 C115.727697,120.405691 114.679945,119.763273 113.53,119.74 C114.447231,119.404141 115.119768,118.610016 115.3,117.65 C118.01,122.4 119.96,114.57 121.87,118.41 C124.4,123.45 117.21,120.41 116.27,121.42 Z"/>
      <path fill="#F6F7F7" d="M59.42,32.18 C55.42,31.18 56.57,30.18 60.32,30.18 C61.03,30.18 62.67,28.5 63.23,29.98 C64.06,32.16 60.57,32 59.42,32.18 Z"/>
      <path fill="#96989B" d="M45.46,17.52 C46.46,17.82 48.92,16.52 48.75,16.46 C49.92,16.86 49.51,17.96 50.45,18.41 C48.45,18.57 48.06,22.72 46.21,22.49 C43.13,22.11 46.27,19 45.46,17.52 Z"/>
      <path fill="#ECEDED" d="M141.69,58.66 C141.47,60.66 140.03,57.28 139.99,56.94 C139.95,56.6 140.75,53.02 141.23,52.85 C144.89,51.51 141.7,57.79 141.69,58.66 Z"/>
      <path fill="#929497" d="M49.25,46.75 C46.0566141,46.8118729 42.8626924,46.6581905 39.69,46.29 C42.47,45.86 43.69,44.08 46.57,44.45 C47.41,44.56 51.1,45.17 49.25,46.75 Z"/>
      <path fill="#E8E9EA" d="M64.45,107.67 C65.34,106.34 73.04,106.49 73.17,107.4 C73.47,109.39 65.47,108.37 64.45,107.67 Z"/>
      <path fill="#DFE1E2" d="M123.51,118.72 C125.1,118.72 125.87,123.25 125.19,124.6 C124.19,126.6 124.19,125.16 123.26,124.93 C121.26,124.39 120.9,124.6 120.84,122.59 C120.83,122.27 123,118.9 123.51,118.72 Z"/>
      <path fill="#464648" d="M142.33,67.34 C144.1,70.8 141.49,72.42 139.63,74.87 C139.52,73.46 140.57,67.22 142.33,67.34 Z"/>
      <path fill="#DADBDD" d="M141.27,126.28 C141.74,125.18 140.4,123.79 142.61,124.28 C142.28,124.2 143.85,127.34 143.72,126.83 C144.74,130.84 141.06,129.87 141.27,126.28 Z"/>
      <path fill="#CECFD1" d="M73,128.45 C72.86,126.78 82.91,127.03 83.37,128.05 C84.22,129.85 74.12,129.32 73,128.45 Z"/>
      <path fill="#EBECEC" d="M14.12,86.89 C14.1375824,87.1785158 14.2123661,87.4606545 14.34,87.72 C13.5733333,88.1133333 13.0633333,87.8033333 12.81,86.79 C11.41,85.7 11.81,84.79 13.88,84.02 C14.36,83.45 16.5,81.41 17.3,81.94 C19.87,83.63 14.79,86.05 14.12,86.89 Z"/>
      <path fill="#E8E9E9" d="M81.73,108.91 C81.73,112.36 74.49,111.11 75.57,109.46 C76.37,108.24 80.71,107.62 81.73,108.91 Z"/>
      <path fill="#DFE0E2" d="M22.25,130.57 L22.33,128.28 C24.66,129.39 22.72,126.68 24.25,126.65 C24.61,127.86 25.85,132.85 24.53,133.51 C23,134.28 23.47,131 22.25,130.57 Z"/>
      <path fill="#F7F7F8" d="M125.49,102.44 L126.02,104.17 C124.72,104.56 124.92,102.71 123.78,102.77 C122.87,103.5 123.58,107.61 121.49,104.12 C120.28,102.12 121,100.77 122.74,100.2 C121.45,103 125.15,100.36 125.49,102.44 Z"/>
      <path fill="#EBECED" d="M100.33,76.27 C99.17,76.27 94.64,75.1 95.33,73.49 C96.52,70.49 100.19,74.42 100.33,76.27 Z"/>
      <path fill="#4B4B4D" d="M33.11,79.48 C33.92,72.91 34.57,78.32 38.04,78.73 C36.9,80.75 34.77,81.15 33.11,79.48 Z"/>
      <path fill="#EEEFEF" d="M148.67,91.65 C148,91.89 144,91 144,89.71 C144,86.64 150.42,88.41 148.67,91.65 Z"/>
      <path fill="#DBDCDD" d="M143.19,108.52 C140.65,107.38 141.64,102.07 144.41,103.71 C146,104.63 145.7,109.78 143.19,108.52 Z"/>
      <path fill="#F0F1F1" d="M33.11,79.48 C35.02,81.72 38.11,76.69 39.7,79.61 C41.12,82.21 34.2,81.56 33.11,79.48 Z"/>
      <path fill="#E4E5E6" d="M95.82,84.6 C97.13,85.08 97.33,86.97 99,86.79 C98.09,87.48 93.84,90.69 93.07,89.4 C91.58,86.9 97.82,87.45 95.82,84.6 Z"/>
      <path fill="#EDEDEE" d="M82.79,25 C82.79,22.87 88.43,20.55 88.93,23.07 C89.06,23.8 83.47,25.85 82.79,25 Z"/>
      <path fill="#6F7073" d="M54.71,35.39 C53.24,38.12 50.17,36.93 48.17,37.45 C50.5,35.35 48.17,35.16 50.84,34.51 C52.14,34.21 52.78,36.63 54.71,35.39 Z"/>
      <path fill="#B3B5B7" d="M83.45,42.81 C82.02,39.56 86.05,37.71 84.85,35.4 C87.61,32.86 84.58,40.2 84.78,39.5 C84.58,40.19 85.83,43.6 83.45,42.81 Z"/>
      <path fill="#A7A9AC" d="M43.31,94.86 C44.9,93.2 44.79,90.19 47.73,91.69 C52.38,94.06 45.31,95.11 43.31,94.86 Z"/>
      <path fill="#CDCFD0" d="M93.07,23.94 C88.84,23.53 93.58,21.3 94.84,21.41 C96.4,21.53 95.07,20 96.84,21.54 C99,23.43 92.56,24 93.07,23.94 Z"/>
      <path fill="#CACCCE" d="M69.21,151.67 C69.0901177,152.511232 68.8994408,153.340844 68.64,154.15 C70.25,153.65 72.11,153.15 73.02,155.15 C71.33,157.1 65,155.89 69.21,151.67 Z"/>
      <path fill="#E2E3E4" d="M38.93,81.39 C39.3821309,80.7407396 39.6071208,79.9603059 39.57,79.17 C42.21,83.38 41.87,76.24 44.91,79.17 C46.31,80.59 40.45,85.32 38.93,81.39 Z"/>
      <path fill="#97999C" d="M20.57,106.32 C20.07,105.81 17.57,105.08 17.42,104.24 C18.1575383,103.474112 18.798938,102.621151 19.33,101.7 C21.2,101.63 20.86,104.1 22.7,104.55 C22,105.34 20.56,104.89 20.57,106.32 Z"/>
      <path fill="#DFE0E1" d="M85.47,12.56 C83.99,13.13 84.99,14.14 83.61,12.78 C83.9,13.07 83.77,9.78 83.61,10.18 C83.97,9.18 82.23,8.59 84.75,8.82 C87.27,9.05 87.49,11.46 85.47,12.56 Z"/>
      <path fill="#3F3F40" d="M89.2,98.62 C89.92,94.87 95.36,97.33 93.68,100.39 C92.58,102.39 88.18,100.83 89.2,98.62 Z"/>
      <path fill="#B3B5B7" d="M60.64,22.93 C61.51,21.03 60.11,21.01 58.4,21.77 C59.72,18.92 73.33,21.13 60.64,22.93 Z"/>
      <path fill="#C5C7C9" d="M83.69,42.75 C83.98,42.31 86.79,39.09 87.86,40.53 C88.93,41.97 86,44.24 85,45.16 C84.1062538,44.7056034 83.5852635,43.7471403 83.69,42.75 Z"/>
      <path fill="#7A7B7E" d="M96.28,94.9 C97.71,96.61 93.36,98.36 91.94,96.54 C91.3,95.76 92.52,94.47 90.35,94.36 C92.2218962,93.1805907 94.6519265,93.401875 96.28,94.9 Z"/>
      <path fill="#616264" d="M96.24,39.1 C96.3,43.01 93.68,41.1 90.92,40.81 C92.53,39.52 95,35.32 96.24,39.1 Z"/>
      <path fill="#F3F3F4" d="M71.52,55.25 C72.14,57.15 69,62 68,59.63 C67.64,58.92 70.8,55 71.52,55.25 Z"/>
      <path fill="#D3D4D6" d="M119.16,115.61 C118.79,115.02 120.51,109.24 122.64,110.32 C124.11,111.07 121.35,118.22 119.16,115.61 Z"/>
      <path fill="#565759" d="M98.37,143.81 C97.83,142.81 93.18,138.81 96.48,138.33 C97.9347469,139.277953 99.3184174,140.330746 100.62,141.48 C99.9952312,141.431256 99.3813388,141.664081 98.9460246,142.114873 C98.5107103,142.565666 98.2994664,143.187315 98.37,143.81 Z"/>
      <path fill="#DEDFE0" d="M89.71,128.54 C90.53,129.05 98.71,126.38 93.08,129.79 C91.95,130.47 91.08,130.94 89.63,130.4 C87.59,129.6 87.6,127.43 89.71,128.54 Z"/>
      <path fill="#E6E7E8" d="M15.3,77.76 C15.3,74.87 15.61,74.87 17.3,72.76 C18.64,75.43 18.42,77.17 15.3,77.76 Z"/>
      <path fill="#B0B2B4" d="M87.09,143.06 C85.09,145.7 85.09,145.7 82.09,143.54 C83.51,140.51 85.39,142.74 87.09,143.06 Z"/>
      <path fill="#9C9FA1" d="M144.48,106.9 C144.27,105.09 139.35,100.19 143.95,101.52 C146.59,102.28 147.06,109.46 144.48,106.9 Z"/>
      <path fill="#86888B" d="M148.13,77.52 C150.13,76.14 149.32,74.52 151.71,75.99 C152.27,76.35 153.82,79.32 153.1,80.05 C151.18,79.63 151.33,74.88 149.81,79.21 C149.556314,78.408094 148.930386,77.778441 148.13,77.52 Z"/>
      <path fill="#DFE0E1" d="M63.49,5.53 C62.18,5.3 61.14,5.74 61.14,7.24 C60.14,6.34 62.2,2.11 63.53,1.88 C66.48,1.39 63.76,4.79 63.49,5.53 Z"/>
      <path fill="#E0E1E2" d="M81.7,129.59 C82.82,128.1 83.27,126.96 85.36,127.3 C86.14,127.42 87.66,127.71 87.48,128.92 C87.27,130.3 82.22,130.46 81.7,129.59 Z"/>
      <path fill="#636466" d="M58.47,36.4 C58.66,36.05 58.83,34.4 58.97,34.29 C59.75,33.63 62.4,34.47 62.6,35.5 C63.06,37.87 59.82,37.7 58.47,36.4 Z"/>
      <path fill="#464648" d="M113,92.19 C113.09,91.33 115.05,88.54 116.15,88.96 C116.15,90.13 116.48,91.2 117.89,91.14 C116.450604,92.0938236 114.70408,92.4688441 113,92.19 Z"/>
      <path fill="#E2E3E4" d="M102.2,128.39 L101.62,130.82 C100.99,130.03 95.22,131.66 96.62,129.48 C98.02,127.3 100.93,130.23 102.2,128.39 Z"/>
      <path fill="#999B9D" d="M146.57,119.26 C144.37,118.56 141.45,111.9 143.95,112.03 C145.82,112.72 147.55,117.64 146.57,119.26 Z"/>
      <path fill="#9FA2A4" d="M115.21,32.63 C116.38,31.73 114.96,29.96 115.72,28.8 C116.37,31.63 120.81,31.29 120.01,34.8 C118.36,35.87 119.25,33 118.25,32.8 C117.54,32.66 115.64,33 115.21,32.63 Z"/>
      <path fill="#272425" d="M92,101.36 C93.1,100.36 97.15,97.89 96.29,101.17 C95.78,103 91.94,103.16 92,101.36 Z"/>
      <path fill="#F0F1F1" d="M53.93,29.22 C57.32,30.22 51.78,32.56 50.74,32.5 C47.21,32.29 54.06,29.15 53.93,29.22 Z"/>
      <path fill="#E5E6E7" d="M116.34,132.41 C115.61,134.24 110.54,136.34 112.01,132.83 C112.51,131.64 115.43,131 116.34,132.41 Z"/>
      <path fill="#808284" d="M89.2,98.62 C89.2,99.97 90.8,100.1 91.2,101.23 C88.85,101 90.66,103.3 89.33,104.04 C87.48,103.46 88.9,100.89 87.08,100.29 L89.2,98.62 Z"/>
      <path fill="#8C8E91" d="M144.37,103 C141.54,101.06 142.87,101.64 143.09,99.1 C143.23,97.43 141.94,95.48 144.98,96 C143.53,97.77 146,102.22 144.37,103 Z"/>
      <path fill="#CECFD1" d="M82.21,91.67 C80.37,91.27 81.64,89.67 81.9,89.26 C82.78,87.78 82.9,89.95 83.56,89.76 C84.22,89.57 83.95,87.76 84.4,87.32 C84.3752968,88.0578435 84.5552726,88.7881299 84.92,89.43 C86.21,89.69 86.43,90.43 85.58,91.63 C84.5346053,91.0232731 83.2406992,91.038631 82.21,91.67 Z"/>
      <path fill="#C3C5C7" d="M126.58,115.06 C125.47,115.76 122.79,118.14 121.99,117.29 C120.75,115.98 122.15,113.29 122.78,112.24 C125,112.48 124.29,114.8 126.58,115.06 Z"/>
      <path fill="#E3E4E5" d="M63.84,100.8 C65.84,100.8 65,103.11 63.99,103.55 C62.244573,103.134215 60.524968,102.616664 58.84,102 C60.63,102.07 62.06,99.26 63.84,100.8 Z"/>
      <path fill="#E6E7E8" d="M126.57,141 C127.18,140.79 132.65,137.36 131.06,140.22 C130.37,141.47 125.25,143.74 126.57,141 Z"/>
      <path fill="#97999C" d="M32,73.73 L31,76.14 C29.320591,75.2956718 28.3908429,73.4524155 28.71,71.6 C29.49,73 31.74,71.82 32,73.73 Z"/>
      <path fill="#D3D4D6" d="M36.29,130.73 L36.35,129.5 C37.43,130.69 41.11,129.5 41.17,131.13 C41.24,133.24 36.94,131.73 36.29,130.73 Z"/>
      <path fill="#4A4A4C" d="M78.42,82.45 C78.3,83.19 81.33,87.13 79.68,87.28 C78.28,87.4 77.22,84.39 76.68,83.39 L78.42,82.45 Z"/>
      <path fill="#656669" d="M30.27,128.07 C28.9,125.87 28.91,123.18 27.78,120.89 C30.62,118.63 30.49,127.33 30.27,128.07 Z"/>
      <path fill="#7E8083" d="M85,111.22 C86.29,108.7 93.43,110.62 93,111.1 C90.4069296,111.9487 87.617359,111.990544 85,111.22 Z"/>
      <path fill="#B2B4B6" d="M83.46,138.4 C83.28,137.12 81.94,137.26 81.18,136.57 C83.01,136.72 83.59,135.35 83.47,133.76 C87.76,136.34 85.62,135.76 83.46,138.4 Z"/>
      <path fill="#3F3F40" d="M101.46,90.65 C100.57,91.92 101.66,95.05 99.34,94.96 C98.34,94.96 99.13,92.16 97.42,92.36 L101.46,90.65 Z"/>
      <path fill="#EDEDEE" d="M134.72,51.79 C132.436752,52.0379659 130.326671,50.5454701 129.8,48.31 C131.866199,48.7036516 133.660638,49.9728888 134.72,51.79 Z"/>
      <path fill="#F0F1F1" d="M126.57,141 L127.16,142.7 C125.06,143.35 124.16,141.46 122.66,140.45 C123.85,139.45 125.47,139.91 126.57,141 Z"/>
      <path fill="#DDDEDF" d="M48.5,15.33 C46.36,15.24 43.97,15.71 42.11,14.33 C44.19,13.44 43.27,13.17 45.67,13.74 C47.09,14.06 47.83,13.31 48.5,15.33 Z"/>
      <path fill="#4F5052" d="M18,120.91 C19,119.4 17.15,118.45 17.36,116.98 C19.07,117.44 21.84,114.48 21.59,117.69 C21.47,119.24 19.13,120.47 18,120.91 Z"/>
      <path fill="#B2B4B7" d="M113,92.19 C113,94.82 109.69,91.45 109.12,91.19 C111.27,90.62 111.12,88.77 111.99,87.85 C113.2,89.18 111.58,91 113,92.19 Z"/>
      <path fill="#525254" d="M74.68,97.09 C72.39,97.31 70.3,99.94 70.35,95.46 C72.11,95.46 73.03,95.37 74.77,95.46 C74.3563045,95.912843 74.3186745,96.5943644 74.68,97.09 Z"/>
      <path fill="#3F3E40" d="M66.5,91.91 C64.91,91.4 64.64,93.91 63.36,94.35 C61.95,93.44 62.61,91.43 61.15,90.54 C63.19,89.41 65,90.53 66.5,91.91 Z"/>
      <path fill="#C4C6C8" d="M143.8,112.27 C141.94,112.37 143.5,109.63 143.19,108.52 C148.11,108.1 146.92,113.24 143.8,112.27 Z"/>
      <path fill="#747578" d="M84.44,137.2 C84.99,136.44 86.27,136.2 85.44,134.98 C87.28,135.14 89.37,134.54 90.85,136.06 C89.76,136.28 86.2,137.9 84.44,137.2 Z"/>
      <path fill="#D0D2D3" d="M62.84,36.08 L61.27,34.33 C62.69,34.39 62.96,32.47 64.38,32.88 C66.87,33.59 63.35,35.75 62.84,36.08 Z"/>
      <path fill="#DCDDDE" d="M51.23,85.16 C51.23,85.24 46.29,79.74 49.23,80.54 C50.05,80.78 54,85 51.23,85.16 Z"/>
      <path fill="#DEDFE1" d="M61.15,90.54 C64.29,90.54 62.92,91.54 63.36,94.35 C62.03,93.74 60.27,93.74 59.55,92.19 C61.17,92.8 60.86,91.51 61.15,90.54 Z"/>
      <path fill="#D7D8DA" d="M83.28,155.06 C82.54,152.79 84.42,151.19 86.1,153.54 C87.44,155.43 84.91,155.85 83.28,155.06 Z"/>
      <path fill="#E0E1E2" d="M76.81,28.38 C78.75,25.5 79.4,27.17 81.23,29.06 C79.8,29.05 78,29.44 76.81,28.38 Z"/>
      <path fill="#E8E9EA" d="M145,76.47 C144.92,79.28 141.58,77.82 141.73,75.88 C141.84,74.31 145.06,75.1 145,76.47 Z"/>
      <path fill="#B0B2B4" d="M67.62,37.53 L66,36.89 C67.08,35.61 68,33.99 69.76,35.24 C73.56,38.07 68.55,37.19 67.62,37.53 Z"/>
      <path fill="#454547" d="M14.12,86.89 C14.53,84.68 17.35,83.24 18.95,84.26 C17.41,85.22 16.15,87 14.12,86.89 Z"/>
      <path fill="#BFC1C3" d="M54.13,138.28 C56.67,138.28 52.13,143.07 50.07,139.35 C48.17,135.82 53.08,138.65 54.13,138.28 Z"/>
      <path fill="#8D8F91" d="M85.47,12.56 C85.9690226,12.2307269 86.3092491,11.7093485 86.4096882,11.119979 C86.5101274,10.5306096 86.3617944,9.9259718 86,9.45 C86.8355913,9.28529988 87.598231,8.86199988 88.18,8.24 C88.6,10.35 87.01,12.09 87.18,14.17 L85.47,12.56 Z"/>
      <path fill="#E4E5E6" d="M49.9,137.54 C49.66,139.54 45.69,138.84 45.77,137.96 C45.9,136.38 49.25,136.57 49.9,137.54 Z"/>
      <path fill="#D0D1D3" d="M78.45,7.14 C77.45,4.35 75.88,3.39 73.54,3.93 C74.8,-1.75 80.82,7.7 78.45,7.14 Z"/>
      <path fill="#E1E2E3" d="M65.32,8.77 C62.73,7.77 64.97,6.68 66.21,6.77 C68.73,6.88 66.67,8.57 65.32,8.77 Z"/>
      <path fill="#929497" d="M71.52,55.25 C70.8191285,55.4085745 70.227424,55.8753228 69.91,56.52 C69.64,54.91 68.75,54.93 67.75,55.98 C67.54,54.5 65.54,54.48 67.52,53.16 C68.27,52.66 70.75,54.78 71.52,55.25 Z"/>
      <path fill="#E0E1E2" d="M123.67,125.78 C124.79,124.03 127.73,122.88 126.02,125.43 C125.1,126.81 122.1,127.53 123.67,125.78 Z"/>
      <path fill="#EDEEEF" d="M54.13,138.28 C52.59,140.02 50.73,137.91 51.77,136.21 C53.4,133.54 53.68,138.06 54.13,138.28 Z"/>
      <path fill="#E1E2E3" d="M49.38,93.91 C47.75,93.83 46.59,91.33 48.63,90.97 C51.65,90.43 51.23,92.57 49.38,93.91 Z"/>
      <path fill="#B2B4B7" d="M106.58,108.88 C105.99,110.37 105.11,110.5 104.91,111.74 C99.87,107.61 103.53,109.61 106.58,108.88 Z"/>
      <path fill="#D6D7D8" d="M83,4.23 C81.05,4 81.23,0.63 82.38,1 C83.68,1.49 85.39,4.11 83,4.23 Z"/>
      <path fill="#A6A8AB" d="M73,128.45 C75.1,129.29 77.31,128.27 79.42,128.98 C79.15,129.98 72.42,130.15 71.42,130.06 L73,128.45 Z"/>
      <path fill="#DFE0E1" d="M95.74,9.9 C95.41,9.08 93.91,3.41 95.61,3.64 C98.06,4 95.55,8.91 95.74,9.9 Z"/>
      <path fill="#757679" d="M78.52,135 C78.0627649,135.259295 77.7802083,135.74436 77.7802083,136.27 C77.7802083,136.79564 78.0627649,137.280705 78.52,137.54 C77.6,137.26 74.52,137.6 74.9,135.77 C75.28,133.94 77.41,136 78.52,135 Z"/>
      <path fill="#E7E8E9" d="M47.14,34.25 C46.07,37.25 40.35,32.97 44.99,32.06 C45.0003298,33.2497226 45.9506699,34.2177435 47.14,34.25 Z"/>
      <path fill="#ABADB0" d="M116.34,132.41 C114.83,133.07 113.34,131.22 112.01,132.83 C112.43,129.83 113.36,131.62 115.4,131.69 C117.07,131.75 120.31,131.11 121.78,132.2 L116.34,132.41 Z"/>
      <path fill="#EFEFF0" d="M50.41,139.87 C52.31,139.07 53.63,140.61 53.16,142.37 C52.69,144.13 50.26,141 50.41,139.87 Z"/>
      <path fill="#DDDFE0" d="M46.58,131.19 C47.4222564,131.239988 48.2518818,131.418729 49.04,131.72 C47.7,135.89 41.19,130.52 46.58,131.19 Z"/>
      <path fill="#323031" d="M42.3,81.46 C42.66,79.85 45.43,81.64 44.91,79.22 C46.0107137,80.1048009 46.641684,81.4479189 46.62,82.86 C46,83 42.31,82.14 42.3,81.46 Z"/>
      <path fill="#E3E4E5" d="M61.46,146 C61.14,147.69 58.46,149.57 59.09,146.81 C59.35,145.68 61.51,143.8 61.46,146 Z"/>
      <path fill="#CACCCE" d="M112.61,114.3 C112.56,114.36 111.61,120.53 110.32,116.87 C109.48,114.53 111.68,115.62 112.61,114.3 Z"/>
      <path fill="#2C292B" d="M58.44,12.51 C58.44,15.39 53,13.35 57.04,9.98 C57.7647916,10.6522503 58.2553914,11.5388343 58.44,12.51 Z"/>
      <path fill="#A8AAAC" d="M82.79,130.12 C83.92,128.99 88.59,130.21 86.04,127.38 C87.36,127.38 88.87,127.22 89.71,128.54 C88.71,128.44 88.08,129.54 87.22,129.93 C85.92,130.49 84.14,130 82.79,130.12 Z"/>
      <path fill="#E5E6E7" d="M20.63,65.06 C22.84,64.58 22.22,66.89 20.16,67.2 C17.86,67.55 19.62,65.43 20.63,65.06 Z"/>
      <path fill="#EEEFEF" d="M52.62,98.86 C52.27,102.13 49.75,98.86 49.62,98.86 C50.18,98.89 51.69,95.86 52.62,98.86 Z"/>
      <path fill="#E4E5E6" d="M111.71,100.69 C109.44,100.81 111,98.5 112.52,98.29 C115.05,97.93 112.15,100.43 111.71,100.69 Z"/>
      <path fill="#F4F5F5" d="M16.54,36.31 C16.27,36.81 15.05,40.46 13.78,38.88 C13.08,38 15.6,33.76 16.54,36.31 Z"/>
      <path fill="#D1D2D4" d="M146.57,119.26 C146.03,117.84 146.18,113.58 148.2,116.55 C149.34,118.22 148.2,120.18 148.2,121.96 C146.81,121.41 148.73,119.21 146.57,119.26 Z"/>
      <path fill="#D4D5D7" d="M101.64,4.91 C100.8,7.53 99.28,4.76 98.8,4.71 C98.9,4.72 101.4,1.9 101.64,4.91 Z"/>
      <path fill="#A9ABAD" d="M100.68,101.34 C100.88,101.86 103.8,98.98 103.79,98.98 C105.56,99.44 103.18,101.71 106.04,101.98 C104.08,103.45 102.65,100.68 100.68,101.34 Z"/>
      <path fill="#EEEFEF" d="M113.59,35.27 C111.59,36.12 110.68,33.27 112.4,32.42 C113.13,32.06 115.3,34.44 113.59,35.27 Z"/>
      <path fill="#86888B" d="M99.55,109 C99.3,110 96.75,110.75 95.95,110 C95.85,107.66 97.71,107.14 99.56,106.69 C99.52,107.12 99.18,108.67 99.55,109 Z"/>
      <path fill="#EBECED" d="M123.81,145.26 C121.81,145.16 121.313333,144.25 122.32,142.53 C123.22,143.21 125.23,143.29 123.81,145.26 Z"/>
      <path fill="#D8D9DB" d="M56.32,145.81 L54.14,144.76 C55.78,144.45 54.82,141.37 56.14,141.69 C57.46,142.01 56.47,145 56.32,145.81 Z"/>
      <path fill="#3B3A3C" d="M129.14,129 C131.25,127.4 130.64,125.38 132.91,129.09 C131.694751,129.581496 130.330411,129.548926 129.14,129 Z"/>
      <path fill="#727376" d="M96,110 L97,110.16 C95.91,113.29 91.12,110.8 93,108.57 C93.6027027,109.626975 94.7993823,110.197392 96,110 Z"/>
      <path fill="#3A393B" d="M30.36,90.58 C29.36,90.37 24.97,92.58 25.01,91.58 C25.13,88.83 29.09,90.1 30.36,90.58 Z"/>
      <path fill="#8F9294" d="M59.61,40.17 C60.14,41.07 61.93,45.62 58.97,43.59 C57.57,42.63 59.53,41.51 59.61,40.17 Z"/>
      <path fill="#979A9C" d="M12,78 C11.51,76.88 11.91,75.35 10.4,74.87 C11.2,74.87 12.47,73.73 12.75,74.87 C13.05,76.44 14.52,76.64 12,78 Z"/>
      <path fill="#A3A5A7" d="M44.46,132.26 L45.46,133.35 C44.22,134.88 42.25,134.44 40.57,134.44 C41.45,132.72 44.1,134.38 44.46,132.26 Z"/>
      <path fill="#CACCCE" d="M48.71,101.9 C48.84,106.15 42.89,104.61 43.28,102.53 C45.28,103.56 46.71,101.9 48.71,101.9 Z"/>
      <path fill="#E1E2E3" d="M48.71,45.11 C48.36,45.47 45.39,46.22 45.1,45.21 C44.43,42.9 49.7,44.42 48.71,45.11 Z"/>
      <path fill="#4F5052" d="M48.71,45.11 C48.17,44.03 52.07,45.59 52.36,46.63 C49.77,48.79 49.89,46.07 48.71,45.11 Z"/>
      <path fill="#F4F5F5" d="M79.48,9.16 C80.48,6.89 81.89,6.83 81.33,9.79 C81,11.73 78.75,10.9 79.48,9.16 Z"/>
      <path fill="#9FA1A4" d="M6.61,54.26 C4.16,55.56 3.47,52.5 4.88,50.8 C5.71,51.8 5.15,53.72 6.61,54.26 Z"/>
      <path fill="#E6E6E7" d="M49.89,143.6 C49.49,146.14 48.25,144.65 47.95,142.99 C47.56,140.93 49.55,142.36 49.89,143.6 Z"/>
      <path fill="#C9CBCD" d="M47,145.22 C46.32,148.36 44.85,144.67 44.61,144.63 C44.66,144.64 47.06,142.61 47,145.22 Z"/>
      <path fill="#E6E7E8" d="M12,60.71 C13.21,62.13 12.41,63.05 10.94,63.57 C10.82,63.1 9.73,59.72 12,60.71 Z"/>
      <path fill="#EFF0F0" d="M102.74,145.87 C105.91,147.1 102.8,148.51 102.81,148.53 C102.82,148.55 100.09,145.48 102.74,145.87 Z"/>
      <path fill="#DBDCDE" d="M66,22.38 L65.46,20.15 C68.36,17.23 68.2,25.94 66,22.38 Z"/>
      <path fill="#5D5E60" d="M84.15,20.64 C83.87,23.9 80.89,18.18 82.1,18.5 C83.0665098,18.8745767 83.8172703,19.6582974 84.15,20.64 Z"/>
      <path fill="#292627" d="M124.44,28.84 C121.85,29.37 124.35,24.73 121.75,25.84 C122.667713,25.0200188 124.032434,24.9492863 125.03,25.67 C124.405301,26.6003783 124.19186,27.747169 124.44,28.84 Z"/>
      <path fill="#666769" d="M103.5,27.76 C103.5,30.53 101.26,27.87 101.26,27.87 C101.47,27.85 103,25.39 103.5,27.76 Z"/>
      <path fill="#D2D3D5" d="M108.17 24.61C107.4 27.2 105.32 24.3 105.17 24.29 105.53 24.32 108.09 22.25 108.17 24.61zM88.72 66.84C88.65 67.31 85.81 67.13 85.4 66.4 84.73 65.22 88.59 64.61 88.72 66.84z"/>
      <path fill="#7C7E80" d="M21.68,117 C21.68,116.5 22.13,114.93 22.89,115.16 C23.65,115.39 22.69,121.41 22.28,121.99 C22.26,120.94 21.22,118.06 21.68,117 Z"/>
      <path fill="#DEDFE0" d="M88.14,4.9 L88.14,7.18 C87.56,6.79 83.6,7.82 85.08,5.69 C85.43,5.26 87.42,5.59 88.14,4.9 Z"/>
      <path fill="#D9DADC" d="M95.41,55.44 L94.54,55.31 C97,49.21 97.06,55 95.41,55.44 Z"/>
      <path fill="#D0D1D3" d="M80,154.65 C79.29,156.9 77.63,154.59 77.07,154.53 C77.74,154.6 78.87,151.83 80,154.65 Z"/>
      <path fill="#C1C3C5" d="M135.29,38.82 C138.21,39.05 135.29,40.56 135.29,40.64 C135.28,40.47 132.38,39.44 135.29,38.82 Z"/>
      <path fill="#D9DADC" d="M74.16,95.46 C73.3079556,95.8755 72.3120444,95.8755 71.46,95.46 C72.18,93.65 73.86,92.23 74.16,95.46 Z"/>
      <path fill="#C9CBCD" d="M40.64,48.39 C39.64,49.21 38.16,48.83 37.35,49.95 C37.84,48.62 36.17,48.69 35.81,47.76 C37.66,46.32 38.85,49.44 40.64,48.39 Z"/>
      <path fill="#E4E5E6" d="M56.86,7.86 C56.24,10.62 55.04,7.7 54.76,7.67 C55,7.69 56.86,4.94 56.86,7.86 Z"/>
      <path fill="#C0C1C4" d="M61.18,26.64 C60.18,26.94 59.52,28.05 58.45,27.78 C56.45,27.27 60.93,25.51 61.11,25.47 L61.18,26.64 Z"/>
      <path fill="#F2F2F3" d="M79.48,9.16 C80.22,12.3 81.69,7.91 80.64,12.6 C79.85,10.93 77.13,11.22 77.48,8.83 C78,9.77 78.67,9.88 79.48,9.16 Z"/>
      <path fill="#7F8184" d="M101.12,69.47 C101.64,68.62 103,68.57 102.8,67.28 C105.2,69.51 102.4,71.06 101.12,69.47 Z"/>
      <path fill="#8A8C8F" d="M14.66,109 C13.6418982,108.075726 12.2557302,107.670198 10.9,107.9 C10.91971,107.061059 11.2808809,106.266483 11.9,105.7 C12,106.82 16.07,108.75 14.66,109 Z"/>
      <path fill="#B2B4B6" d="M92,153.92 C93.51,153.38 93.11,150.76 95.32,151.78 L93.63,155 C93.2178962,154.47305 92.6459145,154.094069 92,153.92 Z"/>
      <path fill="#E1E2E3" d="M121,128.84 C118.36,128.45 120.84,126.07 120.81,125.71 C120.83,126.3 123.05,128 121,128.84 Z"/>
      <path fill="#E3E4E5" d="M121.29,122.83 C120.45,123.76 118.29,123.83 119.03,122.1 C119.83,120.15 122.73,120.93 121.29,122.83 Z"/>
      <path fill="#333132" d="M56.31,48.44 C54.79,48.44 55.65,46.73 54.61,46.21 C56.06,46.34 57.61,46.47 57.93,48.27 L56.31,48.44 Z"/>
      <path fill="#D5D6D8" d="M110.37,141.57 L109.26,144.19 C109.69,141.71 106.92,142.19 107.13,140.43 C108.51,140.12 110,139.62 110.37,141.57 Z"/>
      <path fill="#6A6C6E" d="M110.37,141.57 C109.635906,140.548181 108.3422,140.092989 107.13,140.43 C108.07,139.49 109.65,140.02 110.42,138.81 C110.16,140.36 111.42,140.25 112.42,140.43 C111.987257,141.146729 111.207172,141.580533 110.37,141.57 Z"/>
      <path fill="#E1E2E4" d="M117.81,26.88 C119.97,27.38 118.65,29.04 118.67,29.09 C118.69,29.14 115.23,26.87 117.81,26.88 Z"/>
      <path fill="#DCDDDE" d="M58.42,42 C60.75,43.62 55.81,43.69 56.29,43.35 C56.77,43.01 56.21,41.65 58.42,42 Z"/>
      <path fill="#D5D7D8" d="M34,134 L34.74,132.7 C35.5761467,133.287542 36.4669237,133.793208 37.4,134.21 C36.71,134.21 35.76,135.11 34,134 Z"/>
      <path fill="#E2E3E4" d="M95.7,37.44 C95.3310987,37.9060841 95.0560268,38.4392482 94.89,39.01 C94.6682949,39.2437217 94.3523344,39.3639381 94.0313404,39.3367022 C93.7103464,39.3094664 93.4191573,39.1377342 93.24,38.87 C93.32,38.83 93.92,35.62 95.7,37.44 Z"/>
      <path fill="#848689" d="M4.46,57.44 C3.93,59.34 1.85,60.79 4.9,61.8 C2.4,63.64 1.71,57.9 4.46,57.44 Z"/>
      <path fill="#E4E5E6" d="M67.05,26 C66.25,28.73 65.05,26 64.68,26 C64.87,26.05 66.6,23.32 67.05,26 Z"/>
      <path fill="#9EA0A3" d="M117.4,18 C114.34,16.5 119.57,12.33 120.69,15.38 C119.36,16.2 117.36,15.82 117.4,18 Z"/>
      <path fill="#D7D9DA" d="M115.93,126.71 C119,127.11 115.79,129.08 115.79,129.04 C115.79,129 113.23,126.65 115.93,126.71 Z"/>
      <path fill="#9FA1A3" d="M83.28,155.06 C85.6,154.84 86.4,153.94 88.74,153.94 C88.5143057,154.130005 88.3840303,154.409975 88.3840303,154.705 C88.3840303,155.000025 88.5143057,155.279995 88.74,155.47 C87,155.13 85,156.14 83.28,155.06 Z"/>
      <path fill="#CFD0D2" d="M7.67,57.08 C8.67,55.78 10.21,56.08 11.56,56.54 C9.64,57.68 9.27,58.92 7.67,57.08 Z"/>
      <path fill="#B2B4B6" d="M96.39,13.24 C96.32,12.83 95.22,7.45 97.59,9.06 C98.14,9.43 96.44,13.05 96.39,13.24 Z"/>
      <path fill="#CACCCD" d="M93,108.54 C93.06,109.95 92.45,112.25 90.46,110.14 C91.08,109.19 91.5,107.92 93,108.54 Z"/>
      <path fill="#D2D3D5" d="M12,39.5 C12.08,41.93 9.73,39.81 9.59,39.84 C10.14,39.75 10.8,37.53 12,39.5 Z"/>
      <path fill="#D2D4D5" d="M113.59,35.27 C114.18,33.61 114.5,32.62 116.33,32.64 C116.45,34.44 115.29,35.31 113.59,35.27 Z"/>
      <path fill="#A0A2A5" d="M34.18,19.71 C31.35,22.76 30.34,16.2 32.7,17.11 C34.3,17.72 31.56,19.43 34.18,19.71 Z"/>
      <path fill="#C8C9CB" d="M46.58,131.19 C45.01,131.28 42.76,132.7 41.16,131.64 C39.77,130.71 45.67,130.66 46.58,131.19 Z"/>
      <path fill="#ABADB0" d="M127,120.23 C124.56,120.03 127.1,118.77 127.12,118.42 C127.11,118.42 129.28,119.6 127,120.23 Z"/>
      <path fill="#242021" d="M96.8,130.2 C96.8,130.83 92.35,130.4 91.3,130.61 C92.85,129.44 95.73,127.43 96.8,130.2 Z"/>
      <path fill="#F4F4F4" d="M120.69,15.38 C119.707515,15.6724054 118.672757,15.119345 118.37,14.14 C119.65,12.82 122.34,14.44 120.69,15.38 Z"/>
      <path fill="#DEDFE0" d="M66.08,101.9 C66.88,98.99 67.47,101.82 67.68,103.06 C66.6,103.5 66.6,102.45 66.08,101.9 Z"/>
      <path fill="#C4C6C8" d="M77.28 108.48L75.57 109.48C75.57 108.39 73.94 108.09 74.74 106.87 75.8281954 106.865395 76.8197653 107.49391 77.28 108.48zM76.87 39L76.79 40.3C74.41 38.12 75.48 35.76 76.87 39z"/>
      <path fill="#D5D6D8" d="M103.67,23.11 C103.15,25.36 101.42,23 101.23,23 C101.41,23 103.67,20.9 103.67,23.11 Z"/>
      <path fill="#D3D4D6" d="M142.34,120.87 C143.86,121.57 142.15,122.87 141.8,122.15 C141.678974,121.911282 141.669174,121.631389 141.773208,121.384791 C141.877242,121.138192 142.084558,120.949896 142.34,120.87 Z"/>
      <path fill="#CFD0D2" d="M41.68,28.71 C41.75,26.05 42.68,27.71 43.09,28.86 L41.68,28.71 Z"/>
      <path fill="#353335" d="M73.63,123.52 L73.08,124.7 C69.87,123.77 69.61,118.6 71.26,116.23 C73.17,113.51 76.21,115.96 77.82,113.91 C81.06,117.2 77.93,121.41 75.68,123.58 C74.99,122.75 74.44,122.29 74.42,121.16 C74.27,122.22 74.55,122.71 73.63,123.52 Z"/>
      <path fill="#515153" d="M90.89,117.17 C92.75,114.71 95.89,123.17 92.79,124.59 C90.7,125.59 89.79,123.41 89.36,121.71 C88.71,119.16 89.58,119.09 90.89,117.17 Z"/>
      <path fill="#E9EAEB" d="M93.6,124.15 C92.79,123.15 91.07,113.34 93.83,116.65 C95.07,118.13 96,123.47 93.6,124.15 Z"/>
      <path fill="#E2E3E4" d="M77.79,122 C77.61,120.72 76.41,117.4 77.4,116.54 C80.06,114.22 79.48,120.27 79.53,120.64 C80,123.84 78.36,126.62 77.79,122 Z"/>
      <path fill="#DFE0E1" d="M85,121.45 C85.86,119.97 83,113.18 86.16,115.07 C87.7,116 86.9,123.41 85,121.45 Z"/>
      <path fill="#3F3F41" d="M106.18,132.36 C106.34,133.29 104.45,139.31 102.74,137.61 C101.51,136.39 105,132.99 105.09,131.74 L106.18,132.36 Z"/>
      <path fill="#E1E2E3" d="M96.94,119.92 C96.61,116.46 97.94,116 98.24,119.47 C98.63,123.27 96.7,124.31 96.94,119.92 Z"/>
      <path fill="#E9E9EA" d="M77.82,113.91 C78.49,116.4 72.72,115.17 71.68,115.5 C71.07,112.8 76.6,113.89 77.82,113.91 Z"/>
      <path fill="#C4C6C8" d="M75.18,110 L76.46,110.7 C75.68,111.57 70.02,112.95 70.29,110.98 C70.58,108.77 74.09,111.07 75.18,110 Z"/>
      <path fill="#F6F7F7" d="M83.35,123.14 C80.84,125.58 81.86,117.14 82.04,116.39 C82.41,116.91 83.86,122.75 83.35,123.14 Z"/>
      <path fill="#E4E5E6" d="M71.68,115.5 C72.16,116.66 72.08,118.5 70.43,119.09 C68.75,117.09 69.24,116.17 71.68,115.5 Z"/>
      <path fill="#E8E9E9" d="M67,121.92 C66.6,121.35 65.37,116.08 67.43,117.45 C68.6,118.2 67.85,121.17 67,121.92 Z"/>
      <path fill="#D2D4D5" d="M70.46,121.12 C71.89,121.91 72.03,123.64 73.08,124.7 C69.86,124.93 69.33,124.21 70.46,121.12 Z"/>
      <path fill="#E4E5E6" d="M88.79,121 C91.79,120.21 90.58,123.6 90.79,123.9 C90.24,123.12 87.81,123.7 88.79,121 Z"/>
      <path fill="#D3D4D6" d="M99.55,109 C97.29,110.37 98.22,107.79 99.55,106.88 C101.94,105.2 99.56,109 99.55,109 Z"/>
      <path fill="#DADBDC" d="M96.8,130.2 C95.63,128.61 94.05,129.73 92.54,129.68 C93.46,128.79 94.43,127.75 95.29,127.63 C96.53,127.47 96.87,129.09 98.46,128.53 C97.7304005,128.878242 97.1438543,129.468322 96.8,130.2 Z"/>
      <path fill="#AEB0B3" d="M90.89,117.17 C90.72,118.51 91.16,120.74 88.89,118.5 C86.83,116.51 90.37,117.26 90.89,117.17 Z"/>
      <path fill="#E7E8E9" d="M83.35,123.14 C83.35,122.14 85.46,120.97 86.52,121.44 C86.83,124.14 85.13,123.46 83.35,123.14 Z"/>
      <path fill="#DBDDDE" d="M92.51,116 L91.94,117.15 C89.52,114.61 89.59,112.37 92.51,116 Z"/>
      <path fill="#F3F3F4" d="M75.09,121.48 C77.72,122.93 74.32,123.54 73.63,123.48 C73.64,123.31 73.57,119.9 75.09,121.48 Z"/>
      <path fill="#F5F5F6" d="M39,31.54 C40.58,36.18 29.66,41.79 30.07,33.68 C30.25,29.99 30.78,31.78 32.6,32.68 C33.69,33.21 33.44,34.38 34.94,34.52 C35.93,34.59 38.18,32 39,31.54 Z"/>
      <path fill="#8E9093" d="M35.73,36.94 C36.4939846,35.267551 37.8517175,33.938327 39.54,33.21 C41,37.3 38.25,35.7 35.73,36.94 Z"/>
      <path fill="#C0C2C4" d="M25.64,44.43 C22.51,46.26 22.47,43.51 21.74,41.78 C23.73,41.64 24.82,42.84 25.64,44.43 Z"/>
      <path fill="#E1E2E4" d="M22.34,32.84 L22.83,31 C22.65,32.87 25.89,32 24.68,35.44 C23.64,34.87 23.68,33 22.34,32.84 Z"/>
      <path fill="#B2B4B7" d="M29.15,38.33 C28.79,39.97 27.51,38.55 27.08,38.54 C26.25,38.53 29.17,35.3 29.15,38.33 Z"/>
      <path fill="#DCDDDF" d="M41.18,122.51 C38.77,122.6 37.66,121.03 37.82,118.51 C37.89,117.37 39.13,113.1 40.26,112.79 C45.23,111.45 45.82,123.43 41.18,122.51 Z"/>
      <path fill="#525254" d="M42.64,115.22 C41.98,112.82 39.64,113.36 39.97,109.9 C40.17,107.97 39.78,106.63 41.97,107.11 C46.17,108.05 44.93,116.91 42.64,115.22 Z"/>
      <path fill="#333133" d="M34.16,115 C32.4,113.17 33.24,111.2 34.65,109.54 C36.01,110.88 39.94,114.54 37.14,116.54 C35.45,117.8 34,116.67 34.16,115 Z"/>
      <path fill="#DBDCDE" d="M49.71,125.76 C48.79,126.14 39.46,130.13 43.19,125.42 C44.85,123.33 48,124.63 49.71,125.76 Z"/>
      <path fill="#E5E6E7" d="M50.73,121.92 C48.89,121.92 49.91,119.69 48.16,119.69 C45.28,119.69 48.32,122.41 48.86,123.02 C47.4,125.02 43.14,121.14 44.2,119.12 C46.34,115.05 52.62,116.47 50.73,121.92 Z"/>
      <path fill="#ECEDEE" d="M47,108.46 C49,107.95 54.54,112.29 52.4,113.51 C49.94,114.94 46.37,110.67 47,108.46 Z"/>
      <path fill="#5A5B5D" d="M56.29,108 C57.62,107.69 58.84,106.51 60.23,106.88 C62.65,107.52 61.37,109.74 60.07,110.59 C58.75,108.12 58.92,110.59 57.97,111.22 C57.6346388,110.043652 57.0630012,108.948014 56.29,108 Z"/>
      <path fill="#F6F7F7" d="M43.83,120.35 C46.97,120.59 45.31,122.27 43.57,122.87 C39.39,124.3 42.21,119.68 43.83,120.35 Z"/>
      <path fill="#3B3B3C" d="M47,108.46 C47,110.46 53.4,113.94 49.67,114.55 C45.68,115.2 46,110.6 47,108.46 Z"/>
      <path fill="#E9EAEB" d="M44.31,111.12 C43.31,109.7 42.25,108.27 41.21,106.85 C46,105.65 45.13,111.55 44.31,111.12 Z"/>
      <path fill="#4F5052" d="M50.73,121.92 C51.42,119.84 47.82,115.33 49.73,114.76 C53.23,113.69 51.86,120.46 50.73,121.92 Z"/>
      <path fill="#666769" d="M41.12,111.6 C39.87,115.6 35.85,112.09 38.9,107.87 C40.39,108.58 40.5,110.3 41.12,111.6 Z"/>
      <path fill="#39383A" d="M34.16,115 C34.25,117.84 36.98,114.71 37.78,116.4 C38.98,118.95 37.39,119.31 35.12,119.24 C36.62,116.86 32.18,117 34.16,115 Z"/>
      <path fill="#8F9194" d="M36.75,119.29 C37.2574964,119.086053 37.6278191,118.639797 37.7346957,118.103398 C37.8415723,117.566999 37.6705711,117.012885 37.28,116.63 C38.22,115.63 39.8,119.63 39.63,120.43 C38.89,123.9 37.19,121 36.75,119.29 Z"/>
      <path fill="#F0F1F1" d="M46.3,123 C47.1331611,122.472986 48.2089662,122.532803 48.978566,123.148934 C49.7481658,123.765065 50.0419351,124.801711 49.71,125.73 C48.65,125.9 46.29,124.21 46.3,123 Z"/>
      <path fill="#E5E6E7" d="M41.12,111.6 C41.01,111.29 36.48,105.66 40.6,106.84 C41.0270978,108.388586 41.2026676,109.995725 41.12,111.6 Z"/>
      <path fill="#FDFDFD" d="M44.31,111.12 C44.8487833,110.79214 45.4412028,110.561942 46.06,110.44 C46.43,115.6 42.24,113.77 44.31,111.12 Z"/>
      <path fill="#E9EAEB" d="M45.93,104.24 C47.7,102.77 48.76,103.59 49.26,105.24 C48.54,105.72 45,105.83 45.93,104.24 Z"/>
      <path fill="#76787B" d="M45.93,104.24 L46.13,105.13 C44.31,104.93 42.94,103.51 41.08,103.49 C42.88,102.82 40.88,101.8 43.28,102.49 C44.2006361,103.014781 45.0858687,103.599369 45.93,104.24 Z"/>
      <path fill="#6E7072" d="M49.79,106.38 C52.37,106.98 51.79,104.08 54.14,106.82 C52.66,108.23 51.16,107.27 49.79,106.38 Z"/>
      <path fill="#CACCCE" d="M39.57,123 C40.64,124.56 42.35,125.46 40.64,127.45 C40.4,127 38.27,123.66 39.57,123 Z"/>
      <path fill="#AAACAE" d="M52,116.26 C51.24,115.45 48.57,114.88 48.77,113.8 C49.6,114.13 50.19,113.96 50.53,113.27 C51.05,112.27 51.87,112.33 53.01,113.27 C51.41,113.88 53.32,115.53 52,116.26 Z"/>
      <path fill="#EAEBEC" d="M39.57,123 L39.1,124.07 C35.8,121.26 39.55,121.2 39.57,123 Z"/>
      <path fill="#B6B8BA" d="M28.74,116.6 C26.34,114.44 27.05,107.22 28.08,104.6 C28.81,104.79 29.65,107.34 29.86,107.87 C30.74,110.14 30.3,110.8 30.2,113.14 C30.2,113.52 31.2,117.28 30.54,117.62 C29.55,118.15 28.66,118 28.74,116.6 Z"/>
      <path fill="#3B3A3B" d="M30.25,100.66 C31.87,98.58 33.56,97.57 35.92,99.51 C33.59,100.32 30.13,104.22 30.25,100.66 Z"/>
      <path fill="#4A4A4C" d="M28.74,116.6 C29.64,118.6 30.4,118.34 29.74,121.44 C27.33,120.76 26.67,118.65 28.74,116.6 Z"/>
      <path fill="#EAEBEC" d="M30.54,117.62 C30.26,115.51 27.95,112.89 30.83,111.62 C31.4417892,113.591889 31.3391092,115.716304 30.54,117.62 Z"/>
      <path fill="#5E5F62" d="M30.25,100.66 C30.57,101.5 30.25,108.43 28.69,106.66 C26.9,104.69 29.93,102.65 30.25,100.66 Z"/>
      <path fill="#7F8184" d="M28.23,105.73 C29.76,106.8 30.86,108.73 28.97,110.41 C28.4893486,108.896099 28.2398739,107.31834 28.23,105.73 Z"/>
      <path fill="#BDBEC1" d="M127.94,86.72 C127.23,88.91 124.65,87.19 124.37,85.72 C124.09,84.25 127.74,85.31 127.94,86.72 Z"/>
      <path fill="#302E2F" d="M141.72,60.29 C143.97,61.69 143.96,62.56 141.72,64.29 C139.67,62.9 141.3,61.6 141.72,60.29 Z"/>
      <path fill="#CED0D2" d="M44,82 C47.93,81.63 45.56,86 46.44,87.4 C45.54,86.64 43.46,82 44,82 Z"/>
      <path fill="#464647" d="M49.83,91.14 C49.38,91.41 46.42,93.8 45.89,92.78 C45.36,91.76 49.6,88.35 49.83,91.14 Z"/>
      <path fill="#B1B3B6" d="M40.06,83 C39.98,84 39.63,85 41.06,85 C38.94,87.93 36.58,82.9 40.06,83 Z"/>
      <path fill="#9D9FA2" d="M75.28,65.16 C75.86,63.61 75.71,62.39 77.46,62.52 C75.26,65.61 87,67.07 82.2,69 C81.57,69.25 78.36,68.16 77.78,67.92 C76.68,67.44 73.46,67.67 75.28,65.16 Z"/>
      <path fill="#393839" d="M76.86,44 C78.74,43.18 80.86,43.31 79.04,45.91 C77.4,48.28 75.5,46.32 76.86,44 Z"/>
      <path fill="#2C2A2B" d="M125.49,102.44 L124.49,101.44 C127.6,98.22 138.38,99.93 136.59,105.55 C135.85,107.88 134.04,103.55 133.1,102.92 C130.73,101.22 128.19,101.77 125.49,102.44 Z"/>
      <path fill="#282526" d="M136.26,124.05 C133.15,124.77 133.09,114.93 134.38,113.32 C137.43,109.5 136.8,122.26 136.26,124.05 Z"/>
      <path fill="#999C9E" d="M136.85,114.39 L135.33,112.72 C134.835137,113.418125 134.472474,114.201071 134.26,115.03 C134.34,113.62 132.49,109.1 135.19,109.25 C136.24,109.31 136.83,113 136.85,114.39 Z"/>
      <path fill="#414143" d="M134,127.74 C132.38,127.33 132.21,125.07 131.5,123.9 C134,125.29 136.3,124.14 134,127.74 Z"/>
      <path fill="#59595C" d="M136.29,109.53 C132.47,111.27 135.76,107.25 135.29,105.73 C135.940996,106.087732 136.416615,106.697 136.605655,107.415354 C136.794696,108.133707 136.680584,108.898168 136.29,109.53 Z"/>
      <path fill="#4E4E50" d="M10.31,93.24 C13.52,93.31 10.66,95.58 10.69,95.77 C10.6,95 7,94.39 10.31,93.24 Z"/>
      <path fill="#4C4C4E" d="M8.86,97.44 C11.24,97.26 8.86,99.83 8.86,100.44 C8.9,99.65 6.51,99.36 8.86,97.44 Z"/>
      <path fill="#8B8D90" d="M13.64,87.88 L14.13,87.03 C16.31,88.44 14.59,90.25 14.19,92.03 C14,90.64 13.82,89.26 13.64,87.88 Z"/>
      <path fill="#4E4E50" d="M12.17,90.77 C11.46,93.11 10.06,90.77 9.76,90.77 C9.85,90.8 11.78,88.18 12.17,90.77 Z"/>
      <path fill="#242122" d="M41.7,49.86 C45.28,46.97 53.98,48.86 57.7,50.37 C59.64,51.17 63.47,53.13 64.17,55.27 C65.03,57.95 63.83,58.05 60.65,59.41 C57.7374376,60.7269983 54.6938769,61.7325801 51.57,62.41 C49.73,62.75 41.86,63.18 40.75,61.18 C38.85,57.76 44.75,58.78 45.97,58.79 C48.62,58.79 51.31,57.52 53.97,58.03 C50.56,58.39 50.24,52.42 47.19,51.85 C44.81,51.4 44.42,53.16 43,54.49 C41.22,56.16 41.29,56.12 38.86,56.9 C37.3,57.39 33.57,59.98 33.23,56.15 C33,54 40,49.9 41.7,49.86 Z"/>
      <path fill="#F8F8F8" d="M51.5,59.32 C50.05,60.91 38.73,59.18 41.94,61.81 C39.94,61.71 32.88,56.44 37.04,55.13 C38.04,54.82 39.64,55.96 40.32,55.7 C41.42,55.28 41.32,53.86 42.14,53.21 C42.96,52.56 48.27,47.65 47.44,52.67 C48.73,49.36 54.28,56.4 51.5,59.32 Z"/>
      <path fill="#424143" d="M36.3,57.57 C37.73,58.39 39.17,57.82 40.1,59.33 C40.56,60.07 36.31,60.58 36.3,57.57 Z"/>
      <path fill="#3E3E3F" d="M82.76,68.4 C84.12,65.81 84.4,68.97 86.03,69.4 C81.48,70.07 87.71,72.4 87.92,72.74 C87.16,74.03 80.12,74.07 79.13,73.16 C76.21,70.52 81.25,69.74 82.76,68.4 Z"/>
      <path fill="#242122" d="M118.46,48.78 C121.46,49.47 131.35,52.35 132.13,56.09 C132.91,59.83 124.03,62.59 121.13,63.25 C119.2,63.69 109.18,64.12 113.13,60.25 C114.02,59.36 117.39,59.6 118.66,59.17 C121.1,58.36 122.78,57.05 125.53,57.06 C122.98,57.26 121.81,55.3 119.63,55.06 C117.45,54.82 111.92,58.06 110.25,56.06 C109.42,55.06 110.08,52.17 110.6,51.16 C111.6,49.28 110.6,49.61 112.78,48.79 C114.27,48.26 116.8,49.13 118.46,48.78 Z"/>
      <path fill="#272424" d="M110.85,49.32 C112.36,53.79 106.14,54.38 109.19,57.73 C110.37,59.03 112.52,58.42 113.28,60.02 C114.65,62.93 110.61,62.27 109.37,62.15 C107.24,61.94 99.61,57.69 100.12,55.75 C100.72,53.47 108.69,50.05 110.85,49.32 Z"/>
      <path fill="#95979A" d="M148.67,91.65 C149.2,90.03 147.12,89.83 147.09,88.41 C149.19,88.31 148.09,87.79 149.3,88.81 C149.759517,89.8023667 150.304928,90.7526524 150.93,91.65 C150.17,92.64 149.42,92.64 148.67,91.65 Z"/>
      <path fill="#312F30" d="M17.4,116.61 C15.04,118.27 13.1,115.14 14.64,113.49 C17.49,110.43 17.67,114.73 17.4,116.61 Z"/>
      <path fill="#A9ABAD" d="M20.3,101.83 L18.19,103.52 C19.07,101.79 17.55,99.78 19.06,98.21 C19.98,98.75 21.73,98.96 21.77,99.77 C21.84,100.92 20.32,100.68 20.3,101.83 Z"/>
      <path fill="#B4B6B8" d="M147.25,116.5 C143.54,116.69 144.64,110.43 147.09,110.18 C150.58,109.84 150,115.38 147.25,116.5 Z"/>
      <path fill="#57585A" d="M148.77,111.14 C147.09,113.14 145.66,109.43 145.35,108.55 C146.55,107 148.48,110.52 148.77,111.14 Z"/>
      <path fill="#231F20" d="M144.37,103 C145.37,102 142.84,102.19 144.91,101.39 C145.07,101.33 147.39,104.26 145.26,104.24 C144.829683,103.941192 144.515395,103.503308 144.37,103 Z"/>
      <path fill="#323132" d="M146.19,108.41 C144.6,108.67 144.56,108.67 144.48,106.9 C145.58,106.63 146,107.65 146.19,108.41 Z"/>
      <path fill="#E6E7E7" d="M62.75,96.12 L59.9,99.87 C59.83,97.1 60.5,95.85 62.75,96.12 Z"/>
      <path fill="#3B3A3B" d="M63.84,100.8 C61.91,102.74 62,100.71 63.46,99.22 C63.7,98.97 64.95,98.22 65.05,99.22 C65.19,100.4 64.49,99.75 63.84,100.8 Z"/>
      <path fill="#4E4F51" d="M96.64,100.35 C94.36,100.35 93.06,96.93 95.47,95.81 C97.88,94.69 99.19,100.4 96.64,100.35 Z"/>
      <path fill="#312F30" d="M99,98.69 C98,97.69 100.38,95.96 101.11,96.18 C103.56,96.92 100.38,99.07 99,98.69 Z"/>
      <path fill="#EBECEC" d="M82.76,68.4 C83,71 77.46,71 79.13,73.2 C78.1556312,73.1642085 77.2817365,72.5903056 76.8617252,71.7103818 C76.4417138,70.8304579 76.5450716,69.7900861 77.13,69.01 C78.45,67.35 81,68.47 82.76,68.4 Z"/>
      <path fill="#D7D8DA" d="M75.28,65.16 C75.01,67.01 79.15,68.09 75.85,69.94 C74.53,68.09 72.42,66.8 75.28,65.16 Z"/>
      <path fill="#9B9DA0" d="M75.85,69.94 C75.45,66.4 79.52,67.1 81.25,68.46 C79.79,68.69 76.6,70.94 75.85,69.94 Z"/>
      <path fill="#373638" d="M116.18,89 L115.18,89.55 C112.55,83.75 116.59,85.28 116.18,89 Z"/>
      <path fill="#D8D9DB" d="M21.68,117 C22.1925506,117.841113 22.3876152,118.837716 22.23,119.81 C21.3259104,119.50808 20.3289773,119.731332 19.64,120.39 C19.72,119 20.06,117.45 21.68,117 Z"/>
      <path fill="#343334" d="M121.29,122.83 C121.10853,121.678734 121.081625,120.508389 121.21,119.35 C120.648232,118.604303 119.948999,117.972957 119.15,117.49 C119.27,116.21 118.35,115.31 120.53,115.49 C123.53,115.67 124.88,121.73 122.81,123.6 C122.182305,123.757437 121.53439,123.429217 121.29,122.83 Z"/>
      <path fill="#3B3B3C" d="M147.25,116.5 C147.55,115.05 147.9,113.5 149.82,113.85 C148.82,115.41 150.04,117.35 148.74,118.85 C147.53,118.5 148,117.16 147.25,116.5 Z"/>
      <path fill="#D4D5D7" d="M94.72,96.55 C94.06,98.24 96.48,98.69 96.21,100.28 C93.05,100.28 92.27,100.07 91.94,96.54 C92.8594801,96.3732903 93.801743,96.3766797 94.72,96.55 Z"/>
      <path fill="#363536" d="M122.34,116 L120.53,115.44 C121.85,114.66 120.92,112.44 122.8,112.21 C122.928836,113.491806 122.771729,114.786231 122.34,116 Z"/>
      <path fill="#D4D5D7" d="M75.09,121.48 C72.89,121.48 72.51,117.14 73.89,117.06 C76.29,116.91 75.33,120.36 75.09,121.48 Z"/>
      <path fill="#3F3E40" d="M44.41,114 C45.2769101,113.51182 45.9084723,112.692594 46.16,111.73 C51.68,114.51 46.16,119.56 42.24,120.93 C42.38,119.62 43.63,118.23 43.97,117.06 C44.31,115.89 43.69,115.25 44.41,114 Z"/>
      <path fill="#A1A3A5" d="M35.81,112.75 C38.34,113.51 37.97,111.89 37.81,110.17 C39.18,111.37 40.54,113.77 39.43,115.42 C36.85,119.23 36.9,113.69 35.81,112.75 Z"/>
      <path fill="#6E6F72" d="M38.35,116.53 C38.2637741,115.410366 38.9406363,114.37251 40,114 C41.24,116.13 38.64,118 38.35,116.53 Z"/>
      <path fill="#F4F4F5" d="M46.56,118.15 C48.15,113.95 45.56,111.55 50.25,114.83 C48.87,115.5 49.34,120.64 46.56,118.15 Z"/>
      <path fill="#323031" d="M81.08,68.3 C79.8,68.17 78.2,69.22 77.4,67.3 C78.83,66.89 80.51,65.53 81.08,68.3 Z"/>
      <path fill="#E3E4E5" d="M51.5,59.32 L52.61,56.32 C54.8,58.32 56.3,52.13 57.24,55.57 C58.29,59.32 53.41,58.75 51.5,59.32 Z"/>
      <path fill="#292627" d="M49.78,51.84 C45.88,50.57 49.72,55.12 49.37,56.09 C47.09,54.66 46.88,53.15 46.84,50.56 C47.9228973,50.694343 48.9438756,51.1388506 49.78,51.84 Z"/>
      <path fill="#F8F8F8" d="M113.06,60.77 C112.89,58.05 111.49,53.58 115.98,52.77 C116.3,52.71 116.98,54.68 117.33,54.62 C117.68,54.56 118.33,53.62 118.47,53.62 C119.28,53.62 119.12,52.02 120.54,52.34 C121.54,52.56 121.8,54.65 122.61,55.08 C123.42,55.51 131.61,54.17 128.44,57.54 C127.04,59.02 123.5,58.54 121.59,59.19 C118.48,60.22 116.51,62 113.06,60.77 Z"/>
      <path fill="#F2F3F3" d="M111.54,59.74 C109.54,60.02 105.95,57.47 106.54,55.24 C106.68,54.69 110.81,51.3 111.46,51.04 C113.28,53.44 109.82,53.82 110.12,56.04 C110.27,57.27 113.93,58.1 111.54,59.74 Z"/>
      <path fill="#87898B" d="M111,57.93 C110.16,56.41 106.89,56.55 110.3,54.77 C110.53,56.09 111.68,55.77 112.61,55.97 C112.41,57.31 112.21,57.51 111,57.93 Z"/>
      <path fill="#595A5D" d="M111,57.93 C112.07,54.99 113.14,59.16 113,60.27 C110.11,59.22 112.89,59.13 111,57.93 Z"/>
    </g>
  </g>
</svg>
