<svg xmlns="http://www.w3.org/2000/svg" viewBox="0 0 195 258.33"><title>logo</title><path d="M61,255.38a3.76,3.76,0,0,0,1.56-.32,4,4,0,0,0,1.27-.89,4.18,4.18,0,0,0,.86-1.32,4.14,4.14,0,0,0,.31-1.62V250H63v-3h8v3H68v1.23a7.35,7.35,0,0,1-.53,2.8A7,7,0,0,1,66,256.28a6.94,6.94,0,0,1-2.22,1.49,7.5,7.5,0,0,1-5.54,0A6.94,6.94,0,0,1,56,256.28,7,7,0,0,1,54.53,254a7.35,7.35,0,0,1-.53-2.8V243.9a7.34,7.34,0,0,1,.55-2.87,7.06,7.06,0,0,1,1.53-2.31,7.24,7.24,0,0,1,5.18-2.08,6.4,6.4,0,0,1,3,.64,9.22,9.22,0,0,1,2,1.41,8.38,8.38,0,0,1,1.45,2.05l-2.53,1.58a4.22,4.22,0,0,0-.85-1.32,4.56,4.56,0,0,0-1.22-.94,3.87,3.87,0,0,0-1.88-.42,4.12,4.12,0,0,0-1.65.33,4.25,4.25,0,0,0-1.36.92,4.31,4.31,0,0,0-.92,1.35A4.2,4.2,0,0,0,57,243.9v7.33a4.14,4.14,0,0,0,.31,1.62,4.18,4.18,0,0,0,.86,1.32,4,4,0,0,0,1.27.89A3.76,3.76,0,0,0,61,255.38Z" fill="#c4a56e"/><path d="M85,243a3.05,3.05,0,0,0-3-3H72v-3H82.06A5.75,5.75,0,0,1,88,243c0,1.16-1,5-4.06,5.26L88.81,258H85.05l-4.58-9H77v9H74V246h8A3,3,0,0,0,85,243Z" fill="#c4a56e"/><path d="M92,243.64a7.27,7.27,0,0,1,.53-2.77,6.83,6.83,0,0,1,3.7-3.69,7.37,7.37,0,0,1,5.54,0,6.83,6.83,0,0,1,3.7,3.69,7.27,7.27,0,0,1,.53,2.77v7.62a7.23,7.23,0,0,1-.53,2.77,6.8,6.8,0,0,1-3.7,3.7,7.5,7.5,0,0,1-5.54,0,6.8,6.8,0,0,1-3.7-3.7,7.23,7.23,0,0,1-.53-2.77Zm11,.11a3.83,3.83,0,0,0-.31-1.55,4,4,0,0,0-.86-1.28,4.25,4.25,0,0,0-1.27-.86,4.08,4.08,0,0,0-3.12,0,4.25,4.25,0,0,0-1.27.86,4,4,0,0,0-.86,1.28,3.83,3.83,0,0,0-.31,1.55v7.4a3.85,3.85,0,0,0,.31,1.56,4,4,0,0,0,.86,1.27,4.08,4.08,0,0,0,1.27.86,4.08,4.08,0,0,0,3.12,0,4.08,4.08,0,0,0,1.27-.86,4,4,0,0,0,.86-1.27,3.85,3.85,0,0,0,.31-1.56Z" fill="#c4a56e"/><path d="M114,251.26a4.17,4.17,0,0,0,.31,1.62,4.36,4.36,0,0,0,.86,1.32,4.09,4.09,0,0,0,1.28.89,3.91,3.91,0,0,0,3.1,0,4.09,4.09,0,0,0,1.28-.89,4.36,4.36,0,0,0,.86-1.32,4.17,4.17,0,0,0,.31-1.62V237h3v14.26a7.35,7.35,0,0,1-.53,2.8,7,7,0,0,1-1.48,2.25,6.94,6.94,0,0,1-2.22,1.49,7.5,7.5,0,0,1-5.54,0,6.94,6.94,0,0,1-2.22-1.49,7,7,0,0,1-1.48-2.25,7.35,7.35,0,0,1-.53-2.8V240h-2v-3h5Z" fill="#c4a56e"/><path d="M140,243a3,3,0,0,0-2.87-3H128v-3h9.3c3.53,0,5.7,3.44,5.7,6,0,2.38-2.16,6-5.7,6H133v9h-3V246h7.13C139,246,140,244,140,243Z" fill="#c4a56e"/><path d="M0,182H25v5H0Zm15,39H10V203H0v-5H25v5H15Z" fill="#fff"/><path d="M54,221H30V182H54v5H35v11H49v5H35v13H54Z" fill="#fff"/><path d="M93,216v5H83V190.12L76.21,204H70.79L64,190.12V221H59V182h6.39L74,198.72,82.61,182H88v34Z" fill="#fff"/><path d="M103,209.49a7.48,7.48,0,0,0,7.5,7.48c4.28,0,7.48-3.06,7.48-8.08L118,182h5v26.67c0,5.65-4.19,12.72-12,12.72a12.7,12.7,0,0,1-13-12.72V187H94v-5h9Z" fill="#fff"/><path d="M140.1,213.53a12.52,12.52,0,0,1-2.45,3.91,11.62,11.62,0,0,1-3.68,2.61,10.93,10.93,0,0,1-4.59.95H127v-6h2.38a6.53,6.53,0,0,0,2.6-.52,6.31,6.31,0,0,0,2.11-1.45,6.8,6.8,0,0,0,1.41-2.2,7.31,7.31,0,0,0,.5-2.69V187h-7v-5h19v5h-7v21.64A13,13,0,0,1,140.1,213.53Z" fill="#fff"/><path d="M154,216V187h-7v-5h19v5h-7v29h7v5H147v-5Z" fill="#fff"/><path d="M195,182v39h-5.28L176,193.43V221h-5V187h-5v-5h10.84L190,209.3V182Z" fill="#fff"/><path d="M90.05,105.83c2.23,0,5.06,3.73,1.38,4.28,1.33,0,3-1.25,4.56-1.41a33.25,33.25,0,0,1,6.23.15c2.9.46,7.23,1.88,10.18,1,1.82-.54,3.5-4.15,4.82-4.28,2.4-.23,3.86,2.57,4.78,4.08,1.92,3.15,8,19.66,2.29,22.11-4.86,2.06-2.93-5.5-2.76-7.39.3-3.42-.51-6.35-1.5-9.63-.27,3.86,3.4,8.08.93,11.86-2.68,4.1-5.89.93-9.42.93-1.58,0-2.35,1.16-3.76,1.23-1.24.06-3.79-1-5.06-1.17a46.81,46.81,0,0,0-13.68.33c-2.33.38-9.2,2.21-10.94.52s-.56-8.81,0-10.88c.45-1.81,1.84-3.44,2.23-5.14,0,.1.19-4.94-.13-4.4C82.12,104.74,88.47,108.79,90.05,105.83Z" fill="#242021"/><path d="M113.24,38.1c2.74-3.35,1.65.17,4.38-.1,1.06-.11,1.42-1.43,2.52-1.65,1.35-.27,2.14.15,3.51.29a93.33,93.33,0,0,1,20.49,4.51c5.8,2,9.89,6.16,14.13.1.67-1,1.83-2.37,1.48-3.67s-2.16-1-2.38-1.77c-.3-1,.64-1.9.38-2.63-.38-1-1.17-1.32-1.65-2.41-1.62-3.72-4.3-11.34-9.68-8.3-1.15.65-3.73,8.11-5.47,4.82-.8-1.53,1.66-3.8,2.72-4.94,2.45-2.63,3.57-4.22,7.42-2.08.85.47,4.84,2.19,5.25,2.64.17.18,1,3.6,1.21,4.32s.51,2.15.82,2.86c.46,1.07,1.75.61,2.41,1.59-2.29,1.79,3.35,8.47,2.7,12.26-1,5.6-6.33,4.16-10.22,3-5.93-1.73-11.52-4.16-17.5-5.76a56,56,0,0,0-8.16-2c-2.88-.3-4.14.69-6.79,1.13-5.15.84-9.56,2.18-13.35,6.35-1.95,2.15-3.37,10.45-7.31,6.73-3.19-3,1.58-7.84,3.43-10.25,1.53-2,1.55-2.59,4.34-3.39C109.74,39.29,111.83,39.4,113.24,38.1Z" fill="#fcfcfc"/><path d="M64.14,33.25c5.48-1,2.09,4.35-.22,5.94-2.5,1.72-6.64,1.74-9.52,2.81-3.73,1.39-8.28,4.59-12.22,2.34-3.48-2-6.12-5.81-4.88-10,.42-1.43,1.44-3,1.76-3.85s.1-2.22.71-3.28c1.1-1.89,5.66-5.73,7.58-6.38,4.17-1.4,7.29,2.06,8.61,5.73,1.43,4-2.37,10.15-7.15,7.31,1,2.25,4.65.94,6.21-.06,3.26-2.06.33-3.86,2.41-6,.84-.86,1.84-.17,2.66.06C64.21,29,61.55,29,62.3,30.62,62.23,30.48,60.37,36,64.14,33.25Z" fill="#242021"/><path d="M71.7,130.73c-3.43,1-7.16-.17-10.37-.42s-8.18.42-10.29-2.85c-.75-1.16-1.34-7.29-.25-8.73,3.6-4.76,4,2.56,5.37,3.8.61-4.72,11.81-.77,7.06,2.3,4-2.65.4-.62.61-3.27a1.85,1.85,0,0,1-.77-2.19,2.85,2.85,0,0,1,2.27-1.76,1.76,1.76,0,0,0,2.33-1.27,4.46,4.46,0,0,1,.47-2.91c0-2.8-.25-3.35-3.25-4.26-.64-.19-2.14.63-3.38.21-1.52-.5,0-2.6-2.8-2.47-3.64.16-6.05,6.59-9.65.92-2.86-4.48,2.92-9.38,7.5-8.18,4.14,1.08,8.23,4.62,12.35,5.43,2.43.48,2.95-.69,5.14,1.13,3.11,2.57,1.38,5.16.24,8.11-1,2.6-2.34,5.46-2.59,8.29S72.9,128.09,71.7,130.73Z" fill="#252223"/><path d="M58.08,102.49c-2.44-1.91-8.24-2.21-8.81,2.24-.26,2.1,1,1.53,1.78,3.24.66,1.44.37,2.44.65,4.07.11.65,1.07,2.67,1.11,3.34.23,3-.3.34-.69,2.86-.24,1.53.43,3.26.21,4.56s-1.18,2.12-.89,3.28,4.54,6.35-1.11,2.54c-2-1.34-3.26-4.89-3.92-6.93-1.14-3.52.61-5.78.81-9.17.12-2-1-3.76-1.17-5.63-.2-3,1.38-4.73,2.42-7.35-3.48,3-3.18,10.13-2.95,14.24.19,3.47.09,11.19,2.27,14.58,1.09,1.71,7.41,5.22,1.59,3.9-5.07-1.15-6.61-7.73-7.3-12C41,113.5,40.46,92.32,52,95c2.31.54,12.31,4.13,12.11,5.88C63.77,104.31,60,101.61,58.08,102.49Z" fill="#fbfbfc"/><path d="M137.64,81.49A5.41,5.41,0,0,0,138.8,80a1.31,1.31,0,0,1,2,.08c.3-.12,1.14-1.79,1.32-1.74,1.5.43,1.17,2.74,1.61,2.8,2.93.4.51-.71,1.62-2.05,2.25-2.7,5.22-4.78,7.54-7.62a15.71,15.71,0,0,0,3.54-6.63c.3-1.45-.73-5.44.37-6.48,3.69-3.49,1.67,5,1.61,6.24a37.63,37.63,0,0,1-2.29,12,40.53,40.53,0,0,1-8,12c-1.44,1.5-3.05,3.19-5.09,3.84-2.83.88-3.29-1.39-6,1.4-1.25-1.3.67-3-.33-4.51-.38-.57-2.51,1-3.18.3C129.86,85.81,137.35,84.07,137.64,81.49Z" fill="#fbfbfc"/><path d="M60.31,93.86C56.48,96.69,47,82.63,45.23,80.15c-2.55-3.62-3.37-7.32-3.9-11.73C41.09,66.48,39.27,57.8,41,56.6c.24-.16,2.28,7.41,2.7,8.51.68,1.74.87,4,2,5.49,1.56,2.07,1.74.68,3.25,2.13,1.86,1.79,1.89,4.75,3.79,6.31.74.61,2.27.15,3.13.63s1,2.31,1.65,2.48c2.52-1.8,3.07-1.36,4.95-.06.54.37,0,1.67.87,2.2,1.15.7,2.1-.86,3.26-.2C71.55,86.84,63,93.18,60.31,93.86Z" fill="#fafafa"/><path d="M56,30.54c-1.83-4.83-4.79-12.29-10.36-6.87-.59.56-1.57,1.13-1.91,1.9-.25.54,0,3-.21,3.24-2.27,2.4-1.09-1.7-2.2-2.37-.63.28-2.08,5.39-2.31,6.39-.66,2.87-.46,6.92,1,8.93,4.49,6.18,18.82-6.28,21-.88-6,1.82-21.47,13-25.65,3.39C32.41,37.62,37.56,27,41.75,22c2.93-3.49,9.11-5.35,13-2,1.14,1,1.71,3.17,2.33,4.53.55.66,1.11,1.31,1.67,2a3.16,3.16,0,0,1-1,2.88c.11,1.37,1.26,2.63.58,3.92C56.62,36.46,56,30.58,56,30.54Z" fill="#fbfbfb"/><path d="M61,40.88c-3.53-2.12,6.13-4.83,7.95-5.21a36.37,36.37,0,0,1,6.5-1.12c2.51,0,4.15,2.19,5.79,2.29,1.07.06,3-.77,4.24-.79,3,0,.74-1.42,3.83.94,1.73,1.32,1.86,3.63,4.17,3.89,1,.11,0-2.43.43-2.89,5.59.55.88,5.41,1.44,7.6.39,1.54,3,1.9,3.48,2.81.86,1.61.26,1.84.17,3.54-.17,3.14,1.4,8.32-1.95,10-5,2.45-4.45-2.71-4.22-5.75.33-4.21-.2-6.85-3.19-10.31a15.17,15.17,0,0,0-5.64-4c-2.22-.94-4.3-.36-6.33-.93-1.14-.33-.49-2.15-1.89-2.25s-3.7,1.19-5,1.42c-1.12.2-2-.89-3.13-.64a3.7,3.7,0,0,1-3.17,1.44A17.49,17.49,0,0,0,61,40.88Z" fill="#fcfcfc"/><path d="M121.45,67.81c1.86.21,2.3,1.49,3.92,2.31,2,1,4,1,6.23,1.18s5.81,1,8,.32c1.24-.37,1.71-1.21,2.76-1.64,4.36-1.79,6.31-2.48,9.87-5.73,2.15-2,3.84-2.92,2,.84-4.62,9.46-16,10.36-24.88,10.31-9.85-.06-16.2-7.31-20.93-15.73C110.11,58.57,119.48,66.73,121.45,67.81Z" fill="#fbfbfb"/><path d="M83.54,67.91c-.39,8-20.45,8-25.47,6.57C53.4,73.19,50,69.9,47.18,66.14c-1.2-1.6-6.13-8-1.31-5.65,3.2,1.59,5.38,6.41,9,8.26,3.25,1.68,7.84,2.17,11.22,2.22,3.74.06,6.44.25,9.61-2C77,68.06,83.75,63.22,83.54,67.91Z" fill="#fbfbfb"/><path d="M138.78,131.2c15.49,5.17,12.86-12.94,13.25-22.62.23-5.72-1.07-10.27-8.07-8.63-1,.24-4.85,2.7-5.29.49-.24-1.16,3.63-3,4.21-3.27C158,90.4,158,111,156,120.64c-1.45,6.83-4.29,13.21-11.84,13.43a33,33,0,0,1-5.83-.59c.08,0-4.49-.51-4-.23C130.09,130.85,136.48,130.66,138.78,131.2Z" fill="#fbfbfb"/><path d="M36,83.26c3.2,6.35-2.63,8.35-6,13.09-1.13,1.58-3,7.21-4.53,8.2-2,1.32-2.23-.07-3.16-2a21,21,0,0,0,0-2.16c-.34-1-1.43-1.2-1.66-2.36-.45-2.26,1.79-5.58,2.95-7.49,2.32-3.82,6.92-8.7,7.94-1.83C31.31,86.21,31.52,82.5,36,83.26Z" fill="#f9f9f9"/><path d="M57.64,47.39c3.37-.37.87,3-.51,4-1.67,1.31-6,1.5-5.27,4.27,1.21,4.54,13.83,5.07,16.74,4.43,4.5-1,15-3.94,7.36-8.51-1.29-.78-5.77-1.33-4-4,1.35-2,5,.43,6.49,1.4,3.48,2.21,7.87,5.14,4.65,8.83-3.53,4-12.24,6-17.33,6A31.1,31.1,0,0,1,55.5,61.82c-1.94-.81-7.37-4-7.8-6.21C46.86,51.41,55.1,48.74,57.64,47.39Z" fill="#fafbfb"/><path d="M94.46,61.52c3.63-.14,3.23-2.39,2.91-4.4A2.26,2.26,0,0,1,95.68,55a20.56,20.56,0,0,0,2.18-3.23c.73-3.65-3.17-2.65-1-7.23,1.09-2.25,1.89-2.45,3.78-3,0,0,3.21-.46,2.9-.66,4.25,2.78-3.79,7.31-3.54,10.21.17,2,2.8,2.18,3.26,3.5.74,2.1-1.38,3.42-.4,5.55.72,1.54,3.21,1.87,3.92,3.51-1-2.42-1,4.76-.37,3.2-1.53,3.84-2.56,3.3-5.9,1l-2.3-2.15a3.58,3.58,0,0,0-3-.7C94.52,64.4,91.05,62.65,94.46,61.52Z" fill="#262324"/><path d="M71.7,130.73c-1.44-.72-1.78-3.92-1.8-5.75,0-3.62,1.76-8,3.23-11.35.61-1.39,2.14-6.55,4.05-5.62,2.95,1.44-1.5,9.86-1.8,11.6-.83,4.94.32,8.86,2.87,13.09.59,1,3,3.5,3.06,4.48.06,1.39-.86,1.25-1,2.09.08-.56-.85,3.56-.27,2.74-.68,1,.16,1.38-1.47.72C75.83,141.6,73.16,133.08,71.7,130.73Z" fill="#fafafb"/><path d="M140.38,64.64c-2.65-.81-5.49-.07-8.19-.22s-4.26-1.05-6.68-1.85c-4-1.31-13.41-4.74-9.23-10.08,3.23-4.14,10.88-6.3,15.82-6.45,1.29.1,2.58.15,3.88.16.76-.49,1.53-1,2.3-1.44,2.1.81.66,1,0,2.06-2,3-4,2-7.24,2.38A16,16,0,0,0,123,52.26c-6.32,4.73,2.35,7.29,6.92,8.38a15.87,15.87,0,0,0,9.28-.2c1.92-.56,6-3.29,7.89-2C151,61.27,142.28,64.55,140.38,64.64Z" fill="#f9f9f9"/><path d="M163,86.86c-.66-1.29.73-3.11,2.05-3.42,1.74-.4,1.73.72,3.23,1.94,5,4.05,10.09,7.33,7.89,14.5-.49,1.61-.58,4-2.81,3.76-1.52-.18-4.82-5.43-5.14-6.59-.54-2,.1-2.76-.62-4.75S163.07,88.48,163,86.86Z" fill="#f9f9f9"/><path d="M165.13,76.52a2.59,2.59,0,0,1-1,.58c-1.11-.25,1-7.44,6.14-4.69,6,3.23,7.84,6.39,8,12.85,0,1.12.92,3.84.51,4.69-1.26,2.54-2.09-1.21-2.58-1.9-1.34-1.89-12.3-11.23-8.69-12.6Z" fill="#f9f9f9"/><path d="M87.36,82c-5,1.26,1.75,7-3,5.66-3.13-.89-7-9.84-3.16-11.69,1.44-.68,4.33,1.09,5.78,1.45,2.34.58,3.28,0,5.33,2.07s7.75,11.89,4.58,14.86c-4.05-2.22-2.59-4.33-3.72-7.93C92.79,85.09,88.73,80.54,87.36,82Z" fill="#f9f9fa"/><path d="M28.92,104.71c1.63-2.95,3-6.65,5.2-9.21,2.48-2.91,3-2.55,5.27-.08,1.88,2,2.86,4.18.83,6.62-1.44,1.73-4,1.85-3.93-1.91-.22,2.64,2,5.22,1.6,8a5.29,5.29,0,0,0-1.92,2c.17.7.37,1.4.58,2.1-.16,1.35,1.48,3.89-.79,4.59-3.57,1.08-2.3-6-3.11-7.35C31.65,107.79,27.91,107.16,28.92,104.71Z" fill="#f9f9fa"/><path d="M32.3,76.76c-1.28,2.14-3.42,3-5.14,4.65s-3.07,4-4.72,5.69c-1.49,1.58-2,4-3.78.76-1.61-3,.09-8.46,2.56-10.38s5.67,0,7.39-1.8c1.53-1.57-.56-2.87.11-4.21,1-2,3.65-1.84,4.21-.7C32.58,70.07,32,77.19,32.3,76.76Z" fill="#fafafa"/><path d="M153.26,123.05c-.69,1.21-1.91,1.47-2.34,2.25s-.11,1.93-.75,3.25c-1.14-2.21-3.72.59-5.09-1.6-.33-.53,1.83-4.49,2.13-5.32a22.27,22.27,0,0,0,1.45-7.15c0-2.55-2-5.56-1.57-8,.93-.13,2.72,2.53,2.78-.26,0-.61-1.92-2.51-2.48-2.8-1.57-.82-4.23.93-5.19-1.17s3-2.78,4.28-2.75a6.35,6.35,0,0,1,5.24,2.89c2,3,.21,4,.2,7.09C151.92,112,151.58,121.77,153.26,123.05Z" fill="#f8f8f9"/><path d="M119.2,127.39c1.91-3.77.82-6.59-.41-10.35-.49-1.52-2.36-5.18-.87-6.11,2.7-1.67,4.17,5.92,4.51,7.41.92,4-.05,6.67-.33,10.52-.24,3.28-1.36,11.55-6.39,11.12-.58,0-2.75-1.52-2.88-2.22-.31-1.78,1.26-1.52,2.23-2.67C117.42,132.32,117.85,130.5,119.2,127.39Z" fill="#fafafa"/><path d="M84.19,149.76c-.12.78-1.75,3.08-2.49,3.31-2.36.74-.85-1.9-.88-2s2.57-1.95.54-2.26c-1.06-.16-1.82,2-2.9,2.34-4.36,1.44,1.76-4.38,2.38-5.79,1.29-2.93,2.22-7.62,6-8.69,3.93-1.12,1.31,1.86.65,4.16-.71,2.47-1,4.05,0,6.69.63,1.71,3.19,3.71,3.48,5.08.21,1,1.08,1.24-.22,1.93.42-.22-5-1-4.74-.73-.47-.44,0-5.69-1.44-4.93A5.26,5.26,0,0,0,84.19,149.76Z" fill="#f8f9f9"/><path d="M96.08,142.62c1.66,1.24,3.55.3,5.34-.15.81-.2,5.35-1.73,6.33-1.19,2.61,1.43,1.3,7.25-2.77,5.29-.29,3.22-1,1.59-3.64,1.27s-4.62.74-7,.69c-3.36-.06-9-4.13-4.27-7.54C92.87,145.29,92.57,140.87,96.08,142.62Z" fill="#f8f8f9"/><path d="M101.4,86.32c2.43-3.68,5.26-8.64,10.07-9.48,6.68-1.17,9.35,8.59,3.86,9.08-1.64.15-1.87-1.92-3.24-2.7a5.68,5.68,0,0,0-6.06.56c-1.5,1.08-1.71,4.17-2.76,4.8C101.37,89.71,101.07,88.12,101.4,86.32Z" fill="#f8f9f9"/><path d="M163.86,61c2.35-.29,6.45,1.14,8.67,2,.86.34,5.75,2.52,6,3.17.15.36-1.38,1.92-1.29,2.65s1.72,1.27,1.58,2.22c-.54,3.71-4,.17-5.47-.78-1.94-1.25-4.43-1.84-6.3-3.11C164.22,65.28,165.18,64.08,163.86,61Z" fill="#f9f9f9"/><path d="M162,95c1.89-.37,2.61,2.33,3.31,3.5,1.16,2,3.79,4.34,4.59,6.26.5,1.16-.14,2,.16,3.28.51,2.11,3.56,2.55-.59,4.49-2.39,1.11-2.69.4-4.22-1.19a24.8,24.8,0,0,1-2.9-4.33c-.59-1.6-.48-4.22-1-6C160.78,98.93,159.62,96.63,162,95Z" fill="#f8f8f8"/><path d="M40.93,91.73c-1.83-5.31-4-9.93-4-15.2C37,75,35.84,69,36.64,68.1c2.65-2.79,3.3,5.7,3.48,6.69.29,1.62.27,4.37,1.12,5.65.3.44,2.16,1,2.19,1.48s.25,1.54.26,1.74c0-.08-2.25.27-2.13,1.41.31,3,4.06-.62,3.51,3C44.9,89.18,42,92.56,40.93,91.73Z" fill="#fafafb"/><path d="M116.54,139.87c1.23-2.42,3.79-3.73,5.53-6.84,1.32-2.35,2.4-3.9,2.93-6.89.4-2.28-3.27-17-2.41-17,1.8-.15,2.82,7.1,3.08,8,1.2,3.9,1.81,6,1.17,10.3C126.46,129.9,119.76,148.42,116.54,139.87Z" fill="#f9f9fa"/><path d="M81.91,137.86c-3.55.22-6.63-7.51-7.57-10.52-1.09-3.47-.54-7,.44-10.39.51-1.82,1.63-8.15,3.46-8.84,5.67-2.12-.65,10.79-.8,12.8a17.7,17.7,0,0,0,1.42,8.43C80,132,83.31,134.9,81.91,137.86Z" fill="#282526"/><path d="M112.75,136.68c1.77,1.57,5.61,10.51,5.37,12.84-.21,2.09-3.56,3.59-5.43,3.73-2.59.19-1.79,1.28-1.79-1.71,0-1.45,1.54-2.86,1.42-4.49-.13-1.91-6.08-11.42-5.56-12C107.09,134.65,111.32,137.08,112.75,136.68Z" fill="#f6f6f7"/><path d="M83.5,90.91c.26,4.82,2,5.13-2.15,7.89-3.1,2-6.95,3.92-8.55-.88-1-3,.79-6.31,3.75-6.73.36,0,2.78.71,3.63.68C81.66,91.81,81.61,89.12,83.5,90.91Z" fill="#f6f6f7"/><path d="M33.32,110.23c2.26,3-.93,1.46,0,4.06,0,0,2.24,2.94,2.22,2.84A4.16,4.16,0,0,1,34.48,121c-1.73,1.92-.95,1.67-2.88,0s-5.29-7.88-5.05-10.66C27,104.94,31.7,106.43,33.32,110.23Z" fill="#f7f7f7"/><path d="M82.48,136.65c-3.82,0-6.28-11-6.38-13.64-.21-5.76,2.62-9,4.83-14,.38-.55,1.22,1.69,1.22,1.79.06,1.46-1.83,3.68-2.36,5.07a19.89,19.89,0,0,0-.86,10.37C79.5,129,85.25,135.2,82.48,136.65Z" fill="#f8f8f8"/><path d="M21.46,56.44c.76-.19,1.89-2.93,2.15-3.18,1-.91,3.32-.58,4.26-1.16,1.49-.92.36-1.61,2.51-2.28,1.59-.5,6.89-.34,6.47,2.22-.45,2.78-3.17,1-4.77,1.4a47.92,47.92,0,0,0-5.47,2.31c-2.12,1.07-.91.69-2.45,2.41-.45.51-1.69,2.52-2.26,2.64C19.22,61.4,19.48,57.41,21.46,56.44Z" fill="#f8f9f9"/><path d="M67.45,17.41c2.7,3.53-4.55,7.79-7.19,5.51-1.72-1.47-4.18-8.78-6.44-8.84.59-.77,3.93-3.06,4.93-2.93,1.73.23.56.36,1.8,1.31,0,0,.75,2.61.85,2.8.58,1.15,2.24.81,2.52,3.34C65.45,18.22,65.31,16.32,67.45,17.41Z" fill="#f8f8f8"/><path d="M172.75,55c1.36.59,4.66,5.8,2.12,6.52-.8.23-3.86-2.85-4.78-3.28-1.88-.88-4-.73-5.79-1.78-4.67-2.79-.17-3.45,2.9-3.47,1.18,0,1.48-1.36,2.75-1.16S173.51,53.22,172.75,55Z" fill="#f6f6f7"/><path d="M121.34,90.15c3.22,1.74,4.23,4.37,3.2,7.94s-3.44,3.26-7.12,2c-1.1-.36-2.71.41-3-1.28-.39-2.18,2.5-1.33,3-2.27C118.71,93.9,115.83,89.15,121.34,90.15Z" fill="#f5f6f6"/><path d="M92.7,60.2c1.75,3.56-1.61,7.3,2.62,10.07,1.85,1.22,9.54.64,5,3.54C96.93,76,87,74,87,69.07c0-1.55,2.37-3.81,3.21-5.06C90.29,63.93,92.71,60.1,92.7,60.2Z" fill="#f5f5f6"/><path d="M73.83,14.23c-1,1.49,3,5.08-2.64,3.17-2.57-.87-5-5.76-5.12-7.92-.21-2.89,2-5.65,4.05-2.95.31.4.5,2.38,1,3.2C71.89,11.09,75.81,11.65,73.83,14.23Z" fill="#f7f7f8"/><path d="M46.44,61.37a6.26,6.26,0,0,0-2.39-1.6c2.12-1.06-3.3-7.65,1-5.57,1,.5,3.38,4.83,4.81,5.95a23.76,23.76,0,0,0,8.25,4.07c1.34.39,6.12.6,6.67,1.9.78,1.85-3,1-4,.9-1.91-.26-14.95-5.95-14.54-6.6A3,3,0,0,0,46.44,61.37Z" fill="#f6f6f7"/><path d="M153.63,54c5.84,3.56-3.93,9.65-6.59,11-5.3,2.63-11.3,4.08-17,1.72,2.56-.53,8.83.18,10.19-2C145.08,62.58,152.59,60.06,153.63,54Z" fill="#f6f7f7"/><path d="M153.63,54c2,5.57-9,10.8-13.36,10.69.74-2.33,4.66-2.43,6.46-3.83,3-2.38,4.27-5,1.55-7.75-1.46-1.49-9.65-5.51-3.74-6.32C148.53,46.26,151.43,52.08,153.63,54Z" fill="#2c2a2b"/><path d="M134.4,17c.62,1.51-2.18,1.84-1.72,3.14,1.12,3.18,2.47-.36,3.16-1,1-1,6.53-8.56,7-4.57.15,1.23-3.54,6.1-4.44,7.05-1.68,1.76-3.41,2.62-5.86,1C128.54,19.92,132.79,15.49,134.4,17Z" fill="#f6f6f7"/><path d="M100.33,73.81c.73-1.46,1.34-.5,1.74-1.87.29-1-2.33-.94-1.22-2.79s2.4.11,3.75-.44.48-2.34,1.12-2.87c2.37,0,5.49,2.91,5,5C109.83,74.77,102.89,74.28,100.33,73.81Z" fill="#f8f8f8"/><path d="M96.09,87.58c-1.07-3.59-.92-5.19,0-8.73,3.41,3.24,7.21-3.36,6.44,1.71a27.61,27.61,0,0,1-2.69,6.5C98.39,89.43,98.7,89.51,96.09,87.58Z" fill="#f1f1f2"/><path d="M97.64,11.6c.81,3.55-2.09,2.8-4.12.8C92,10.91,90.05,5.8,90.7,3.76,92.63-2.26,97.32,9.12,97.64,11.6Z" fill="#f4f5f5"/><path d="M110.12,140.49c1.6,2.72,4.41,4.66,3.53,7.88-.47,1.69-5.63,6.85-7.87,6.1-1.86-.63,4.93-6.21,4.7-8.37-.22-2-1.92-.65-2-3.1C108.51,143.94,110.1,141.32,110.12,140.49Z" fill="#f4f5f5"/><path d="M142.31,47.43c2.34,1.62,7.7,4.42,8.67,7.25.77,2.25-3.52,7.23-5.34,4.54-1.19-1.77,3.19-2.55.56-5.43s-9.22-2.11-10.74-6C137,47.24,140.66,46.66,142.31,47.43Z" fill="#f6f6f7"/><path d="M25.25,67.5c-.07.89-5.58,8-7.17,6.13-.83-1,1.37-5.86,2-6.76.83-1.26,1.79-2.62,3.35-2.44A2.19,2.19,0,0,1,25.25,67.5Z" fill="#f6f7f7"/><path d="M61.93,31.12c.65-4,6.82-6.21,10.19-8.31.72-.45,5.58-4.57,6.73-2.27C79.14,21.13,64,30.77,61.93,31.12Z" fill="#f2f3f3"/><path d="M137.64,81.49c.14,3.86-4.64,2.21-3.79,6.12s4.3-.31,3.25,6.24c-2.58-.31.7-2.66-.75-4s-3.08,2.56-3.63-1.61c.09,1.45-2,3.69-3.46,2.85-1-.58-1.67-5.21-1.22-6.47.88-2.48,2.89-2,5.31-1.92C136.49,82.86,135.43,84.11,137.64,81.49Z" fill="#c4c6c8"/><path d="M104.08,99.29c-1.24.56-2.78,7.14-4.37,2.48-1.31-3.82,2.56-4.34,4.52-5.69,1.26-.87,3.56-4.19,5.16-2.21C111.54,96.53,105.28,98.8,104.08,99.29Z" fill="#f5f5f6"/><path d="M139.66,139.45c-3.46-.24,1,3.46,1.15,4.81-5.19,2.82-6-.8-6.6-4.7-.23-1.42-2.86.19-1.25-1.94.67-.89,6.38,1.06,7.36,1.27C140.4,139.44,140.18,139.62,139.66,139.45Z" fill="#e8e9e9"/><path d="M131.3,138.8c.69.57-4.43,6.4-4.79,8.22s.09,6-3,3c0,0-.44-4.95-.5-4.81.4-.82,2-.18,2.41-.87C126.89,141.72,127,137.25,131.3,138.8Z" fill="#ededee"/><path d="M159.27,83.09c.12.51-1,7.24-1,7.19-1.21.92-4.37-1.15-5.88-1.63,2.77-1.72,1.33-4.15,3.25-6.09C156.89,81.33,159.41,80.5,159.27,83.09Z" fill="#f7f7f7"/><path d="M82.32,7.77c.16.21,2.13,6.33,2.22,6.17-1.41,2.58-4.4-1.38-5-2.4-.7-1.29-2.38-6.35-1.12-7.41C80.33,2.57,82.53,6.08,82.32,7.77Z" fill="#f3f3f4"/><path d="M73.32,144.81c.19.44,1,4.7.68,5-1.6,1.47-1.68-.14-3.25-.32-.57-.06-7,0-6.63-2.77.35-2.54,4.33,1.51,5.47.65C69.05,147.75,71.5,139.38,73.32,144.81Z" fill="#f5f5f5"/><path d="M131.87,10.91c-.41,1.83-2.39,7.73-5,6.73-1.26-.48-.69-4.34.09-5.48.58-.87,2.62-.25,2.87-1.29s-1.52-2.09-1.34-2.62C129.74,4.43,132.29,9,131.87,10.91Z" fill="#f5f6f6"/><path d="M58.7,48.86c0-2-2.14-2.38-2-3.57,2.15-.55,14.69-1.81,16.14.75C75.18,50.23,60.8,49.08,58.7,48.86Z" fill="#e7e8e9"/><path d="M106.82,63.61c-1.8-.9-6.66-1.81-6.48-4.8.12-2.18,4.41-2.54,1.69-5,4.09.07,2.16,1.59,2.59,4C104.94,59.66,107.14,61.9,106.82,63.61Z" fill="#f7f7f7"/><path d="M81.36,109.09c-1.87.07-13.64-3.39-11.5-5.94,1.22-1.45,7,1,8.27,1.52,2.32.83,2.59-.78,3.59,1.6C82.06,107.08,80.34,107.52,81.36,109.09Z" fill="#eaebeb"/><path d="M141.44,27.84l1.25.09c-1.22,1.54,2.11,3.16,2.38,4.77.39,2.27-1.71,3.35-4,1.62-1.59-1.18-3.35-6.61-2.44-8.39C140.79,21.64,140.08,26.86,141.44,27.84Z" fill="#f2f2f3"/><path d="M91.77,94.5c4.15.12,9,8.64,4.14,8.28-1.57-.12-2-2.61-2.78-3.71C92.64,98.36,88.54,95.46,91.77,94.5Z" fill="#f5f5f6"/><path d="M91.68,96.09c2.26,3.4,2.23,3.18-.78,5.94-.3-4.8-6.32-1.26-6.69-5.17C83.8,92.6,89.91,94.78,91.68,96.09Z" fill="#ededee"/><path d="M85.34,3.61c3,1.36,2.29,1.11,3.34,3.82.54,1.42,2.57,5.32-.25,6.2-1.1.34-2.52-1.2-2.9-2.25C84.47,8.46,87.63,7.14,85.34,3.61Z" fill="#dddedf"/><path d="M116.84,14.64c-3.88.84-.15-2.62-.15-2.6.19-.79.38-3.77,1.45-4.78C121.36,4.22,121.73,14.86,116.84,14.64Z" fill="#f0f0f1"/><path d="M39.25,129.57c-3.85,1.09-3.86-11.2-1.7-11.65C40.3,117.34,40.4,128.5,39.25,129.57Z" fill="#edeeee"/><path d="M56.33,140c-2.23-2-8,.7-9.24-3.66-1.28-4.6,3.37.37,4.38.85a8.2,8.2,0,0,0,4.64.49c.48-.06,2.35-1.93,2.73-1.73C60.73,137,57.38,140.48,56.33,140Z" fill="#f3f3f4"/><path d="M105.16,7.24c.12-3.47,1.82-7.54,2.77-.82.24,1.73,0,5.55-1.67,6.44C102.16,15,104.64,8.68,105.16,7.24Z" fill="#f1f1f2"/><path d="M145.2,34.84A3.83,3.83,0,0,1,144,31.6c1.07-.8,3.59,1.94,4.79,2.1,1.84.25,1.7-2.2,3.21-.31,1.07,1.34-1.91,3.25-2.88,3.41C146.93,37.15,146.77,36.19,145.2,34.84Z" fill="#f4f4f4"/><path d="M94.7,32.25c-1.27-1.18-15.25-1.24-9.76-3.74.61-.28,4.63.31,5.55.45,1.36.22,3.11.21,4.21,1.23C95.4,30.83,96.92,33,94.7,32.25Z" fill="#f3f3f3"/><path d="M36.51,60.36c.93-1.67-.18-3.1.41-4.62.37-.92,1-.64,1.61-1.4.26-.33,4.13-4.33,3.52-1.1-.17.89-1.56,1.32-2,2.16-.67,1.27-.51,2.56-1,3.81C38.47,60.8,36.93,64.6,36.51,60.36Z" fill="#f0f1f1"/><path d="M172.13,47.74c-.68,2.77-7.14-.68-6-3.83C167.57,40,171.38,45.8,172.13,47.74Z" fill="#f3f3f4"/><path d="M125.2,9.9c-.85,1.43.28,7.09-2.12,7.48-2.8.45-1.52-2.16-1.32-3.27C122.14,12,124,3.45,125.2,9.9Z" fill="#f1f2f2"/><path d="M31.64,45.91c-2,1.66-8.33,5.19-6.21,0C27.31,41.34,33.39,44.31,31.64,45.91Z" fill="#efeff0"/><path d="M103,32.12a17.3,17.3,0,0,1,7.67-3.34c.88-.08,5.37.16,4.19,2.08C114.58,31.33,103,32.25,103,32.12Z" fill="#f0f0f1"/><path d="M31.71,58.21c2.22-.25,1.46-3.07,3.42-.8.07.07-.24,5.62-.29,5.7-.49.77-2.3,2.49-3.88,1.1C29.59,63,31.08,59.51,31.71,58.21Z" fill="#f5f5f6"/><path d="M75,80.3c.54-5.16,3-.26,3.35,2.51C79.24,89.53,74,83.3,75,80.3Z" fill="#f7f8f8"/><path d="M80.26,130.19l-1-1.53c1.36-.76,10.94-2.6,11.14-1C89.91,131.44,81.51,127.91,80.26,130.19Z" fill="#e7e8e9"/><path d="M29,77c-3,3.14-6.93.06-4.21-2.82A2.55,2.55,0,0,1,29,77Z" fill="#e2e3e4"/><path d="M65.69,89c2-1.9.75-4.15,2.08-5.34s3.75.69,4.21,2C73.54,90,66.21,94.52,65.69,89Z" fill="#95979a"/><path d="M116,97.69c-2.67,2.67-3.45-3.13-2.18-5.06.73-1.12,6-4.2,7.49-2.48-3.41.32-2.07,1.45-2.45,3.57-.18,1,.94.93.5,1.92C119.1,96.31,116.57,97.12,116,97.69Z" fill="#dbdcde"/><path d="M25.25,67.5a6.45,6.45,0,0,0-1.12-2.87c.7-.09.37-5.29,3.76-3.85,1.75.74,2.18,4.37,1,5.66S26.51,66.06,25.25,67.5Z" fill="#e5e6e7"/><path d="M143.58,114.06c2-1.42-2.37-4.44.41-5.83,1.92-1,2,4.19,1.55,5.33-.32.83-4.44,5.06-5.43,4.29C136.62,115.13,142.63,114.32,143.58,114.06Z" fill="#f2f2f3"/><path d="M159.27,83.09c-1.08-1.46-2.41-.49-2.56-2.35a2.9,2.9,0,0,1,2-2.94c1.24-.17,3.2,1.66,3.31,2.86C162.27,83.39,160.41,81.53,159.27,83.09Z" fill="#f5f5f5"/><path d="M113.39,12.24c-.62,5-4.41-1.17-3-4.41C112.12,3.75,113.79,10.07,113.39,12.24Z" fill="#f1f1f2"/><path d="M159.33,66.34c1-.28,2.27-1,3.18-.24a36.27,36.27,0,0,1-.35,5.77c-.79,1-3.2,1.51-4.11.4S159.2,67.42,159.33,66.34Z" fill="#f1f1f2"/><path d="M71.19,90.18c-2.49-1-.89-6,1.37-6.2C76.57,83.66,72.66,89.35,71.19,90.18Z" fill="#f3f3f4"/><path d="M68.23,84.16c-.55,1.11.54,2.48-.87,3.25-.65-5-1.58-.83-2.62,0-1.28.94-2.68-4.44-1.83-5.49C64.43,80,68.42,81.46,68.23,84.16Z" fill="#525254"/><path d="M62.46,16.52c-1.22-.45-3.56.49-4.23-.73-1.47-2.71.86-1.95,2.47-2.21C66.57,12.65,66.65,19,62.46,16.52Z" fill="#2e2c2d"/><path d="M126.15,90.23c-2.37-1.59-3.1-7.65.77-6.1C129,85,129.29,91.28,126.15,90.23Z" fill="#e9eaeb"/><path d="M99.79,24c-1.36-.17-12-3.64-8.47-5.13C92.49,18.41,100.52,23.18,99.79,24Z" fill="#ebebec"/><path d="M75.47,35.4c-1.84,1.82-7.27,2.86-5.87-.21.2-.45,4.28-2.4,4.75-2.34C75.62,33,77.68,34.34,75.47,35.4Z" fill="#adb0b2"/><path d="M87.3,94.52c-4.36.3-.24,5.27-2.62,7.54-1.86-1-4.39-.21-3.93-3.13.34-2.11,2.66-2.2,2.88-5.6C84.91,93.5,86.39,93.37,87.3,94.52Z" fill="#838588"/><path d="M158.68,64.08c0-1.43-1-9.39,3-6.63.68.48.56,3.7.39,4.32C161.35,64.38,161.84,64,158.68,64.08Z" fill="#e5e6e7"/><path d="M29.09,66c-.62-1.84-1.38-3-.68-4.83s2-1.16,3.3-2.91c-.05.2.06,5.13,0,5.08.83,1.09,1.83.4,3.09.8C33,65.12,30.59,64.17,29.09,66Z" fill="#c5c7c9"/><path d="M40.93,91.73c.84-.36,9-4.92,7.26-.08C47.33,94,42,93.53,40.93,91.73Z" fill="#f5f5f5"/><path d="M100.38,41.79c-3.16-.06-1.45,2.29-2.16,4-.81,2-2.5.39-2.08,3.11-1.23-.76-2.58-4.66-2.28-5.85.4-1.55,2.75-1.38,2.66-3.25C97.1,41.14,101.69,40.35,100.38,41.79Z" fill="#c2c4c6"/><path d="M123.6,81.92c.62,2-3.88,6.06-4.18,2.59,0,.55,1.84-4.68,1.54-4.43C122.71,78.59,123.51,79.85,123.6,81.92Z" fill="#f2f2f3"/><path d="M112.41,54.44c-.45,1.48,5.38,6.92,2.41,6.51-.12,0-4.92-3.9-5-4.52C109.65,55.29,111,53,112.41,54.44Z" fill="#f6f6f6"/><path d="M88.46,77.06c-2.37,1.6-4.88-.25-7.22-1.09,1.08-1.44.61-3.81,2.77-4.4s2.28-.07,1.82,1.64c-.37,1.35-2.34.47-2.24,2.12C83.71,77.37,87.31,76.91,88.46,77.06Z" fill="#edeeef"/><path d="M83.54,67.91c-2.29-2.24-1.76-2.2-.24-4.28.6-.82,2-2.28,3.08-1.93C88.14,62.25,84.52,67.4,83.54,67.91Z" fill="#eaebeb"/><path d="M166.89,112.3c3.67,1.36,1.67,7.65-1.7,8.66C164.1,119,165.19,113.53,166.89,112.3Z" fill="#ecedee"/><path d="M123.58,107.88c1-.64-.22-1.81.25-2.42.66-.88,2.25-.35,3.36-.54,1.5-.24,3.55-2.11,4.6,1C129.09,106.71,126.25,108.08,123.58,107.88Z" fill="#95979a"/><path d="M93.81,27.38c-1.26-1.17-9.6-1.24-7.55-3.18C88,22.51,97.74,26,93.81,27.38Z" fill="#d0d1d3"/><path d="M114.53,99.37a24,24,0,0,1,3.32.77c-.38,1-6.21,3.61-7.31,3.32C105.41,102.11,113.72,98.34,114.53,99.37Z" fill="#6a6b6d"/><path d="M130.61,145.49c-1.34-4,2.8-2.42,1.45,1.95-.11.37-1.4,4.14-2.78,2.82C128.12,149.14,130.15,146.65,130.61,145.49Z" fill="#f0f1f1"/><path d="M133.83,112.88c1.62,1.51,4.14.67,2.88,4.24-.4,1.14-1.54,2.43-3,2C131.74,118.54,131.41,113.22,133.83,112.88Z" fill="#b5b7ba"/><path d="M56.33,140a3.55,3.55,0,0,0,1.76-1.72c.22,2.15,6.5-.27,3.07,3.41-.48.51-3.59.94-4.09.76C55,141.74,56.1,141.62,56.33,140Z" fill="#e7e8e9"/><path d="M167.93,90.65c1.61,2.59,2.35,6.76-1.59,4-1-.71-2.88-3.27-1.8-4.32S166.86,90.64,167.93,90.65Z" fill="#dddedf"/><path d="M55.46,141l2.83,1.28c-.41.64-1,2.38-2.16,2.37,1.83,0-3.55-3-2.83-2.09-.54-.67-1.45.3-1.6-1.07C51.53,139.92,55,140.84,55.46,141Z" fill="#f2f2f3"/><path d="M73.83,14.23c-1.19-2.67,4.21-4.33,4.44-.36C78.53,18.51,75.81,13.94,73.83,14.23Z" fill="#eeeff0"/><path d="M92.28,19.1c.13,0-4.49.91-3.68.62-1.69.6-3,0-3.9,2.23C81,18.23,90.16,17.64,92.28,19.1Z" fill="#939598"/><path d="M107.65,26.64c-.34,1.48-6.71,4.14-6.56,2.1C101.16,27.7,106.93,24.12,107.65,26.64Z" fill="#dfe0e1"/><path d="M155.12,91.8c-.19,2.32-5.29.88-5.7-.35C148.36,88.25,154.35,90.22,155.12,91.8Z" fill="#f3f4f4"/><path d="M102,110.22c-.59.34-4,0-3.64-1.48.29-1.17,4.76-1.57,5.55-1.13C107.56,109.65,102.92,109.3,102,110.22Z" fill="#d5d6d8"/><path d="M100.46,137.4c-1,2.8-6.14-1.08-6.08-2.49C94.45,133,100.92,135.71,100.46,137.4Z" fill="#e4e5e6"/><path d="M96.08,142.62c-2.32.3-1.12,2.68-3,3-2.15.35-2.62-3.35-3-4.63C91.63,143,94,141.31,96.08,142.62Z" fill="#f7f7f7"/><path d="M133.27,120.42c-.51,1.73,2.07,2.26,1.26,3.33-1.69,2.24-2.67-2.22-2.77-2.27-.73-.42-2.86.43-2.77-1C129.13,118.32,133.27,117.62,133.27,120.42Z" fill="#e5e6e7"/><path d="M131.79,105.93a4.12,4.12,0,0,1-3.32-2.23c.78-.64,6.43-1.8,6.59-1.51C135.4,102.8,132.62,106,131.79,105.93Z" fill="#cacbcd"/><path d="M102.58,90.63c1.32,2.14-1.65,4.16-3.29,3.07C95.86,91.41,101.09,87.22,102.58,90.63Z" fill="#e4e4e6"/><path d="M99.21,90.67c-.3,1.15-.45,3.62-2.28,3.68.13-1.24-2-5.92-.84-6.77S99.36,89.7,99.21,90.67Z" fill="#6f7173"/><path d="M127.93,88.51c-.69-3.47-3-6.75,2.19-5.94-.87.57-1.22,7.86-2.28,6.85Z" fill="#414143"/><path d="M133.27,120.42a3.18,3.18,0,0,0-2.74-1.68,2.77,2.77,0,0,0,1.77-2.09c2.71,4.75,4.66-3.08,6.57.76C141.4,122.45,134.21,119.41,133.27,120.42Z" fill="#929497"/><path d="M76.42,31.18c-4-1-2.85-2,.9-2,.71,0,2.35-1.68,2.91-.2C81.06,31.16,77.57,31,76.42,31.18Z" fill="#f6f7f7"/><path d="M62.46,16.52c1,.3,3.46-1,3.29-1.06,1.17.4.76,1.5,1.7,1.95-2,.16-2.39,4.31-4.24,4.08C60.13,21.11,63.27,18,62.46,16.52Z" fill="#96989b"/><path d="M158.69,57.66c-.22,2-1.66-1.38-1.7-1.72s.76-3.92,1.24-4.09C161.89,50.51,158.7,56.79,158.69,57.66Z" fill="#eceded"/><path d="M66.25,45.75a71,71,0,0,1-9.56-.46c2.78-.43,4-2.21,6.88-1.84C64.41,43.56,68.1,44.17,66.25,45.75Z" fill="#929497"/><path d="M81.45,106.67c.89-1.33,8.59-1.18,8.72-.27C90.47,108.39,82.47,107.37,81.45,106.67Z" fill="#e8e9ea"/><path d="M140.51,117.72c1.59,0,2.36,4.53,1.68,5.88-1,2-1,.56-1.93.33-2-.54-2.36-.33-2.42-2.34C137.83,121.27,140,117.9,140.51,117.72Z" fill="#dfe1e2"/><path d="M159.33,66.34c1.77,3.46-.84,5.08-2.7,7.53C156.52,72.46,157.57,66.22,159.33,66.34Z" fill="#464648"/><path d="M158.27,125.28c.47-1.1-.87-2.49,1.34-2-.33-.08,1.24,3.06,1.11,2.55C161.74,129.84,158.06,128.87,158.27,125.28Z" fill="#dadbdd"/><path d="M90,127.45c-.14-1.67,9.91-1.42,10.37-.4C101.22,128.85,91.12,128.32,90,127.45Z" fill="#cecfd1"/><path d="M31.12,85.89a2.18,2.18,0,0,0,.22.83q-1.15.59-1.53-.93c-1.4-1.09-1-2,1.07-2.77.48-.57,2.62-2.61,3.42-2.08C36.87,82.63,31.79,85.05,31.12,85.89Z" fill="#ebecec"/><path d="M98.73,107.91c0,3.45-7.24,2.2-6.16.55C93.37,107.24,97.71,106.62,98.73,107.91Z" fill="#e8e9e9"/><path d="M39.25,129.57l.08-2.29c2.33,1.11.39-1.6,1.92-1.63.36,1.21,1.6,6.2.28,6.86C40,133.28,40.47,130,39.25,129.57Z" fill="#dfe0e2"/><path d="M142.49,101.44l.53,1.73c-1.3.39-1.1-1.46-2.24-1.4-.91.73-.2,4.84-2.29,1.35-1.21-2-.49-3.35,1.25-3.92C138.45,102,142.15,99.36,142.49,101.44Z" fill="#f7f7f8"/><path d="M117.33,75.27c-1.16,0-5.69-1.17-5-2.78C113.52,69.49,117.19,73.42,117.33,75.27Z" fill="#ebeced"/><path d="M50.11,78.48c.81-6.57,1.46-1.16,4.93-.75C53.9,79.75,51.77,80.15,50.11,78.48Z" fill="#4b4b4d"/><path d="M165.67,90.65C165,90.89,161,90,161,88.71,161,85.64,167.42,87.41,165.67,90.65Z" fill="#eeefef"/><path d="M160.19,107.52c-2.54-1.14-1.55-6.45,1.22-4.81C163,103.63,162.7,108.78,160.19,107.52Z" fill="#dbdcdd"/><path d="M50.11,78.48c1.91,2.24,5-2.79,6.59.13C58.12,81.21,51.2,80.56,50.11,78.48Z" fill="#f0f1f1"/><path d="M112.82,83.6c1.31.48,1.51,2.37,3.18,2.19-.91.69-5.16,3.9-5.93,2.61C108.58,85.9,114.82,86.45,112.82,83.6Z" fill="#e4e5e6"/><path d="M99.79,24c0-2.13,5.64-4.45,6.14-1.93C106.06,22.8,100.47,24.85,99.79,24Z" fill="#ededee"/><path d="M71.71,34.39c-1.47,2.73-4.54,1.54-6.54,2.06,2.33-2.1,0-2.29,2.67-2.94C69.14,33.21,69.78,35.63,71.71,34.39Z" fill="#6f7073"/><path d="M100.45,41.81c-1.43-3.25,2.6-5.1,1.4-7.41,2.76-2.54-.27,4.8-.07,4.1C101.58,39.19,102.83,42.6,100.45,41.81Z" fill="#b3b5b7"/><path d="M60.31,93.86c1.59-1.66,1.48-4.67,4.42-3.17C69.38,93.06,62.31,94.11,60.31,93.86Z" fill="#a7a9ac"/><path d="M110.07,22.94c-4.23-.41.51-2.64,1.77-2.53,1.56.12.23-1.41,2,.13C116,22.43,109.56,23,110.07,22.94Z" fill="#cdcfd0"/><path d="M86.21,150.67a15.1,15.1,0,0,1-.57,2.48c1.61-.5,3.47-1,4.38,1C88.33,156.1,82,154.89,86.21,150.67Z" fill="#caccce"/><path d="M55.93,80.39a3.59,3.59,0,0,0,.64-2.22c2.64,4.21,2.3-2.93,5.34,0C63.31,79.59,57.45,84.32,55.93,80.39Z" fill="#e2e3e4"/><path d="M37.57,105.32c-.5-.51-3-1.24-3.15-2.08a13.08,13.08,0,0,0,1.91-2.54c1.87-.07,1.53,2.4,3.37,2.85C39,104.34,37.56,103.89,37.57,105.32Z" fill="#97999c"/><path d="M102.47,11.56c-1.48.57-.48,1.58-1.86.22.29.29.16-3,0-2.6.36-1-1.38-1.59,1.14-1.36S104.49,10.46,102.47,11.56Z" fill="#dfe0e1"/><path d="M106.2,97.62c.72-3.75,6.16-1.29,4.48,1.77C109.58,101.39,105.18,99.83,106.2,97.62Z" fill="#3f3f40"/><path d="M77.64,21.93c.87-1.9-.53-1.92-2.24-1.16C76.72,17.92,90.33,20.13,77.64,21.93Z" fill="#b3b5b7"/><path d="M100.69,41.75c.29-.44,3.1-3.66,4.17-2.22S103,43.24,102,44.16A2.42,2.42,0,0,1,100.69,41.75Z" fill="#c5c7c9"/><path d="M113.28,93.9c1.43,1.71-2.92,3.46-4.34,1.64-.64-.78.58-2.07-1.59-2.18A4.9,4.9,0,0,1,113.28,93.9Z" fill="#7a7b7e"/><path d="M113.24,38.1c.06,3.91-2.56,2-5.32,1.71C109.53,38.52,112,34.32,113.24,38.1Z" fill="#616264"/><path d="M88.52,54.25C89.14,56.15,86,61,85,58.63,84.64,57.92,87.8,54,88.52,54.25Z" fill="#f3f3f4"/><path d="M136.16,114.61c-.37-.59,1.35-6.37,3.48-5.29C141.11,110.07,138.35,117.22,136.16,114.61Z" fill="#d3d4d6"/><path d="M115.37,142.81c-.54-1-5.19-5-1.89-5.48a35.71,35.71,0,0,1,4.14,3.15A2.1,2.1,0,0,0,115.37,142.81Z" fill="#565759"/><path d="M106.71,127.54c.82.51,9-2.16,3.37,1.25-1.13.68-2,1.15-3.45.61C104.59,128.6,104.6,126.43,106.71,127.54Z" fill="#dedfe0"/><path d="M32.3,76.76c0-2.89.31-2.89,2-5C35.64,74.43,35.42,76.17,32.3,76.76Z" fill="#e6e7e8"/><path d="M104.09,142.06c-2,2.64-2,2.64-5,.48C100.51,139.51,102.39,141.74,104.09,142.06Z" fill="#b0b2b4"/><path d="M161.48,105.9c-.21-1.81-5.13-6.71-.53-5.38C163.59,101.28,164.06,108.46,161.48,105.9Z" fill="#9c9fa1"/><path d="M165.13,76.52c2-1.38,1.19-3,3.58-1.53.56.36,2.11,3.33,1.39,4.06-1.92-.42-1.77-5.17-3.29-.84A2.6,2.6,0,0,0,165.13,76.52Z" fill="#86888b"/><path d="M80.49,4.53c-1.31-.23-2.35.21-2.35,1.71-1-.9,1.06-5.13,2.39-5.36C83.48.39,80.76,3.79,80.49,4.53Z" fill="#dfe0e1"/><path d="M98.7,128.59c1.12-1.49,1.57-2.63,3.66-2.29.78.12,2.3.41,2.12,1.62C104.27,129.3,99.22,129.46,98.7,128.59Z" fill="#e0e1e2"/><path d="M75.47,35.4c.19-.35.36-2,.5-2.11.78-.66,3.43.18,3.63,1.21C80.06,36.87,76.82,36.7,75.47,35.4Z" fill="#636466"/><path d="M130,91.19c.09-.86,2.05-3.65,3.15-3.23,0,1.17.33,2.24,1.74,2.18A6.85,6.85,0,0,1,130,91.19Z" fill="#464648"/><path d="M119.2,127.39l-.58,2.43c-.63-.79-6.4.84-5-1.34S117.93,129.23,119.2,127.39Z" fill="#e2e3e4"/><path d="M163.57,118.26c-2.2-.7-5.12-7.36-2.62-7.23C162.82,111.72,164.55,116.64,163.57,118.26Z" fill="#999b9d"/><path d="M132.21,31.63c1.17-.9-.25-2.67.51-3.83.65,2.83,5.09,2.49,4.29,6-1.65,1.07-.76-1.8-1.76-2C134.54,31.66,132.64,32,132.21,31.63Z" fill="#9fa2a4"/><path d="M109,100.36c1.1-1,5.15-3.47,4.29-.19C112.78,102,108.94,102.16,109,100.36Z" fill="#272425"/><path d="M70.93,28.22c3.39,1-2.15,3.34-3.19,3.28C64.21,31.29,71.06,28.15,70.93,28.22Z" fill="#f0f1f1"/><path d="M133.34,131.41c-.73,1.83-5.8,3.93-4.33.42C129.51,130.64,132.43,130,133.34,131.41Z" fill="#e5e6e7"/><path d="M106.2,97.62c0,1.35,1.6,1.48,2,2.61-2.35-.23-.54,2.07-1.87,2.81-1.85-.58-.43-3.15-2.25-3.75Z" fill="#808284"/><path d="M161.37,102c-2.83-1.94-1.5-1.36-1.28-3.9.14-1.67-1.15-3.62,1.89-3.1C160.53,96.77,163,101.22,161.37,102Z" fill="#8c8e91"/><path d="M99.21,90.67c-1.84-.4-.57-2-.31-2.41.88-1.48,1,.69,1.66.5s.39-2,.84-2.44a4,4,0,0,0,.52,2.11c1.29.26,1.51,1,.66,2.2A3.29,3.29,0,0,0,99.21,90.67Z" fill="#cecfd1"/><path d="M143.58,114.06c-1.11.7-3.79,3.08-4.59,2.23-1.24-1.31.16-4,.79-5.05C142,111.48,141.29,113.8,143.58,114.06Z" fill="#c3c5c7"/><path d="M80.84,99.8c2,0,1.16,2.31.15,2.75A46,46,0,0,1,75.84,101C77.63,101.07,79.06,98.26,80.84,99.8Z" fill="#e3e4e5"/><path d="M143.57,140c.61-.21,6.08-3.64,4.49-.78C147.37,140.47,142.25,142.74,143.57,140Z" fill="#e6e7e8"/><path d="M49,72.73l-1,2.41a4.27,4.27,0,0,1-2.29-4.54C46.49,72,48.74,70.82,49,72.73Z" fill="#97999c"/><path d="M53.29,129.73l.06-1.23c1.08,1.19,4.76,0,4.82,1.63C58.24,132.24,53.94,130.73,53.29,129.73Z" fill="#d3d4d6"/><path d="M95.42,81.45c-.12.74,2.91,4.68,1.26,4.83-1.4.12-2.46-2.89-3-3.89Z" fill="#4a4a4c"/><path d="M47.27,127.07c-1.37-2.2-1.36-4.89-2.49-7.18C47.62,117.63,47.49,126.33,47.27,127.07Z" fill="#656669"/><path d="M102,110.22c1.29-2.52,8.43-.6,8-.12A13.48,13.48,0,0,1,102,110.22Z" fill="#7e8083"/><path d="M100.46,137.4c-.18-1.28-1.52-1.14-2.28-1.83,1.83.15,2.41-1.22,2.29-2.81C104.76,135.34,102.62,134.76,100.46,137.4Z" fill="#b2b4b6"/><path d="M118.46,89.65c-.89,1.27.2,4.4-2.12,4.31-1,0-.21-2.8-1.92-2.6Z" fill="#3f3f40"/><path d="M151.72,50.79a4.55,4.55,0,0,1-4.92-3.48A7.27,7.27,0,0,1,151.72,50.79Z" fill="#ededee"/><path d="M143.57,140l.59,1.7c-2.1.65-3-1.24-4.5-2.25C140.85,138.45,142.47,138.91,143.57,140Z" fill="#f0f1f1"/><path d="M65.5,14.33c-2.14-.09-4.53.38-6.39-1,2.08-.89,1.16-1.16,3.56-.59C64.09,13.06,64.83,12.31,65.5,14.33Z" fill="#dddedf"/><path d="M35,119.91c1-1.51-.85-2.46-.64-3.93,1.71.46,4.48-2.5,4.23.71C38.47,118.24,36.13,119.47,35,119.91Z" fill="#4f5052"/><path d="M130,91.19c0,2.63-3.31-.74-3.88-1,2.15-.57,2-2.42,2.87-3.34C130.2,88.18,128.58,90,130,91.19Z" fill="#b2b4b7"/><path d="M91.68,96.09c-2.29.22-4.38,2.85-4.33-1.63,1.76,0,2.68-.09,4.42,0A1.29,1.29,0,0,0,91.68,96.09Z" fill="#525254"/><path d="M83.5,90.91c-1.59-.51-1.86,2-3.14,2.44-1.41-.91-.75-2.92-2.21-3.81C80.19,88.41,82,89.53,83.5,90.91Z" fill="#3f3e40"/><path d="M160.8,111.27c-1.86.1-.3-2.64-.61-3.75C165.11,107.1,163.92,112.24,160.8,111.27Z" fill="#c4c6c8"/><path d="M101.44,136.2c.55-.76,1.83-1,1-2.22,1.84.16,3.93-.44,5.41,1.08C106.76,135.28,103.2,136.9,101.44,136.2Z" fill="#747578"/><path d="M79.84,35.08l-1.57-1.75c1.42.06,1.69-1.86,3.11-1.45C83.87,32.59,80.35,34.75,79.84,35.08Z" fill="#d0d2d3"/><path d="M68.23,84.16c0,.08-4.94-5.42-2-4.62C67.05,79.78,71,84,68.23,84.16Z" fill="#dcddde"/><path d="M78.15,89.54c3.14,0,1.77,1,2.21,3.81-1.33-.61-3.09-.61-3.81-2.16C78.17,91.8,77.86,90.51,78.15,89.54Z" fill="#dedfe1"/><path d="M100.28,154.06c-.74-2.27,1.14-3.87,2.82-1.52C104.44,154.43,101.91,154.85,100.28,154.06Z" fill="#d7d8da"/><path d="M93.81,27.38c1.94-2.88,2.59-1.21,4.42.68C96.8,28.05,95,28.44,93.81,27.38Z" fill="#e0e1e2"/><path d="M162,75.47c-.08,2.81-3.42,1.35-3.27-.59C158.84,73.31,162.06,74.1,162,75.47Z" fill="#e8e9ea"/><path d="M84.62,36.53,83,35.89c1.08-1.28,2-2.9,3.76-1.65C90.56,37.07,85.55,36.19,84.62,36.53Z" fill="#b0b2b4"/><path d="M31.12,85.89c.41-2.21,3.23-3.65,4.83-2.63C34.41,84.22,33.15,86,31.12,85.89Z" fill="#454547"/><path d="M71.13,137.28c2.54,0-2,4.79-4.06,1.07C65.17,134.82,70.08,137.65,71.13,137.28Z" fill="#bfc1c3"/><path d="M102.47,11.56A2.16,2.16,0,0,0,103,8.45a4.06,4.06,0,0,0,2.18-1.21c.42,2.11-1.17,3.85-1,5.93Z" fill="#8d8f91"/><path d="M66.9,136.54c-.24,2-4.21,1.3-4.13.42C62.9,135.38,66.25,135.57,66.9,136.54Z" fill="#e4e5e6"/><path d="M95.45,6.14c-1-2.79-2.57-3.75-4.91-3.21C91.8-2.75,97.82,6.7,95.45,6.14Z" fill="#d0d1d3"/><path d="M82.32,7.77c-2.59-1-.35-2.09.89-2C85.73,5.88,83.67,7.57,82.32,7.77Z" fill="#e1e2e3"/><path d="M88.52,54.25a2.38,2.38,0,0,0-1.61,1.27c-.27-1.61-1.16-1.59-2.16-.54-.21-1.48-2.21-1.5-.23-2.82C85.27,51.66,87.75,53.78,88.52,54.25Z" fill="#929497"/><path d="M140.67,124.78c1.12-1.75,4.06-2.9,2.35-.35C142.1,125.81,139.1,126.53,140.67,124.78Z" fill="#e0e1e2"/><path d="M71.13,137.28c-1.54,1.74-3.4-.37-2.36-2.07C70.4,132.54,70.68,137.06,71.13,137.28Z" fill="#edeeef"/><path d="M66.38,92.91c-1.63-.08-2.79-2.58-.75-2.94C68.65,89.43,68.23,91.57,66.38,92.91Z" fill="#e1e2e3"/><path d="M123.58,107.88c-.59,1.49-1.47,1.62-1.67,2.86C116.87,106.61,120.53,108.61,123.58,107.88Z" fill="#b2b4b7"/><path d="M100,3.23C98.05,3,98.23-.37,99.38,0,100.68.49,102.39,3.11,100,3.23Z" fill="#d6d7d8"/><path d="M90,127.45c2.1.84,4.31-.18,6.42.53-.27,1-7,1.17-8,1.08Z" fill="#a6a8ab"/><path d="M112.74,8.9c-.33-.82-1.83-6.49-.13-6.26C115.06,3,112.55,7.91,112.74,8.9Z" fill="#dfe0e1"/><path d="M95.52,134a1.46,1.46,0,0,0,0,2.54c-.92-.28-4,.06-3.62-1.77S94.41,135,95.52,134Z" fill="#757679"/><path d="M64.14,33.25c-1.07,3-6.79-1.28-2.15-2.19A2.21,2.21,0,0,0,64.14,33.25Z" fill="#e7e8e9"/><path d="M133.34,131.41c-1.51.66-3-1.19-4.33.42.42-3,1.35-1.21,3.39-1.14,1.67.06,4.91-.58,6.38.51Z" fill="#abadb0"/><path d="M67.41,138.87c1.9-.8,3.22.74,2.75,2.5S67.26,140,67.41,138.87Z" fill="#efeff0"/><path d="M63.58,130.19a8.26,8.26,0,0,1,2.46.53C64.7,134.89,58.19,129.52,63.58,130.19Z" fill="#dddfe0"/><path d="M59.3,80.46c.36-1.61,3.13.18,2.61-2.24a4.58,4.58,0,0,1,1.71,3.64C63,82,59.31,81.14,59.3,80.46Z" fill="#323031"/><path d="M78.46,145c-.32,1.69-3,3.57-2.37.81C76.35,144.68,78.51,142.8,78.46,145Z" fill="#e3e4e5"/><path d="M129.61,113.3c-.05.06-1,6.23-2.29,2.57C126.48,113.53,128.68,114.62,129.61,113.3Z" fill="#caccce"/><path d="M75.44,11.51c0,2.88-5.44.84-1.4-2.53A4.63,4.63,0,0,1,75.44,11.51Z" fill="#2c292b"/><path d="M99.79,129.12c1.13-1.13,5.8.09,3.25-2.74,1.32,0,2.83-.16,3.67,1.16-1-.1-1.63,1-2.49,1.39C102.92,129.49,101.14,129,99.79,129.12Z" fill="#a8aaac"/><path d="M37.63,64.06c2.21-.48,1.59,1.83-.47,2.14C34.86,66.55,36.62,64.43,37.63,64.06Z" fill="#e5e6e7"/><path d="M69.62,97.86c-.35,3.27-2.87,0-3,0C67.18,97.89,68.69,94.86,69.62,97.86Z" fill="#eeefef"/><path d="M128.71,99.69c-2.27.12-.71-2.19.81-2.4C132.05,96.93,129.15,99.43,128.71,99.69Z" fill="#e4e5e6"/><path d="M33.54,35.31c-.27.5-1.49,4.15-2.76,2.57C30.08,37,32.6,32.76,33.54,35.31Z" fill="#f4f5f5"/><path d="M163.57,118.26c-.54-1.42-.39-5.68,1.63-2.71,1.14,1.67,0,3.63,0,5.41C163.81,120.41,165.73,118.21,163.57,118.26Z" fill="#d1d2d4"/><path d="M118.64,3.91c-.84,2.62-2.36-.15-2.84-.2C115.9,3.72,118.4.9,118.64,3.91Z" fill="#d4d5d7"/><path d="M117.68,100.34c.2.52,3.12-2.36,3.11-2.36,1.77.46-.61,2.73,2.25,3C121.08,102.45,119.65,99.68,117.68,100.34Z" fill="#a9abad"/><path d="M130.59,34.27c-2,.85-2.91-2-1.19-2.85C130.13,31.06,132.3,33.44,130.59,34.27Z" fill="#eeefef"/><path d="M116.55,108c-.25,1-2.8,1.75-3.6,1-.1-2.34,1.76-2.86,3.61-3.31C116.52,106.12,116.18,107.67,116.55,108Z" fill="#86888b"/><path d="M140.81,144.26q-3-.15-1.49-2.73C140.22,142.21,142.23,142.29,140.81,144.26Z" fill="#ebeced"/><path d="M73.32,144.81l-2.18-1.05c1.64-.31.68-3.39,2-3.07S73.47,144,73.32,144.81Z" fill="#d8d9db"/><path d="M146.14,128c2.11-1.6,1.5-3.62,3.77.09A4.75,4.75,0,0,1,146.14,128Z" fill="#3b3a3c"/><path d="M113,109l1,.16c-1.09,3.13-5.88.64-4-1.59A2.91,2.91,0,0,0,113,109Z" fill="#727376"/><path d="M47.36,89.58c-1-.21-5.39,2-5.35,1C42.13,87.83,46.09,89.1,47.36,89.58Z" fill="#3a393b"/><path d="M76.61,39.17c.53.9,2.32,5.45-.64,3.42C74.57,41.63,76.53,40.51,76.61,39.17Z" fill="#8f9294"/><path d="M29,77c-.49-1.12-.09-2.65-1.6-3.13.8,0,2.07-1.14,2.35,0C30.05,75.44,31.52,75.64,29,77Z" fill="#979a9c"/><path d="M61.46,131.26l1,1.09c-1.24,1.53-3.21,1.09-4.89,1.09C58.45,131.72,61.1,133.38,61.46,131.26Z" fill="#a3a5a7"/><path d="M65.71,100.9c.13,4.25-5.82,2.71-5.43.63C62.28,102.56,63.71,100.9,65.71,100.9Z" fill="#caccce"/><path d="M65.71,44.11c-.35.36-3.32,1.11-3.61.1C61.43,41.9,66.7,43.42,65.71,44.11Z" fill="#e1e2e3"/><path d="M65.71,44.11c-.54-1.08,3.36.48,3.65,1.52C66.77,47.79,66.89,45.07,65.71,44.11Z" fill="#4f5052"/><path d="M96.48,8.16c1-2.27,2.41-2.33,1.85.63C98,10.73,95.75,9.9,96.48,8.16Z" fill="#f4f5f5"/><path d="M23.61,53.26c-2.45,1.3-3.14-1.76-1.73-3.46C22.71,50.8,22.15,52.72,23.61,53.26Z" fill="#9fa1a4"/><path d="M66.89,142.6c-.4,2.54-1.64,1.05-1.94-.61C64.56,139.93,66.55,141.36,66.89,142.6Z" fill="#e6e6e7"/><path d="M64,144.22c-.68,3.14-2.15-.55-2.39-.59C61.66,143.64,64.06,141.61,64,144.22Z" fill="#c9cbcd"/><path d="M29,59.71c1.21,1.42.41,2.34-1.06,2.86C27.82,62.1,26.73,58.72,29,59.71Z" fill="#e6e7e8"/><path d="M119.74,144.87c3.17,1.23.06,2.64.07,2.66S117.09,144.48,119.74,144.87Z" fill="#eff0f0"/><path d="M83,21.38l-.54-2.23C85.36,16.23,85.2,24.94,83,21.38Z" fill="#dbdcde"/><path d="M101.15,19.64c-.28,3.26-3.26-2.46-2.05-2.14A3.5,3.5,0,0,1,101.15,19.64Z" fill="#5d5e60"/><path d="M141.44,27.84c-2.59.53-.09-4.11-2.69-3a2.62,2.62,0,0,1,3.28-.17A4.07,4.07,0,0,0,141.44,27.84Z" fill="#292627"/><path d="M120.5,26.76c0,2.77-2.24.11-2.24.11C118.47,26.85,120,24.39,120.5,26.76Z" fill="#666769"/><path d="M125.17,23.61c-.77,2.59-2.85-.31-3-.32C122.53,23.32,125.09,21.25,125.17,23.61Z" fill="#d2d3d5"/><path d="M105.72,65.84c-.07.47-2.91.29-3.32-.44C101.73,64.22,105.59,63.61,105.72,65.84Z" fill="#d2d3d5"/><path d="M38.68,116c0-.5.45-2.07,1.21-1.84s-.2,6.25-.61,6.83C39.26,119.94,38.22,117.06,38.68,116Z" fill="#7c7e80"/><path d="M105.14,3.9l0,2.28c-.58-.39-4.54.64-3.06-1.49C102.43,4.26,104.42,4.59,105.14,3.9Z" fill="#dedfe0"/><path d="M112.41,54.44l-.87-.13C114,48.21,114.06,54,112.41,54.44Z" fill="#d9dadc"/><path d="M97,153.65c-.71,2.25-2.37-.06-2.93-.12C94.74,153.6,95.87,150.83,97,153.65Z" fill="#d0d1d3"/><path d="M152.29,37.82c2.92.23,0,1.74,0,1.82C152.28,39.47,149.38,38.44,152.29,37.82Z" fill="#c1c3c5"/><path d="M91.16,94.46a3.08,3.08,0,0,1-2.7,0C89.18,92.65,90.86,91.23,91.16,94.46Z" fill="#d9dadc"/><path d="M57.64,47.39c-1,.82-2.48.44-3.29,1.56.49-1.33-1.18-1.26-1.54-2.19C54.66,45.32,55.85,48.44,57.64,47.39Z" fill="#c9cbcd"/><path d="M73.86,6.86c-.62,2.76-1.82-.16-2.1-.19C72,6.69,73.86,3.94,73.86,6.86Z" fill="#e4e5e6"/><path d="M78.18,25.64c-1,.3-1.66,1.41-2.73,1.14-2-.51,2.48-2.27,2.66-2.31Z" fill="#c0c1c4"/><path d="M96.48,8.16c.74,3.14,2.21-1.25,1.16,3.44-.79-1.67-3.51-1.38-3.16-3.77C95,8.77,95.67,8.88,96.48,8.16Z" fill="#f2f2f3"/><path d="M118.12,68.47c.52-.85,1.88-.9,1.68-2.19C122.2,68.51,119.4,70.06,118.12,68.47Z" fill="#7f8184"/><path d="M31.66,108a4.48,4.48,0,0,0-3.76-1.1,3.08,3.08,0,0,1,1-2.2C29,105.82,33.07,107.75,31.66,108Z" fill="#8a8c8f"/><path d="M109,152.92c1.51-.54,1.11-3.16,3.32-2.14L110.63,154A3.09,3.09,0,0,0,109,152.92Z" fill="#b2b4b6"/><path d="M138,127.84c-2.64-.39-.16-2.77-.19-3.13C137.83,125.3,140.05,127,138,127.84Z" fill="#e1e2e3"/><path d="M138.29,121.83c-.84.93-3,1-2.26-.73C136.83,119.15,139.73,119.93,138.29,121.83Z" fill="#e3e4e5"/><path d="M73.31,47.44c-1.52,0-.66-1.71-1.7-2.23,1.45.13,3,.26,3.32,2.06Z" fill="#333132"/><path d="M127.37,140.57l-1.11,2.62c.43-2.48-2.34-2-2.13-3.76C125.51,139.12,127,138.62,127.37,140.57Z" fill="#d5d6d8"/><path d="M127.37,140.57a3,3,0,0,0-3.24-1.14c.94-.94,2.52-.41,3.29-1.62-.26,1.55,1,1.44,2,1.62A2.36,2.36,0,0,1,127.37,140.57Z" fill="#6a6c6e"/><path d="M134.81,25.88c2.16.5.84,2.16.86,2.21S132.23,25.87,134.81,25.88Z" fill="#e1e2e4"/><path d="M75.42,41c2.33,1.62-2.61,1.69-2.13,1.35S73.21,40.65,75.42,41Z" fill="#dcddde"/><path d="M51,133l.74-1.3a15.92,15.92,0,0,0,2.66,1.51C53.71,133.21,52.76,134.11,51,133Z" fill="#d5d7d8"/><path d="M112.7,36.44a4.6,4.6,0,0,0-.81,1.57,1.06,1.06,0,0,1-1.65-.14C110.32,37.83,110.92,34.62,112.7,36.44Z" fill="#e2e3e4"/><path d="M21.46,56.44c-.53,1.9-2.61,3.35.44,4.36C19.4,62.64,18.71,56.9,21.46,56.44Z" fill="#848689"/><path d="M84.05,25c-.8,2.73-2,0-2.37,0C81.87,25.05,83.6,22.32,84.05,25Z" fill="#e4e5e6"/><path d="M134.4,17c-3.06-1.5,2.17-5.67,3.29-2.62C136.36,15.2,134.36,14.82,134.4,17Z" fill="#9ea0a3"/><path d="M132.93,125.71c3.07.4-.14,2.37-.14,2.33S130.23,125.65,132.93,125.71Z" fill="#d7d9da"/><path d="M100.28,154.06c2.32-.22,3.12-1.12,5.46-1.12a1,1,0,0,0,0,1.53C104,154.13,102,155.14,100.28,154.06Z" fill="#9fa1a3"/><path d="M24.67,56.08c1-1.3,2.54-1,3.89-.54C26.64,56.68,26.27,57.92,24.67,56.08Z" fill="#cfd0d2"/><path d="M113.39,12.24c-.07-.41-1.17-5.79,1.2-4.18C115.14,8.43,113.44,12.05,113.39,12.24Z" fill="#b2b4b6"/><path d="M110,107.54c.06,1.41-.55,3.71-2.54,1.6C108.08,108.19,108.5,106.92,110,107.54Z" fill="#cacccd"/><path d="M29,38.5c.08,2.43-2.27.31-2.41.34C27.14,38.75,27.8,36.53,29,38.5Z" fill="#d2d3d5"/><path d="M130.59,34.27c.59-1.66.91-2.65,2.74-2.63C133.45,33.44,132.29,34.31,130.59,34.27Z" fill="#d2d4d5"/><path d="M51.18,18.71c-2.83,3.05-3.84-3.51-1.48-2.6C51.3,16.72,48.56,18.43,51.18,18.71Z" fill="#a0a2a5"/><path d="M63.58,130.19c-1.57.09-3.82,1.51-5.42.45C56.77,129.71,62.67,129.66,63.58,130.19Z" fill="#c8c9cb"/><path d="M144,119.23c-2.44-.2.1-1.46.12-1.81C144.11,117.42,146.28,118.6,144,119.23Z" fill="#abadb0"/><path d="M113.8,129.2c0,.63-4.45.2-5.5.41C109.85,128.44,112.73,126.43,113.8,129.2Z" fill="#242021"/><path d="M137.69,14.38a1.87,1.87,0,0,1-2.32-1.24C136.65,11.82,139.34,13.44,137.69,14.38Z" fill="#f4f4f4"/><path d="M83.08,100.9c.8-2.91,1.39-.08,1.6,1.16C83.6,102.5,83.6,101.45,83.08,100.9Z" fill="#dedfe0"/><path d="M94.28,107.48l-1.71,1c0-1.09-1.63-1.39-.83-2.61A2.79,2.79,0,0,1,94.28,107.48Z" fill="#c4c6c8"/><path d="M93.87,38l-.08,1.3C91.41,37.12,92.48,34.76,93.87,38Z" fill="#c4c6c8"/><path d="M120.67,22.11c-.52,2.25-2.25-.11-2.44-.11C118.41,22,120.67,19.9,120.67,22.11Z" fill="#d5d6d8"/><path d="M159.34,119.87c1.52.7-.19,2-.54,1.28A.91.91,0,0,1,159.34,119.87Z" fill="#d3d4d6"/><path d="M58.68,27.71c.07-2.66,1-1,1.41.15Z" fill="#cfd0d2"/><path d="M90.63,122.52l-.55,1.18c-3.21-.93-3.47-6.1-1.82-8.47,1.91-2.72,4.95-.27,6.56-2.32,3.24,3.29.11,7.5-2.14,9.67-.69-.83-1.24-1.29-1.26-2.42C91.27,121.22,91.55,121.71,90.63,122.52Z" fill="#353335"/><path d="M107.89,116.17c1.86-2.46,5,6,1.9,7.42-2.09,1-3-1.18-3.43-2.88C105.71,118.16,106.58,118.09,107.89,116.17Z" fill="#515153"/><path d="M110.6,123.15c-.81-1-2.53-10.81.23-7.5C112.07,117.13,113,122.47,110.6,123.15Z" fill="#e9eaeb"/><path d="M94.79,121c-.18-1.28-1.38-4.6-.39-5.46,2.66-2.32,2.08,3.73,2.13,4.1C97,122.84,95.36,125.62,94.79,121Z" fill="#e2e3e4"/><path d="M102,120.45c.86-1.48-2-8.27,1.16-6.38C104.7,115,103.9,122.41,102,120.45Z" fill="#dfe0e1"/><path d="M123.18,131.36c.16.93-1.73,6.95-3.44,5.25-1.23-1.22,2.26-4.62,2.35-5.87Z" fill="#3f3f41"/><path d="M113.94,118.92c-.33-3.46,1-3.92,1.3-.45C115.63,122.27,113.7,123.31,113.94,118.92Z" fill="#e1e2e3"/><path d="M94.82,112.91c.67,2.49-5.1,1.26-6.14,1.59C88.07,111.8,93.6,112.89,94.82,112.91Z" fill="#e9e9ea"/><path d="M92.18,109l1.28.7c-.78.87-6.44,2.25-6.17.28C87.58,107.77,91.09,110.07,92.18,109Z" fill="#c4c6c8"/><path d="M100.35,122.14c-2.51,2.44-1.49-6-1.31-6.75C99.41,115.91,100.86,121.75,100.35,122.14Z" fill="#f6f7f7"/><path d="M88.68,114.5c.48,1.16.4,3-1.25,3.59C85.75,116.09,86.24,115.17,88.68,114.5Z" fill="#e4e5e6"/><path d="M84,120.92c-.4-.57-1.63-5.84.43-4.47C85.6,117.2,84.85,120.17,84,120.92Z" fill="#e8e9e9"/><path d="M87.46,120.12c1.43.79,1.57,2.52,2.62,3.58C86.86,123.93,86.33,123.21,87.46,120.12Z" fill="#d2d4d5"/><path d="M105.79,120c3-.79,1.79,2.6,2,2.9C107.24,122.12,104.81,122.7,105.79,120Z" fill="#e4e5e6"/><path d="M116.55,108c-2.26,1.37-1.33-1.21,0-2.12C118.94,104.2,116.56,108,116.55,108Z" fill="#d3d4d6"/><path d="M113.8,129.2c-1.17-1.59-2.75-.47-4.26-.52.92-.89,1.89-1.93,2.75-2.05,1.24-.16,1.58,1.46,3.17.9A3.5,3.5,0,0,0,113.8,129.2Z" fill="#dadbdc"/><path d="M107.89,116.17c-.17,1.34.27,3.57-2,1.33C103.83,115.51,107.37,116.26,107.89,116.17Z" fill="#aeb0b3"/><path d="M100.35,122.14c0-1,2.11-2.17,3.17-1.7C103.83,123.14,102.13,122.46,100.35,122.14Z" fill="#e7e8e9"/><path d="M109.51,115l-.57,1.15C106.52,113.61,106.59,111.37,109.51,115Z" fill="#dbddde"/><path d="M92.09,120.48c2.63,1.45-.77,2.06-1.46,2C90.64,122.31,90.57,118.9,92.09,120.48Z" fill="#f3f3f4"/><path d="M56,30.54c1.58,4.64-9.34,10.25-8.93,2.14.18-3.69.71-1.9,2.53-1,1.09.53.84,1.7,2.34,1.84C52.93,33.59,55.18,31,56,30.54Z" fill="#f5f5f6"/><path d="M52.73,35.94a7.42,7.42,0,0,1,3.81-3.73C58,36.3,55.25,34.7,52.73,35.94Z" fill="#8e9093"/><path d="M42.64,43.43c-3.13,1.83-3.17-.92-3.9-2.65C40.73,40.64,41.82,41.84,42.64,43.43Z" fill="#c0c2c4"/><path d="M39.34,31.84,39.83,30c-.18,1.87,3.06,1,1.85,4.44C40.64,33.87,40.68,32,39.34,31.84Z" fill="#e1e2e4"/><path d="M46.15,37.33c-.36,1.64-1.64.22-2.07.21C43.25,37.53,46.17,34.3,46.15,37.33Z" fill="#b2b4b7"/><path d="M58.18,121.51c-2.41.09-3.52-1.48-3.36-4,.07-1.14,1.31-5.41,2.44-5.72C62.23,110.45,62.82,122.43,58.18,121.51Z" fill="#dcdddf"/><path d="M59.64,114.22c-.66-2.4-3-1.86-2.67-5.32.2-1.93-.19-3.27,2-2.79C63.17,107.05,61.93,115.91,59.64,114.22Z" fill="#525254"/><path d="M51.16,114c-1.76-1.83-.92-3.8.49-5.46,1.36,1.34,5.29,5,2.49,7C52.45,116.8,51,115.67,51.16,114Z" fill="#333133"/><path d="M66.71,124.76c-.92.38-10.25,4.37-6.52-.34C61.85,122.33,65,123.63,66.71,124.76Z" fill="#dbdcde"/><path d="M67.73,120.92c-1.84,0-.82-2.23-2.57-2.23-2.88,0,.16,2.72.7,3.33-1.46,2-5.72-1.88-4.66-3.9C63.34,114.05,69.62,115.47,67.73,120.92Z" fill="#e5e6e7"/><path d="M64,107.46c2-.51,7.54,3.83,5.4,5.05C66.94,113.94,63.37,109.67,64,107.46Z" fill="#ecedee"/><path d="M73.29,107c1.33-.31,2.55-1.49,3.94-1.12,2.42.64,1.14,2.86-.16,3.71-1.32-2.47-1.15,0-2.1.63A9,9,0,0,0,73.29,107Z" fill="#5a5b5d"/><path d="M60.83,119.35c3.14.24,1.48,1.92-.26,2.52C56.39,123.3,59.21,118.68,60.83,119.35Z" fill="#f6f7f7"/><path d="M64,107.46c0,2,6.4,5.48,2.67,6.09C62.68,114.2,63,109.6,64,107.46Z" fill="#3b3b3c"/><path d="M61.31,110.12c-1-1.42-2.06-2.85-3.1-4.27C63,104.65,62.13,110.55,61.31,110.12Z" fill="#e9eaeb"/><path d="M67.73,120.92c.69-2.08-2.91-6.59-1-7.16C70.23,112.69,68.86,119.46,67.73,120.92Z" fill="#4f5052"/><path d="M58.12,110.6c-1.25,4-5.27.49-2.22-3.73C57.39,107.58,57.5,109.3,58.12,110.6Z" fill="#666769"/><path d="M51.16,114c.09,2.84,2.82-.29,3.62,1.4,1.2,2.55-.39,2.91-2.66,2.84C53.62,115.86,49.18,116,51.16,114Z" fill="#39383a"/><path d="M53.75,118.29a1.62,1.62,0,0,0,.53-2.66c.94-1,2.52,3,2.35,3.8C55.89,122.9,54.19,120,53.75,118.29Z" fill="#8f9194"/><path d="M63.3,122a2.31,2.31,0,0,1,3.41,2.73C65.65,124.9,63.29,123.21,63.3,122Z" fill="#f0f1f1"/><path d="M58.12,110.6c-.11-.31-4.64-5.94-.52-4.76A15,15,0,0,1,58.12,110.6Z" fill="#e5e6e7"/><path d="M61.31,110.12a5.36,5.36,0,0,1,1.75-.68C63.43,114.6,59.24,112.77,61.31,110.12Z" fill="#fdfdfd"/><path d="M62.93,103.24c1.77-1.47,2.83-.65,3.33,1C65.54,104.72,62,104.83,62.93,103.24Z" fill="#e9eaeb"/><path d="M62.93,103.24l.2.89c-1.82-.2-3.19-1.62-5.05-1.64,1.8-.67-.2-1.69,2.2-1A24.24,24.24,0,0,1,62.93,103.24Z" fill="#76787b"/><path d="M66.79,105.38c2.58.6,2-2.3,4.35.44C69.66,107.23,68.16,106.27,66.79,105.38Z" fill="#6e7072"/><path d="M56.57,122c1.07,1.56,2.78,2.46,1.07,4.45C57.4,126,55.27,122.66,56.57,122Z" fill="#caccce"/><path d="M69,115.26c-.76-.81-3.43-1.38-3.23-2.46.83.33,1.42.16,1.76-.53.52-1,1.34-.94,2.48,0C68.41,112.88,70.32,114.53,69,115.26Z" fill="#aaacae"/><path d="M56.57,122l-.47,1.07C52.8,120.26,56.55,120.2,56.57,122Z" fill="#eaebec"/><path d="M45.74,115.6c-2.4-2.16-1.69-9.38-.66-12,.73.19,1.57,2.74,1.78,3.27.88,2.27.44,2.93.34,5.27,0,.38,1,4.14.34,4.48C46.55,117.15,45.66,117,45.74,115.6Z" fill="#b6b8ba"/><path d="M47.25,99.66c1.62-2.08,3.31-3.09,5.67-1.15C50.59,99.32,47.13,103.22,47.25,99.66Z" fill="#3b3a3b"/><path d="M45.74,115.6c.9,2,1.66,1.74,1,4.84C44.33,119.76,43.67,117.65,45.74,115.6Z" fill="#4a4a4c"/><path d="M47.54,116.62c-.28-2.11-2.59-4.73.29-6A8.78,8.78,0,0,1,47.54,116.62Z" fill="#eaebec"/><path d="M47.25,99.66c.32.84,0,7.77-1.56,6C43.9,103.69,46.93,101.65,47.25,99.66Z" fill="#5e5f62"/><path d="M45.23,104.73c1.53,1.07,2.63,3,.74,4.68A15.79,15.79,0,0,1,45.23,104.73Z" fill="#7f8184"/><path d="M144.94,85.72c-.71,2.19-3.29.47-3.57-1S144.74,84.31,144.94,85.72Z" fill="#bdbec1"/><path d="M158.72,59.29c2.25,1.4,2.24,2.27,0,4C156.67,61.9,158.3,60.6,158.72,59.29Z" fill="#302e2f"/><path d="M61,81c3.93-.37,1.56,4,2.44,5.4C62.54,85.64,60.46,81,61,81Z" fill="#ced0d2"/><path d="M66.83,90.14c-.45.27-3.41,2.66-3.94,1.64S66.6,87.35,66.83,90.14Z" fill="#464647"/><path d="M57.06,82c-.08,1-.43,2,1,2C55.94,86.93,53.58,81.9,57.06,82Z" fill="#b1b3b6"/><path d="M92.28,64.16c.58-1.55.43-2.77,2.18-2.64C92.26,64.61,104,66.07,99.2,68c-.63.25-3.84-.84-4.42-1.08C93.68,66.44,90.46,66.67,92.28,64.16Z" fill="#9d9fa2"/><path d="M93.86,43c1.88-.82,4-.69,2.18,1.91C94.4,47.28,92.5,45.32,93.86,43Z" fill="#393839"/><path d="M142.49,101.44l-1-1c3.11-3.22,13.89-1.51,12.1,4.11-.74,2.33-2.55-2-3.49-2.63C147.73,100.22,145.19,100.77,142.49,101.44Z" fill="#2c2a2b"/><path d="M153.26,123.05c-3.11.72-3.17-9.12-1.88-10.73C154.43,108.5,153.8,121.26,153.26,123.05Z" fill="#282526"/><path d="M153.85,113.39l-1.52-1.67a7,7,0,0,0-1.07,2.31c.08-1.41-1.77-5.93.93-5.78C153.24,108.31,153.83,112,153.85,113.39Z" fill="#999c9e"/><path d="M151,126.74c-1.62-.41-1.79-2.67-2.5-3.84C151,124.29,153.3,123.14,151,126.74Z" fill="#414143"/><path d="M153.29,108.53c-3.82,1.74-.53-2.28-1-3.8A2.71,2.71,0,0,1,153.29,108.53Z" fill="#59595c"/><path d="M27.31,92.24c3.21.07.35,2.34.38,2.53C27.6,94,24,93.39,27.31,92.24Z" fill="#4e4e50"/><path d="M25.86,96.44c2.38-.18,0,2.39,0,3C25.9,98.65,23.51,98.36,25.86,96.44Z" fill="#4c4c4e"/><path d="M30.64,86.88l.49-.85c2.18,1.41.46,3.22.06,5C31,89.64,30.82,88.26,30.64,86.88Z" fill="#8b8d90"/><path d="M29.17,89.77c-.71,2.34-2.11,0-2.41,0C26.85,89.8,28.78,87.18,29.17,89.77Z" fill="#4e4e50"/><path d="M58.7,48.86c3.58-2.89,12.28-1,16,.51,1.94.8,5.77,2.76,6.47,4.9.86,2.68-.34,2.78-3.52,4.14a45.38,45.38,0,0,1-9.08,3c-1.84.34-9.71.77-10.82-1.23-1.9-3.42,4-2.4,5.22-2.39,2.65,0,5.34-1.27,8-.76-3.41.36-3.73-5.61-6.78-6.18-2.38-.45-2.77,1.31-4.19,2.64-1.78,1.67-1.71,1.63-4.14,2.41-1.56.49-5.29,3.08-5.63-.75C50,53,57,48.9,58.7,48.86Z" fill="#242122"/><path d="M68.5,58.32c-1.45,1.59-12.77-.14-9.56,2.49-2-.1-9.06-5.37-4.9-6.68,1-.31,2.6.83,3.28.57,1.1-.42,1-1.84,1.82-2.49s6.13-5.56,5.3-.54C65.73,48.36,71.28,55.4,68.5,58.32Z" fill="#f8f8f8"/><path d="M53.3,56.57c1.43.82,2.87.25,3.8,1.76C57.56,59.07,53.31,59.58,53.3,56.57Z" fill="#424143"/><path d="M99.76,67.4c1.36-2.59,1.64.57,3.27,1-4.55.67,1.68,3,1.89,3.34-.76,1.29-7.8,1.33-8.79.42C93.21,69.52,98.25,68.74,99.76,67.4Z" fill="#3e3e3f"/><path d="M135.46,47.78c3,.69,12.89,3.57,13.67,7.31s-8.1,6.5-11,7.16c-1.93.44-11.95.87-8-3,.89-.89,4.26-.65,5.53-1.08,2.44-.81,4.12-2.12,6.87-2.11-2.55.2-3.72-1.76-5.9-2s-7.71,3-9.38,1c-.83-1-.17-3.89.35-4.9,1-1.88,0-1.55,2.18-2.37C131.27,47.26,133.8,48.13,135.46,47.78Z" fill="#242122"/><path d="M127.85,48.32c1.51,4.47-4.71,5.06-1.66,8.41,1.18,1.3,3.33.69,4.09,2.29,1.37,2.91-2.67,2.25-3.91,2.13-2.13-.21-9.76-4.46-9.25-6.4C117.72,52.47,125.69,49.05,127.85,48.32Z" fill="#272424"/><path d="M165.67,90.65c.53-1.62-1.55-1.82-1.58-3.24,2.1-.1,1-.62,2.21.4a18.76,18.76,0,0,0,1.63,2.84C167.17,91.64,166.42,91.64,165.67,90.65Z" fill="#95979a"/><path d="M34.4,115.61c-2.36,1.66-4.3-1.47-2.76-3.12C34.49,109.43,34.67,113.73,34.4,115.61Z" fill="#312f30"/><path d="M37.3,100.83l-2.11,1.69c.88-1.73-.64-3.74.87-5.31.92.54,2.67.75,2.71,1.56C38.84,99.92,37.32,99.68,37.3,100.83Z" fill="#a9abad"/><path d="M164.25,115.5c-3.71.19-2.61-6.07-.16-6.32C167.58,108.84,167,114.38,164.25,115.5Z" fill="#b4b6b8"/><path d="M165.77,110.14c-1.68,2-3.11-1.71-3.42-2.59C163.55,106,165.48,109.52,165.77,110.14Z" fill="#57585a"/><path d="M161.37,102c1-1-1.53-.81.54-1.61.16-.06,2.48,2.87.35,2.85A2.28,2.28,0,0,1,161.37,102Z" fill="#231f20"/><path d="M163.19,107.41c-1.59.26-1.63.26-1.71-1.51C162.58,105.63,163,106.65,163.19,107.41Z" fill="#323132"/><path d="M79.75,95.12,76.9,98.87C76.83,96.1,77.5,94.85,79.75,95.12Z" fill="#e6e7e7"/><path d="M80.84,99.8c-1.93,1.94-1.84-.09-.38-1.58.24-.25,1.49-1,1.59,0C82.19,99.4,81.49,98.75,80.84,99.8Z" fill="#3b3a3b"/><path d="M113.64,99.35c-2.28,0-3.58-3.42-1.17-4.54S116.19,99.4,113.64,99.35Z" fill="#4e4f51"/><path d="M116,97.69c-1-1,1.38-2.73,2.11-2.51C120.56,95.92,117.38,98.07,116,97.69Z" fill="#312f30"/><path d="M99.76,67.4C100,70,94.46,70,96.13,72.2a2.62,2.62,0,0,1-2-4.19C95.45,66.35,98,67.47,99.76,67.4Z" fill="#ebecec"/><path d="M92.28,64.16c-.27,1.85,3.87,2.93.57,4.78C91.53,67.09,89.42,65.8,92.28,64.16Z" fill="#d7d8da"/><path d="M92.85,68.94c-.4-3.54,3.67-2.84,5.4-1.48C96.79,67.69,93.6,69.94,92.85,68.94Z" fill="#9b9da0"/><path d="M133.18,88l-1,.55C129.55,82.75,133.59,84.28,133.18,88Z" fill="#373638"/><path d="M38.68,116a4.13,4.13,0,0,1,.55,2.81,2.57,2.57,0,0,0-2.59.58C36.72,118,37.06,116.45,38.68,116Z" fill="#d8d9db"/><path d="M138.29,121.83a13.09,13.09,0,0,1-.08-3.48,7.32,7.32,0,0,0-2.06-1.86c.12-1.28-.8-2.18,1.38-2,3,.18,4.35,6.24,2.28,8.11A1.3,1.3,0,0,1,138.29,121.83Z" fill="#343334"/><path d="M164.25,115.5c.3-1.45.65-3,2.57-2.65-1,1.56.22,3.5-1.08,5C164.53,117.5,165,116.16,164.25,115.5Z" fill="#3b3b3c"/><path d="M111.72,95.55c-.66,1.69,1.76,2.14,1.49,3.73-3.16,0-3.94-.21-4.27-3.74A7.64,7.64,0,0,1,111.72,95.55Z" fill="#d4d5d7"/><path d="M139.34,115l-1.81-.56c1.32-.78.39-3,2.27-3.23A8.71,8.71,0,0,1,139.34,115Z" fill="#363536"/><path d="M92.09,120.48c-2.2,0-2.58-4.34-1.2-4.42C93.29,115.91,92.33,119.36,92.09,120.48Z" fill="#d4d5d7"/><path d="M61.41,113a3.67,3.67,0,0,0,1.75-2.27c5.52,2.78,0,7.83-3.92,9.2.14-1.31,1.39-2.7,1.73-3.87S60.69,114.25,61.41,113Z" fill="#3f3e40"/><path d="M52.81,111.75c2.53.76,2.16-.86,2-2.58,1.37,1.2,2.73,3.6,1.62,5.25C53.85,118.23,53.9,112.69,52.81,111.75Z" fill="#a1a3a5"/><path d="M55.35,115.53A2.48,2.48,0,0,1,57,113C58.24,115.13,55.64,117,55.35,115.53Z" fill="#6e6f72"/><path d="M63.56,117.15c1.59-4.2-1-6.6,3.69-3.32C65.87,114.5,66.34,119.64,63.56,117.15Z" fill="#f4f4f5"/><path d="M98.08,67.3c-1.28-.13-2.88.92-3.68-1C95.83,65.89,97.51,64.53,98.08,67.3Z" fill="#323031"/><path d="M68.5,58.32l1.11-3c2.19,2,3.69-4.19,4.63-.75C75.29,58.32,70.41,57.75,68.5,58.32Z" fill="#e3e4e5"/><path d="M66.78,50.84c-3.9-1.27-.06,3.28-.41,4.25-2.28-1.43-2.49-2.94-2.53-5.53A5.66,5.66,0,0,1,66.78,50.84Z" fill="#292627"/><path d="M130.06,59.77c-.17-2.72-1.57-7.19,2.92-8,.32-.06,1,1.91,1.35,1.85s1-1,1.14-1c.81,0,.65-1.6,2.07-1.28,1,.22,1.26,2.31,2.07,2.74s9-.91,5.83,2.46c-1.4,1.48-4.94,1-6.85,1.65C135.48,59.22,133.51,61,130.06,59.77Z" fill="#f8f8f8"/><path d="M128.54,58.74c-2,.28-5.59-2.27-5-4.5.14-.55,4.27-3.94,4.92-4.2,1.82,2.4-1.64,2.78-1.34,5C127.27,56.27,130.93,57.1,128.54,58.74Z" fill="#f2f3f3"/><path d="M128,56.93c-.84-1.52-4.11-1.38-.7-3.16.23,1.32,1.38,1,2.31,1.2C129.41,56.31,129.21,56.51,128,56.93Z" fill="#87898b"/><path d="M128,56.93c1.07-2.94,2.14,1.23,2,2.34C127.11,58.22,129.89,58.13,128,56.93Z" fill="#595a5d"/></svg>