<svg xmlns="http://www.w3.org/2000/svg" xmlns:xlink="http://www.w3.org/1999/xlink"><symbol viewBox="0 0 41.8 3.68" id="icon-arrow" xmlns="http://www.w3.org/2000/svg"><path fill="#c4a56e" d="M0 1.34h39.54v1H0z"/><path fill="#c4a56e" d="M38.61 0l3.19 1.84-3.19 1.85V0z"/></symbol><symbol viewBox="0 0 28.22 28.22" id="icon-md-facebook" xmlns="http://www.w3.org/2000/svg"><path d="M10.07 15.68h1.79V23a.26.26 0 0 0 .26.26h3a.26.26 0 0 0 .28-.26v-7.3h2a.27.27 0 0 0 .26-.23l.31-2.7a.27.27 0 0 0-.26-.29H15.4V10.8c0-.51.27-.77.82-.77h1.54a.27.27 0 0 0 .24-.27V7.29a.26.26 0 0 0-.24-.29h-2.22a4.12 4.12 0 0 0-2.67 1 2.81 2.81 0 0 0-.93 2.48v2h-1.87a.26.26 0 0 0-.26.26v2.66a.27.27 0 0 0 .26.28z" fill="#fff"/><path d="M14.11 28.22a14.11 14.11 0 1 1 14.11-14.11 14.13 14.13 0 0 1-14.11 14.11zm0-27A12.88 12.88 0 1 0 27 14.11 12.88 12.88 0 0 0 14.11 1.24z" fill="#fff"/></symbol><symbol viewBox="0 0 28.22 28.22" id="icon-md-mail" xmlns="http://www.w3.org/2000/svg"><path d="M23.14 9.75a.93.93 0 0 0-.92-.93L6 8.85a.92.92 0 0 0-.92.92v9.12a.92.92 0 0 0 .93.93H6h16.22a.93.93 0 0 0 .93-.92zm-1.94 0l-7.09 4.93L7 9.77zm-4.09 5.86l4.2 3.26H6.9l4.23-3.28a.46.46 0 1 0-.57-.73L6 18.41v-8.22l7.86 5.43a.43.43 0 0 0 .26.09.44.44 0 0 0 .27-.09l7.84-5.45v8.24l-4.55-3.53a.46.46 0 0 0-.57.73z" fill="#fff"/><path d="M14.11 28.22a14.11 14.11 0 1 1 14.11-14.11 14.13 14.13 0 0 1-14.11 14.11zm0-27A12.88 12.88 0 1 0 27 14.11 12.88 12.88 0 0 0 14.11 1.24z" fill="#fff"/></symbol><symbol viewBox="0 0 28.22 28.22" id="icon-md-phone" xmlns="http://www.w3.org/2000/svg"><path d="M21.3 19.33l-3.05-3a.94.94 0 0 0-1.32 0l-.79.79a.94.94 0 0 0-.24.92l-.3.3c-.21.22-1.53-.11-3.13-1.71s-1.93-2.92-1.71-3.13l.3-.3a1.09 1.09 0 0 0 .26 0 .92.92 0 0 0 .65-.27l.8-.79a.94.94 0 0 0 0-1.32l-3-3.05a.94.94 0 0 0-1.32 0l-.79.79a.94.94 0 0 0-.24.92l-.26.27c-.85.94-1 2.42-.45 4.18A13.23 13.23 0 0 0 10 19.06a13.23 13.23 0 0 0 5.15 3.33 6.41 6.41 0 0 0 1.93.33 3.24 3.24 0 0 0 2.35-.87l.17-.17a1.09 1.09 0 0 0 .26 0 .92.92 0 0 0 .66-.28l.79-.79a.94.94 0 0 0-.01-1.28zM9.06 8.41l3 3.05-.79.79-1.48-1.52L8.27 9.2zm9.7 12.78c-.67.67-1.86.78-3.34.31a12.32 12.32 0 0 1-4.77-3.1 12.32 12.32 0 0 1-3.1-4.77c-.47-1.48-.36-2.67.31-3.34L8 10.2l2.36 2.37-.21.22c-.9.9.18 2.92 1.71 4.45a6.16 6.16 0 0 0 3.59 2 1.15 1.15 0 0 0 .86-.33l.22-.21 2.37 2.36zm1.09-.41l-3.05-3.05.79-.79 3.05 3zM18.15 10.9a4.71 4.71 0 0 0-3.33-1.37.47.47 0 0 0 0 .93 3.76 3.76 0 0 1 3.77 3.76.47.47 0 1 0 .93 0 4.7 4.7 0 0 0-1.37-3.32z" fill="#fff"/><path d="M19.82 9.23a7 7 0 0 0-5-2.07.47.47 0 0 0 0 .93A6.15 6.15 0 0 1 21 14.23a.47.47 0 0 0 .93 0 7 7 0 0 0-2.11-5zM16.47 12.58a2.26 2.26 0 0 0-1.65-.69.47.47 0 0 0 0 .94 1.31 1.31 0 0 1 1 .41 1.34 1.34 0 0 1 .41 1 .47.47 0 0 0 .47.47.47.47 0 0 0 .47-.47 2.25 2.25 0 0 0-.7-1.66z" fill="#fff"/><path d="M14.11 28.22a14.11 14.11 0 1 1 14.11-14.11 14.13 14.13 0 0 1-14.11 14.11zm0-27A12.88 12.88 0 1 0 27 14.11 12.88 12.88 0 0 0 14.11 1.24z" fill="#fff"/></symbol><symbol viewBox="0 0 8.83 8.83" id="icon-plus" xmlns="http://www.w3.org/2000/svg"><path fill="none" stroke="#edddbe" stroke-miterlimit="10" d="M4.41 8.83V0M0 4.41h8.83"/></symbol><symbol viewBox="0 0 19 19" id="icon-sm-email" xmlns="http://www.w3.org/2000/svg"><path d="M15.55 6.21a.61.61 0 0 0-.61-.61H4.2a.6.6 0 0 0-.43.18.64.64 0 0 0-.18.43v6a.61.61 0 0 0 .61.61h10.74a.61.61 0 0 0 .61-.61zm-1.28 0L9.58 9.47l-4.7-3.25zm-2.71 3.88l2.78 2.15H4.8l2.8-2.17a.32.32 0 0 0 .06-.44.31.31 0 0 0-.43-.05l-3 2.34V6.5l5.17 3.6a.41.41 0 0 0 .18.05.27.27 0 0 0 .17-.06l5.19-3.6v5.45l-3-2.34a.31.31 0 0 0-.38.49z" fill="#c4a56e"/><path d="M9.5 19A9.5 9.5 0 1 1 19 9.5 9.51 9.51 0 0 1 9.5 19zM9.5.83a8.67 8.67 0 1 0 8.67 8.67A8.68 8.68 0 0 0 9.5.83z" fill="#c4a56e"/></symbol><symbol viewBox="0 0 19 19" id="icon-sm-phone" xmlns="http://www.w3.org/2000/svg"><path d="M14.56 12.55l-2-2a.63.63 0 0 0-.88 0l-.52.53a.59.59 0 0 0-.16.6l-.2.2c-.14.14-1-.07-2.07-1.13S7.45 8.8 7.59 8.65l.19-.19h.18a.61.61 0 0 0 .43-.18l.53-.52a.63.63 0 0 0 0-.88l-2-2a.61.61 0 0 0-.44-.19.59.59 0 0 0-.48.2l-.53.52a.63.63 0 0 0-.12.59l-.18.18A2.76 2.76 0 0 0 4.88 9a8.64 8.64 0 0 0 2.2 3.41 8.64 8.64 0 0 0 3.41 2.2 4.09 4.09 0 0 0 1.27.22 2.15 2.15 0 0 0 1.56-.58l.11-.11a.51.51 0 0 0 .17 0A.65.65 0 0 0 14 14l.52-.53a.62.62 0 0 0 .04-.92zm-8.1-7.23l2 2-.46.54-1-1-1-1zm6.42 8.46a2.17 2.17 0 0 1-2.21.2 8.23 8.23 0 0 1-3.16-2 8.23 8.23 0 0 1-2-3.16 2.19 2.19 0 0 1 .2-2.22h.06l1.52 1.47-.14.15c-.59.59.12 1.93 1.13 2.94a4.08 4.08 0 0 0 2.38 1.35.78.78 0 0 0 .57-.21l.14-.15 1.57 1.57zm.72-.27l-2-2 .53-.52 2 2zM12.48 7a3.09 3.09 0 0 0-2.2-.91.31.31 0 0 0 0 .62 2.49 2.49 0 0 1 2.49 2.49.31.31 0 0 0 .62 0 3.13 3.13 0 0 0-.91-2.2z" fill="#c4a56e"/><path d="M13.58 5.86a4.64 4.64 0 0 0-3.3-1.37.31.31 0 1 0 0 .62 4 4 0 0 1 2.87 1.19 4.07 4.07 0 0 1 1.19 2.87.31.31 0 1 0 .61 0 4.64 4.64 0 0 0-1.37-3.31zM11.37 8.08a1.5 1.5 0 0 0-1.09-.45.31.31 0 0 0-.31.31.3.3 0 0 0 .31.3.9.9 0 0 1 .65.28.88.88 0 0 1 .27.65.31.31 0 0 0 .31.31.31.31 0 0 0 .31-.31 1.48 1.48 0 0 0-.45-1.09z" fill="#c4a56e"/><path d="M9.5 19A9.5 9.5 0 1 1 19 9.5 9.51 9.51 0 0 1 9.5 19zM9.5.83a8.67 8.67 0 1 0 8.67 8.67A8.68 8.68 0 0 0 9.5.83z" fill="#c4a56e"/></symbol></svg>