<svg xmlns="http://www.w3.org/2000/svg" width="195" height="260" viewBox="0 0 195 260"><g fill="none" fill-rule="evenodd"><path fill="#C4A56E" d="M61 256.38a3.76 3.76 0 0 0 1.56-.32 4 4 0 0 0 1.27-.89 4.18 4.18 0 0 0 1.17-2.94V251h-2v-3h8v3h-3v1.23a7.35 7.35 0 0 1-.53 2.8 7 7 0 0 1-1.47 2.25 6.94 6.94 0 0 1-2.22 1.49 7.5 7.5 0 0 1-5.54 0 6.94 6.94 0 0 1-2.24-1.49 7 7 0 0 1-1.47-2.28 7.35 7.35 0 0 1-.53-2.8v-7.3a7.34 7.34 0 0 1 .55-2.87 7.06 7.06 0 0 1 1.53-2.31 7.24 7.24 0 0 1 5.18-2.08 6.4 6.4 0 0 1 3 .64 9.22 9.22 0 0 1 2 1.41 8.38 8.38 0 0 1 1.45 2.05l-2.53 1.58a4.22 4.22 0 0 0-.85-1.32 4.56 4.56 0 0 0-1.22-.94 3.87 3.87 0 0 0-1.88-.42 4.12 4.12 0 0 0-1.65.33 4.25 4.25 0 0 0-1.36.92 4.31 4.31 0 0 0-.92 1.35 4.2 4.2 0 0 0-.3 1.66v7.33a4.18 4.18 0 0 0 1.17 2.94 4 4 0 0 0 1.27.89 3.76 3.76 0 0 0 1.56.32zM85 244a3.05 3.05 0 0 0-3-3H72v-3h10.06a5.75 5.75 0 0 1 5.94 6c0 1.16-1 5-4.06 5.26l4.87 9.74h-3.76l-4.58-9H77v9h-3v-12h8a3 3 0 0 0 3-3zm7 .64a7.27 7.27 0 0 1 .53-2.77 6.83 6.83 0 0 1 3.7-3.69 7.37 7.37 0 0 1 5.54 0 6.83 6.83 0 0 1 3.7 3.69c.356.88.536 1.82.53 2.77v7.62a7.23 7.23 0 0 1-.53 2.77 6.8 6.8 0 0 1-3.7 3.7 7.5 7.5 0 0 1-5.54 0 6.8 6.8 0 0 1-3.7-3.7 7.23 7.23 0 0 1-.53-2.77v-7.62zm11 .11a3.83 3.83 0 0 0-.31-1.55 4 4 0 0 0-.86-1.28 4.25 4.25 0 0 0-1.27-.86 4.08 4.08 0 0 0-3.12 0 4.25 4.25 0 0 0-1.27.86 4 4 0 0 0-.86 1.28 3.83 3.83 0 0 0-.31 1.55v7.4a3.85 3.85 0 0 0 .31 1.56 4 4 0 0 0 .86 1.27 4.08 4.08 0 0 0 1.27.86 4.08 4.08 0 0 0 3.12 0 4.08 4.08 0 0 0 1.27-.86 4 4 0 0 0 .86-1.27 3.85 3.85 0 0 0 .31-1.56v-7.4zm11 7.51a4.17 4.17 0 0 0 .31 1.62c.204.489.496.936.86 1.32.366.376.8.678 1.28.89a3.91 3.91 0 0 0 3.1 0 4.09 4.09 0 0 0 1.28-.89 4.36 4.36 0 0 0 .86-1.32 4.17 4.17 0 0 0 .31-1.62V238h3v14.26a7.35 7.35 0 0 1-.53 2.8 7 7 0 0 1-1.48 2.25 6.94 6.94 0 0 1-2.22 1.49 7.5 7.5 0 0 1-5.54 0 6.94 6.94 0 0 1-2.22-1.49 7 7 0 0 1-1.48-2.25 7.35 7.35 0 0 1-.53-2.8V241h-2v-3h5v14.26zm26-8.26a3 3 0 0 0-2.87-3H128v-3h9.3c3.53 0 5.7 3.44 5.7 6 0 2.38-2.16 6-5.7 6H133v9h-3v-12h7.13c1.87 0 2.87-2 2.87-3z"/><path fill="#FFF" fill-rule="nonzero" d="M171 188h-12v29h7v5h-19v-5h7v-29h-13v21.64a13 13 0 0 1-.9 4.89 12.52 12.52 0 0 1-2.45 3.91 11.62 11.62 0 0 1-3.68 2.61 10.93 10.93 0 0 1-4.59.95H127v-6h2.38a6.53 6.53 0 0 0 2.6-.52 6.31 6.31 0 0 0 2.11-1.45 6.8 6.8 0 0 0 1.41-2.2 7.31 7.31 0 0 0 .5-2.69V188h-7v-5h47.84L190 210.3V183h5v39h-5.28L176 194.43V222h-5v-34zM0 183h25v5H0v-5zm15 39h-5v-18H0v-5h25v5H15v18zm39 0H30v-39h24v5H35v11h14v5H35v13h19v5zm39-5v5H83v-30.88L76.21 205h-5.42L64 191.12V222h-5v-39h6.39L74 199.72 82.61 183H88v34h5zm10-6.51a7.48 7.48 0 0 0 7.5 7.48c4.28 0 7.48-3.06 7.48-8.08L118 183h5v26.67c0 5.65-4.19 12.72-12 12.72a12.7 12.7 0 0 1-13-12.72V188h-4v-5h9v27.49z"/><path fill="#242021" d="M90.05 106.83c2.23 0 5.06 3.73 1.38 4.28 1.33 0 3-1.25 4.56-1.41a33.25 33.25 0 0 1 6.23.15c2.9.46 7.23 1.88 10.18 1 1.82-.54 3.5-4.15 4.82-4.28 2.4-.23 3.86 2.57 4.78 4.08 1.92 3.15 8 19.66 2.29 22.11-4.86 2.06-2.93-5.5-2.76-7.39.3-3.42-.51-6.35-1.5-9.63-.27 3.86 3.4 8.08.93 11.86-2.68 4.1-5.89.93-9.42.93-1.58 0-2.35 1.16-3.76 1.23-1.24.06-3.79-1-5.06-1.17a46.81 46.81 0 0 0-13.68.33c-2.33.38-9.2 2.21-10.94.52-1.74-1.69-.56-8.81 0-10.88.45-1.81 1.84-3.44 2.23-5.14 0 .1.19-4.94-.13-4.4 1.92-3.28 8.27.77 9.85-2.19z"/><path fill="#FCFCFC" d="M113.24 39.1c2.74-3.35 1.65.17 4.38-.1 1.06-.11 1.42-1.43 2.52-1.65 1.35-.27 2.14.15 3.51.29a93.33 93.33 0 0 1 20.49 4.51c5.8 2 9.89 6.16 14.13.1.67-1 1.83-2.37 1.48-3.67-.35-1.3-2.16-1-2.38-1.77-.3-1 .64-1.9.38-2.63-.38-1-1.17-1.32-1.65-2.41-1.62-3.72-4.3-11.34-9.68-8.3-1.15.65-3.73 8.11-5.47 4.82-.8-1.53 1.66-3.8 2.72-4.94 2.45-2.63 3.57-4.22 7.42-2.08.85.47 4.84 2.19 5.25 2.64.17.18 1 3.6 1.21 4.32.21.72.51 2.15.82 2.86.46 1.07 1.75.61 2.41 1.59-2.29 1.79 3.35 8.47 2.7 12.26-1 5.6-6.33 4.16-10.22 3-5.93-1.73-11.52-4.16-17.5-5.76a56 56 0 0 0-8.16-2c-2.88-.3-4.14.69-6.79 1.13-5.15.84-9.56 2.18-13.35 6.35-1.95 2.15-3.37 10.45-7.31 6.73-3.19-3 1.58-7.84 3.43-10.25 1.53-2 1.55-2.59 4.34-3.39 1.82-.46 3.91-.35 5.32-1.65z"/><path fill="#242021" d="M64.14 34.25c5.48-1 2.09 4.35-.22 5.94-2.5 1.72-6.64 1.74-9.52 2.81-3.73 1.39-8.28 4.59-12.22 2.34-3.48-2-6.12-5.81-4.88-10 .42-1.43 1.44-3 1.76-3.85.32-.85.1-2.22.71-3.28 1.1-1.89 5.66-5.73 7.58-6.38 4.17-1.4 7.29 2.06 8.61 5.73 1.43 4-2.37 10.15-7.15 7.31 1 2.25 4.65.94 6.21-.06 3.26-2.06.33-3.86 2.41-6 .84-.86 1.84-.17 2.66.06C64.21 30 61.55 30 62.3 31.62c-.07-.14-1.93 5.38 1.84 2.63z"/><path fill="#252223" d="M71.7 131.73c-3.43 1-7.16-.17-10.37-.42-3.21-.25-8.18.42-10.29-2.85-.75-1.16-1.34-7.29-.25-8.73 3.6-4.76 4 2.56 5.37 3.8.61-4.72 11.81-.77 7.06 2.3 4-2.65.4-.62.61-3.27a1.85 1.85 0 0 1-.77-2.19 2.85 2.85 0 0 1 2.27-1.76 1.76 1.76 0 0 0 2.33-1.27 4.46 4.46 0 0 1 .47-2.91c0-2.8-.25-3.35-3.25-4.26-.64-.19-2.14.63-3.38.21-1.52-.5 0-2.6-2.8-2.47-3.64.16-6.05 6.59-9.65.92-2.86-4.48 2.92-9.38 7.5-8.18 4.14 1.08 8.23 4.62 12.35 5.43 2.43.48 2.95-.69 5.14 1.13 3.11 2.57 1.38 5.16.24 8.11-1 2.6-2.34 5.46-2.59 8.29-.25 2.83 1.21 5.48.01 8.12z"/><path fill="#FBFBFC" d="M58.08 103.49c-2.44-1.91-8.24-2.21-8.81 2.24-.26 2.1 1 1.53 1.78 3.24.66 1.44.37 2.44.65 4.07.11.65 1.07 2.67 1.11 3.34.23 3-.3.34-.69 2.86-.24 1.53.43 3.26.21 4.56-.22 1.3-1.18 2.12-.89 3.28.29 1.16 4.54 6.35-1.11 2.54-2-1.34-3.26-4.89-3.92-6.93-1.14-3.52.61-5.78.81-9.17.12-2-1-3.76-1.17-5.63-.2-3 1.38-4.73 2.42-7.35-3.48 3-3.18 10.13-2.95 14.24.19 3.47.09 11.19 2.27 14.58 1.09 1.71 7.41 5.22 1.59 3.9-5.07-1.15-6.61-7.73-7.3-12C41 114.5 40.46 93.32 52 96c2.31.54 12.31 4.13 12.11 5.88-.34 3.43-4.11.73-6.03 1.61zm79.56-21A5.41 5.41 0 0 0 138.8 81a1.31 1.31 0 0 1 2 .08c.3-.12 1.14-1.79 1.32-1.74 1.5.43 1.17 2.74 1.61 2.8 2.93.4.51-.71 1.62-2.05 2.25-2.7 5.22-4.78 7.54-7.62a15.71 15.71 0 0 0 3.54-6.63c.3-1.45-.73-5.44.37-6.48 3.69-3.49 1.67 5 1.61 6.24a37.63 37.63 0 0 1-2.29 12 40.53 40.53 0 0 1-8 12c-1.44 1.5-3.05 3.19-5.09 3.84-2.83.88-3.29-1.39-6 1.4-1.25-1.3.67-3-.33-4.51-.38-.57-2.51 1-3.18.3-3.66-3.82 3.83-5.56 4.12-8.14z"/><path fill="#FAFAFA" d="M60.31 94.86C56.48 97.69 47 83.63 45.23 81.15c-2.55-3.62-3.37-7.32-3.9-11.73-.24-1.94-2.06-10.62-.33-11.82.24-.16 2.28 7.41 2.7 8.51.68 1.74.87 4 2 5.49 1.56 2.07 1.74.68 3.25 2.13 1.86 1.79 1.89 4.75 3.79 6.31.74.61 2.27.15 3.13.63.86.48 1 2.31 1.65 2.48 2.52-1.8 3.07-1.36 4.95-.06.54.37 0 1.67.87 2.2 1.15.7 2.1-.86 3.26-.2 4.95 2.75-3.6 9.09-6.29 9.77z"/><path fill="#FBFBFB" d="M56 31.54c-1.83-4.83-4.79-12.29-10.36-6.87-.59.56-1.57 1.13-1.91 1.9-.25.54 0 3-.21 3.24-2.27 2.4-1.09-1.7-2.2-2.37-.63.28-2.08 5.39-2.31 6.39-.66 2.87-.46 6.92 1 8.93 4.49 6.18 18.82-6.28 21-.88-6 1.82-21.47 13-25.65 3.39C32.41 38.62 37.56 28 41.75 23c2.93-3.49 9.11-5.35 13-2 1.14 1 1.71 3.17 2.33 4.53.55.66 1.11 1.31 1.67 2a3.16 3.16 0 0 1-1 2.88c.11 1.37 1.26 2.63.58 3.92-1.71 3.13-2.33-2.75-2.33-2.79z"/><path fill="#FCFCFC" d="M61 41.88c-3.53-2.12 6.13-4.83 7.95-5.21a36.37 36.37 0 0 1 6.5-1.12c2.51 0 4.15 2.19 5.79 2.29 1.07.06 3-.77 4.24-.79 3 0 .74-1.42 3.83.94 1.73 1.32 1.86 3.63 4.17 3.89 1 .11 0-2.43.43-2.89 5.59.55.88 5.41 1.44 7.6.39 1.54 3 1.9 3.48 2.81.86 1.61.26 1.84.17 3.54-.17 3.14 1.4 8.32-1.95 10-5 2.45-4.45-2.71-4.22-5.75.33-4.21-.2-6.85-3.19-10.31a15.17 15.17 0 0 0-5.64-4c-2.22-.94-4.3-.36-6.33-.93-1.14-.33-.49-2.15-1.89-2.25-1.4-.1-3.7 1.19-5 1.42-1.12.2-2-.89-3.13-.64a3.7 3.7 0 0 1-3.17 1.44 17.49 17.49 0 0 0-3.48-.04z"/><path fill="#FBFBFB" d="M121.45 68.81c1.86.21 2.3 1.49 3.92 2.31 2 1 4 1 6.23 1.18 2.23.18 5.81 1 8 .32 1.24-.37 1.71-1.21 2.76-1.64 4.36-1.79 6.31-2.48 9.87-5.73 2.15-2 3.84-2.92 2 .84-4.62 9.46-16 10.36-24.88 10.31-9.85-.06-16.2-7.31-20.93-15.73 1.69-1.1 11.06 7.06 13.03 8.14zm-37.91.1c-.39 8-20.45 8-25.47 6.57-4.67-1.29-8.07-4.58-10.89-8.34-1.2-1.6-6.13-8-1.31-5.65 3.2 1.59 5.38 6.41 9 8.26 3.25 1.68 7.84 2.17 11.22 2.22 3.74.06 6.44.25 9.61-2 1.3-.91 8.05-5.75 7.84-1.06zm55.24 63.29c15.49 5.17 12.86-12.94 13.25-22.62.23-5.72-1.07-10.27-8.07-8.63-1 .24-4.85 2.7-5.29.49-.24-1.16 3.63-3 4.21-3.27C158 91.4 158 112 156 121.64c-1.45 6.83-4.29 13.21-11.84 13.43a33 33 0 0 1-5.83-.59c.08 0-4.49-.51-4-.23-4.24-2.4 2.15-2.59 4.45-2.05z"/><path fill="#F9F9F9" d="M36 84.26c3.2 6.35-2.63 8.35-6 13.09-1.13 1.58-3 7.21-4.53 8.2-2 1.32-2.23-.07-3.16-2a21 21 0 0 0 0-2.16c-.34-1-1.43-1.2-1.66-2.36-.45-2.26 1.79-5.58 2.95-7.49 2.32-3.82 6.92-8.7 7.94-1.83-.23-2.5-.02-6.21 4.46-5.45z"/><path fill="#FAFBFB" d="M57.64 48.39c3.37-.37.87 3-.51 4-1.67 1.31-6 1.5-5.27 4.27 1.21 4.54 13.83 5.07 16.74 4.43 4.5-1 15-3.94 7.36-8.51-1.29-.78-5.77-1.33-4-4 1.35-2 5 .43 6.49 1.4 3.48 2.21 7.87 5.14 4.65 8.83-3.53 4-12.24 6-17.33 6a31.1 31.1 0 0 1-10.27-1.99c-1.94-.81-7.37-4-7.8-6.21-.84-4.2 7.4-6.87 9.94-8.22z"/><path fill="#262324" d="M94.46 62.52c3.63-.14 3.23-2.39 2.91-4.4A2.26 2.26 0 0 1 95.68 56a20.56 20.56 0 0 0 2.18-3.23c.73-3.65-3.17-2.65-1-7.23 1.09-2.25 1.89-2.45 3.78-3 0 0 3.21-.46 2.9-.66 4.25 2.78-3.79 7.31-3.54 10.21.17 2 2.8 2.18 3.26 3.5.74 2.1-1.38 3.42-.4 5.55.72 1.54 3.21 1.87 3.92 3.51-1-2.42-1 4.76-.37 3.2-1.53 3.84-2.56 3.3-5.9 1l-2.3-2.15a3.58 3.58 0 0 0-3-.7c-.69-.6-4.16-2.35-.75-3.48z"/><path fill="#FAFAFB" d="M71.7 131.73c-1.44-.72-1.78-3.92-1.8-5.75 0-3.62 1.76-8 3.23-11.35.61-1.39 2.14-6.55 4.05-5.62 2.95 1.44-1.5 9.86-1.8 11.6-.83 4.94.32 8.86 2.87 13.09.59 1 3 3.5 3.06 4.48.06 1.39-.86 1.25-1 2.09.08-.56-.85 3.56-.27 2.74-.68 1 .16 1.38-1.47.72-2.74-1.13-5.41-9.65-6.87-12z"/><path fill="#F9F9F9" d="M140.38 65.64c-2.65-.81-5.49-.07-8.19-.22-2.7-.15-4.26-1.05-6.68-1.85-4-1.31-13.41-4.74-9.23-10.08 3.23-4.14 10.88-6.3 15.82-6.45 1.29.1 2.58.15 3.88.16.76-.49 1.53-1 2.3-1.44 2.1.81.66 1 0 2.06-2 3-4 2-7.24 2.38a16 16 0 0 0-8.04 3.06c-6.32 4.73 2.35 7.29 6.92 8.38 3.044.86 6.276.79 9.28-.2 1.92-.56 6-3.29 7.89-2 3.91 2.83-4.81 6.11-6.71 6.2zM163 87.86c-.66-1.29.73-3.11 2.05-3.42 1.74-.4 1.73.72 3.23 1.94 5 4.05 10.09 7.33 7.89 14.5-.49 1.61-.58 4-2.81 3.76-1.52-.18-4.82-5.43-5.14-6.59-.54-2 .1-2.76-.62-4.75-.72-1.99-4.53-3.82-4.6-5.44zm2.13-10.34a2.59 2.59 0 0 1-1 .58c-1.11-.25 1-7.44 6.14-4.69 6 3.23 7.84 6.39 8 12.85 0 1.12.92 3.84.51 4.69-1.26 2.54-2.09-1.21-2.58-1.9-1.34-1.89-12.3-11.23-8.69-12.6l-2.38 1.07z"/><path fill="#F9F9FA" d="M87.36 83c-5 1.26 1.75 7-3 5.66-3.13-.89-7-9.84-3.16-11.69 1.44-.68 4.33 1.09 5.78 1.45 2.34.58 3.28 0 5.33 2.07 2.05 2.07 7.75 11.89 4.58 14.86-4.05-2.22-2.59-4.33-3.72-7.93-.38-1.33-4.44-5.88-5.81-4.42zm-58.44 22.71c1.63-2.95 3-6.65 5.2-9.21 2.48-2.91 3-2.55 5.27-.08 1.88 2 2.86 4.18.83 6.62-1.44 1.73-4 1.85-3.93-1.91-.22 2.64 2 5.22 1.6 8a5.29 5.29 0 0 0-1.92 2c.17.7.37 1.4.58 2.1-.16 1.35 1.48 3.89-.79 4.59-3.57 1.08-2.3-6-3.11-7.35-1-1.68-4.74-2.31-3.73-4.76z"/><path fill="#FAFAFA" d="M32.3 77.76c-1.28 2.14-3.42 3-5.14 4.65-1.72 1.65-3.07 4-4.72 5.69-1.49 1.58-2 4-3.78.76-1.61-3 .09-8.46 2.56-10.38s5.67 0 7.39-1.8c1.53-1.57-.56-2.87.11-4.21 1-2 3.65-1.84 4.21-.7-.35-.7-.93 6.42-.63 5.99z"/><path fill="#F8F8F9" d="M153.26 124.05c-.69 1.21-1.91 1.47-2.34 2.25-.43.78-.11 1.93-.75 3.25-1.14-2.21-3.72.59-5.09-1.6-.33-.53 1.83-4.49 2.13-5.32a22.27 22.27 0 0 0 1.45-7.15c0-2.55-2-5.56-1.57-8 .93-.13 2.72 2.53 2.78-.26 0-.61-1.92-2.51-2.48-2.8-1.57-.82-4.23.93-5.19-1.17s3-2.78 4.28-2.75a6.35 6.35 0 0 1 5.24 2.89c2 3 .21 4 .2 7.09 0 2.52-.34 12.29 1.34 13.57z"/><path fill="#FAFAFA" d="M119.2 128.39c1.91-3.77.82-6.59-.41-10.35-.49-1.52-2.36-5.18-.87-6.11 2.7-1.67 4.17 5.92 4.51 7.41.92 4-.05 6.67-.33 10.52-.24 3.28-1.36 11.55-6.39 11.12-.58 0-2.75-1.52-2.88-2.22-.31-1.78 1.26-1.52 2.23-2.67 2.36-2.77 2.79-4.59 4.14-7.7z"/><path fill="#F8F9F9" d="M84.19 150.76c-.12.78-1.75 3.08-2.49 3.31-2.36.74-.85-1.9-.88-2-.03-.1 2.57-1.95.54-2.26-1.06-.16-1.82 2-2.9 2.34-4.36 1.44 1.76-4.38 2.38-5.79 1.29-2.93 2.22-7.62 6-8.69 3.93-1.12 1.31 1.86.65 4.16-.71 2.47-1 4.05 0 6.69.63 1.71 3.19 3.71 3.48 5.08.21 1 1.08 1.24-.22 1.93.42-.22-5-1-4.74-.73-.47-.44 0-5.69-1.44-4.93a5.26 5.26 0 0 0-.38.89z"/><path fill="#F8F8F9" d="M96.08 143.62c1.66 1.24 3.55.3 5.34-.15.81-.2 5.35-1.73 6.33-1.19 2.61 1.43 1.3 7.25-2.77 5.29-.29 3.22-1 1.59-3.64 1.27-2.64-.32-4.62.74-7 .69-3.36-.06-9-4.13-4.27-7.54 2.8 4.3 2.5-.12 6.01 1.63z"/><path fill="#F8F9F9" d="M101.4 87.32c2.43-3.68 5.26-8.64 10.07-9.48 6.68-1.17 9.35 8.59 3.86 9.08-1.64.15-1.87-1.92-3.24-2.7a5.68 5.68 0 0 0-6.06.56c-1.5 1.08-1.71 4.17-2.76 4.8-1.9 1.13-2.2-.46-1.87-2.26z"/><path fill="#F9F9F9" d="M163.86 62c2.35-.29 6.45 1.14 8.67 2 .86.34 5.75 2.52 6 3.17.15.36-1.38 1.92-1.29 2.65.09.73 1.72 1.27 1.58 2.22-.54 3.71-4 .17-5.47-.78-1.94-1.25-4.43-1.84-6.3-3.11-2.83-1.87-1.87-3.07-3.19-6.15z"/><path fill="#F8F8F8" d="M162 96c1.89-.37 2.61 2.33 3.31 3.5 1.16 2 3.79 4.34 4.59 6.26.5 1.16-.14 2 .16 3.28.51 2.11 3.56 2.55-.59 4.49-2.39 1.11-2.69.4-4.22-1.19a24.8 24.8 0 0 1-2.9-4.33c-.59-1.6-.48-4.22-1-6-.57-2.08-1.73-4.38.65-6.01z"/><path fill="#FAFAFB" d="M40.93 92.73c-1.83-5.31-4-9.93-4-15.2C37 76 35.84 70 36.64 69.1c2.65-2.79 3.3 5.7 3.48 6.69.29 1.62.27 4.37 1.12 5.65.3.44 2.16 1 2.19 1.48.03.48.25 1.54.26 1.74 0-.08-2.25.27-2.13 1.41.31 3 4.06-.62 3.51 3-.17 1.11-3.07 4.49-4.14 3.66z"/><path fill="#F9F9FA" d="M116.54 140.87c1.23-2.42 3.79-3.73 5.53-6.84 1.32-2.35 2.4-3.9 2.93-6.89.4-2.28-3.27-17-2.41-17 1.8-.15 2.82 7.1 3.08 8 1.2 3.9 1.81 6 1.17 10.3-.38 2.46-7.08 20.98-10.3 12.43z"/><path fill="#282526" d="M81.91 138.86c-3.55.22-6.63-7.51-7.57-10.52-1.09-3.47-.54-7 .44-10.39.51-1.82 1.63-8.15 3.46-8.84 5.67-2.12-.65 10.79-.8 12.8a17.7 17.7 0 0 0 1.42 8.43c1.14 2.66 4.45 5.56 3.05 8.52z"/><path fill="#F6F6F7" d="M112.75 137.68c1.77 1.57 5.61 10.51 5.37 12.84-.21 2.09-3.56 3.59-5.43 3.73-2.59.19-1.79 1.28-1.79-1.71 0-1.45 1.54-2.86 1.42-4.49-.13-1.91-6.08-11.42-5.56-12 .33-.4 4.56 2.03 5.99 1.63zM83.5 91.91c.26 4.82 2 5.13-2.15 7.89-3.1 2-6.95 3.92-8.55-.88-1-3 .79-6.31 3.75-6.73.36 0 2.78.71 3.63.68 1.48-.06 1.43-2.75 3.32-.96z"/><path fill="#F7F7F7" d="M33.32 111.23c2.26 3-.93 1.46 0 4.06 0 0 2.24 2.94 2.22 2.84a4.16 4.16 0 0 1-1.06 3.87c-1.73 1.92-.95 1.67-2.88 0s-5.29-7.88-5.05-10.66c.45-5.4 5.15-3.91 6.77-.11z"/><path fill="#F8F8F8" d="M82.48 137.65c-3.82 0-6.28-11-6.38-13.64-.21-5.76 2.62-9 4.83-14 .38-.55 1.22 1.69 1.22 1.79.06 1.46-1.83 3.68-2.36 5.07a19.89 19.89 0 0 0-.86 10.37c.57 2.76 6.32 8.96 3.55 10.41z"/><path fill="#F8F9F9" d="M21.46 57.44c.76-.19 1.89-2.93 2.15-3.18 1-.91 3.32-.58 4.26-1.16 1.49-.92.36-1.61 2.51-2.28 1.59-.5 6.89-.34 6.47 2.22-.45 2.78-3.17 1-4.77 1.4a47.92 47.92 0 0 0-5.47 2.31c-2.12 1.07-.91.69-2.45 2.41-.45.51-1.69 2.52-2.26 2.64-2.68.6-2.42-3.39-.44-4.36z"/><path fill="#F8F8F8" d="M67.45 18.41c2.7 3.53-4.55 7.79-7.19 5.51-1.72-1.47-4.18-8.78-6.44-8.84.59-.77 3.93-3.06 4.93-2.93 1.73.23.56.36 1.8 1.31 0 0 .75 2.61.85 2.8.58 1.15 2.24.81 2.52 3.34 1.53-.38 1.39-2.28 3.53-1.19z"/><path fill="#F6F6F7" d="M172.75 56c1.36.59 4.66 5.8 2.12 6.52-.8.23-3.86-2.85-4.78-3.28-1.88-.88-4-.73-5.79-1.78-4.67-2.79-.17-3.45 2.9-3.47 1.18 0 1.48-1.36 2.75-1.16 1.27.2 3.56 1.39 2.8 3.17z"/><path fill="#F5F6F6" d="M121.34 91.15c3.22 1.74 4.23 4.37 3.2 7.94-1.03 3.57-3.44 3.26-7.12 2-1.1-.36-2.71.41-3-1.28-.39-2.18 2.5-1.33 3-2.27 1.29-2.64-1.59-7.39 3.92-6.39z"/><path fill="#F5F5F6" d="M92.7 61.2c1.75 3.56-1.61 7.3 2.62 10.07 1.85 1.22 9.54.64 5 3.54C96.93 77 87 75 87 70.07c0-1.55 2.37-3.81 3.21-5.06.08-.08 2.5-3.91 2.49-3.81z"/><path fill="#F7F7F8" d="M73.83 15.23c-1 1.49 3 5.08-2.64 3.17-2.57-.87-5-5.76-5.12-7.92-.21-2.89 2-5.65 4.05-2.95.31.4.5 2.38 1 3.2.77 1.36 4.69 1.92 2.71 4.5z"/><path fill="#F6F6F7" d="M46.44 62.37a6.26 6.26 0 0 0-2.39-1.6c2.12-1.06-3.3-7.65 1-5.57 1 .5 3.38 4.83 4.81 5.95a23.76 23.76 0 0 0 8.25 4.07c1.34.39 6.12.6 6.67 1.9.78 1.85-3 1-4 .9-1.91-.26-14.95-5.95-14.54-6.6a3 3 0 0 0 .2.95z"/><path fill="#F6F7F7" d="M153.63 55c5.84 3.56-3.93 9.65-6.59 11-5.3 2.63-11.3 4.08-17 1.72 2.56-.53 8.83.18 10.19-2 4.85-2.14 12.36-4.66 13.4-10.72z"/><path fill="#2C2A2B" d="M153.63 55c2 5.57-9 10.8-13.36 10.69.74-2.33 4.66-2.43 6.46-3.83 3-2.38 4.27-5 1.55-7.75-1.46-1.49-9.65-5.51-3.74-6.32 3.99-.53 6.89 5.29 9.09 7.21z"/><path fill="#F6F6F7" d="M134.4 18c.62 1.51-2.18 1.84-1.72 3.14 1.12 3.18 2.47-.36 3.16-1 1-1 6.53-8.56 7-4.57.15 1.23-3.54 6.1-4.44 7.05-1.68 1.76-3.41 2.62-5.86 1-4-2.7.25-7.13 1.86-5.62z"/><path fill="#F8F8F8" d="M100.33 74.81c.73-1.46 1.34-.5 1.74-1.87.29-1-2.33-.94-1.22-2.79s2.4.11 3.75-.44.48-2.34 1.12-2.87c2.37 0 5.49 2.91 5 5-.89 3.93-7.83 3.44-10.39 2.97z"/><path fill="#F1F1F2" d="M96.09 88.58c-1.07-3.59-.92-5.19 0-8.73 3.41 3.24 7.21-3.36 6.44 1.71a27.61 27.61 0 0 1-2.69 6.5c-1.45 2.37-1.14 2.45-3.75.52z"/><path fill="#F4F5F5" d="M97.64 12.6c.81 3.55-2.09 2.8-4.12.8-1.52-1.49-3.47-6.6-2.82-8.64 1.93-6.02 6.62 5.36 6.94 7.84zm12.48 128.89c1.6 2.72 4.41 4.66 3.53 7.88-.47 1.69-5.63 6.85-7.87 6.1-1.86-.63 4.93-6.21 4.7-8.37-.22-2-1.92-.65-2-3.1.03.94 1.62-1.68 1.64-2.51z"/><path fill="#F6F6F7" d="M142.31 48.43c2.34 1.62 7.7 4.42 8.67 7.25.77 2.25-3.52 7.23-5.34 4.54-1.19-1.77 3.19-2.55.56-5.43s-9.22-2.11-10.74-6c1.54-.55 5.2-1.13 6.85-.36z"/><path fill="#F6F7F7" d="M25.25 68.5c-.07.89-5.58 8-7.17 6.13-.83-1 1.37-5.86 2-6.76.83-1.26 1.79-2.62 3.35-2.44a2.19 2.19 0 0 1 1.82 3.07z"/><path fill="#F2F3F3" d="M61.93 32.12c.65-4 6.82-6.21 10.19-8.31.72-.45 5.58-4.57 6.73-2.27.29.59-14.85 10.23-16.92 10.58z"/><path fill="#C4C6C8" d="M137.64 82.49c.14 3.86-4.64 2.21-3.79 6.12.85 3.91 4.3-.31 3.25 6.24-2.58-.31.7-2.66-.75-4-1.45-1.34-3.08 2.56-3.63-1.61.09 1.45-2 3.69-3.46 2.85-1-.58-1.67-5.21-1.22-6.47.88-2.48 2.89-2 5.31-1.92 3.14.16 2.08 1.41 4.29-1.21z"/><path fill="#F5F5F6" d="M104.08 100.29c-1.24.56-2.78 7.14-4.37 2.48-1.31-3.82 2.56-4.34 4.52-5.69 1.26-.87 3.56-4.19 5.16-2.21 2.15 2.66-4.11 4.93-5.31 5.42z"/><path fill="#E8E9E9" d="M139.66 140.45c-3.46-.24 1 3.46 1.15 4.81-5.19 2.82-6-.8-6.6-4.7-.23-1.42-2.86.19-1.25-1.94.67-.89 6.38 1.06 7.36 1.27.08.55-.14.73-.66.56z"/><path fill="#EDEDEE" d="M131.3 139.8c.69.57-4.43 6.4-4.79 8.22-.36 1.82.09 6-3 3 0 0-.44-4.95-.5-4.81.4-.82 2-.18 2.41-.87 1.47-2.62 1.58-7.09 5.88-5.54z"/><path fill="#F7F7F7" d="M159.27 84.09c.12.51-1 7.24-1 7.19-1.21.92-4.37-1.15-5.88-1.63 2.77-1.72 1.33-4.15 3.25-6.09 1.25-1.23 3.77-2.06 3.63.53z"/><path fill="#F3F3F4" d="M82.32 8.77c.16.21 2.13 6.33 2.22 6.17-1.41 2.58-4.4-1.38-5-2.4-.7-1.29-2.38-6.35-1.12-7.41 1.91-1.56 4.11 1.95 3.9 3.64z"/><path fill="#F5F5F5" d="M73.32 145.81c.19.44 1 4.7.68 5-1.6 1.47-1.68-.14-3.25-.32-.57-.06-7 0-6.63-2.77.35-2.54 4.33 1.51 5.47.65-.54.38 1.91-7.99 3.73-2.56z"/><path fill="#F5F6F6" d="M131.87 11.91c-.41 1.83-2.39 7.73-5 6.73-1.26-.48-.69-4.34.09-5.48.58-.87 2.62-.25 2.87-1.29s-1.52-2.09-1.34-2.62c1.25-3.82 3.8.75 3.38 2.66z"/><path fill="#E7E8E9" d="M58.7 49.86c0-2-2.14-2.38-2-3.57 2.15-.55 14.69-1.81 16.14.75 2.34 4.19-12.04 3.04-14.14 2.82z"/><path fill="#F7F7F7" d="M106.82 64.61c-1.8-.9-6.66-1.81-6.48-4.8.12-2.18 4.41-2.54 1.69-5 4.09.07 2.16 1.59 2.59 4 .32 1.85 2.52 4.09 2.2 5.8z"/><path fill="#EAEBEB" d="M81.36 110.09c-1.87.07-13.64-3.39-11.5-5.94 1.22-1.45 7 1 8.27 1.52 2.32.83 2.59-.78 3.59 1.6.34.81-1.38 1.25-.36 2.82z"/><path fill="#F2F2F3" d="M141.44 28.84l1.25.09c-1.22 1.54 2.11 3.16 2.38 4.77.39 2.27-1.71 3.35-4 1.62-1.59-1.18-3.35-6.61-2.44-8.39 2.16-4.29 1.45.93 2.81 1.91z"/><path fill="#F5F5F6" d="M91.77 95.5c4.15.12 9 8.64 4.14 8.28-1.57-.12-2-2.61-2.78-3.71-.49-.71-4.59-3.61-1.36-4.57z"/><path fill="#EDEDEE" d="M91.68 97.09c2.26 3.4 2.23 3.18-.78 5.94-.3-4.8-6.32-1.26-6.69-5.17-.41-4.26 5.7-2.08 7.47-.77z"/><path fill="#DDDEDF" d="M85.34 4.61c3 1.36 2.29 1.11 3.34 3.82.54 1.42 2.57 5.32-.25 6.2-1.1.34-2.52-1.2-2.9-2.25-1.06-2.92 2.1-4.24-.19-7.77z"/><path fill="#F0F0F1" d="M116.84 15.64c-3.88.84-.15-2.62-.15-2.6.19-.79.38-3.77 1.45-4.78 3.22-3.04 3.59 7.6-1.3 7.38z"/><path fill="#EDEEEE" d="M39.25 130.57c-3.85 1.09-3.86-11.2-1.7-11.65 2.75-.58 2.85 10.58 1.7 11.65z"/><path fill="#F3F3F4" d="M56.33 141c-2.23-2-8 .7-9.24-3.66-1.28-4.6 3.37.37 4.38.85a8.2 8.2 0 0 0 4.64.49c.48-.06 2.35-1.93 2.73-1.73 1.89 1.05-1.46 4.53-2.51 4.05z"/><path fill="#F1F1F2" d="M105.16 8.24c.12-3.47 1.82-7.54 2.77-.82.24 1.73 0 5.55-1.67 6.44-4.1 2.14-1.62-4.18-1.1-5.62z"/><path fill="#F4F4F4" d="M145.2 35.84a3.83 3.83 0 0 1-1.2-3.24c1.07-.8 3.59 1.94 4.79 2.1 1.84.25 1.7-2.2 3.21-.31 1.07 1.34-1.91 3.25-2.88 3.41-2.19.35-2.35-.61-3.92-1.96z"/><path fill="#F3F3F3" d="M94.7 33.25c-1.27-1.18-15.25-1.24-9.76-3.74.61-.28 4.63.31 5.55.45 1.36.22 3.11.21 4.21 1.23.7.64 2.22 2.81 0 2.06z"/><path fill="#F0F1F1" d="M36.51 61.36c.93-1.67-.18-3.1.41-4.62.37-.92 1-.64 1.61-1.4.26-.33 4.13-4.33 3.52-1.1-.17.89-1.56 1.32-2 2.16-.67 1.27-.51 2.56-1 3.81-.58 1.59-2.12 5.39-2.54 1.15z"/><path fill="#F3F3F4" d="M172.13 48.74c-.68 2.77-7.14-.68-6-3.83 1.44-3.91 5.25 1.89 6 3.83z"/><path fill="#F1F2F2" d="M125.2 10.9c-.85 1.43.28 7.09-2.12 7.48-2.8.45-1.52-2.16-1.32-3.27.38-2.11 2.24-10.66 3.44-4.21z"/><path fill="#EFEFF0" d="M31.64 46.91c-2 1.66-8.33 5.19-6.21 0 1.88-4.57 7.96-1.6 6.21 0z"/><path fill="#F0F0F1" d="M103 33.12a17.3 17.3 0 0 1 7.67-3.34c.88-.08 5.37.16 4.19 2.08-.28.47-11.86 1.39-11.86 1.26z"/><path fill="#F5F5F6" d="M31.71 59.21c2.22-.25 1.46-3.07 3.42-.8.07.07-.24 5.62-.29 5.7-.49.77-2.3 2.49-3.88 1.1-1.37-1.21.12-4.7.75-6z"/><path fill="#F7F8F8" d="M75 81.3c.54-5.16 3-.26 3.35 2.51.89 6.72-4.35.49-3.35-2.51z"/><path fill="#E7E8E9" d="M80.26 131.19l-1-1.53c1.36-.76 10.94-2.6 11.14-1-.49 3.78-8.89.25-10.14 2.53z"/><path fill="#E2E3E4" d="M29 78c-3 3.14-6.93.06-4.21-2.82A2.55 2.55 0 0 1 29 78z"/><path fill="#95979A" d="M65.69 90c2-1.9.75-4.15 2.08-5.34 1.33-1.19 3.75.69 4.21 2 1.56 4.34-5.77 8.86-6.29 3.34z"/><path fill="#DBDCDE" d="M116 98.69c-2.67 2.67-3.45-3.13-2.18-5.06.73-1.12 6-4.2 7.49-2.48-3.41.32-2.07 1.45-2.45 3.57-.18 1 .94.93.5 1.92-.26.67-2.79 1.48-3.36 2.05z"/><path fill="#E5E6E7" d="M25.25 68.5a6.45 6.45 0 0 0-1.12-2.87c.7-.09.37-5.29 3.76-3.85 1.75.74 2.18 4.37 1 5.66-1.18 1.29-2.38-.38-3.64 1.06z"/><path fill="#F2F2F3" d="M143.58 115.06c2-1.42-2.37-4.44.41-5.83 1.92-1 2 4.19 1.55 5.33-.32.83-4.44 5.06-5.43 4.29-3.49-2.72 2.52-3.53 3.47-3.79z"/><path fill="#F5F5F5" d="M159.27 84.09c-1.08-1.46-2.41-.49-2.56-2.35a2.9 2.9 0 0 1 2-2.94c1.24-.17 3.2 1.66 3.31 2.86.25 2.73-1.61.87-2.75 2.43z"/><path fill="#F1F1F2" d="M113.39 13.24c-.62 5-4.41-1.17-3-4.41 1.73-4.08 3.4 2.24 3 4.41zm45.94 54.1c1-.28 2.27-1 3.18-.24a36.27 36.27 0 0 1-.35 5.77c-.79 1-3.2 1.51-4.11.4-.91-1.11 1.15-4.85 1.28-5.93z"/><path fill="#F3F3F4" d="M71.19 91.18c-2.49-1-.89-6 1.37-6.2 4.01-.32.1 5.37-1.37 6.2z"/><path fill="#525254" d="M68.23 85.16c-.55 1.11.54 2.48-.87 3.25-.65-5-1.58-.83-2.62 0-1.28.94-2.68-4.44-1.83-5.49 1.52-1.92 5.51-.46 5.32 2.24z"/><path fill="#2E2C2D" d="M62.46 17.52c-1.22-.45-3.56.49-4.23-.73-1.47-2.71.86-1.95 2.47-2.21 5.87-.93 5.95 5.42 1.76 2.94z"/><path fill="#E9EAEB" d="M126.15 91.23c-2.37-1.59-3.1-7.65.77-6.1 2.08.87 2.37 7.15-.77 6.1z"/><path fill="#EBEBEC" d="M99.79 25c-1.36-.17-12-3.64-8.47-5.13 1.17-.46 9.2 4.31 8.47 5.13z"/><path fill="#ADB0B2" d="M75.47 36.4c-1.84 1.82-7.27 2.86-5.87-.21.2-.45 4.28-2.4 4.75-2.34 1.27.15 3.33 1.49 1.12 2.55z"/><path fill="#838588" d="M87.3 95.52c-4.36.3-.24 5.27-2.62 7.54-1.86-1-4.39-.21-3.93-3.13.34-2.11 2.66-2.2 2.88-5.6 1.28.17 2.76.04 3.67 1.19z"/><path fill="#E5E6E7" d="M158.68 65.08c0-1.43-1-9.39 3-6.63.68.48.56 3.7.39 4.32-.72 2.61-.23 2.23-3.39 2.31z"/><path fill="#C5C7C9" d="M29.09 67c-.62-1.84-1.38-3-.68-4.83.7-1.83 2-1.16 3.3-2.91-.05.2.06 5.13 0 5.08.83 1.09 1.83.4 3.09.8-1.8.98-4.21.03-5.71 1.86z"/><path fill="#F5F5F5" d="M40.93 92.73c.84-.36 9-4.92 7.26-.08-.86 2.35-6.19 1.88-7.26.08z"/><path fill="#C2C4C6" d="M100.38 42.79c-3.16-.06-1.45 2.29-2.16 4-.81 2-2.5.39-2.08 3.11-1.23-.76-2.58-4.66-2.28-5.85.4-1.55 2.75-1.38 2.66-3.25.58 1.34 5.17.55 3.86 1.99z"/><path fill="#F2F2F3" d="M123.6 82.92c.62 2-3.88 6.06-4.18 2.59 0 .55 1.84-4.68 1.54-4.43 1.75-1.49 2.55-.23 2.64 1.84z"/><path fill="#F6F6F6" d="M112.41 55.44c-.45 1.48 5.38 6.92 2.41 6.51-.12 0-4.92-3.9-5-4.52-.17-1.14 1.18-3.43 2.59-1.99z"/><path fill="#EDEEEF" d="M88.46 78.06c-2.37 1.6-4.88-.25-7.22-1.09 1.08-1.44.61-3.81 2.77-4.4 2.16-.59 2.28-.07 1.82 1.64-.37 1.35-2.34.47-2.24 2.12.12 2.04 3.72 1.58 4.87 1.73z"/><path fill="#EAEBEB" d="M83.54 68.91c-2.29-2.24-1.76-2.2-.24-4.28.6-.82 2-2.28 3.08-1.93 1.76.55-1.86 5.7-2.84 6.21z"/><path fill="#ECEDEE" d="M166.89 113.3c3.67 1.36 1.67 7.65-1.7 8.66-1.09-1.96 0-7.43 1.7-8.66z"/><path fill="#95979A" d="M123.58 108.88c1-.64-.22-1.81.25-2.42.66-.88 2.25-.35 3.36-.54 1.5-.24 3.55-2.11 4.6 1-2.7.79-5.54 2.16-8.21 1.96z"/><path fill="#D0D1D3" d="M93.81 28.38c-1.26-1.17-9.6-1.24-7.55-3.18 1.74-1.69 11.48 1.8 7.55 3.18z"/><path fill="#6A6B6D" d="M114.53 100.37a24 24 0 0 1 3.32.77c-.38 1-6.21 3.61-7.31 3.32-5.13-1.35 3.18-5.12 3.99-4.09z"/><path fill="#F0F1F1" d="M130.61 146.49c-1.34-4 2.8-2.42 1.45 1.95-.11.37-1.4 4.14-2.78 2.82-1.16-1.12.87-3.61 1.33-4.77z"/><path fill="#B5B7BA" d="M133.83 113.88c1.62 1.51 4.14.67 2.88 4.24-.4 1.14-1.54 2.43-3 2-1.97-.58-2.3-5.9.12-6.24z"/><path fill="#E7E8E9" d="M56.33 141a3.55 3.55 0 0 0 1.76-1.72c.22 2.15 6.5-.27 3.07 3.41-.48.51-3.59.94-4.09.76-2.07-.71-.97-.83-.74-2.45z"/><path fill="#DDDEDF" d="M167.93 91.65c1.61 2.59 2.35 6.76-1.59 4-1-.71-2.88-3.27-1.8-4.32 1.08-1.05 2.32.31 3.39.32z"/><path fill="#F2F2F3" d="M55.46 142l2.83 1.28c-.41.64-1 2.38-2.16 2.37 1.83 0-3.55-3-2.83-2.09-.54-.67-1.45.3-1.6-1.07-.17-1.57 3.3-.65 3.76-.49z"/><path fill="#EEEFF0" d="M73.83 15.23c-1.19-2.67 4.21-4.33 4.44-.36.26 4.64-2.46.07-4.44.36z"/><path fill="#939598" d="M92.28 20.1c.13 0-4.49.91-3.68.62-1.69.6-3 0-3.9 2.23-3.7-3.72 5.46-4.31 7.58-2.85z"/><path fill="#DFE0E1" d="M107.65 27.64c-.34 1.48-6.71 4.14-6.56 2.1.07-1.04 5.84-4.62 6.56-2.1z"/><path fill="#F3F4F4" d="M155.12 92.8c-.19 2.32-5.29.88-5.7-.35-1.06-3.2 4.93-1.23 5.7.35z"/><path fill="#D5D6D8" d="M102 111.22c-.59.34-4 0-3.64-1.48.29-1.17 4.76-1.57 5.55-1.13 3.65 2.04-.99 1.69-1.91 2.61z"/><path fill="#E4E5E6" d="M100.46 138.4c-1 2.8-6.14-1.08-6.08-2.49.07-1.91 6.54.8 6.08 2.49z"/><path fill="#F7F7F7" d="M96.08 143.62c-2.32.3-1.12 2.68-3 3-2.15.35-2.62-3.35-3-4.63 1.55 2.01 3.92.32 6 1.63z"/><path fill="#E5E6E7" d="M133.27 121.42c-.51 1.73 2.07 2.26 1.26 3.33-1.69 2.24-2.67-2.22-2.77-2.27-.73-.42-2.86.43-2.77-1 .14-2.16 4.28-2.86 4.28-.06z"/><path fill="#CACBCD" d="M131.79 106.93a4.12 4.12 0 0 1-3.32-2.23c.78-.64 6.43-1.8 6.59-1.51.34.61-2.44 3.81-3.27 3.74z"/><path fill="#E4E4E6" d="M102.58 91.63c1.32 2.14-1.65 4.16-3.29 3.07-3.43-2.29 1.8-6.48 3.29-3.07z"/><path fill="#6F7173" d="M99.21 91.67c-.3 1.15-.45 3.62-2.28 3.68.13-1.24-2-5.92-.84-6.77 1.16-.85 3.27 2.12 3.12 3.09z"/><path fill="#414143" d="M127.93 89.51c-.69-3.47-3-6.75 2.19-5.94-.87.57-1.22 7.86-2.28 6.85l.09-.91z"/><path fill="#929497" d="M133.27 121.42a3.18 3.18 0 0 0-2.74-1.68 2.77 2.77 0 0 0 1.77-2.09c2.71 4.75 4.66-3.08 6.57.76 2.53 5.04-4.66 2-5.6 3.01z"/><path fill="#F6F7F7" d="M76.42 32.18c-4-1-2.85-2 .9-2 .71 0 2.35-1.68 2.91-.2.83 2.18-2.66 2.02-3.81 2.2z"/><path fill="#96989B" d="M62.46 17.52c1 .3 3.46-1 3.29-1.06 1.17.4.76 1.5 1.7 1.95-2 .16-2.39 4.31-4.24 4.08-3.08-.38.06-3.49-.75-4.97z"/><path fill="#ECEDED" d="M158.69 58.66c-.22 2-1.66-1.38-1.7-1.72-.04-.34.76-3.92 1.24-4.09 3.66-1.34.47 4.94.46 5.81z"/><path fill="#929497" d="M66.25 46.75a71 71 0 0 1-9.56-.46c2.78-.43 4-2.21 6.88-1.84.84.11 4.53.72 2.68 2.3z"/><path fill="#E8E9EA" d="M81.45 107.67c.89-1.33 8.59-1.18 8.72-.27.3 1.99-7.7.97-8.72.27z"/><path fill="#DFE1E2" d="M140.51 118.72c1.59 0 2.36 4.53 1.68 5.88-1 2-1 .56-1.93.33-2-.54-2.36-.33-2.42-2.34-.01-.32 2.16-3.69 2.67-3.87z"/><path fill="#464648" d="M159.33 67.34c1.77 3.46-.84 5.08-2.7 7.53-.11-1.41.94-7.65 2.7-7.53z"/><path fill="#DADBDD" d="M158.27 126.28c.47-1.1-.87-2.49 1.34-2-.33-.08 1.24 3.06 1.11 2.55 1.02 4.01-2.66 3.04-2.45-.55z"/><path fill="#CECFD1" d="M90 128.45c-.14-1.67 9.91-1.42 10.37-.4.85 1.8-9.25 1.27-10.37.4z"/><path fill="#EBECEC" d="M31.12 86.89c.018.289.092.57.22.83-.767.393-1.277.083-1.53-.93-1.4-1.09-1-2 1.07-2.77.48-.57 2.62-2.61 3.42-2.08 2.57 1.69-2.51 4.11-3.18 4.95z"/><path fill="#E8E9E9" d="M98.73 108.91c0 3.45-7.24 2.2-6.16.55.8-1.22 5.14-1.84 6.16-.55z"/><path fill="#DFE0E2" d="M39.25 130.57l.08-2.29c2.33 1.11.39-1.6 1.92-1.63.36 1.21 1.6 6.2.28 6.86-1.53.77-1.06-2.51-2.28-2.94z"/><path fill="#F7F7F8" d="M142.49 102.44l.53 1.73c-1.3.39-1.1-1.46-2.24-1.4-.91.73-.2 4.84-2.29 1.35-1.21-2-.49-3.35 1.25-3.92-1.29 2.8 2.41.16 2.75 2.24z"/><path fill="#EBECED" d="M117.33 76.27c-1.16 0-5.69-1.17-5-2.78 1.19-3 4.86.93 5 2.78z"/><path fill="#4B4B4D" d="M50.11 79.48c.81-6.57 1.46-1.16 4.93-.75-1.14 2.02-3.27 2.42-4.93.75z"/><path fill="#EEEFEF" d="M165.67 91.65c-.67.24-4.67-.65-4.67-1.94 0-3.07 6.42-1.3 4.67 1.94z"/><path fill="#DBDCDD" d="M160.19 108.52c-2.54-1.14-1.55-6.45 1.22-4.81 1.59.92 1.29 6.07-1.22 4.81z"/><path fill="#F0F1F1" d="M50.11 79.48c1.91 2.24 5-2.79 6.59.13 1.42 2.6-5.5 1.95-6.59-.13z"/><path fill="#E4E5E6" d="M112.82 84.6c1.31.48 1.51 2.37 3.18 2.19-.91.69-5.16 3.9-5.93 2.61-1.49-2.5 4.75-1.95 2.75-4.8z"/><path fill="#EDEDEE" d="M99.79 25c0-2.13 5.64-4.45 6.14-1.93.13.73-5.46 2.78-6.14 1.93z"/><path fill="#6F7073" d="M71.71 35.39c-1.47 2.73-4.54 1.54-6.54 2.06 2.33-2.1 0-2.29 2.67-2.94 1.3-.3 1.94 2.12 3.87.88z"/><path fill="#B3B5B7" d="M100.45 42.81c-1.43-3.25 2.6-5.1 1.4-7.41 2.76-2.54-.27 4.8-.07 4.1-.2.69 1.05 4.1-1.33 3.31z"/><path fill="#A7A9AC" d="M60.31 94.86c1.59-1.66 1.48-4.67 4.42-3.17 4.65 2.37-2.42 3.42-4.42 3.17z"/><path fill="#CDCFD0" d="M110.07 23.94c-4.23-.41.51-2.64 1.77-2.53 1.56.12.23-1.41 2 .13 2.16 1.89-4.28 2.46-3.77 2.4z"/><path fill="#CACCCE" d="M86.21 151.67a15.1 15.1 0 0 1-.57 2.48c1.61-.5 3.47-1 4.38 1-1.69 1.95-8.02.74-3.81-3.48z"/><path fill="#E2E3E4" d="M55.93 81.39a3.59 3.59 0 0 0 .64-2.22c2.64 4.21 2.3-2.93 5.34 0 1.4 1.42-4.46 6.15-5.98 2.22z"/><path fill="#97999C" d="M37.57 106.32c-.5-.51-3-1.24-3.15-2.08a13.08 13.08 0 0 0 1.91-2.54c1.87-.07 1.53 2.4 3.37 2.85-.7.79-2.14.34-2.13 1.77z"/><path fill="#DFE0E1" d="M102.47 12.56c-1.48.57-.48 1.58-1.86.22.29.29.16-3 0-2.6.36-1-1.38-1.59 1.14-1.36 2.52.23 2.74 2.64.72 3.74z"/><path fill="#3F3F40" d="M106.2 98.62c.72-3.75 6.16-1.29 4.48 1.77-1.1 2-5.5.44-4.48-1.77z"/><path fill="#B3B5B7" d="M77.64 22.93c.87-1.9-.53-1.92-2.24-1.16 1.32-2.85 14.93-.64 2.24 1.16z"/><path fill="#C5C7C9" d="M100.69 42.75c.29-.44 3.1-3.66 4.17-2.22 1.07 1.44-1.86 3.71-2.86 4.63a2.42 2.42 0 0 1-1.31-2.41z"/><path fill="#7A7B7E" d="M113.28 94.9c1.43 1.71-2.92 3.46-4.34 1.64-.64-.78.58-2.07-1.59-2.18a4.9 4.9 0 0 1 5.93.54z"/><path fill="#616264" d="M113.24 39.1c.06 3.91-2.56 2-5.32 1.71 1.61-1.29 4.08-5.49 5.32-1.71z"/><path fill="#F3F3F4" d="M88.52 55.25C89.14 57.15 86 62 85 59.63c-.36-.71 2.8-4.63 3.52-4.38z"/><path fill="#D3D4D6" d="M136.16 115.61c-.37-.59 1.35-6.37 3.48-5.29 1.47.75-1.29 7.9-3.48 5.29z"/><path fill="#565759" d="M115.37 143.81c-.54-1-5.19-5-1.89-5.48 1.455.948 2.838 2 4.14 3.15a2.1 2.1 0 0 0-2.25 2.33z"/><path fill="#DEDFE0" d="M106.71 128.54c.82.51 9-2.16 3.37 1.25-1.13.68-2 1.15-3.45.61-2.04-.8-2.03-2.97.08-1.86z"/><path fill="#E6E7E8" d="M32.3 77.76c0-2.89.31-2.89 2-5 1.34 2.67 1.12 4.41-2 5z"/><path fill="#B0B2B4" d="M104.09 143.06c-2 2.64-2 2.64-5 .48 1.42-3.03 3.3-.8 5-.48z"/><path fill="#9C9FA1" d="M161.48 106.9c-.21-1.81-5.13-6.71-.53-5.38 2.64.76 3.11 7.94.53 5.38z"/><path fill="#86888B" d="M165.13 77.52c2-1.38 1.19-3 3.58-1.53.56.36 2.11 3.33 1.39 4.06-1.92-.42-1.77-5.17-3.29-.84a2.6 2.6 0 0 0-1.68-1.69z"/><path fill="#DFE0E1" d="M80.49 5.53c-1.31-.23-2.35.21-2.35 1.71-1-.9 1.06-5.13 2.39-5.36 2.95-.49.23 2.91-.04 3.65z"/><path fill="#E0E1E2" d="M98.7 129.59c1.12-1.49 1.57-2.63 3.66-2.29.78.12 2.3.41 2.12 1.62-.21 1.38-5.26 1.54-5.78.67z"/><path fill="#636466" d="M75.47 36.4c.19-.35.36-2 .5-2.11.78-.66 3.43.18 3.63 1.21.46 2.37-2.78 2.2-4.13.9z"/><path fill="#464648" d="M130 92.19c.09-.86 2.05-3.65 3.15-3.23 0 1.17.33 2.24 1.74 2.18a6.85 6.85 0 0 1-4.89 1.05z"/><path fill="#E2E3E4" d="M119.2 128.39l-.58 2.43c-.63-.79-6.4.84-5-1.34 1.4-2.18 4.31.75 5.58-1.09z"/><path fill="#999B9D" d="M163.57 119.26c-2.2-.7-5.12-7.36-2.62-7.23 1.87.69 3.6 5.61 2.62 7.23z"/><path fill="#9FA2A4" d="M132.21 32.63c1.17-.9-.25-2.67.51-3.83.65 2.83 5.09 2.49 4.29 6-1.65 1.07-.76-1.8-1.76-2-.71-.14-2.61.2-3.04-.17z"/><path fill="#272425" d="M109 101.36c1.1-1 5.15-3.47 4.29-.19-.51 1.83-4.35 1.99-4.29.19z"/><path fill="#F0F1F1" d="M70.93 29.22c3.39 1-2.15 3.34-3.19 3.28-3.53-.21 3.32-3.35 3.19-3.28z"/><path fill="#E5E6E7" d="M133.34 132.41c-.73 1.83-5.8 3.93-4.33.42.5-1.19 3.42-1.83 4.33-.42z"/><path fill="#808284" d="M106.2 98.62c0 1.35 1.6 1.48 2 2.61-2.35-.23-.54 2.07-1.87 2.81-1.85-.58-.43-3.15-2.25-3.75l2.12-1.67z"/><path fill="#8C8E91" d="M161.37 103c-2.83-1.94-1.5-1.36-1.28-3.9.14-1.67-1.15-3.62 1.89-3.1-1.45 1.77 1.02 6.22-.61 7z"/><path fill="#CECFD1" d="M99.21 91.67c-1.84-.4-.57-2-.31-2.41.88-1.48 1 .69 1.66.5.66-.19.39-2 .84-2.44a4 4 0 0 0 .52 2.11c1.29.26 1.51 1 .66 2.2a3.29 3.29 0 0 0-3.37.04z"/><path fill="#C3C5C7" d="M143.58 115.06c-1.11.7-3.79 3.08-4.59 2.23-1.24-1.31.16-4 .79-5.05 2.22.24 1.51 2.56 3.8 2.82z"/><path fill="#E3E4E5" d="M80.84 100.8c2 0 1.16 2.31.15 2.75a46 46 0 0 1-5.15-1.55c1.79.07 3.22-2.74 5-1.2z"/><path fill="#E6E7E8" d="M143.57 141c.61-.21 6.08-3.64 4.49-.78-.69 1.25-5.81 3.52-4.49.78z"/><path fill="#97999C" d="M49 73.73l-1 2.41a4.27 4.27 0 0 1-2.29-4.54c.78 1.4 3.03.22 3.29 2.13z"/><path fill="#D3D4D6" d="M53.29 130.73l.06-1.23c1.08 1.19 4.76 0 4.82 1.63.07 2.11-4.23.6-4.88-.4z"/><path fill="#4A4A4C" d="M95.42 82.45c-.12.74 2.91 4.68 1.26 4.83-1.4.12-2.46-2.89-3-3.89l1.74-.94z"/><path fill="#656669" d="M47.27 128.07c-1.37-2.2-1.36-4.89-2.49-7.18 2.84-2.26 2.71 6.44 2.49 7.18z"/><path fill="#7E8083" d="M102 111.22c1.29-2.52 8.43-.6 8-.12a13.48 13.48 0 0 1-8 .12z"/><path fill="#B2B4B6" d="M100.46 138.4c-.18-1.28-1.52-1.14-2.28-1.83 1.83.15 2.41-1.22 2.29-2.81 4.29 2.58 2.15 2-.01 4.64z"/><path fill="#3F3F40" d="M118.46 90.65c-.89 1.27.2 4.4-2.12 4.31-1 0-.21-2.8-1.92-2.6l4.04-1.71z"/><path fill="#EDEDEE" d="M151.72 51.79a4.55 4.55 0 0 1-4.92-3.48 7.27 7.27 0 0 1 4.92 3.48z"/><path fill="#F0F1F1" d="M143.57 141l.59 1.7c-2.1.65-3-1.24-4.5-2.25 1.19-1 2.81-.54 3.91.55z"/><path fill="#DDDEDF" d="M65.5 15.33c-2.14-.09-4.53.38-6.39-1 2.08-.89 1.16-1.16 3.56-.59 1.42.32 2.16-.43 2.83 1.59z"/><path fill="#4F5052" d="M35 120.91c1-1.51-.85-2.46-.64-3.93 1.71.46 4.48-2.5 4.23.71-.12 1.55-2.46 2.78-3.59 3.22z"/><path fill="#B2B4B7" d="M130 92.19c0 2.63-3.31-.74-3.88-1 2.15-.57 2-2.42 2.87-3.34 1.21 1.33-.41 3.15 1.01 4.34z"/><path fill="#525254" d="M91.68 97.09c-2.29.22-4.38 2.85-4.33-1.63 1.76 0 2.68-.09 4.42 0a1.29 1.29 0 0 0-.09 1.63z"/><path fill="#3F3E40" d="M83.5 91.91c-1.59-.51-1.86 2-3.14 2.44-1.41-.91-.75-2.92-2.21-3.81 2.04-1.13 3.85-.01 5.35 1.37z"/><path fill="#C4C6C8" d="M160.8 112.27c-1.86.1-.3-2.64-.61-3.75 4.92-.42 3.73 4.72.61 3.75z"/><path fill="#747578" d="M101.44 137.2c.55-.76 1.83-1 1-2.22 1.84.16 3.93-.44 5.41 1.08-1.09.22-4.65 1.84-6.41 1.14z"/><path fill="#D0D2D3" d="M79.84 36.08l-1.57-1.75c1.42.06 1.69-1.86 3.11-1.45 2.49.71-1.03 2.87-1.54 3.2z"/><path fill="#DCDDDE" d="M68.23 85.16c0 .08-4.94-5.42-2-4.62.82.24 4.77 4.46 2 4.62z"/><path fill="#DEDFE1" d="M78.15 90.54c3.14 0 1.77 1 2.21 3.81-1.33-.61-3.09-.61-3.81-2.16 1.62.61 1.31-.68 1.6-1.65z"/><path fill="#D7D8DA" d="M100.28 155.06c-.74-2.27 1.14-3.87 2.82-1.52 1.34 1.89-1.19 2.31-2.82 1.52z"/><path fill="#E0E1E2" d="M93.81 28.38c1.94-2.88 2.59-1.21 4.42.68-1.43-.01-3.23.38-4.42-.68z"/><path fill="#E8E9EA" d="M162 76.47c-.08 2.81-3.42 1.35-3.27-.59.11-1.57 3.33-.78 3.27.59z"/><path fill="#B0B2B4" d="M84.62 37.53L83 36.89c1.08-1.28 2-2.9 3.76-1.65 3.8 2.83-1.21 1.95-2.14 2.29z"/><path fill="#454547" d="M31.12 86.89c.41-2.21 3.23-3.65 4.83-2.63-1.54.96-2.8 2.74-4.83 2.63z"/><path fill="#BFC1C3" d="M71.13 138.28c2.54 0-2 4.79-4.06 1.07-1.9-3.53 3.01-.7 4.06-1.07z"/><path fill="#8D8F91" d="M102.47 12.56a2.16 2.16 0 0 0 .53-3.11 4.06 4.06 0 0 0 2.18-1.21c.42 2.11-1.17 3.85-1 5.93l-1.71-1.61z"/><path fill="#E4E5E6" d="M66.9 137.54c-.24 2-4.21 1.3-4.13.42.13-1.58 3.48-1.39 4.13-.42z"/><path fill="#D0D1D3" d="M95.45 7.14c-1-2.79-2.57-3.75-4.91-3.21 1.26-5.68 7.28 3.77 4.91 3.21z"/><path fill="#E1E2E3" d="M82.32 8.77c-2.59-1-.35-2.09.89-2 2.52.11.46 1.8-.89 2z"/><path fill="#929497" d="M88.52 55.25a2.38 2.38 0 0 0-1.61 1.27c-.27-1.61-1.16-1.59-2.16-.54-.21-1.48-2.21-1.5-.23-2.82.75-.5 3.23 1.62 4 2.09z"/><path fill="#E0E1E2" d="M140.67 125.78c1.12-1.75 4.06-2.9 2.35-.35-.92 1.38-3.92 2.1-2.35.35z"/><path fill="#EDEEEF" d="M71.13 138.28c-1.54 1.74-3.4-.37-2.36-2.07 1.63-2.67 1.91 1.85 2.36 2.07z"/><path fill="#E1E2E3" d="M66.38 93.91c-1.63-.08-2.79-2.58-.75-2.94 3.02-.54 2.6 1.6.75 2.94z"/><path fill="#B2B4B7" d="M123.58 108.88c-.59 1.49-1.47 1.62-1.67 2.86-5.04-4.13-1.38-2.13 1.67-2.86z"/><path fill="#D6D7D8" d="M100 4.23C98.05 4 98.23.63 99.38 1c1.3.49 3.01 3.11.62 3.23z"/><path fill="#A6A8AB" d="M90 128.45c2.1.84 4.31-.18 6.42.53-.27 1-7 1.17-8 1.08l1.58-1.61z"/><path fill="#DFE0E1" d="M112.74 9.9c-.33-.82-1.83-6.49-.13-6.26 2.45.36-.06 5.27.13 6.26z"/><path fill="#757679" d="M95.52 135a1.46 1.46 0 0 0 0 2.54c-.92-.28-4 .06-3.62-1.77.38-1.83 2.51.23 3.62-.77z"/><path fill="#E7E8E9" d="M64.14 34.25c-1.07 3-6.79-1.28-2.15-2.19a2.21 2.21 0 0 0 2.15 2.19z"/><path fill="#ABADB0" d="M133.34 132.41c-1.51.66-3-1.19-4.33.42.42-3 1.35-1.21 3.39-1.14 1.67.06 4.91-.58 6.38.51l-5.44.21z"/><path fill="#EFEFF0" d="M67.41 139.87c1.9-.8 3.22.74 2.75 2.5-.47 1.76-2.9-1.37-2.75-2.5z"/><path fill="#DDDFE0" d="M63.58 131.19a8.26 8.26 0 0 1 2.46.53c-1.34 4.17-7.85-1.2-2.46-.53z"/><path fill="#323031" d="M59.3 81.46c.36-1.61 3.13.18 2.61-2.24a4.58 4.58 0 0 1 1.71 3.64c-.62.14-4.31-.72-4.32-1.4z"/><path fill="#E3E4E5" d="M78.46 146c-.32 1.69-3 3.57-2.37.81.26-1.13 2.42-3.01 2.37-.81z"/><path fill="#CACCCE" d="M129.61 114.3c-.05.06-1 6.23-2.29 2.57-.84-2.34 1.36-1.25 2.29-2.57z"/><path fill="#2C292B" d="M75.44 12.51c0 2.88-5.44.84-1.4-2.53a4.63 4.63 0 0 1 1.4 2.53z"/><path fill="#A8AAAC" d="M99.79 130.12c1.13-1.13 5.8.09 3.25-2.74 1.32 0 2.83-.16 3.67 1.16-1-.1-1.63 1-2.49 1.39-1.3.56-3.08.07-4.43.19z"/><path fill="#E5E6E7" d="M37.63 65.06c2.21-.48 1.59 1.83-.47 2.14-2.3.35-.54-1.77.47-2.14z"/><path fill="#EEEFEF" d="M69.62 98.86c-.35 3.27-2.87 0-3 0 .56.03 2.07-3 3 0z"/><path fill="#E4E5E6" d="M128.71 100.69c-2.27.12-.71-2.19.81-2.4 2.53-.36-.37 2.14-.81 2.4z"/><path fill="#F4F5F5" d="M33.54 36.31c-.27.5-1.49 4.15-2.76 2.57-.7-.88 1.82-5.12 2.76-2.57z"/><path fill="#D1D2D4" d="M163.57 119.26c-.54-1.42-.39-5.68 1.63-2.71 1.14 1.67 0 3.63 0 5.41-1.39-.55.53-2.75-1.63-2.7z"/><path fill="#D4D5D7" d="M118.64 4.91c-.84 2.62-2.36-.15-2.84-.2.1.01 2.6-2.81 2.84.2z"/><path fill="#A9ABAD" d="M117.68 101.34c.2.52 3.12-2.36 3.11-2.36 1.77.46-.61 2.73 2.25 3-1.96 1.47-3.39-1.3-5.36-.64z"/><path fill="#EEEFEF" d="M130.59 35.27c-2 .85-2.91-2-1.19-2.85.73-.36 2.9 2.02 1.19 2.85z"/><path fill="#86888B" d="M116.55 109c-.25 1-2.8 1.75-3.6 1-.1-2.34 1.76-2.86 3.61-3.31-.04.43-.38 1.98-.01 2.31z"/><path fill="#EBECED" d="M140.81 145.26c-2-.1-2.497-1.01-1.49-2.73.9.68 2.91.76 1.49 2.73z"/><path fill="#D8D9DB" d="M73.32 145.81l-2.18-1.05c1.64-.31.68-3.39 2-3.07 1.32.32.33 3.31.18 4.12z"/><path fill="#3B3A3C" d="M146.14 129c2.11-1.6 1.5-3.62 3.77.09a4.75 4.75 0 0 1-3.77-.09z"/><path fill="#727376" d="M113 110l1 .16c-1.09 3.13-5.88.64-4-1.59a2.91 2.91 0 0 0 3 1.43z"/><path fill="#3A393B" d="M47.36 90.58c-1-.21-5.39 2-5.35 1 .12-2.75 4.08-1.48 5.35-1z"/><path fill="#8F9294" d="M76.61 40.17c.53.9 2.32 5.45-.64 3.42-1.4-.96.56-2.08.64-3.42z"/><path fill="#979A9C" d="M29 78c-.49-1.12-.09-2.65-1.6-3.13.8 0 2.07-1.14 2.35 0 .3 1.57 1.77 1.77-.75 3.13z"/><path fill="#A3A5A7" d="M61.46 132.26l1 1.09c-1.24 1.53-3.21 1.09-4.89 1.09.88-1.72 3.53-.06 3.89-2.18z"/><path fill="#CACCCE" d="M65.71 101.9c.13 4.25-5.82 2.71-5.43.63 2 1.03 3.43-.63 5.43-.63z"/><path fill="#E1E2E3" d="M65.71 45.11c-.35.36-3.32 1.11-3.61.1-.67-2.31 4.6-.79 3.61-.1z"/><path fill="#4F5052" d="M65.71 45.11c-.54-1.08 3.36.48 3.65 1.52-2.59 2.16-2.47-.56-3.65-1.52z"/><path fill="#F4F5F5" d="M96.48 9.16c1-2.27 2.41-2.33 1.85.63-.33 1.94-2.58 1.11-1.85-.63z"/><path fill="#9FA1A4" d="M23.61 54.26c-2.45 1.3-3.14-1.76-1.73-3.46.83 1 .27 2.92 1.73 3.46z"/><path fill="#E6E6E7" d="M66.89 143.6c-.4 2.54-1.64 1.05-1.94-.61-.39-2.06 1.6-.63 1.94.61z"/><path fill="#C9CBCD" d="M64 145.22c-.68 3.14-2.15-.55-2.39-.59.05.01 2.45-2.02 2.39.59z"/><path fill="#E6E7E8" d="M29 60.71c1.21 1.42.41 2.34-1.06 2.86-.12-.47-1.21-3.85 1.06-2.86z"/><path fill="#EFF0F0" d="M119.74 145.87c3.17 1.23.06 2.64.07 2.66.01.02-2.72-3.05-.07-2.66z"/><path fill="#DBDCDE" d="M83 22.38l-.54-2.23c2.9-2.92 2.74 5.79.54 2.23z"/><path fill="#5D5E60" d="M101.15 20.64c-.28 3.26-3.26-2.46-2.05-2.14a3.5 3.5 0 0 1 2.05 2.14z"/><path fill="#292627" d="M141.44 28.84c-2.59.53-.09-4.11-2.69-3a2.62 2.62 0 0 1 3.28-.17 4.07 4.07 0 0 0-.59 3.17z"/><path fill="#666769" d="M120.5 27.76c0 2.77-2.24.11-2.24.11.21-.02 1.74-2.48 2.24-.11z"/><path fill="#D2D3D5" d="M125.17 24.61c-.77 2.59-2.85-.31-3-.32.36.03 2.92-2.04 3 .32zm-19.45 42.23c-.07.47-2.91.29-3.32-.44-.67-1.18 3.19-1.79 3.32.44z"/><path fill="#7C7E80" d="M38.68 117c0-.5.45-2.07 1.21-1.84.76.23-.2 6.25-.61 6.83-.02-1.05-1.06-3.93-.6-4.99z"/><path fill="#DEDFE0" d="M105.14 4.9v2.28c-.58-.39-4.54.64-3.06-1.49.35-.43 2.34-.1 3.06-.79z"/><path fill="#D9DADC" d="M112.41 55.44l-.87-.13c2.46-6.1 2.52-.31.87.13z"/><path fill="#D0D1D3" d="M97 154.65c-.71 2.25-2.37-.06-2.93-.12.67.07 1.8-2.7 2.93.12z"/><path fill="#C1C3C5" d="M152.29 38.82c2.92.23 0 1.74 0 1.82-.01-.17-2.91-1.2 0-1.82z"/><path fill="#D9DADC" d="M91.16 95.46a3.08 3.08 0 0 1-2.7 0c.72-1.81 2.4-3.23 2.7 0z"/><path fill="#C9CBCD" d="M57.64 48.39c-1 .82-2.48.44-3.29 1.56.49-1.33-1.18-1.26-1.54-2.19 1.85-1.44 3.04 1.68 4.83.63z"/><path fill="#E4E5E6" d="M73.86 7.86c-.62 2.76-1.82-.16-2.1-.19.24.02 2.1-2.73 2.1.19z"/><path fill="#C0C1C4" d="M78.18 26.64c-1 .3-1.66 1.41-2.73 1.14-2-.51 2.48-2.27 2.66-2.31l.07 1.17z"/><path fill="#F2F2F3" d="M96.48 9.16c.74 3.14 2.21-1.25 1.16 3.44-.79-1.67-3.51-1.38-3.16-3.77.52.94 1.19 1.05 2 .33z"/><path fill="#7F8184" d="M118.12 69.47c.52-.85 1.88-.9 1.68-2.19 2.4 2.23-.4 3.78-1.68 2.19z"/><path fill="#8A8C8F" d="M31.66 109a4.48 4.48 0 0 0-3.76-1.1 3.08 3.08 0 0 1 1-2.2c.1 1.12 4.17 3.05 2.76 3.3z"/><path fill="#B2B4B6" d="M109 153.92c1.51-.54 1.11-3.16 3.32-2.14l-1.69 3.22a3.09 3.09 0 0 0-1.63-1.08z"/><path fill="#E1E2E3" d="M138 128.84c-2.64-.39-.16-2.77-.19-3.13.02.59 2.24 2.29.19 3.13z"/><path fill="#E3E4E5" d="M138.29 122.83c-.84.93-3 1-2.26-.73.8-1.95 3.7-1.17 2.26.73z"/><path fill="#333132" d="M73.31 48.44c-1.52 0-.66-1.71-1.7-2.23 1.45.13 3 .26 3.32 2.06l-1.62.17z"/><path fill="#D5D6D8" d="M127.37 141.57l-1.11 2.62c.43-2.48-2.34-2-2.13-3.76 1.38-.31 2.87-.81 3.24 1.14z"/><path fill="#6A6C6E" d="M127.37 141.57a3 3 0 0 0-3.24-1.14c.94-.94 2.52-.41 3.29-1.62-.26 1.55 1 1.44 2 1.62a2.36 2.36 0 0 1-2.05 1.14z"/><path fill="#E1E2E4" d="M134.81 26.88c2.16.5.84 2.16.86 2.21.02.05-3.44-2.22-.86-2.21z"/><path fill="#DCDDDE" d="M75.42 42c2.33 1.62-2.61 1.69-2.13 1.35.48-.34-.08-1.7 2.13-1.35z"/><path fill="#D5D7D8" d="M51 134l.74-1.3a15.92 15.92 0 0 0 2.66 1.51c-.69 0-1.64.9-3.4-.21z"/><path fill="#E2E3E4" d="M112.7 37.44a4.6 4.6 0 0 0-.81 1.57 1.06 1.06 0 0 1-1.65-.14c.08-.04.68-3.25 2.46-1.43z"/><path fill="#848689" d="M21.46 57.44c-.53 1.9-2.61 3.35.44 4.36-2.5 1.84-3.19-3.9-.44-4.36z"/><path fill="#E4E5E6" d="M84.05 26c-.8 2.73-2 0-2.37 0 .19.05 1.92-2.68 2.37 0z"/><path fill="#9EA0A3" d="M134.4 18c-3.06-1.5 2.17-5.67 3.29-2.62-1.33.82-3.33.44-3.29 2.62z"/><path fill="#D7D9DA" d="M132.93 126.71c3.07.4-.14 2.37-.14 2.33 0-.04-2.56-2.39.14-2.33z"/><path fill="#9FA1A3" d="M100.28 155.06c2.32-.22 3.12-1.12 5.46-1.12a1 1 0 0 0 0 1.53c-1.74-.34-3.74.67-5.46-.41z"/><path fill="#CFD0D2" d="M24.67 57.08c1-1.3 2.54-1 3.89-.54-1.92 1.14-2.29 2.38-3.89.54z"/><path fill="#B2B4B6" d="M113.39 13.24c-.07-.41-1.17-5.79 1.2-4.18.55.37-1.15 3.99-1.2 4.18z"/><path fill="#CACCCD" d="M110 108.54c.06 1.41-.55 3.71-2.54 1.6.62-.95 1.04-2.22 2.54-1.6z"/><path fill="#D2D3D5" d="M29 39.5c.08 2.43-2.27.31-2.41.34.55-.09 1.21-2.31 2.41-.34z"/><path fill="#D2D4D5" d="M130.59 35.27c.59-1.66.91-2.65 2.74-2.63.12 1.8-1.04 2.67-2.74 2.63z"/><path fill="#A0A2A5" d="M51.18 19.71c-2.83 3.05-3.84-3.51-1.48-2.6 1.6.61-1.14 2.32 1.48 2.6z"/><path fill="#C8C9CB" d="M63.58 131.19c-1.57.09-3.82 1.51-5.42.45-1.39-.93 4.51-.98 5.42-.45z"/><path fill="#ABADB0" d="M144 120.23c-2.44-.2.1-1.46.12-1.81-.01 0 2.16 1.18-.12 1.81z"/><path fill="#242021" d="M113.8 130.2c0 .63-4.45.2-5.5.41 1.55-1.17 4.43-3.18 5.5-.41z"/><path fill="#F4F4F4" d="M137.69 15.38a1.87 1.87 0 0 1-2.32-1.24c1.28-1.32 3.97.3 2.32 1.24z"/><path fill="#DEDFE0" d="M83.08 101.9c.8-2.91 1.39-.08 1.6 1.16-1.08.44-1.08-.61-1.6-1.16z"/><path fill="#C4C6C8" d="M94.28 108.48l-1.71 1c0-1.09-1.63-1.39-.83-2.61a2.79 2.79 0 0 1 2.54 1.61zM93.87 39l-.08 1.3c-2.38-2.18-1.31-4.54.08-1.3z"/><path fill="#D5D6D8" d="M120.67 23.11c-.52 2.25-2.25-.11-2.44-.11.18 0 2.44-2.1 2.44.11z"/><path fill="#D3D4D6" d="M159.34 120.87c1.52.7-.19 2-.54 1.28a.91.91 0 0 1 .54-1.28z"/><path fill="#CFD0D2" d="M58.68 28.71c.07-2.66 1-1 1.41.15l-1.41-.15z"/><path fill="#353335" d="M90.63 123.52l-.55 1.18c-3.21-.93-3.47-6.1-1.82-8.47 1.91-2.72 4.95-.27 6.56-2.32 3.24 3.29.11 7.5-2.14 9.67-.69-.83-1.24-1.29-1.26-2.42-.15 1.06.13 1.55-.79 2.36z"/><path fill="#515153" d="M107.89 117.17c1.86-2.46 5 6 1.9 7.42-2.09 1-3-1.18-3.43-2.88-.65-2.55.22-2.62 1.53-4.54z"/><path fill="#E9EAEB" d="M110.6 124.15c-.81-1-2.53-10.81.23-7.5 1.24 1.48 2.17 6.82-.23 7.5z"/><path fill="#E2E3E4" d="M94.79 122c-.18-1.28-1.38-4.6-.39-5.46 2.66-2.32 2.08 3.73 2.13 4.1.47 3.2-1.17 5.98-1.74 1.36z"/><path fill="#DFE0E1" d="M102 121.45c.86-1.48-2-8.27 1.16-6.38 1.54.93.74 8.34-1.16 6.38z"/><path fill="#3F3F41" d="M123.18 132.36c.16.93-1.73 6.95-3.44 5.25-1.23-1.22 2.26-4.62 2.35-5.87l1.09.62z"/><path fill="#E1E2E3" d="M113.94 119.92c-.33-3.46 1-3.92 1.3-.45.39 3.8-1.54 4.84-1.3.45z"/><path fill="#E9E9EA" d="M94.82 113.91c.67 2.49-5.1 1.26-6.14 1.59-.61-2.7 4.92-1.61 6.14-1.59z"/><path fill="#C4C6C8" d="M92.18 110l1.28.7c-.78.87-6.44 2.25-6.17.28.29-2.21 3.8.09 4.89-.98z"/><path fill="#F6F7F7" d="M100.35 123.14c-2.51 2.44-1.49-6-1.31-6.75.37.52 1.82 6.36 1.31 6.75z"/><path fill="#E4E5E6" d="M88.68 115.5c.48 1.16.4 3-1.25 3.59-1.68-2-1.19-2.92 1.25-3.59z"/><path fill="#E8E9E9" d="M84 121.92c-.4-.57-1.63-5.84.43-4.47 1.17.75.42 3.72-.43 4.47z"/><path fill="#D2D4D5" d="M87.46 121.12c1.43.79 1.57 2.52 2.62 3.58-3.22.23-3.75-.49-2.62-3.58z"/><path fill="#E4E5E6" d="M105.79 121c3-.79 1.79 2.6 2 2.9-.55-.78-2.98-.2-2-2.9z"/><path fill="#D3D4D6" d="M116.55 109c-2.26 1.37-1.33-1.21 0-2.12 2.39-1.68.01 2.12 0 2.12z"/><path fill="#DADBDC" d="M113.8 130.2c-1.17-1.59-2.75-.47-4.26-.52.92-.89 1.89-1.93 2.75-2.05 1.24-.16 1.58 1.46 3.17.9a3.5 3.5 0 0 0-1.66 1.67z"/><path fill="#AEB0B3" d="M107.89 117.17c-.17 1.34.27 3.57-2 1.33-2.06-1.99 1.48-1.24 2-1.33z"/><path fill="#E7E8E9" d="M100.35 123.14c0-1 2.11-2.17 3.17-1.7.31 2.7-1.39 2.02-3.17 1.7z"/><path fill="#DBDDDE" d="M109.51 116l-.57 1.15c-2.42-2.54-2.35-4.78.57-1.15z"/><path fill="#F3F3F4" d="M92.09 121.48c2.63 1.45-.77 2.06-1.46 2 .01-.17-.06-3.58 1.46-2z"/><path fill="#F5F5F6" d="M56 31.54c1.58 4.64-9.34 10.25-8.93 2.14.18-3.69.71-1.9 2.53-1 1.09.53.84 1.7 2.34 1.84.99.07 3.24-2.52 4.06-2.98z"/><path fill="#8E9093" d="M52.73 36.94a7.42 7.42 0 0 1 3.81-3.73c1.46 4.09-1.29 2.49-3.81 3.73z"/><path fill="#C0C2C4" d="M42.64 44.43c-3.13 1.83-3.17-.92-3.9-2.65 1.99-.14 3.08 1.06 3.9 2.65z"/><path fill="#E1E2E4" d="M39.34 32.84l.49-1.84c-.18 1.87 3.06 1 1.85 4.44-1.04-.57-1-2.44-2.34-2.6z"/><path fill="#B2B4B7" d="M46.15 38.33c-.36 1.64-1.64.22-2.07.21-.83-.01 2.09-3.24 2.07-.21z"/><path fill="#DCDDDF" d="M58.18 122.51c-2.41.09-3.52-1.48-3.36-4 .07-1.14 1.31-5.41 2.44-5.72 4.97-1.34 5.56 10.64.92 9.72z"/><path fill="#525254" d="M59.64 115.22c-.66-2.4-3-1.86-2.67-5.32.2-1.93-.19-3.27 2-2.79 4.2.94 2.96 9.8.67 8.11z"/><path fill="#333133" d="M51.16 115c-1.76-1.83-.92-3.8.49-5.46 1.36 1.34 5.29 5 2.49 7-1.69 1.26-3.14.13-2.98-1.54z"/><path fill="#DBDCDE" d="M66.71 125.76c-.92.38-10.25 4.37-6.52-.34 1.66-2.09 4.81-.79 6.52.34z"/><path fill="#E5E6E7" d="M67.73 121.92c-1.84 0-.82-2.23-2.57-2.23-2.88 0 .16 2.72.7 3.33-1.46 2-5.72-1.88-4.66-3.9 2.14-4.07 8.42-2.65 6.53 2.8z"/><path fill="#ECEDEE" d="M64 108.46c2-.51 7.54 3.83 5.4 5.05-2.46 1.43-6.03-2.84-5.4-5.05z"/><path fill="#5A5B5D" d="M73.29 108c1.33-.31 2.55-1.49 3.94-1.12 2.42.64 1.14 2.86-.16 3.71-1.32-2.47-1.15 0-2.1.63a9 9 0 0 0-1.68-3.22z"/><path fill="#F6F7F7" d="M60.83 120.35c3.14.24 1.48 1.92-.26 2.52-4.18 1.43-1.36-3.19.26-2.52z"/><path fill="#3B3B3C" d="M64 108.46c0 2 6.4 5.48 2.67 6.09-3.99.65-3.67-3.95-2.67-6.09z"/><path fill="#E9EAEB" d="M61.31 111.12c-1-1.42-2.06-2.85-3.1-4.27 4.79-1.2 3.92 4.7 3.1 4.27z"/><path fill="#4F5052" d="M67.73 121.92c.69-2.08-2.91-6.59-1-7.16 3.5-1.07 2.13 5.7 1 7.16z"/><path fill="#666769" d="M58.12 111.6c-1.25 4-5.27.49-2.22-3.73 1.49.71 1.6 2.43 2.22 3.73z"/><path fill="#39383A" d="M51.16 115c.09 2.84 2.82-.29 3.62 1.4 1.2 2.55-.39 2.91-2.66 2.84 1.5-2.38-2.94-2.24-.96-4.24z"/><path fill="#8F9194" d="M53.75 119.29a1.62 1.62 0 0 0 .53-2.66c.94-1 2.52 3 2.35 3.8-.74 3.47-2.44.57-2.88-1.14z"/><path fill="#F0F1F1" d="M63.3 123a2.31 2.31 0 0 1 3.41 2.73c-1.06.17-3.42-1.52-3.41-2.73z"/><path fill="#E5E6E7" d="M58.12 111.6c-.11-.31-4.64-5.94-.52-4.76a15 15 0 0 1 .52 4.76z"/><path fill="#FDFDFD" d="M61.31 111.12a5.36 5.36 0 0 1 1.75-.68c.37 5.16-3.82 3.33-1.75.68z"/><path fill="#E9EAEB" d="M62.93 104.24c1.77-1.47 2.83-.65 3.33 1-.72.48-4.26.59-3.33-1z"/><path fill="#76787B" d="M62.93 104.24l.2.89c-1.82-.2-3.19-1.62-5.05-1.64 1.8-.67-.2-1.69 2.2-1a24.24 24.24 0 0 1 2.65 1.75z"/><path fill="#6E7072" d="M66.79 106.38c2.58.6 2-2.3 4.35.44-1.48 1.41-2.98.45-4.35-.44z"/><path fill="#CACCCE" d="M56.57 123c1.07 1.56 2.78 2.46 1.07 4.45-.24-.45-2.37-3.79-1.07-4.45z"/><path fill="#AAACAE" d="M69 116.26c-.76-.81-3.43-1.38-3.23-2.46.83.33 1.42.16 1.76-.53.52-1 1.34-.94 2.48 0-1.6.61.31 2.26-1.01 2.99z"/><path fill="#EAEBEC" d="M56.57 123l-.47 1.07c-3.3-2.81.45-2.87.47-1.07z"/><path fill="#B6B8BA" d="M45.74 116.6c-2.4-2.16-1.69-9.38-.66-12 .73.19 1.57 2.74 1.78 3.27.88 2.27.44 2.93.34 5.27 0 .38 1 4.14.34 4.48-.99.53-1.88.38-1.8-1.02z"/><path fill="#3B3A3B" d="M47.25 100.66c1.62-2.08 3.31-3.09 5.67-1.15-2.33.81-5.79 4.71-5.67 1.15z"/><path fill="#4A4A4C" d="M45.74 116.6c.9 2 1.66 1.74 1 4.84-2.41-.68-3.07-2.79-1-4.84z"/><path fill="#EAEBEC" d="M47.54 117.62c-.28-2.11-2.59-4.73.29-6a8.78 8.78 0 0 1-.29 6z"/><path fill="#5E5F62" d="M47.25 100.66c.32.84 0 7.77-1.56 6-1.79-1.97 1.24-4.01 1.56-6z"/><path fill="#7F8184" d="M45.23 105.73c1.53 1.07 2.63 3 .74 4.68a15.79 15.79 0 0 1-.74-4.68z"/><path fill="#BDBEC1" d="M144.94 86.72c-.71 2.19-3.29.47-3.57-1-.28-1.47 3.37-.41 3.57 1z"/><path fill="#302E2F" d="M158.72 60.29c2.25 1.4 2.24 2.27 0 4-2.05-1.39-.42-2.69 0-4z"/><path fill="#CED0D2" d="M61 82c3.93-.37 1.56 4 2.44 5.4-.9-.76-2.98-5.4-2.44-5.4z"/><path fill="#464647" d="M66.83 91.14c-.45.27-3.41 2.66-3.94 1.64-.53-1.02 3.71-4.43 3.94-1.64z"/><path fill="#B1B3B6" d="M57.06 83c-.08 1-.43 2 1 2-2.12 2.93-4.48-2.1-1-2z"/><path fill="#9D9FA2" d="M92.28 65.16c.58-1.55.43-2.77 2.18-2.64-2.2 3.09 9.54 4.55 4.74 6.48-.63.25-3.84-.84-4.42-1.08-1.1-.48-4.32-.25-2.5-2.76z"/><path fill="#393839" d="M93.86 44c1.88-.82 4-.69 2.18 1.91-1.64 2.37-3.54.41-2.18-1.91z"/><path fill="#2C2A2B" d="M142.49 102.44l-1-1c3.11-3.22 13.89-1.51 12.1 4.11-.74 2.33-2.55-2-3.49-2.63-2.37-1.7-4.91-1.15-7.61-.48z"/><path fill="#282526" d="M153.26 124.05c-3.11.72-3.17-9.12-1.88-10.73 3.05-3.82 2.42 8.94 1.88 10.73z"/><path fill="#999C9E" d="M153.85 114.39l-1.52-1.67a7 7 0 0 0-1.07 2.31c.08-1.41-1.77-5.93.93-5.78 1.05.06 1.64 3.75 1.66 5.14z"/><path fill="#414143" d="M151 127.74c-1.62-.41-1.79-2.67-2.5-3.84 2.5 1.39 4.8.24 2.5 3.84z"/><path fill="#59595C" d="M153.29 109.53c-3.82 1.74-.53-2.28-1-3.8a2.71 2.71 0 0 1 1 3.8z"/><path fill="#4E4E50" d="M27.31 93.24c3.21.07.35 2.34.38 2.53-.09-.77-3.69-1.38-.38-2.53z"/><path fill="#4C4C4E" d="M25.86 97.44c2.38-.18 0 2.39 0 3 .04-.79-2.35-1.08 0-3z"/><path fill="#8B8D90" d="M30.64 87.88l.49-.85c2.18 1.41.46 3.22.06 5-.19-1.39-.37-2.77-.55-4.15z"/><path fill="#4E4E50" d="M29.17 90.77c-.71 2.34-2.11 0-2.41 0 .09.03 2.02-2.59 2.41 0z"/><path fill="#242122" d="M58.7 49.86c3.58-2.89 12.28-1 16 .51 1.94.8 5.77 2.76 6.47 4.9.86 2.68-.34 2.78-3.52 4.14a45.38 45.38 0 0 1-9.08 3c-1.84.34-9.71.77-10.82-1.23-1.9-3.42 4-2.4 5.22-2.39 2.65 0 5.34-1.27 8-.76-3.41.36-3.73-5.61-6.78-6.18-2.38-.45-2.77 1.31-4.19 2.64-1.78 1.67-1.71 1.63-4.14 2.41-1.56.49-5.29 3.08-5.63-.75C50 54 57 49.9 58.7 49.86z"/><path fill="#F8F8F8" d="M68.5 59.32c-1.45 1.59-12.77-.14-9.56 2.49-2-.1-9.06-5.37-4.9-6.68 1-.31 2.6.83 3.28.57 1.1-.42 1-1.84 1.82-2.49.82-.65 6.13-5.56 5.3-.54 1.29-3.31 6.84 3.73 4.06 6.65z"/><path fill="#424143" d="M53.3 57.57c1.43.82 2.87.25 3.8 1.76.46.74-3.79 1.25-3.8-1.76z"/><path fill="#3E3E3F" d="M99.76 68.4c1.36-2.59 1.64.57 3.27 1-4.55.67 1.68 3 1.89 3.34-.76 1.29-7.8 1.33-8.79.42-2.92-2.64 2.12-3.42 3.63-4.76z"/><path fill="#242122" d="M135.46 48.78c3 .69 12.89 3.57 13.67 7.31.78 3.74-8.1 6.5-11 7.16-1.93.44-11.95.87-8-3 .89-.89 4.26-.65 5.53-1.08 2.44-.81 4.12-2.12 6.87-2.11-2.55.2-3.72-1.76-5.9-2s-7.71 3-9.38 1c-.83-1-.17-3.89.35-4.9 1-1.88 0-1.55 2.18-2.37 1.49-.53 4.02.34 5.68-.01z"/><path fill="#272424" d="M127.85 49.32c1.51 4.47-4.71 5.06-1.66 8.41 1.18 1.3 3.33.69 4.09 2.29 1.37 2.91-2.67 2.25-3.91 2.13-2.13-.21-9.76-4.46-9.25-6.4.6-2.28 8.57-5.7 10.73-6.43z"/><path fill="#95979A" d="M165.67 91.65c.53-1.62-1.55-1.82-1.58-3.24 2.1-.1 1-.62 2.21.4a18.76 18.76 0 0 0 1.63 2.84c-.76.99-1.51.99-2.26 0z"/><path fill="#312F30" d="M34.4 116.61c-2.36 1.66-4.3-1.47-2.76-3.12 2.85-3.06 3.03 1.24 2.76 3.12z"/><path fill="#A9ABAD" d="M37.3 101.83l-2.11 1.69c.88-1.73-.64-3.74.87-5.31.92.54 2.67.75 2.71 1.56.07 1.15-1.45.91-1.47 2.06z"/><path fill="#B4B6B8" d="M164.25 116.5c-3.71.19-2.61-6.07-.16-6.32 3.49-.34 2.91 5.2.16 6.32z"/><path fill="#57585A" d="M165.77 111.14c-1.68 2-3.11-1.71-3.42-2.59 1.2-1.55 3.13 1.97 3.42 2.59z"/><path fill="#231F20" d="M161.37 103c1-1-1.53-.81.54-1.61.16-.06 2.48 2.87.35 2.85a2.28 2.28 0 0 1-.89-1.24z"/><path fill="#323132" d="M163.19 108.41c-1.59.26-1.63.26-1.71-1.51 1.1-.27 1.52.75 1.71 1.51z"/><path fill="#E6E7E7" d="M79.75 96.12l-2.85 3.75c-.07-2.77.6-4.02 2.85-3.75z"/><path fill="#3B3A3B" d="M80.84 100.8c-1.93 1.94-1.84-.09-.38-1.58.24-.25 1.49-1 1.59 0 .14 1.18-.56.53-1.21 1.58z"/><path fill="#4E4F51" d="M113.64 100.35c-2.28 0-3.58-3.42-1.17-4.54s3.72 4.59 1.17 4.54z"/><path fill="#312F30" d="M116 98.69c-1-1 1.38-2.73 2.11-2.51 2.45.74-.73 2.89-2.11 2.51z"/><path fill="#EBECEC" d="M99.76 68.4c.24 2.6-5.3 2.6-3.63 4.8a2.62 2.62 0 0 1-2-4.19c1.32-1.66 3.87-.54 5.63-.61z"/><path fill="#D7D8DA" d="M92.28 65.16c-.27 1.85 3.87 2.93.57 4.78-1.32-1.85-3.43-3.14-.57-4.78z"/><path fill="#9B9DA0" d="M92.85 69.94c-.4-3.54 3.67-2.84 5.4-1.48-1.46.23-4.65 2.48-5.4 1.48z"/><path fill="#373638" d="M133.18 89l-1 .55c-2.63-5.8 1.41-4.27 1-.55z"/><path fill="#D8D9DB" d="M38.68 117a4.13 4.13 0 0 1 .55 2.81 2.57 2.57 0 0 0-2.59.58c.08-1.39.42-2.94 2.04-3.39z"/><path fill="#343334" d="M138.29 122.83a13.09 13.09 0 0 1-.08-3.48 7.32 7.32 0 0 0-2.06-1.86c.12-1.28-.8-2.18 1.38-2 3 .18 4.35 6.24 2.28 8.11a1.3 1.3 0 0 1-1.52-.77z"/><path fill="#3B3B3C" d="M164.25 116.5c.3-1.45.65-3 2.57-2.65-1 1.56.22 3.5-1.08 5-1.21-.35-.74-1.69-1.49-2.35z"/><path fill="#D4D5D7" d="M111.72 96.55c-.66 1.69 1.76 2.14 1.49 3.73-3.16 0-3.94-.21-4.27-3.74a7.64 7.64 0 0 1 2.78.01z"/><path fill="#363536" d="M139.34 116l-1.81-.56c1.32-.78.39-3 2.27-3.23a8.71 8.71 0 0 1-.46 3.79z"/><path fill="#D4D5D7" d="M92.09 121.48c-2.2 0-2.58-4.34-1.2-4.42 2.4-.15 1.44 3.3 1.2 4.42z"/><path fill="#3F3E40" d="M61.41 114a3.67 3.67 0 0 0 1.75-2.27c5.52 2.78 0 7.83-3.92 9.2.14-1.31 1.39-2.7 1.73-3.87.34-1.17-.28-1.81.44-3.06z"/><path fill="#A1A3A5" d="M52.81 112.75c2.53.76 2.16-.86 2-2.58 1.37 1.2 2.73 3.6 1.62 5.25-2.58 3.81-2.53-1.73-3.62-2.67z"/><path fill="#6E6F72" d="M55.35 116.53A2.48 2.48 0 0 1 57 114c1.24 2.13-1.36 4-1.65 2.53z"/><path fill="#F4F4F5" d="M63.56 118.15c1.59-4.2-1-6.6 3.69-3.32-1.38.67-.91 5.81-3.69 3.32z"/><path fill="#323031" d="M98.08 68.3c-1.28-.13-2.88.92-3.68-1 1.43-.41 3.11-1.77 3.68 1z"/><path fill="#E3E4E5" d="M68.5 59.32l1.11-3c2.19 2 3.69-4.19 4.63-.75 1.05 3.75-3.83 3.18-5.74 3.75z"/><path fill="#292627" d="M66.78 51.84c-3.9-1.27-.06 3.28-.41 4.25-2.28-1.43-2.49-2.94-2.53-5.53a5.66 5.66 0 0 1 2.94 1.28z"/><path fill="#F8F8F8" d="M130.06 60.77c-.17-2.72-1.57-7.19 2.92-8 .32-.06 1 1.91 1.35 1.85.35-.06 1-1 1.14-1 .81 0 .65-1.6 2.07-1.28 1 .22 1.26 2.31 2.07 2.74.81.43 9-.91 5.83 2.46-1.4 1.48-4.94 1-6.85 1.65-3.11 1.03-5.08 2.81-8.53 1.58z"/><path fill="#F2F3F3" d="M128.54 59.74c-2 .28-5.59-2.27-5-4.5.14-.55 4.27-3.94 4.92-4.2 1.82 2.4-1.64 2.78-1.34 5 .15 1.23 3.81 2.06 1.42 3.7z"/><path fill="#87898B" d="M128 57.93c-.84-1.52-4.11-1.38-.7-3.16.23 1.32 1.38 1 2.31 1.2-.2 1.34-.4 1.54-1.61 1.96z"/><path fill="#595A5D" d="M128 57.93c1.07-2.94 2.14 1.23 2 2.34-2.89-1.05-.11-1.14-2-2.34z"/></g></svg>