<svg xmlns="http://www.w3.org/2000/svg" viewBox="0 0 13 50"><title>icon-scroll-down</title><rect x="5" y="15" width="3" height="6" fill="#fff"/><path d="M6.5,11A6.5,6.5,0,0,0,0,17.5v12a6.5,6.5,0,0,0,13,0v-12A6.5,6.5,0,0,0,6.5,11ZM12,29.5a5.5,5.5,0,0,1-11,0v-12a5.5,5.5,0,0,1,11,0Z" fill="#fff"/><path d="M7,11H6.06V8.25a3.42,3.42,0,0,0-1.7-3.52A5.15,5.15,0,0,1,2,0h.78a4.37,4.37,0,0,0,2,4.07A4.61,4.61,0,0,1,7,8.25Z" fill="#fff"/><path d="M6.5,43.26,12,41,6.5,50,1,41Z" fill="#fff"/><path d="M6.5,40,12,38v.88L6.5,41,1,38.88V38Z" fill="#fff"/></svg>