<svg xmlns="http://www.w3.org/2000/svg" viewBox="0 0 28.22 28.22"><title>icon-md-mail</title><path d="M23.14,9.75a.93.93,0,0,0-.92-.93h0L6,8.85a.92.92,0,0,0-.92.92v9.12a.92.92,0,0,0,.93.93H6l16.22,0a.93.93,0,0,0,.93-.92Zm-1.94,0-7.09,4.93L7,9.77Zm-4.09,5.86,4.2,3.26-14.41,0,4.23-3.28a.46.46,0,1,0-.57-.73L6,18.41l0-8.22,7.86,5.43a.43.43,0,0,0,.26.09.44.44,0,0,0,.27-.09l7.84-5.45v8.24l-4.55-3.53a.46.46,0,0,0-.57.73Z" fill="#fff"/><path d="M14.11,28.22A14.11,14.11,0,1,1,28.22,14.11,14.13,14.13,0,0,1,14.11,28.22Zm0-27A12.88,12.88,0,1,0,27,14.11,12.88,12.88,0,0,0,14.11,1.24Z" fill="#fff"/></svg>