<svg xmlns="http://www.w3.org/2000/svg" viewBox="0 0 19 19"><title>icon-sm-phone</title><path d="M14.56,12.55l-2-2a.63.63,0,0,0-.88,0l-.52.53a.59.59,0,0,0-.16.6l-.2.2h0c-.14.14-1-.07-2.07-1.13S7.45,8.8,7.59,8.65h0l.19-.19.18,0a.61.61,0,0,0,.43-.18l.53-.52a.63.63,0,0,0,0-.88l-2-2a.61.61,0,0,0-.44-.19A.59.59,0,0,0,6,4.89l-.53.52A.63.63,0,0,0,5.35,6l-.18.18A2.76,2.76,0,0,0,4.88,9a8.64,8.64,0,0,0,2.2,3.41,8.64,8.64,0,0,0,3.41,2.2,4.09,4.09,0,0,0,1.27.22,2.15,2.15,0,0,0,1.56-.58l.11-.11a.51.51,0,0,0,.17,0A.65.65,0,0,0,14,14l.52-.53A.62.62,0,0,0,14.56,12.55ZM6.46,5.32l2,2L8,7.86H8l-1-1-1-1Zm6.42,8.46h0a2.17,2.17,0,0,1-2.21.2,8.23,8.23,0,0,1-3.16-2,8.23,8.23,0,0,1-2-3.16,2.19,2.19,0,0,1,.2-2.22h0l.06,0L7.29,8.07l-.14.15h0c-.59.59.12,1.93,1.13,2.94a4.08,4.08,0,0,0,2.38,1.35.78.78,0,0,0,.57-.21h0l.14-.15,1.57,1.57Zm.72-.27-2-2,.53-.52,2,2Z" fill="#c4a56e"/><path d="M12.48,7a3.09,3.09,0,0,0-2.2-.91.31.31,0,0,0,0,.62,2.49,2.49,0,0,1,2.49,2.49.31.31,0,0,0,.62,0A3.13,3.13,0,0,0,12.48,7Z" fill="#c4a56e"/><path d="M13.58,5.86a4.64,4.64,0,0,0-3.3-1.37.31.31,0,1,0,0,.62A4,4,0,0,1,13.15,6.3a4.07,4.07,0,0,1,1.19,2.87.31.31,0,1,0,.61,0A4.64,4.64,0,0,0,13.58,5.86Z" fill="#c4a56e"/><path d="M11.37,8.08a1.5,1.5,0,0,0-1.09-.45h0a.31.31,0,0,0-.31.31.3.3,0,0,0,.31.3h0a.9.9,0,0,1,.65.28.88.88,0,0,1,.27.65.31.31,0,0,0,.31.31h0a.31.31,0,0,0,.31-.31A1.48,1.48,0,0,0,11.37,8.08Z" fill="#c4a56e"/><path d="M9.5,19A9.5,9.5,0,1,1,19,9.5,9.51,9.51,0,0,1,9.5,19ZM9.5.83A8.67,8.67,0,1,0,18.17,9.5,8.68,8.68,0,0,0,9.5.83Z" fill="#c4a56e"/></svg>