<svg xmlns="http://www.w3.org/2000/svg" width="20" height="20" viewBox="0 0 20 20">
  <g fill="none" fill-rule="evenodd">
    <g fill-rule="nonzero" transform="translate(4 2)">
      <path fill="#C9CCD0" d="M6,0 L12,6 L12,15 C12,15.5522847 11.5522847,16 11,16 L1,16 C0.44771525,16 0,15.5522847 0,15 L0,1 C0,0.44771525 0.44771525,0 1,0 L6,0 Z"/>
      <polygon fill="#FFF" points="5.586 1 1 1 1 15 11 15 11 6.414"/>
      <polygon fill="#C9CCD0" points="7 0 12 5 12 6 6 6 6 0"/>
      <polygon fill="#FFF" points="7 5 10.586 5 7 1.414"/>
    </g>
    <polygon fill="#C4A56E" points="13 14 13 16 12 16 12 11 14 11 14 12 13 12 13 13 14 13 14 14"/>
    <path fill="#C4A56E" d="M7 13L7.5 13C7.77614237 13 8 12.7761424 8 12.5 8 12.2238576 7.77614237 12 7.5 12L7 12 7 13zM6 12L6 11 7.5 11C8.32842712 11 9 11.6715729 9 12.5 9 13.3284271 8.32842712 14 7.5 14L7 14 7 16 6 16 6 12zM10 12L10 15C10.5522847 15 11 14.5522847 11 14L11 13C11 12.4477153 10.5522847 12 10 12zM10 11C11.1045695 11 12 11.8954305 12 13L12 14C12 15.1045695 11.1045695 16 10 16L9 16 9 11 10 11z"/>
  </g>
</svg>
