<svg xmlns="http://www.w3.org/2000/svg" viewBox="0 0 28.22 28.22"><title>icon-md-facebook</title><path d="M10.07,15.68h1.79V23a.26.26,0,0,0,.26.26h3A.26.26,0,0,0,15.4,23v-7.3h2a.27.27,0,0,0,.26-.23l.31-2.7a.27.27,0,0,0-.26-.29H15.4V10.8c0-.51.27-.77.82-.77h1.54A.27.27,0,0,0,18,9.76V7.29A.26.26,0,0,0,17.76,7H15.54a4.12,4.12,0,0,0-2.67,1,2.81,2.81,0,0,0-.93,2.48v2H10.07a.26.26,0,0,0-.26.26v2.66A.27.27,0,0,0,10.07,15.68Z" fill="#fff"/><path d="M14.11,28.22A14.11,14.11,0,1,1,28.22,14.11,14.13,14.13,0,0,1,14.11,28.22Zm0-27A12.88,12.88,0,1,0,27,14.11,12.88,12.88,0,0,0,14.11,1.24Z" fill="#fff"/></svg>