<svg xmlns="http://www.w3.org/2000/svg" viewBox="0 0 28.22 28.22"><title>icon-md-phone</title><path d="M21.3,19.33l-3.05-3a.94.94,0,0,0-1.32,0l-.79.79a.94.94,0,0,0-.24.92l-.3.3h0c-.21.22-1.53-.11-3.13-1.71s-1.93-2.92-1.71-3.13h0l.3-.3a1.09,1.09,0,0,0,.26,0,.92.92,0,0,0,.65-.27l.8-.79a.94.94,0,0,0,0-1.32l-3-3.05a.94.94,0,0,0-1.32,0l-.79.79a.94.94,0,0,0-.24.92l-.26.27c-.85.94-1,2.42-.45,4.18A13.23,13.23,0,0,0,10,19.06a13.23,13.23,0,0,0,5.15,3.33,6.41,6.41,0,0,0,1.93.33,3.24,3.24,0,0,0,2.35-.87l.17-.17a1.09,1.09,0,0,0,.26,0,.92.92,0,0,0,.66-.28l.79-.79A.94.94,0,0,0,21.3,19.33ZM9.06,8.41l3,3.05-.79.79h0L9.79,10.73,8.27,9.2Zm9.7,12.78h0c-.67.67-1.86.78-3.34.31a12.32,12.32,0,0,1-4.77-3.1,12.32,12.32,0,0,1-3.1-4.77c-.47-1.48-.36-2.67.31-3.34h0L8,10.2l2.36,2.37-.21.22h0c-.9.9.18,2.92,1.71,4.45a6.16,6.16,0,0,0,3.59,2,1.15,1.15,0,0,0,.86-.33h0l.22-.21,2.37,2.36Zm1.09-.41L16.8,17.73l.79-.79,3.05,3Z" fill="#fff"/><path d="M18.15,10.9a4.71,4.71,0,0,0-3.33-1.37.47.47,0,0,0,0,.93,3.76,3.76,0,0,1,3.77,3.76.47.47,0,1,0,.93,0A4.7,4.7,0,0,0,18.15,10.9Z" fill="#fff"/><path d="M19.82,9.23a7,7,0,0,0-5-2.07.47.47,0,0,0,0,.93A6.15,6.15,0,0,1,21,14.23a.47.47,0,0,0,.93,0A7,7,0,0,0,19.82,9.23Z" fill="#fff"/><path d="M16.47,12.58a2.26,2.26,0,0,0-1.65-.69h0a.47.47,0,0,0,0,.94h0a1.31,1.31,0,0,1,1,.41,1.34,1.34,0,0,1,.41,1,.47.47,0,0,0,.47.47h0a.47.47,0,0,0,.47-.47A2.25,2.25,0,0,0,16.47,12.58Z" fill="#fff"/><path d="M14.11,28.22A14.11,14.11,0,1,1,28.22,14.11,14.13,14.13,0,0,1,14.11,28.22Zm0-27A12.88,12.88,0,1,0,27,14.11,12.88,12.88,0,0,0,14.11,1.24Z" fill="#fff"/></svg>