<svg xmlns="http://www.w3.org/2000/svg" viewBox="0 0 19 19"><title>icon-sm-email</title><path d="M15.55,6.21a.61.61,0,0,0-.61-.61H4.2a.6.6,0,0,0-.43.18.64.64,0,0,0-.18.43v6a.61.61,0,0,0,.61.61h0l10.74,0a.61.61,0,0,0,.61-.61Zm-1.28,0L9.58,9.47,4.88,6.22Zm-2.71,3.88,2.78,2.15-9.54,0,2.8-2.17a.32.32,0,0,0,.06-.44.31.31,0,0,0-.43-.05l-3,2.34V6.5L9.4,10.1a.41.41,0,0,0,.18.05.27.27,0,0,0,.17-.06l5.19-3.6v5.45l-3-2.34a.31.31,0,0,0-.38.49Z" fill="#c4a56e"/><path d="M9.5,19A9.5,9.5,0,1,1,19,9.5,9.51,9.51,0,0,1,9.5,19ZM9.5.83A8.67,8.67,0,1,0,18.17,9.5,8.68,8.68,0,0,0,9.5.83Z" fill="#c4a56e"/></svg>